<svg width="355" height="304" viewBox="0 0 355 304" fill="none" xmlns="http://www.w3.org/2000/svg">
<path d="M315.206 205.44H292.502V204.494H315.206C317.876 204.438 320.484 203.678 322.766 202.289C325.047 200.9 326.92 198.932 328.195 196.585L329.027 197.039C327.671 199.535 325.677 201.628 323.249 203.103C320.822 204.579 318.046 205.385 315.206 205.44Z" fill="#407BFF"/>
<path d="M288.008 204.493H278.709V205.439H288.008V204.493Z" fill="#407BFF"/>
<path d="M315.206 202.128H49.5695C48.1131 202.156 46.6673 201.875 45.3283 201.301C43.9893 200.727 42.7877 199.875 41.8033 198.802C40.819 197.728 40.0745 196.457 39.6194 195.073C39.1642 193.689 39.0088 192.225 39.1635 190.776L53.5143 26.1721C53.8352 23.1088 55.2604 20.2672 57.5236 18.1781C59.7868 16.0889 62.7332 14.8953 65.8123 14.8201H331.449C332.905 14.7933 334.35 15.0762 335.688 15.6503C337.027 16.2244 338.228 17.0764 339.212 18.1498C340.196 19.2233 340.94 20.4937 341.396 21.8767C341.852 23.2598 342.008 24.724 341.855 26.1721L327.589 190.776C327.267 193.854 325.829 196.707 323.548 198.798C321.267 200.889 318.3 202.073 315.206 202.128Z" fill="#407BFF"/>
<path d="M309.672 198.675H50.6574C49.4172 198.694 48.1874 198.448 47.0495 197.954C45.9117 197.461 44.892 196.731 44.058 195.813C43.2241 194.895 42.5951 193.81 42.2127 192.63C41.8304 191.45 41.7036 190.202 41.8406 188.969L54.9144 39.0189C54.9925 38.2674 55.3422 37.5702 55.8978 37.0582C56.4534 36.5461 57.1767 36.2544 57.9321 36.2377H330.73C331.086 36.2315 331.439 36.3012 331.766 36.4422C332.093 36.5832 332.386 36.7922 332.626 37.0554C332.866 37.3185 333.047 37.6297 333.157 37.9683C333.268 38.3069 333.304 38.665 333.265 39.0189L320.182 188.969C319.917 191.591 318.702 194.026 316.766 195.814C314.83 197.602 312.307 198.619 309.672 198.675Z" fill="white"/>
<path d="M83.6731 28.7741C81.8862 28.8046 80.1133 28.4546 78.472 27.7474C76.8307 27.0402 75.3587 25.992 74.1535 24.6724C72.9484 23.3527 72.0377 21.7918 71.482 20.0932C70.9264 18.3947 70.7383 16.5974 70.9304 14.8206C71.3193 11.0496 73.0721 7.55055 75.8593 4.98105C78.6466 2.41154 82.2764 0.948555 86.0664 0.867088C87.853 0.836434 89.6256 1.18636 91.2664 1.89363C92.9073 2.60089 94.3788 3.64928 95.5832 4.96913C96.7877 6.28898 97.6974 7.85006 98.2519 9.54862C98.8065 11.2472 98.9932 13.0443 98.7996 14.8206H93.1236C93.2379 13.7658 93.1264 12.6987 92.7963 11.6903C92.4662 10.682 91.9252 9.75544 91.2093 8.97239C90.4934 8.18933 89.6189 7.5677 88.6441 7.14884C87.6693 6.72997 86.6164 6.52348 85.5556 6.54309C83.3024 6.5844 81.1423 7.44919 79.4831 8.97419C77.8239 10.4992 76.7804 12.5789 76.5497 14.8206C76.4353 15.8754 76.5469 16.9425 76.877 17.9508C77.2071 18.9592 77.748 19.8857 78.464 20.6688C79.1799 21.4518 80.0544 22.0735 81.0292 22.4923C82.004 22.9112 83.0569 23.1177 84.1177 23.0981L83.6731 28.7741Z" fill="#263238"/>
<path d="M139.818 28.7741C138.028 28.81 136.251 28.4641 134.605 27.7593C132.96 27.0545 131.483 26.0071 130.273 24.6868C129.064 23.3665 128.15 21.8037 127.592 20.1025C127.034 18.4012 126.845 16.6006 127.038 14.8206C127.427 11.0496 129.18 7.55056 131.967 4.98105C134.754 2.41154 138.384 0.948555 142.174 0.867088C143.96 0.836434 145.733 1.18636 147.374 1.89363C149.015 2.60089 150.486 3.64928 151.691 4.96913C152.895 6.28898 153.805 7.85006 154.359 9.54862C154.914 11.2472 155.101 13.0443 154.907 14.8206H149.231C149.345 13.7658 149.234 12.6987 148.904 11.6903C148.574 10.682 148.033 9.75544 147.317 8.97239C146.601 8.18934 145.726 7.5677 144.752 7.14884C143.777 6.72997 142.724 6.52348 141.663 6.54309C139.41 6.5844 137.25 7.44919 135.591 8.97419C133.931 10.4992 132.888 12.5789 132.657 14.8206C132.544 15.8751 132.657 16.9416 132.988 17.9492C133.318 18.9569 133.859 19.8828 134.575 20.6655C135.291 21.4482 136.164 22.0699 137.139 22.4893C138.113 22.9086 139.165 23.1162 140.225 23.0981L139.818 28.7741Z" fill="#263238"/>
<path d="M195.962 28.7741C194.176 28.8032 192.404 28.4522 190.764 27.7445C189.124 27.0367 187.653 25.9883 186.449 24.6688C185.245 23.3493 184.335 21.7888 183.78 20.0909C183.225 18.3931 183.037 16.5966 183.229 14.8206C183.614 11.0481 185.366 7.54668 188.154 4.97639C190.942 2.4061 194.574 0.944501 198.365 0.867088C200.152 0.836434 201.924 1.18636 203.565 1.89363C205.206 2.60089 206.678 3.64928 207.882 4.96913C209.086 6.28898 209.996 7.85006 210.551 9.54862C211.105 11.2472 211.292 13.0443 211.098 14.8206H205.422C205.538 13.7655 205.428 12.6977 205.098 11.6887C204.769 10.6797 204.228 9.7525 203.512 8.9691C202.795 8.18571 201.92 7.56409 200.945 7.14574C199.969 6.72739 198.916 6.52194 197.854 6.54309C195.602 6.58465 193.443 7.44977 191.786 8.97494C190.128 10.5001 189.087 12.5797 188.858 14.8206C188.744 15.8754 188.855 16.9425 189.185 17.9508C189.515 18.9592 190.056 19.8857 190.772 20.6688C191.488 21.4518 192.363 22.0735 193.337 22.4923C194.312 22.9112 195.365 23.1177 196.426 23.0981L195.962 28.7741Z" fill="#263238"/>
<path d="M252.107 28.7741C250.321 28.8032 248.549 28.4522 246.909 27.7444C245.269 27.0367 243.798 25.9883 242.594 24.6688C241.39 23.3493 240.48 21.7888 239.925 20.0909C239.37 18.393 239.182 16.5965 239.374 14.8206C239.761 11.0488 241.513 7.5486 244.301 4.9787C247.088 2.4088 250.719 0.94651 254.51 0.867068C256.297 0.836585 258.07 1.18654 259.711 1.89372C261.352 2.6009 262.824 3.64911 264.029 4.96877C265.234 6.28843 266.145 7.84935 266.701 9.54791C267.257 11.2465 267.445 13.0438 267.252 14.8206H261.576C261.691 13.7657 261.579 12.6987 261.249 11.6903C260.919 10.6819 260.378 9.75542 259.662 8.97237C258.946 8.18932 258.072 7.56768 257.097 7.14882C256.122 6.72995 255.069 6.52346 254.008 6.54307C251.756 6.58463 249.597 7.44975 247.94 8.97492C246.282 10.5001 245.241 12.5797 245.012 14.8206C244.898 15.8754 245.009 16.9425 245.339 17.9508C245.669 18.9592 246.21 19.8857 246.926 20.6688C247.642 21.4518 248.517 22.0734 249.491 22.4923C250.466 22.9112 251.519 23.1177 252.58 23.0981L252.107 28.7741Z" fill="#263238"/>
<path d="M308.253 28.7741C306.467 28.8032 304.695 28.4522 303.055 27.7444C301.415 27.0367 299.944 25.9883 298.74 24.6688C297.536 23.3493 296.626 21.7888 296.071 20.0909C295.516 18.393 295.328 16.5965 295.52 14.8206C295.907 11.0488 297.659 7.5486 300.447 4.9787C303.235 2.4088 306.866 0.94651 310.656 0.867068C312.443 0.836585 314.216 1.18654 315.857 1.89372C317.499 2.6009 318.971 3.64911 320.176 4.96877C321.381 6.28843 322.292 7.84935 322.847 9.54791C323.403 11.2465 323.591 13.0438 323.399 14.8206H317.723C317.837 13.7657 317.726 12.6987 317.396 11.6903C317.066 10.6819 316.525 9.75542 315.809 8.97237C315.093 8.18932 314.218 7.56768 313.243 7.14882C312.269 6.72995 311.216 6.52346 310.155 6.54307C307.903 6.58667 305.746 7.45248 304.088 8.97726C302.431 10.502 301.389 12.5804 301.158 14.8206C301.044 15.8754 301.156 16.9425 301.486 17.9508C301.816 18.9592 302.357 19.8857 303.073 20.6688C303.789 21.4518 304.663 22.0734 305.638 22.4923C306.613 22.9112 307.666 23.1177 308.726 23.0981L308.253 28.7741Z" fill="#263238"/>
<path d="M308.991 191.874H52.9374C52.8769 191.876 52.8166 191.864 52.7608 191.841C52.7051 191.817 52.6552 191.781 52.6147 191.736C52.5741 191.691 52.5439 191.638 52.5261 191.58C52.5083 191.522 52.5034 191.461 52.5117 191.401L65.2733 45.0923C65.2849 44.9643 65.3436 44.8451 65.4379 44.7578C65.5322 44.6704 65.6556 44.6211 65.7841 44.6193H321.828C321.889 44.6176 321.95 44.6289 322.006 44.6526C322.062 44.6763 322.113 44.7118 322.154 44.7566C322.195 44.8015 322.226 44.8546 322.245 44.9125C322.264 44.9705 322.27 45.0318 322.264 45.0923L309.502 191.401C309.49 191.529 309.432 191.648 309.337 191.735C309.243 191.823 309.12 191.872 308.991 191.874ZM53.4956 190.928H308.594L321.28 45.5653H66.1814L53.4956 190.928Z" fill="#E0E0E0"/>
<path d="M311.507 162.614H55.4908C55.4307 162.615 55.3712 162.602 55.3162 162.578C55.2612 162.554 55.212 162.518 55.1718 162.473C55.1316 162.429 55.1013 162.376 55.0829 162.319C55.0645 162.261 55.0585 162.201 55.0651 162.141C55.0747 162.012 55.1327 161.892 55.2275 161.804C55.3223 161.716 55.4468 161.668 55.576 161.668H311.62C311.681 161.666 311.742 161.678 311.798 161.701C311.854 161.725 311.905 161.761 311.946 161.805C311.987 161.85 312.018 161.903 312.037 161.961C312.056 162.019 312.062 162.081 312.056 162.141C312.039 162.274 311.974 162.396 311.872 162.483C311.771 162.571 311.641 162.617 311.507 162.614Z" fill="#E0E0E0"/>
<path d="M314.091 133.354H58.0462C57.9857 133.355 57.9259 133.342 57.8704 133.318C57.815 133.294 57.7652 133.258 57.7243 133.214C57.6833 133.169 57.6521 133.117 57.6326 133.06C57.6131 133.002 57.6058 132.942 57.611 132.881C57.6249 132.753 57.6855 132.633 57.7814 132.546C57.8773 132.459 58.0018 132.41 58.1313 132.408H314.176C314.237 132.407 314.297 132.418 314.353 132.442C314.409 132.465 314.46 132.501 314.501 132.546C314.542 132.591 314.573 132.644 314.592 132.702C314.611 132.76 314.618 132.821 314.611 132.881C314.595 133.009 314.534 133.128 314.438 133.214C314.343 133.301 314.22 133.351 314.091 133.354Z" fill="#E0E0E0"/>
<path d="M316.644 104.086H60.5999C60.539 104.087 60.4784 104.076 60.4223 104.052C60.3662 104.029 60.3158 103.993 60.2745 103.948C60.2333 103.904 60.2021 103.85 60.1832 103.792C60.1642 103.734 60.158 103.673 60.1648 103.613C60.1806 103.485 60.2418 103.366 60.3372 103.28C60.4327 103.193 60.5561 103.143 60.6851 103.14H316.729C316.79 103.139 316.849 103.152 316.904 103.176C316.959 103.2 317.008 103.236 317.049 103.281C317.089 103.325 317.119 103.378 317.137 103.435C317.156 103.492 317.162 103.553 317.155 103.613C317.146 103.741 317.088 103.862 316.993 103.95C316.898 104.037 316.773 104.086 316.644 104.086Z" fill="#E0E0E0"/>
<path d="M319.197 74.8251H63.1527C63.0918 74.8269 63.0312 74.8155 62.9751 74.7918C62.9189 74.7681 62.8685 74.7327 62.8273 74.6878C62.786 74.643 62.7549 74.5898 62.7359 74.5319C62.717 74.474 62.7107 74.4127 62.7175 74.3521C62.7292 74.2241 62.7878 74.1049 62.8822 74.0176C62.9765 73.9303 63.0998 73.8809 63.2283 73.8791H319.282C319.343 73.8772 319.403 73.8885 319.459 73.9122C319.514 73.936 319.564 73.9717 319.605 74.0167C319.645 74.0617 319.676 74.1151 319.693 74.173C319.711 74.231 319.716 74.2921 319.708 74.3521C319.698 74.4809 319.64 74.6014 319.545 74.6891C319.451 74.7769 319.326 74.8255 319.197 74.8251Z" fill="#E0E0E0"/>
<path d="M276.978 191.874C276.918 191.876 276.858 191.864 276.802 191.841C276.746 191.817 276.696 191.781 276.656 191.736C276.615 191.691 276.585 191.638 276.567 191.58C276.549 191.522 276.544 191.461 276.553 191.401L289.314 45.0923C289.326 44.9643 289.385 44.8451 289.479 44.7578C289.573 44.6704 289.697 44.6211 289.825 44.6193C289.886 44.6176 289.947 44.6289 290.003 44.6526C290.059 44.6763 290.109 44.7118 290.151 44.7566C290.192 44.8015 290.223 44.8546 290.242 44.9125C290.261 44.9705 290.267 45.0318 290.26 45.0923L277.499 191.401C277.485 191.53 277.424 191.649 277.328 191.736C277.233 191.823 277.108 191.872 276.978 191.874Z" fill="#E0E0E0"/>
<path d="M244.977 191.874C244.916 191.875 244.855 191.864 244.799 191.84C244.743 191.817 244.693 191.781 244.651 191.736C244.61 191.692 244.579 191.638 244.56 191.58C244.541 191.523 244.535 191.461 244.542 191.401L257.303 45.0924C257.317 44.9635 257.378 44.8442 257.474 44.7571C257.57 44.6699 257.694 44.6209 257.824 44.6194C257.884 44.6174 257.944 44.6287 258 44.6525C258.056 44.6762 258.106 44.7119 258.146 44.7569C258.187 44.802 258.217 44.8553 258.235 44.9133C258.253 44.9712 258.258 45.0323 258.249 45.0924L245.488 191.401C245.478 191.53 245.42 191.65 245.325 191.738C245.231 191.825 245.106 191.874 244.977 191.874Z" fill="#E0E0E0"/>
<path d="M212.971 191.874C212.91 191.875 212.85 191.864 212.793 191.84C212.737 191.817 212.687 191.781 212.646 191.736C212.604 191.692 212.573 191.638 212.554 191.58C212.535 191.523 212.529 191.461 212.536 191.401L225.297 45.0924C225.311 44.9635 225.372 44.8442 225.468 44.7571C225.564 44.6699 225.688 44.6209 225.818 44.6194C225.878 44.6174 225.939 44.6287 225.994 44.6525C226.05 44.6762 226.1 44.7119 226.14 44.7569C226.181 44.802 226.211 44.8553 226.229 44.9133C226.247 44.9712 226.252 45.0323 226.243 45.0924L213.482 191.401C213.47 191.529 213.412 191.648 213.317 191.735C213.223 191.823 213.1 191.872 212.971 191.874Z" fill="#E0E0E0"/>
<path d="M180.959 191.874C180.898 191.875 180.838 191.864 180.782 191.84C180.726 191.817 180.675 191.781 180.634 191.736C180.593 191.692 180.561 191.638 180.543 191.58C180.524 191.523 180.517 191.461 180.524 191.401L193.257 45.0923C193.269 44.9643 193.328 44.8451 193.422 44.7578C193.516 44.6704 193.64 44.6211 193.768 44.6193C193.829 44.6176 193.89 44.6289 193.946 44.6526C194.002 44.6763 194.052 44.7118 194.094 44.7566C194.135 44.8015 194.166 44.8546 194.185 44.9125C194.204 44.9705 194.21 45.0318 194.203 45.0923L181.48 191.401C181.468 191.53 181.408 191.651 181.311 191.738C181.215 191.826 181.089 191.874 180.959 191.874Z" fill="#E0E0E0"/>
<path d="M148.957 191.874C148.896 191.876 148.836 191.864 148.78 191.841C148.725 191.817 148.675 191.781 148.634 191.736C148.594 191.691 148.563 191.638 148.546 191.58C148.528 191.522 148.523 191.461 148.531 191.401L161.293 45.0923C161.302 44.9635 161.36 44.8431 161.455 44.7553C161.55 44.6676 161.674 44.619 161.804 44.6193C161.865 44.6176 161.925 44.6289 161.981 44.6526C162.037 44.6763 162.088 44.7118 162.129 44.7566C162.17 44.8015 162.201 44.8546 162.22 44.9125C162.239 44.9705 162.246 45.0318 162.239 45.0923L149.477 191.401C149.463 191.53 149.403 191.649 149.307 191.736C149.211 191.823 149.087 191.872 148.957 191.874Z" fill="#E0E0E0"/>
<path d="M116.953 191.874C116.893 191.875 116.832 191.864 116.776 191.84C116.72 191.817 116.669 191.781 116.628 191.736C116.587 191.692 116.556 191.638 116.537 191.58C116.518 191.523 116.511 191.461 116.518 191.401L129.28 45.0924C129.294 44.9635 129.354 44.8442 129.45 44.7571C129.546 44.6699 129.671 44.6209 129.8 44.6194C129.861 44.6174 129.921 44.6287 129.977 44.6525C130.032 44.6762 130.082 44.7119 130.123 44.7569C130.163 44.802 130.194 44.8553 130.211 44.9133C130.229 44.9712 130.234 45.0323 130.226 45.0924L117.464 191.401C117.455 191.53 117.397 191.65 117.302 191.738C117.207 191.825 117.083 191.874 116.953 191.874Z" fill="#E0E0E0"/>
<path d="M84.9495 191.874C84.8886 191.875 84.8281 191.864 84.7719 191.84C84.7158 191.817 84.6654 191.781 84.6241 191.736C84.5829 191.692 84.5517 191.638 84.5328 191.58C84.5139 191.523 84.5076 191.461 84.5144 191.401L97.2759 45.0924C97.2898 44.9635 97.3504 44.8442 97.4463 44.7571C97.5421 44.6699 97.6666 44.6209 97.7962 44.6194C97.8568 44.6174 97.9171 44.6287 97.9728 44.6525C98.0286 44.6762 98.0784 44.7119 98.119 44.7569C98.1595 44.802 98.1897 44.8553 98.2075 44.9133C98.2253 44.9712 98.2302 45.0323 98.2219 45.0924L85.4604 191.401C85.4487 191.529 85.39 191.648 85.2957 191.735C85.2014 191.823 85.0781 191.872 84.9495 191.874Z" fill="#E0E0E0"/>
<path d="M214.703 100.689H195.149C194.762 100.696 194.378 100.62 194.022 100.466C193.667 100.312 193.348 100.085 193.088 99.7983C192.827 99.5119 192.631 99.1732 192.511 98.8049C192.392 98.4366 192.353 98.047 192.396 97.6622L193.909 80.3032C193.99 79.4839 194.37 78.723 194.975 78.1649C195.58 77.6069 196.369 77.2905 197.192 77.2759H216.746C217.134 77.2681 217.519 77.3433 217.875 77.4963C218.232 77.6494 218.552 77.8768 218.813 78.1634C219.075 78.45 219.272 78.7892 219.392 79.1582C219.512 79.5272 219.551 79.9176 219.508 80.3032L217.995 97.6622C217.913 98.4831 217.533 99.2453 216.926 99.8036C216.319 100.362 215.527 100.677 214.703 100.689Z" fill="#407BFF"/>
<path opacity="0.6" d="M214.703 100.689H195.149C194.762 100.696 194.378 100.62 194.022 100.466C193.667 100.312 193.348 100.085 193.088 99.7983C192.827 99.5119 192.631 99.1732 192.511 98.8049C192.392 98.4366 192.353 98.047 192.396 97.6622L193.909 80.3032C193.99 79.4839 194.37 78.723 194.975 78.1649C195.58 77.6069 196.369 77.2905 197.192 77.2759H216.746C217.134 77.2681 217.519 77.3433 217.875 77.4963C218.232 77.6494 218.552 77.8768 218.813 78.1634C219.075 78.45 219.272 78.7892 219.392 79.1582C219.512 79.5272 219.551 79.9176 219.508 80.3032L217.995 97.6622C217.913 98.4831 217.533 99.2453 216.926 99.8036C216.319 100.362 215.527 100.677 214.703 100.689Z" fill="white"/>
<path d="M351.135 100.689H330.578L332.612 77.2754H353.178L345.449 88.9869L351.135 100.689Z" fill="white"/>
<path d="M351.902 101.161H330.059L332.187 76.8018H354.078L346.046 88.9862L351.902 101.161ZM331.09 100.215H350.36L344.901 88.9862L352.318 77.7478H333.048L331.09 100.215Z" fill="#407BFF"/>
<path d="M275.975 129.949H256.421C256.034 129.957 255.65 129.882 255.294 129.73C254.938 129.577 254.619 129.35 254.357 129.065C254.096 128.779 253.899 128.441 253.778 128.074C253.657 127.706 253.617 127.316 253.658 126.932L255.172 109.563C255.257 108.745 255.639 107.986 256.246 107.43C256.852 106.874 257.641 106.559 258.464 106.545H278.018C278.405 106.539 278.788 106.615 279.143 106.768C279.498 106.921 279.817 107.148 280.078 107.433C280.339 107.718 280.536 108.055 280.658 108.423C280.779 108.79 280.82 109.178 280.78 109.563L279.267 126.932C279.181 127.75 278.799 128.509 278.193 129.065C277.586 129.621 276.797 129.935 275.975 129.949Z" fill="#407BFF"/>
<path opacity="0.4" d="M275.975 129.949H256.421C256.034 129.957 255.65 129.882 255.294 129.73C254.938 129.577 254.619 129.35 254.357 129.065C254.096 128.779 253.899 128.441 253.778 128.074C253.657 127.706 253.617 127.316 253.658 126.932L255.172 109.563C255.257 108.745 255.639 107.986 256.246 107.43C256.852 106.874 257.641 106.559 258.464 106.545H278.018C278.405 106.539 278.788 106.615 279.143 106.768C279.498 106.921 279.817 107.148 280.078 107.433C280.339 107.718 280.536 108.055 280.658 108.423C280.779 108.79 280.82 109.178 280.78 109.563L279.267 126.932C279.181 127.75 278.799 128.509 278.193 129.065C277.586 129.621 276.797 129.935 275.975 129.949Z" fill="white"/>
<path d="M313.446 71.4295H261.529C261.141 71.4373 260.756 71.3621 260.4 71.2091C260.043 71.056 259.723 70.8286 259.462 70.542C259.2 70.2554 259.003 69.9162 258.883 69.5472C258.763 69.1782 258.724 68.7879 258.767 68.4023L260.281 51.0432C260.362 50.224 260.741 49.4631 261.346 48.905C261.951 48.3469 262.74 48.0305 263.563 48.016H315.489C315.877 48.0097 316.261 48.0859 316.617 48.2395C316.973 48.393 317.292 48.6205 317.553 48.9068C317.814 49.193 318.011 49.5315 318.132 49.8999C318.252 50.2682 318.293 50.6579 318.251 51.0432L316.738 68.4023C316.657 69.2231 316.276 69.9853 315.669 70.5436C315.062 71.1019 314.27 71.4172 313.446 71.4295Z" fill="#407BFF"/>
<path d="M106.339 96.735C98.4494 96.735 91.8747 93.9443 87.2109 88.5994C81.2228 81.722 80.3241 73.1891 84.8554 66.3211C91.5815 56.1516 109.111 50.7311 120.643 52.2352C120.703 52.2429 120.761 52.2631 120.813 52.2947C120.865 52.3262 120.91 52.3683 120.945 52.4182C120.979 52.4681 121.003 52.5248 121.015 52.5845C121.026 52.6442 121.025 52.7057 121.012 52.765C120.982 52.8901 120.909 53.0003 120.804 53.0751C120.7 53.1499 120.572 53.1843 120.444 53.1717C109.196 51.7054 92.1491 56.9557 85.6406 66.7941C80.5133 74.5513 83.4743 82.8005 87.9583 87.9467C94.2114 95.1174 102.735 96.1296 108.77 95.7039C120.302 94.8998 132.931 88.3062 140.206 79.3003C142.24 76.7839 145.362 71.9498 143.451 67.9483C140.613 61.9601 131.153 62.3763 123.263 63.398C123.204 63.4059 123.143 63.4015 123.086 63.3849C123.028 63.3684 122.974 63.3402 122.928 63.302C122.882 63.2638 122.844 63.2165 122.817 63.163C122.79 63.1095 122.774 63.0511 122.771 62.9912C122.768 62.8624 122.812 62.7368 122.896 62.6389C122.98 62.5411 123.097 62.4778 123.225 62.4615C128.504 61.7709 140.859 60.1721 144.312 67.4942C146.449 71.9971 143.101 77.2001 140.925 79.9057C133.48 89.1197 120.548 95.8742 108.761 96.6877C107.947 96.7067 107.172 96.735 106.339 96.735Z" fill="#407BFF"/>
<path d="M264.207 124.736H264.131C263.983 124.726 263.84 124.677 263.717 124.594C263.594 124.511 263.496 124.397 263.431 124.263C262.456 122.033 261.117 119.98 259.467 118.19C259.281 118.005 259.177 117.755 259.176 117.493C259.175 117.231 259.278 116.98 259.462 116.794C259.647 116.609 259.897 116.504 260.159 116.503C260.421 116.502 260.672 116.605 260.858 116.79C262.375 118.375 263.63 120.192 264.576 122.172C267.826 118.834 271.348 115.771 275.105 113.015C275.3 112.863 275.547 112.794 275.793 112.823C276.039 112.851 276.264 112.974 276.419 113.167C276.492 113.271 276.542 113.389 276.568 113.513C276.594 113.637 276.595 113.765 276.57 113.89C276.545 114.014 276.496 114.132 276.424 114.237C276.353 114.342 276.261 114.432 276.155 114.5C272.124 117.447 268.378 120.763 264.963 124.405C264.867 124.509 264.75 124.593 264.62 124.65C264.489 124.707 264.349 124.736 264.207 124.736Z" fill="white"/>
<path d="M229.366 187.39C228.005 187.412 226.656 187.145 225.407 186.607C224.158 186.068 223.038 185.27 222.121 184.265C221.204 183.26 220.511 182.072 220.088 180.779C219.665 179.486 219.523 178.118 219.669 176.766C219.965 173.891 221.303 171.224 223.431 169.268C225.559 167.312 228.33 166.204 231.22 166.152C232.579 166.128 233.928 166.393 235.178 166.931C236.427 167.469 237.547 168.266 238.464 169.27C239.381 170.274 240.074 171.462 240.497 172.754C240.92 174.046 241.063 175.414 240.916 176.766C240.621 179.642 239.283 182.311 237.155 184.268C235.027 186.225 232.256 187.335 229.366 187.39ZM231.097 168.044C228.728 168.096 226.46 169.011 224.718 170.617C222.976 172.223 221.88 174.409 221.637 176.766C221.516 177.877 221.633 179.002 221.98 180.064C222.326 181.127 222.896 182.103 223.649 182.929C224.402 183.755 225.323 184.411 226.349 184.854C227.375 185.297 228.484 185.516 229.602 185.498C231.972 185.443 234.24 184.526 235.982 182.919C237.723 181.311 238.818 179.124 239.062 176.766C239.18 175.656 239.061 174.533 238.713 173.472C238.365 172.412 237.795 171.437 237.042 170.612C236.289 169.788 235.37 169.133 234.345 168.69C233.32 168.247 232.213 168.027 231.097 168.044Z" fill="#407BFF"/>
<path d="M138.391 128.756C137.031 128.779 135.681 128.512 134.432 127.973C133.183 127.435 132.063 126.637 131.146 125.632C130.229 124.627 129.536 123.439 129.114 122.146C128.691 120.853 128.548 119.485 128.694 118.133C128.991 115.25 130.334 112.577 132.47 110.619C134.606 108.661 137.386 107.554 140.283 107.509C141.643 107.486 142.992 107.753 144.241 108.292C145.49 108.831 146.611 109.629 147.528 110.634C148.445 111.638 149.138 112.826 149.56 114.119C149.983 115.412 150.126 116.78 149.979 118.133C149.681 121.014 148.337 123.687 146.202 125.644C144.066 127.602 141.288 128.709 138.391 128.756ZM140.075 109.401C137.705 109.453 135.435 110.37 133.693 111.978C131.951 113.585 130.856 115.774 130.615 118.133C130.494 119.244 130.611 120.368 130.958 121.431C131.305 122.494 131.874 123.47 132.627 124.296C133.38 125.122 134.301 125.778 135.327 126.221C136.354 126.664 137.462 126.883 138.58 126.864C140.95 126.81 143.218 125.893 144.96 124.286C146.701 122.678 147.797 120.49 148.04 118.133C148.159 117.023 148.042 115.901 147.695 114.841C147.349 113.78 146.782 112.805 146.031 111.98C145.28 111.155 144.362 110.498 143.339 110.054C142.315 109.609 141.209 109.387 140.094 109.401H140.075Z" fill="#407BFF"/>
<path opacity="0.1" d="M156.876 154.195H58.5871C57.6795 154.208 56.7795 154.028 55.9465 153.668C55.1135 153.307 54.3666 152.774 53.7549 152.103C53.1433 151.433 52.681 150.64 52.3986 149.777C52.1161 148.915 52.0199 148.002 52.1164 147.1C52.3165 145.181 53.2104 143.401 54.63 142.094C56.0497 140.788 57.8974 140.045 59.8263 140.005H158.116C159.023 139.991 159.923 140.171 160.756 140.531C161.589 140.892 162.336 141.425 162.948 142.096C163.559 142.766 164.022 143.559 164.304 144.422C164.587 145.284 164.683 146.197 164.586 147.1C164.386 149.018 163.492 150.798 162.073 152.105C160.653 153.411 158.805 154.154 156.876 154.195Z" fill="black"/>
<path d="M26.1854 131.651L29.8748 133.231L24.9272 139.295C24.0628 137.789 23.3891 136.181 22.9217 134.508C22.8521 134.263 22.8326 134.007 22.8644 133.755C22.8962 133.502 22.9786 133.259 23.1066 133.039C23.2347 132.819 23.4058 132.627 23.6097 132.475C23.8136 132.323 24.0462 132.213 24.2934 132.153L26.1854 131.651Z" fill="#FF8B7B"/>
<path d="M31.5687 139.777L29.355 142.237C29.1878 142.423 28.9802 142.569 28.748 142.664C28.5157 142.758 28.2651 142.798 28.0151 142.78C27.765 142.763 27.5223 142.689 27.3053 142.564C27.0883 142.438 26.9028 142.265 26.763 142.057L24.9277 139.332L29.8753 133.269L31.8714 137.999C32.0007 138.292 32.041 138.617 31.9872 138.933C31.9334 139.249 31.7878 139.543 31.5687 139.777Z" fill="#FF8B7B"/>
<path d="M161.701 151.811L33.7548 141.67C32.8509 141.61 31.9699 141.36 31.1696 140.935C30.3694 140.511 29.6679 139.922 29.1113 139.207C28.5547 138.492 28.1556 137.668 27.9402 136.788C27.7247 135.908 27.6978 134.993 27.8612 134.102C28.2129 132.205 29.2452 130.501 30.7642 129.311C32.2831 128.122 34.1842 127.528 36.1103 127.641L164.057 137.772C164.961 137.831 165.843 138.08 166.644 138.504C167.445 138.928 168.147 139.517 168.704 140.232C169.261 140.947 169.66 141.772 169.875 142.652C170.09 143.533 170.115 144.449 169.95 145.34C169.599 147.238 168.567 148.943 167.048 150.134C165.53 151.325 163.628 151.921 161.701 151.811Z" fill="#407BFF"/>
<path d="M71.4232 92.1094C73.0219 95.7136 74.6585 99.4125 76.314 103.007C77.9695 106.602 79.6818 110.254 81.517 113.413C81.9062 114.072 82.3391 114.704 82.813 115.305C83.3806 115.977 84.0144 116.668 84.6577 117.377C85.9726 118.787 87.3822 120.215 88.7917 121.615C91.6297 124.453 94.4677 127.291 97.3057 130.252L94.4677 133.951C90.8824 131.885 87.4088 129.63 84.0617 127.197C82.3779 125.976 80.7318 124.709 79.0858 123.327C78.2627 122.637 77.4492 121.899 76.6167 121.095C75.7474 120.186 74.9533 119.209 74.2423 118.172C71.8734 114.623 69.7464 110.919 67.8757 107.085C66.031 103.348 64.3376 99.6301 62.7578 95.7326L71.4232 92.1094Z" fill="#FF8B7B"/>
<path d="M40.1408 91.5319C37.9934 95.0415 35.7892 98.5701 33.585 102.061L27.0103 112.543L26.2062 113.848L26.1116 114.018V114.094V114.151C26.0644 114.223 26.0232 114.299 25.9887 114.378C25.7687 115.013 25.635 115.675 25.5913 116.345C25.4833 118.176 25.5372 120.012 25.7522 121.832C26.1589 125.692 26.9252 129.769 27.7388 133.714L23.3493 135.341C21.3459 131.458 19.7603 127.374 18.6193 123.157C17.9973 120.893 17.6261 118.567 17.5125 116.222C17.4464 114.804 17.5802 113.384 17.9098 112.003C18.0423 111.587 18.1463 111.209 18.3261 110.764L18.6193 110.121L18.7423 109.865L18.8274 109.695L19.5559 108.267C21.4479 104.483 23.5385 100.812 25.6481 97.1795C27.7577 93.5468 29.9524 89.9804 32.2701 86.4424L40.1408 91.5319Z" fill="#FF8B7B"/>
<path d="M65.1715 65.3376C65.0013 65.8012 65.1053 66.2836 65.408 66.4161C65.7108 66.5485 66.0986 66.2647 66.2784 65.7917C66.4581 65.3187 66.3446 64.8457 66.0419 64.7132C65.7391 64.5808 65.3513 64.8646 65.1715 65.3376Z" fill="#263238"/>
<path d="M65.0578 66.2734C65.0783 67.9471 65.32 69.6107 65.7768 71.221C65.3686 71.3182 64.9439 71.3236 64.5333 71.2369C64.1227 71.1502 63.7364 70.9736 63.4023 70.7196L65.0578 66.2734Z" fill="#FF5652"/>
<path d="M66.9023 62.5751C66.8413 62.5639 66.7851 62.5342 66.7415 62.49C66.4578 62.2573 66.1228 62.0956 65.7642 62.0183C65.4055 61.941 65.0336 61.9503 64.6792 62.0454C64.6413 62.0552 64.6018 62.0574 64.5631 62.0517C64.5243 62.0461 64.4871 62.0327 64.4536 62.0124C64.4201 61.9922 64.391 61.9654 64.368 61.9337C64.345 61.9019 64.3286 61.866 64.3198 61.8278C64.3027 61.7526 64.316 61.6736 64.3567 61.6081C64.3974 61.5426 64.4623 61.4958 64.5373 61.4778C64.9876 61.3574 65.4602 61.3479 65.9149 61.45C66.3696 61.5522 66.7928 61.7629 67.1483 62.0643C67.1758 62.0916 67.1976 62.124 67.2124 62.1597C67.2273 62.1954 67.235 62.2337 67.235 62.2724C67.235 62.3111 67.2273 62.3494 67.2124 62.3851C67.1976 62.4208 67.1758 62.4533 67.1483 62.4805C67.1175 62.5144 67.0793 62.5406 67.0366 62.557C66.9938 62.5734 66.9479 62.5796 66.9023 62.5751Z" fill="#263238"/>
<path d="M47.9252 66.2637C47.3292 71.3532 48.3035 77.767 44.8223 80.3212C44.8223 80.3212 45.5507 85.0512 53.9228 86.3473C63.1274 87.7095 58.8231 82.4024 58.8231 82.4024C53.9322 80.4442 54.4715 76.7264 55.7297 73.3303L47.9252 66.2637Z" fill="#FF8B7B"/>
<path d="M41.8994 83.5196C41.7765 81.1735 41.8994 77.6354 43.3563 77.1246C44.9456 76.5665 54.3393 77.3138 59.0504 81.5803C57.972 83.7077 57.4205 86.0631 57.4422 88.4482L41.8994 83.5196Z" fill="#263238"/>
<path d="M13.1119 294.514C12.2601 294.444 11.4307 294.206 10.6712 293.814C10.6447 293.801 10.6226 293.781 10.6075 293.756C10.5924 293.731 10.5849 293.702 10.586 293.672C10.5882 293.645 10.5982 293.619 10.615 293.597C10.6318 293.575 10.6546 293.558 10.6806 293.549C10.7658 293.549 12.6578 292.792 13.5186 293.199C13.6114 293.244 13.6938 293.307 13.7606 293.385C13.8274 293.463 13.8771 293.555 13.9065 293.653C13.9594 293.769 13.9741 293.898 13.9486 294.022C13.9231 294.146 13.8586 294.259 13.7646 294.344C13.5753 294.479 13.343 294.54 13.1119 294.514ZM11.1158 293.701C11.9861 294.088 13.2254 294.391 13.5565 294.117C13.5565 294.117 13.6889 294.013 13.5565 293.738C13.538 293.679 13.5075 293.624 13.4668 293.577C13.4261 293.529 13.3761 293.491 13.32 293.464C12.5777 293.333 11.8133 293.415 11.1158 293.701Z" fill="#407BFF"/>
<path d="M10.7379 293.834C10.6984 293.832 10.6611 293.815 10.6339 293.786C10.6204 293.765 10.6133 293.74 10.6133 293.715C10.6133 293.69 10.6204 293.666 10.6339 293.644C10.6339 293.569 11.1636 291.847 11.9961 291.44C12.0986 291.393 12.2099 291.369 12.3225 291.369C12.4351 291.369 12.5464 291.393 12.6489 291.44C12.7597 291.467 12.8575 291.532 12.925 291.623C12.9925 291.715 13.0254 291.828 13.0178 291.942C13.0178 292.651 11.4947 293.673 10.8136 293.834H10.7379ZM12.3272 291.648C12.2421 291.649 12.1582 291.669 12.0813 291.705C11.5436 292.159 11.1574 292.766 10.9744 293.446C11.6839 293.124 12.6583 292.32 12.6867 291.894C12.6867 291.894 12.6867 291.752 12.507 291.686C12.4504 291.661 12.3892 291.648 12.3272 291.648Z" fill="#407BFF"/>
<path d="M60.6665 297.268C60.0317 297.265 59.3985 297.205 58.7745 297.088C58.7478 297.078 58.7248 297.059 58.7085 297.036C58.6923 297.012 58.6836 296.984 58.6836 296.955C58.6836 296.927 58.6923 296.899 58.7085 296.875C58.7248 296.851 58.7478 296.833 58.7745 296.823C59.0867 296.634 61.849 295.054 62.5112 296.151C62.5784 296.247 62.6145 296.361 62.6145 296.478C62.6145 296.594 62.5784 296.708 62.5112 296.804C62.2274 297.154 61.4612 297.268 60.6665 297.268ZM59.2192 296.87C60.3922 297.041 61.972 297.012 62.2369 296.634C62.2369 296.634 62.3221 296.511 62.2369 296.303C61.8207 295.678 60.1368 296.388 59.2192 296.87Z" fill="#407BFF"/>
<path d="M58.7752 297.098C58.7509 297.108 58.7239 297.108 58.6995 297.098C58.6774 297.084 58.6595 297.065 58.6478 297.041C58.6361 297.018 58.6311 296.992 58.6333 296.966C58.6578 296.092 58.9629 295.249 59.5036 294.563C59.6156 294.468 59.7452 294.397 59.8848 294.354C60.0245 294.31 60.1714 294.294 60.3172 294.307C60.7334 294.355 60.8564 294.563 60.8848 294.733C60.9983 295.452 59.5888 296.767 58.8414 297.107L58.7752 297.098ZM60.2037 294.572C60.0164 294.573 59.8355 294.64 59.6928 294.761C59.2564 295.3 58.9985 295.961 58.955 296.653C59.7023 296.19 60.6672 295.149 60.5915 294.714C60.5915 294.714 60.5915 294.563 60.2888 294.534L60.2037 294.572Z" fill="#407BFF"/>
<path d="M51.9355 296.946H58.1602L58.2264 282.52H51.9923L51.9355 296.946Z" fill="#FF8B7B"/>
<path d="M3.68945 292.482L9.52627 293.834L14.4266 279.569L8.58973 278.216L3.68945 292.482Z" fill="#FF8B7B"/>
<path d="M10.435 292.869L3.65221 291.137C3.53403 291.104 3.40779 291.114 3.2966 291.166C3.18542 291.219 3.09672 291.309 3.04677 291.421L0.710145 296.539C0.653592 296.667 0.625938 296.805 0.629159 296.944C0.63238 297.084 0.666401 297.221 0.72878 297.346C0.79116 297.47 0.880352 297.58 0.989978 297.666C1.0996 297.752 1.22695 297.813 1.36289 297.845C3.74681 298.403 4.92931 298.554 7.90921 299.301C9.74445 299.765 13.4906 300.91 16.0259 301.543C18.5612 302.177 19.422 299.727 18.4287 299.245C13.992 297.04 12.5446 295.186 11.3337 293.455C11.1123 293.16 10.7942 292.952 10.435 292.869Z" fill="#263238"/>
<path d="M58.0941 296.227H51.2924C51.1698 296.226 51.051 296.269 50.9561 296.346C50.8612 296.424 50.7962 296.532 50.7721 296.652L49.7599 302.186C49.7362 302.323 49.7431 302.464 49.7799 302.598C49.8167 302.732 49.8827 302.856 49.973 302.962C50.0633 303.068 50.1758 303.152 50.3025 303.209C50.4291 303.267 50.5669 303.295 50.7059 303.293C53.156 303.293 56.6941 303.113 59.778 303.113C63.3917 303.113 63.458 303.303 67.6866 303.303C70.2408 303.303 70.8557 300.72 69.7772 300.465C64.858 299.405 63.931 299.292 59.6172 296.681C59.1606 296.393 58.6338 296.236 58.0941 296.227Z" fill="#263238"/>
<path d="M37.529 79.8953C31.6071 80.3683 23.2539 95.2205 23.2539 95.2205L33.9815 104.936C37.3224 101.196 40.3622 97.1977 43.0726 92.9785C47.2823 86.2335 43.5834 79.4128 37.529 79.8953Z" fill="#407BFF"/>
<path opacity="0.6" d="M37.529 79.8953C31.6071 80.3683 23.2539 95.2205 23.2539 95.2205L33.9815 104.936C37.3224 101.196 40.3622 97.1977 43.0726 92.9785C47.2823 86.2335 43.5834 79.4128 37.529 79.8953Z" fill="white"/>
<path opacity="0.2" d="M40.5562 90.585L33.4707 104.453L33.9721 104.917C33.9721 104.917 36.7155 101.918 39.7711 97.784L40.5562 90.585Z" fill="black"/>
<path d="M67.2056 113.196C66.1366 120.064 64.4433 128.559 61.8418 139.021L28.8926 134.102C29.1953 129.372 34.2375 108.286 33.2442 85.6482C33.209 84.8943 33.3292 84.1412 33.5972 83.4358C33.8653 82.7303 34.2756 82.0874 34.8025 81.5472C35.3295 81.0069 35.9619 80.5807 36.6605 80.2952C37.3591 80.0096 38.1089 79.8707 38.8634 79.887C40.4905 79.887 42.2785 80.01 44.038 80.1803C48.7436 80.6092 53.4212 81.304 58.0483 82.2615C61.2209 83.0644 64.3267 84.1113 67.338 85.3928C67.338 85.3928 69.703 88.8646 68.4259 103.31C68.1705 106.176 67.7826 109.44 67.2056 113.196Z" fill="#407BFF"/>
<path opacity="0.6" d="M67.2056 113.196C66.1366 120.064 64.4433 128.559 61.8418 139.021L28.8926 134.102C29.1953 129.372 34.2375 108.286 33.2442 85.6482C33.209 84.8943 33.3292 84.1412 33.5972 83.4358C33.8653 82.7303 34.2756 82.0874 34.8025 81.5472C35.3295 81.0069 35.9619 80.5807 36.6605 80.2952C37.3591 80.0096 38.1089 79.8707 38.8634 79.887C40.4905 79.887 42.2785 80.01 44.038 80.1803C48.7436 80.6092 53.4212 81.304 58.0483 82.2615C61.2209 83.0644 64.3267 84.1113 67.338 85.3928C67.338 85.3928 69.703 88.8646 68.4259 103.31C68.1705 106.176 67.7826 109.44 67.2056 113.196Z" fill="white"/>
<path opacity="0.2" d="M67.2056 113.195C64.5285 111.501 62.0216 103.735 63.1473 99.6387L68.426 103.328C68.1706 106.176 67.7827 109.439 67.2056 113.195Z" fill="black"/>
<path d="M59.7973 89.6393C58.0945 95.3153 68.4059 112.031 68.4059 112.031L80.7039 105.598C78.895 100.359 76.4688 95.3546 73.4764 90.6894C68.5478 83.4336 61.765 83.2254 59.7973 89.6393Z" fill="#407BFF"/>
<path opacity="0.6" d="M59.7973 89.6393C58.0945 95.3153 68.4059 112.031 68.4059 112.031L80.7039 105.598C78.895 100.359 76.4688 95.3546 73.4764 90.6894C68.5478 83.4336 61.765 83.2254 59.7973 89.6393Z" fill="white"/>
<path opacity="0.2" d="M58.2179 282.528L58.1895 289.964H51.9648L51.9932 282.528H58.2179Z" fill="black"/>
<path opacity="0.2" d="M8.59222 278.225L14.429 279.568L11.8938 286.928L6.06641 285.575L8.59222 278.225Z" fill="black"/>
<path d="M50.0823 57.8923C48.2754 63.8237 46.9226 67.1915 48.7011 71.3539C49.2531 72.7166 50.1686 73.9017 51.3477 74.7799C52.5269 75.6581 53.9245 76.1958 55.3882 76.3344C56.8519 76.473 58.3256 76.2071 59.6486 75.5657C60.9716 74.9244 62.0932 73.9321 62.8911 72.6972C66.0508 67.9672 68.4725 59.0937 63.752 54.4678C62.7614 53.4358 61.5157 52.6839 60.141 52.2882C58.7663 51.8926 57.3114 51.8674 55.9238 52.215C54.5362 52.5626 53.2651 53.2708 52.2393 54.2678C51.2134 55.2648 50.4693 56.5152 50.0823 57.8923Z" fill="#FF8B7B"/>
<path d="M59.6072 64.4097C58.8977 67.4464 57.053 72.9237 52.5122 73.5576C49.9769 73.9076 45.7577 73.1602 45.3699 71.1169C44.982 69.0735 46.5524 69.3479 46.1551 67.6734C45.7577 65.999 43.686 60.1054 46.0415 55.9809C42.7684 56.2552 45.0104 51.4022 50.8851 50.3049C49.0687 49.5954 49.9391 44.6289 59.0017 46.9939C63.2398 48.0818 66.39 49.7468 66.7684 52.0266C70.6281 53.6537 71.6498 57.7499 69.2564 59.2446C66.863 60.7393 63.4006 59.0554 63.4006 59.0554C63.4006 59.0554 65.0372 67.7207 59.6072 64.4097Z" fill="#263238"/>
<path d="M57.1393 63.9461C57.0562 65.3083 57.4734 66.6539 58.3123 67.7301C59.4381 69.1681 59.8165 69.1775 60.28 67.5788C60.7057 66.1409 61.7369 62.9245 60.2327 62.0731C58.7286 61.2217 57.2717 62.2906 57.1393 63.9461Z" fill="#FF8B7B"/>
<path d="M50.1572 137.281C50.1572 137.281 45.0393 186.132 41.8986 203.955C38.3984 223.48 15.1457 286.257 15.1457 286.257L4.05859 283.513C9.73459 261.755 18.1445 221.238 23.2624 205.724C27.1221 182.14 23.2624 152.492 28.9384 134.121L50.1572 137.281Z" fill="#263238"/>
<path d="M17.729 282.624L15.6857 286.625L3.23633 283.494L4.26747 279.71L17.729 282.624Z" fill="#407BFF"/>
<path opacity="0.2" d="M46.998 156.333C47.3508 156.263 47.7141 156.263 48.0669 156.333C46.4304 170.92 44.1032 190.389 42.268 201.561C40.7354 185.328 39.3164 157.847 46.998 156.333Z" fill="black"/>
<path d="M61.8395 139.021C61.8395 139.021 64.4221 191.221 64.8005 210.208C65.1883 229.96 60.4583 288.527 60.4583 288.527H49.901C49.901 288.527 45.9183 234.217 48.0657 207.729C45.521 187.551 40.1855 135.833 40.1855 135.833L61.8395 139.021Z" fill="#263238"/>
<path d="M99.9355 129.656C98.219 129.513 96.4925 129.759 94.8839 130.375L94.1176 131.642C93.9686 131.893 93.8781 132.174 93.8529 132.465C93.8278 132.756 93.8685 133.049 93.9722 133.321C94.0758 133.594 94.2397 133.84 94.4516 134.041C94.6636 134.241 94.918 134.392 95.1961 134.48L98.8949 135.663L100.702 136.211C101.082 136.329 101.49 136.324 101.867 136.196C102.244 136.069 102.571 135.826 102.802 135.502L103.578 134.423C103.856 134.043 103.982 133.572 103.932 133.103C103.881 132.634 103.657 132.2 103.303 131.888L101.638 130.384C101.164 129.964 100.567 129.709 99.9355 129.656Z" fill="#FF8B7B"/>
<path d="M62.3232 284.316L61.8975 288.696H49.0603L48.5684 284.789L62.3232 284.316Z" fill="#407BFF"/>
</svg>
