<svg width="253" height="220" viewBox="0 0 253 220" fill="none" xmlns="http://www.w3.org/2000/svg">
<path d="M126.284 219.279C196.029 219.279 252.568 215.978 252.568 211.906C252.568 207.834 196.029 204.534 126.284 204.534C56.5393 204.534 0 207.834 0 211.906C0 215.978 56.5393 219.279 126.284 219.279Z" fill="#F5F5F5"/>
<path d="M97.8207 45.4295C97.9054 45.7161 98.0552 46.1525 98.1854 46.5172L98.6023 47.6831C98.8889 48.4581 99.2015 49.2267 99.5337 49.9887C100.183 51.4969 100.914 52.9689 101.722 54.3982C103.324 57.1988 105.272 59.7325 107.584 61.3542L107.988 61.6343C107.988 61.6343 107.988 61.6799 108.085 61.6929C108.526 61.6816 108.958 61.5631 109.343 61.3477C110.677 60.6407 111.905 59.7482 112.99 58.6969C114.243 57.5496 115.437 56.3387 116.566 55.069C117.725 53.7664 118.865 52.4182 119.939 51.096L123.046 52.9718C121.432 56.3939 119.405 59.605 117.009 62.5331C115.692 64.161 114.132 65.5758 112.384 66.7276C111.235 67.4675 109.936 67.9414 108.58 68.1149C107.718 68.2027 106.847 68.1231 106.014 67.8805C105.585 67.7547 105.17 67.5844 104.777 67.3724L104.028 66.9556C102.207 65.8578 100.559 64.4971 99.1364 62.9174C97.7764 61.4316 96.5636 59.8174 95.515 58.0976C94.4863 56.4279 93.5787 54.6866 92.799 52.8871C92.4148 52.0013 92.05 51.1025 91.7178 50.1972C91.5485 49.7412 91.3857 49.2853 91.2359 48.8164C91.0861 48.3474 90.9493 47.9175 90.793 47.3379L97.8207 45.4295Z" fill="#B97964"/>
<path d="M104.552 56.9383L96.2213 61.5496C96.2213 61.5496 95.9738 61.1914 95.57 60.5726C95.2769 60.1167 94.9186 59.5175 94.4627 58.8141C92.0138 54.8345 87.9495 47.5658 89.0112 44.485C90.633 39.7434 96.6121 39.8216 99.5495 45.3187C100.97 48.0577 102.242 50.8711 103.36 53.7468C103.666 54.5154 103.92 55.1862 104.115 55.7008C104.395 56.4888 104.552 56.9383 104.552 56.9383Z" fill="#407BFF"/>
<path opacity="0.2" d="M104.552 56.9383L96.2213 61.5496C96.2213 61.5496 95.9738 61.1914 95.57 60.5726C95.2769 60.1167 94.9186 59.5175 94.4627 58.8141C92.0138 54.8345 87.9495 47.5658 89.0112 44.485C90.633 39.7434 96.6121 39.8216 99.5495 45.3187C100.97 48.0577 102.242 50.8711 103.36 53.7468C103.666 54.5154 103.92 55.1862 104.115 55.7008C104.395 56.4888 104.552 56.9383 104.552 56.9383Z" fill="black"/>
<path opacity="0.2" d="M104.139 55.7334L95.5936 60.5727C95.3005 60.1167 94.9423 59.5175 94.4863 58.8141L103.383 53.7729C103.663 54.5414 103.917 55.2123 104.139 55.7334Z" fill="black"/>
<path opacity="0.2" d="M88.885 45.0583C90.7478 44.1594 92.8971 44.9085 95.1507 48.4777C97.4042 52.0469 99.3386 58.039 99.5796 59.7129L96.2514 61.5496C96.2514 61.5496 88.2011 49.8064 88.885 45.0583Z" fill="black"/>
<path d="M96.6112 83.1864H70.7864C70.604 80.8807 71.1381 73.3776 70.7408 63.8227C70.4953 56.7406 69.6367 49.693 68.1746 42.7591C68.0574 42.238 67.9402 41.7235 67.8164 41.2024C67.8164 41.2024 69.119 40.9354 71.0014 40.6618C72.558 40.4339 74.512 40.1994 76.4268 40.1082C80.0821 39.8996 83.7463 39.8996 87.4016 40.1082C89.0885 40.2645 90.7363 40.5446 92.052 40.7986C93.7324 41.1373 94.8787 41.4499 94.8787 41.4499C94.8787 41.4499 101.086 56.0329 96.6112 83.1864Z" fill="#407BFF"/>
<path opacity="0.2" d="M96.6112 83.1864H70.7864C70.604 80.8807 71.1381 73.3776 70.7408 63.8227C70.4953 56.7406 69.6367 49.693 68.1746 42.7591C68.0574 42.238 67.9402 41.7235 67.8164 41.2024C67.8164 41.2024 69.119 40.9354 71.0014 40.6618C72.558 40.4339 74.512 40.1994 76.4268 40.1082C80.0821 39.8996 83.7463 39.8996 87.4016 40.1082C89.0885 40.2645 90.7363 40.5446 92.052 40.7986C93.7324 41.1373 94.8787 41.4499 94.8787 41.4499C94.8787 41.4499 101.086 56.0329 96.6112 83.1864Z" fill="black"/>
<path d="M61.3945 198.633L65.2243 202.059L72.506 194.471L68.6828 191.045L61.3945 198.633Z" fill="#B97964"/>
<path d="M74.5059 205.765H79.3321L79.9639 194.581H75.1311L74.5059 205.765Z" fill="#B97964"/>
<path d="M72.5058 194.477L68.7477 198.385L64.918 194.959L68.6761 191.045L72.5058 194.477Z" fill="#A76755"/>
<path d="M75.1303 194.588H79.9631L79.6375 200.352H74.8047L75.1303 194.588Z" fill="#A76755"/>
<path d="M96.3636 82.939C96.3636 82.939 101.45 118.149 103.189 137.318C104.583 152.689 71.3335 198.541 71.3335 198.541L64.8984 192.491C64.8984 192.491 89.1861 151.386 87.3168 134.269C85.5062 117.687 79.3707 82.9194 79.3707 82.9194L96.3636 82.939Z" fill="#407BFF"/>
<path opacity="0.7" d="M96.3636 82.939C96.3636 82.939 101.45 118.149 103.189 137.318C104.583 152.689 71.3335 198.541 71.3335 198.541L64.8984 192.491C64.8984 192.491 89.1861 151.386 87.3168 134.269C85.5062 117.687 79.3707 82.9194 79.3707 82.9194L96.3636 82.939Z" fill="black"/>
<path d="M79.5852 205.237H74.1793C74.134 205.235 74.0887 205.243 74.0462 205.258C74.0036 205.274 73.9646 205.298 73.9313 205.329C73.898 205.36 73.8712 205.397 73.8523 205.438C73.8333 205.479 73.8227 205.524 73.8211 205.569L73.5605 209.861C73.5605 210.087 73.6493 210.304 73.8077 210.465C73.9662 210.626 74.1815 210.718 74.4073 210.721C76.2961 210.689 77.1949 210.571 79.6178 210.571C81.0833 210.571 87.3229 210.728 89.3485 210.728C91.3741 210.728 91.3025 208.722 90.4623 208.539C86.6065 207.725 81.8323 206.585 80.471 205.537C80.221 205.334 79.9068 205.228 79.5852 205.237Z" fill="#263238"/>
<path d="M66.2785 200.678L61.6216 197.545C61.5462 197.486 61.4534 197.454 61.3578 197.454C61.2623 197.454 61.1695 197.486 61.094 197.545L57.5378 201.134C57.4673 201.213 57.4151 201.306 57.385 201.408C57.3549 201.509 57.3477 201.616 57.3639 201.721C57.3801 201.825 57.4193 201.925 57.4786 202.013C57.538 202.101 57.6161 202.174 57.7072 202.228C60.6772 204.514 62.82 206.234 64.5069 208.135C66.4609 210.363 67.5226 210.676 72.0818 210.676C74.1921 210.676 75.384 208.897 74.5242 208.624C66.9233 206.22 68.9555 205.172 67.1122 201.648C66.9162 201.263 66.6303 200.93 66.2785 200.678Z" fill="#263238"/>
<path d="M119.369 51.9166L121.03 46.6019L125.342 49.7608C125.342 49.7608 122.984 54.4958 121.388 54.066L119.369 51.9166Z" fill="#B97964"/>
<path d="M125.569 44.5698L127.998 47.5463L125.341 49.7608L121.029 46.6019L125.569 44.5698Z" fill="#B97964"/>
<path opacity="0.2" d="M70.74 63.8228C70.4945 56.7406 69.6359 49.6931 68.1738 42.7591C69.8998 42.6093 72.8503 42.7591 73.3388 45.5663C73.8664 48.5624 73.202 55.6097 70.74 63.8228Z" fill="black"/>
<path opacity="0.5" d="M87.3158 134.282C86.3844 125.744 84.3002 112.365 82.5091 101.41C83.447 99.5735 86.0718 95.861 86.0718 95.861C88.4296 104.009 93.5554 134.719 86.2476 176.201C78.6272 188.485 71.3325 198.554 71.3325 198.554L70.3359 182.714C77.3767 169.467 88.6119 146.13 87.3158 134.282Z" fill="black"/>
<path d="M72.4976 48.2172L71.3578 50.1711C70.967 50.8485 70.5892 51.5324 70.2245 52.2228C69.482 53.6036 68.7677 54.9931 68.0816 56.3912C67.4303 57.7916 66.779 59.1984 66.1993 60.6053C65.6394 61.9929 65.1503 63.4081 64.7339 64.8453L64.6557 65.1059L64.6166 65.2426C64.5952 65.2784 64.5819 65.3184 64.5775 65.3599C64.5576 65.5613 64.5576 65.7642 64.5775 65.9656C64.6448 66.5805 64.7735 67.1871 64.9618 67.7763C65.4131 69.1898 65.9638 70.5697 66.6097 71.9056C67.9123 74.7063 69.495 77.5526 71.0777 80.3011L68.2184 82.5352C65.8431 80.1195 63.6956 77.4901 61.8029 74.6803C60.7991 73.194 59.9274 71.6226 59.1977 69.9842C58.7858 69.0496 58.4673 68.0766 58.2467 67.0794C58.1196 66.4775 58.0542 65.8643 58.0513 65.2492C58.0465 64.8786 58.0727 64.5082 58.1295 64.1419L58.1751 63.8749V63.7055L58.2467 63.3734C58.9484 59.9339 60.0297 56.583 61.4708 53.3821C62.1547 51.806 62.9037 50.2688 63.7048 48.7643C64.1086 48.0088 64.5189 47.2663 64.9488 46.5238C65.3787 45.7813 65.802 45.0778 66.3101 44.2897L72.4976 48.2172Z" fill="#B97964"/>
<path d="M74.2247 49.9952C73.0206 53.3307 71.6222 56.5929 70.0368 59.765C69.6916 60.4814 69.3854 61.1197 69.1119 61.6343C68.656 62.5396 68.3694 63.0867 68.3694 63.0867L58.5996 57.6677C58.5996 57.6677 58.7234 57.2574 58.9448 56.567C59.1142 56.046 59.3356 55.3621 59.5961 54.574C61.2244 49.9301 64.5527 41.6453 67.8158 41.1699C72.6941 40.4925 76.2048 44.1399 74.2247 49.9952Z" fill="#407BFF"/>
<path opacity="0.2" d="M70.0347 59.7976C69.6895 60.514 69.3834 61.1523 69.1098 61.6669L58.9297 56.5996C59.099 56.0785 59.3205 55.3947 59.581 54.6066L70.0347 59.7976Z" fill="black"/>
<path d="M81.2969 206.045C80.8579 206.035 80.4212 205.978 79.9942 205.875C79.9724 205.869 79.9526 205.858 79.9366 205.842C79.9206 205.826 79.909 205.806 79.903 205.784C79.9007 205.763 79.9043 205.741 79.9135 205.721C79.9227 205.702 79.9371 205.685 79.9551 205.673C80.105 205.563 81.4792 204.631 82.0654 204.859C82.1324 204.886 82.1915 204.929 82.2371 204.985C82.2827 205.041 82.3133 205.107 82.3259 205.178C82.3557 205.284 82.3581 205.396 82.3331 205.503C82.308 205.61 82.2563 205.709 82.1827 205.791C81.9282 205.98 81.6132 206.071 81.2969 206.045ZM80.3199 205.712C81.1861 205.882 81.8179 205.856 82.0459 205.634C82.0927 205.58 82.1245 205.514 82.1382 205.443C82.1519 205.372 82.147 205.299 82.124 205.231C82.1193 205.196 82.1054 205.163 82.0836 205.135C82.0618 205.108 82.033 205.087 82.0003 205.074C81.6811 204.95 80.88 205.354 80.3199 205.712Z" fill="#407BFF"/>
<path d="M80.0414 205.888C80.0245 205.894 80.0062 205.894 79.9893 205.888C79.9729 205.879 79.959 205.866 79.9488 205.85C79.9386 205.834 79.9324 205.816 79.9307 205.797C79.9307 205.739 79.82 204.351 80.3085 203.882C80.3699 203.821 80.4449 203.774 80.5275 203.747C80.6101 203.72 80.698 203.713 80.7839 203.726C80.8798 203.73 80.9716 203.766 81.0456 203.827C81.1196 203.888 81.1718 203.971 81.1943 204.065C81.305 204.592 80.582 205.602 80.1 205.888H80.0414ZM80.6927 203.934C80.648 203.933 80.6035 203.941 80.5621 203.958C80.5206 203.975 80.4831 204 80.4518 204.032C80.1837 204.495 80.0717 205.031 80.1326 205.563C80.5494 205.211 81.0314 204.442 80.9598 204.097C80.9598 204.032 80.9077 203.954 80.7448 203.934H80.6927Z" fill="#407BFF"/>
<path d="M69.4036 203.283C68.5423 203.151 67.7201 202.833 66.9938 202.352C66.974 202.34 66.9583 202.322 66.949 202.301C66.9397 202.28 66.9371 202.257 66.9417 202.234C66.9467 202.211 66.9588 202.19 66.9762 202.173C66.9937 202.157 67.0157 202.147 67.0393 202.143C67.2999 202.143 69.586 201.974 70.0289 202.495C70.0648 202.54 70.0894 202.593 70.1007 202.65C70.112 202.706 70.1097 202.765 70.094 202.821C70.075 202.91 70.0342 202.994 69.9751 203.065C69.9161 203.135 69.8406 203.19 69.7554 203.224C69.6426 203.265 69.5234 203.285 69.4036 203.283ZM67.4497 202.345C68.4918 202.918 69.3125 203.166 69.6772 202.996C69.7309 202.975 69.7785 202.94 69.8159 202.896C69.8534 202.852 69.8795 202.799 69.8921 202.742C69.903 202.724 69.9087 202.702 69.9087 202.681C69.9087 202.659 69.903 202.637 69.8921 202.619C69.6186 202.371 68.368 202.326 67.4367 202.365L67.4497 202.345Z" fill="#407BFF"/>
<path d="M67.0534 202.391C67.0341 202.391 67.0151 202.386 66.998 202.377C66.981 202.368 66.9664 202.355 66.9557 202.339C66.9476 202.321 66.9434 202.302 66.9434 202.283C66.9434 202.264 66.9476 202.245 66.9557 202.228C66.9948 202.15 67.8676 200.378 68.9813 200.925C69.2874 201.075 69.32 201.258 69.2939 201.381C69.1767 201.902 67.7243 202.384 67.0599 202.404L67.0534 202.391ZM68.558 201.043C67.9653 201.043 67.4572 201.798 67.2553 202.15C67.9522 202.059 69.0074 201.629 69.0725 201.323C69.0725 201.251 69.0204 201.186 68.8836 201.114C68.782 201.066 68.6706 201.041 68.558 201.043Z" fill="#407BFF"/>
<path d="M69.7842 79.2786L74.591 78.4449L72.1225 84.0071C72.1225 84.0071 67.7326 84.0071 67.9345 81.721L69.7842 79.2786Z" fill="#B97964"/>
<path d="M78.1738 81.239L75.9202 85.7331L72.123 84.0071L74.5915 78.4449L78.1738 81.239Z" fill="#B97964"/>
<path d="M64.5059 192.139L71.7225 198.926L74.0412 196.431L65.7955 188.915L64.5059 192.139Z" fill="#407BFF"/>
<path opacity="0.7" d="M64.5059 192.139L71.7225 198.926L74.0412 196.431L65.7955 188.915L64.5059 192.139Z" fill="white"/>
<path d="M87.207 82.9389C87.207 82.9389 87.6694 119.843 86.8878 133.664C86.0281 148.807 81.7359 198.958 81.7359 198.958H72.878C72.878 198.958 73.1385 150.025 72.6109 135.038C72.0312 118.755 70.5332 82.9324 70.5332 82.9324L87.207 82.9389Z" fill="#407BFF"/>
<path opacity="0.7" d="M87.207 82.9389C87.207 82.9389 87.6694 119.843 86.8878 133.664C86.0281 148.807 81.7359 198.958 81.7359 198.958H72.878C72.878 198.958 73.1385 150.025 72.6109 135.038C72.0312 118.755 70.5332 82.9324 70.5332 82.9324L87.207 82.9389Z" fill="black"/>
<path d="M72.5074 198.958H82.0622L82.5963 195.604L72.0449 196.125L72.5074 198.958Z" fill="#407BFF"/>
<path opacity="0.7" d="M72.5074 198.958H82.0622L82.5963 195.604L72.0449 196.125L72.5074 198.958Z" fill="white"/>
<path opacity="0.2" d="M74.2247 49.9952C73.0206 53.3307 71.6222 56.5929 70.0368 59.765C69.6916 60.4814 69.3854 61.1197 69.1119 61.6343C68.656 62.5396 68.3694 63.0867 68.3694 63.0867L58.5996 57.6677C58.5996 57.6677 58.7234 57.2574 58.9448 56.567C59.1142 56.046 59.3356 55.3621 59.5961 54.574C61.2244 49.9301 64.5527 41.6453 67.8158 41.1699C72.6941 40.4925 76.2048 44.1399 74.2247 49.9952Z" fill="black"/>
<path d="M91.5238 43.8663C91.0028 45.5923 89.5699 47.898 85.5643 49.0769L84.5222 49.3895L83.4605 49.2006C75.2865 47.7351 72.2774 43.3387 71.7368 42.4855L70.6426 40.6618C72.1992 40.4339 74.1532 40.1994 76.0681 40.1082C79.7233 39.8996 83.3875 39.8996 87.0428 40.1082C88.7297 40.2645 90.3775 40.5446 91.6932 40.7986C91.8748 41.8205 91.8168 42.8706 91.5238 43.8663Z" fill="#407BFF"/>
<path opacity="0.4" d="M91.5238 43.8663C91.0028 45.5923 89.5699 47.898 85.5643 49.0769L84.5222 49.3895L83.4605 49.2006C75.2865 47.7351 72.2774 43.3387 71.7368 42.4855L70.6426 40.6618C72.1992 40.4339 74.1532 40.1994 76.0681 40.1082C79.7233 39.8996 83.3875 39.8996 87.0428 40.1082C88.7297 40.2645 90.3775 40.5446 91.6932 40.7986C91.8748 41.8205 91.8168 42.8706 91.5238 43.8663Z" fill="black"/>
<path d="M84.5981 44.7131C78.0458 43.5342 75.9941 40.1538 75.9941 40.1538C78.3845 37.7961 77.4661 31.3545 76.6455 27.8179L79.5829 30.2538L83.582 33.5755C83.4635 34.1081 83.3786 34.6476 83.328 35.1908C83.1131 37.3597 83.6732 39.3332 86.8646 40.0887C86.8777 40.0692 89.522 43.2476 84.5981 44.7131Z" fill="#B97964"/>
<path d="M83.5972 33.556C83.4786 34.0885 83.3938 34.628 83.3432 35.1712C81.8517 34.8716 79.8586 33.2824 79.6502 31.7583C79.5769 31.2537 79.5595 30.7426 79.5981 30.2342L83.5972 33.556Z" fill="#A76755"/>
<path d="M86.3131 15.4623C88.6969 16.537 90.0191 23.2391 86.9644 24.685C83.9098 26.1309 81.806 13.4237 86.3131 15.4623Z" fill="#263238"/>
<path d="M75.4804 22.7115C76.503 27.4075 76.8612 30.2016 79.6358 32.3445C80.5304 33.0492 81.6006 33.4963 82.7307 33.6374C83.8608 33.7784 85.0079 33.6082 86.0484 33.1449C87.0888 32.6817 87.9829 31.9431 88.6342 31.0089C89.2856 30.0747 89.6694 28.9803 89.7443 27.8439C90.109 23.4735 88.3765 16.5305 83.433 15.2018C82.371 14.8852 81.2444 14.8536 80.1663 15.11C79.0881 15.3665 78.0965 15.902 77.2907 16.6629C76.485 17.4238 75.8936 18.3832 75.5758 19.4448C75.2581 20.5065 75.2252 21.6331 75.4804 22.7115Z" fill="#B97964"/>
<path d="M70.0048 18.0546C67.7187 19.0641 69.0148 22.1905 70.5715 24.177C72.7273 26.9386 75.0069 28.2282 76.5571 26.9581C77.9509 26.2612 78.8693 22.1514 77.6578 19.6178C79.8006 18.2044 84.2491 19.9499 85.6365 17.6638C87.0238 15.3777 88.0138 15.5666 90.4562 17.0776C92.8987 18.5887 94.8526 12.6161 88.5023 11.5023C92.0194 13.085 91.2117 16.1658 88.639 13.0069C86.8219 10.7794 82.4645 8.31739 79.4359 11.6391C77.2019 14.062 69.3535 10.3169 70.0048 18.0546Z" fill="#263238"/>
<path d="M74.3697 27.6094C75.1315 28.5258 76.1843 29.1534 77.3527 29.3875C78.8312 29.635 79.1634 28.2673 78.4144 26.9386C77.7631 25.7467 76.1478 24.177 74.8256 24.5287C73.5035 24.8804 73.4123 26.4566 74.3697 27.6094Z" fill="#B97964"/>
<path d="M82.86 23.1805C82.9186 23.5648 83.1726 23.8318 83.4266 23.8318C83.6806 23.8318 83.8369 23.4671 83.7718 23.0828C83.7067 22.6985 83.4657 22.4315 83.2117 22.4315C82.9577 22.4315 82.8013 22.7897 82.86 23.1805Z" fill="#263238"/>
<path d="M87.2051 22.6594C87.2637 23.0437 87.5177 23.3107 87.7717 23.3107C88.0257 23.3107 88.1821 22.9395 88.1234 22.5552C88.0648 22.1709 87.8108 21.9039 87.5568 21.9039C87.3028 21.9039 87.2051 22.2751 87.2051 22.6594Z" fill="#263238"/>
<path d="M85.9043 23.0176C86.5504 24.1424 87.3433 25.1762 88.2621 26.0919C88.022 26.3116 87.7365 26.4757 87.4257 26.5725C87.115 26.6693 86.7868 26.6965 86.4644 26.652L85.9043 23.0176Z" fill="#A24E3F"/>
<path d="M85.0111 27.8765C84.56 27.8819 84.1124 27.7965 83.6951 27.6253C83.2777 27.4541 82.899 27.2006 82.5817 26.88C82.5606 26.8581 82.5488 26.8289 82.5488 26.7985C82.5488 26.7682 82.5606 26.739 82.5817 26.7171C82.6036 26.696 82.6327 26.6842 82.6631 26.6842C82.6935 26.6842 82.7227 26.696 82.7445 26.7171C83.096 27.058 83.5198 27.3153 83.9843 27.4697C84.4489 27.6242 84.9424 27.672 85.428 27.6094C85.443 27.6076 85.4583 27.6089 85.4728 27.6133C85.4874 27.6176 85.5009 27.6249 85.5125 27.6347C85.5241 27.6444 85.5335 27.6565 85.5403 27.6701C85.547 27.6837 85.5509 27.6985 85.5517 27.7136C85.5545 27.7283 85.5542 27.7435 85.5506 27.758C85.5471 27.7725 85.5404 27.7861 85.5312 27.7979C85.5219 27.8096 85.5102 27.8192 85.4969 27.826C85.4836 27.8328 85.469 27.8367 85.454 27.8374C85.3073 27.8594 85.1594 27.8725 85.0111 27.8765Z" fill="#263238"/>
<path d="M81.2913 21.93C81.2551 21.9396 81.2169 21.9396 81.1806 21.93C81.1279 21.8998 81.0889 21.8504 81.0719 21.792C81.0549 21.7337 81.0612 21.6711 81.0894 21.6173C81.2608 21.3007 81.5059 21.03 81.8041 20.8282C82.1023 20.6263 82.4447 20.4994 82.8024 20.458C82.8571 20.4672 82.9067 20.4955 82.9425 20.5378C82.9783 20.5801 82.9979 20.6338 82.9979 20.6892C82.9979 20.7446 82.9783 20.7983 82.9425 20.8406C82.9067 20.8829 82.8571 20.9112 82.8024 20.9204C82.5217 20.9525 82.2531 21.053 82.0203 21.2131C81.7875 21.3733 81.5976 21.5881 81.4672 21.8388C81.4463 21.8659 81.4197 21.8881 81.3894 21.9038C81.359 21.9196 81.3255 21.9285 81.2913 21.93Z" fill="#263238"/>
<path d="M88.8784 20.9139C88.8409 20.9129 88.8041 20.9029 88.7713 20.8848C88.7384 20.8666 88.7104 20.8409 88.6895 20.8096C88.532 20.5626 88.3196 20.3553 88.0687 20.204C87.8179 20.0526 87.5355 19.9612 87.2436 19.9369C87.1831 19.9369 87.1251 19.9129 87.0824 19.8701C87.0396 19.8274 87.0156 19.7694 87.0156 19.7089C87.0156 19.6485 87.0396 19.5905 87.0824 19.5477C87.1251 19.505 87.1831 19.481 87.2436 19.481C87.6112 19.5019 87.9684 19.6104 88.2856 19.7973C88.6028 19.9843 88.8708 20.2442 89.0673 20.5556C89.0846 20.5804 89.0968 20.6083 89.1032 20.6378C89.1096 20.6673 89.1101 20.6978 89.1047 20.7275C89.0992 20.7571 89.0879 20.7855 89.0714 20.8107C89.055 20.836 89.0336 20.8578 89.0087 20.8748C88.9701 20.9004 88.9247 20.914 88.8784 20.9139Z" fill="#263238"/>
<g opacity="0.9">
<path opacity="0.9" d="M156.864 96.2909C157.417 94.9034 158.363 93.7074 159.586 92.8491C160.809 91.9908 162.255 91.5074 163.748 91.4581H221.168C224.607 91.4581 226.932 94.2457 226.379 97.6912L208.213 206.142C207.893 207.857 206.998 209.412 205.675 210.55C204.353 211.688 202.682 212.341 200.938 212.401H56.9578C56.1738 212.432 55.3933 212.282 54.6763 211.964C53.9593 211.645 53.3248 211.167 52.8216 210.565C52.3184 209.963 51.9599 209.253 51.7737 208.491C51.5874 207.729 51.5784 206.934 51.7472 206.168L67.19 113.844C67.5167 112.134 68.4146 110.586 69.7364 109.454C71.0582 108.321 72.7256 107.671 74.4652 107.611H140.782C147.569 107.585 154.232 102.902 156.864 96.2909Z" fill="#407BFF"/>
</g>
<path opacity="0.5" d="M156.864 96.2909C157.417 94.9034 158.363 93.7074 159.586 92.8491C160.809 91.9908 162.255 91.5074 163.748 91.4581H221.168C224.607 91.4581 226.932 94.2458 226.379 97.6913L208.213 206.142C207.893 207.857 206.998 209.412 205.675 210.55C204.353 211.688 202.682 212.341 200.938 212.401H56.9578C56.1738 212.432 55.3933 212.282 54.6763 211.964C53.9593 211.645 53.3248 211.167 52.8216 210.565C52.3184 209.963 51.9599 209.253 51.7737 208.491C51.5874 207.729 51.5784 206.934 51.7472 206.168L67.19 113.844C67.5167 112.134 68.4146 110.586 69.7364 109.454C71.0582 108.321 72.7256 107.671 74.4652 107.611H140.782C147.569 107.585 154.232 102.902 156.864 96.2909Z" fill="white"/>
<path opacity="0.9" d="M134.006 0L90.5566 150.976L189.948 179.575L233.391 28.5994L134.006 0Z" fill="#407BFF"/>
<path opacity="0.7" d="M134.006 0L90.5566 150.976L189.948 179.575L233.391 28.5994L134.006 0Z" fill="white"/>
<g style="mix-blend-mode:multiply" opacity="0.9">
<path d="M132.078 6.68909L90.5566 150.976L186.567 178.605L225.484 29.2703L132.078 6.68909Z" fill="#407BFF"/>
</g>
<path opacity="0.6" d="M132.078 6.68909L90.5566 150.976L186.567 178.605L225.484 29.2703L132.078 6.68909Z" fill="#407BFF"/>
<g opacity="0.9">
<g style="mix-blend-mode:multiply" opacity="0.9">
<path d="M132.078 6.68906L90.5566 150.976L186.567 178.605L225.484 29.2703L132.078 6.68906Z" fill="white"/>
</g>
<path opacity="0.6" d="M132.078 6.68906L90.5566 150.976L186.567 178.605L225.484 29.2703L132.078 6.68906Z" fill="white"/>
</g>
<path d="M167.273 47.5649C173.787 40.1159 173.029 28.7963 165.58 22.282C158.131 15.7677 146.811 16.5255 140.297 23.9746C133.783 31.4237 134.541 42.7432 141.99 49.2575C149.439 55.7718 160.758 55.014 167.273 47.5649Z" fill="#407BFF"/>
<path d="M149.853 49.396C147.156 48.6166 144.75 47.055 142.94 44.9085C141.13 42.7621 139.997 40.1272 139.684 37.337C139.371 34.5468 139.893 31.7264 141.183 29.2325C142.472 26.7386 144.473 24.6831 146.931 23.3258C149.388 21.9685 152.194 21.3704 154.991 21.6071C157.789 21.8437 160.454 22.9046 162.649 24.6554C164.844 26.4063 166.47 28.7686 167.323 31.4438C168.175 34.1189 168.216 36.9868 167.439 39.6848C166.923 41.4781 166.059 43.1521 164.896 44.611C163.732 46.0699 162.293 47.2851 160.66 48.1871C159.026 49.0891 157.231 49.6602 155.377 49.8676C153.522 50.075 151.645 49.9148 149.853 49.396Z" fill="white"/>
<path d="M160.695 64.3477L129.061 55.2468L127.015 62.3573L158.649 71.4583L160.695 64.3477Z" fill="#407BFF"/>
<path d="M129.288 120.097L111.85 115.08L103.898 142.722L121.336 147.738L129.288 120.097Z" fill="#407BFF"/>
<path d="M190.993 137.853L173.555 132.836L165.603 160.477L183.041 165.494L190.993 137.853Z" fill="#407BFF"/>
<path d="M160.136 128.978L142.697 123.961L134.745 151.602L152.184 156.619L160.136 128.978Z" fill="#407BFF"/>
<path d="M186.258 71.696L164.857 65.5393L162.812 72.6499L184.212 78.8066L186.258 71.696Z" fill="#407BFF"/>
<path d="M202.925 93.2213L124.615 70.6922L123.772 73.6216L202.083 96.1506L202.925 93.2213Z" fill="white"/>
<path d="M161.763 88.1187L122.824 76.9163L121.981 79.8457L160.921 91.0481L161.763 88.1187Z" fill="white"/>
<path d="M194.471 97.5283L168.426 90.0354L167.583 92.9648L193.628 100.458L194.471 97.5283Z" fill="white"/>
<path d="M183.633 101.145L121.033 83.1357L120.19 86.0651L182.79 104.074L183.633 101.145Z" fill="white"/>
<path d="M190.408 110.712L118.527 89.7465L117.674 92.6728L189.554 113.638L190.408 110.712Z" fill="white"/>
<path d="M125.762 97.9795L117.449 95.5881L116.606 98.5174L124.919 100.909L125.762 97.9795Z" fill="white"/>
<path d="M169.163 110.467L132.434 99.9001L131.591 102.829L168.32 113.396L169.163 110.467Z" fill="white"/>
<path d="M193.972 124.345L115.662 101.816L114.819 104.745L193.13 127.274L193.972 124.345Z" fill="white"/>
<path d="M122.44 5.28223L84.2402 157.691L184.543 182.838L222.737 30.4296L122.44 5.28223Z" fill="#407BFF"/>
<path opacity="0.8" d="M122.44 5.28223L84.2402 157.691L184.543 182.838L222.737 30.4296L122.44 5.28223Z" fill="white"/>
<path d="M151.234 56.4272C160.144 52.1234 163.879 41.4108 159.575 32.5C155.271 23.5892 144.559 19.8545 135.648 24.1583C126.737 28.4621 123.003 39.1747 127.306 48.0855C131.61 56.9963 142.323 60.731 151.234 56.4272Z" fill="#407BFF"/>
<path d="M157.396 42.8624C158.807 35.1488 153.698 27.7513 145.985 26.3398C138.271 24.9282 130.874 30.0371 129.462 37.7508C128.051 45.4644 133.159 52.8619 140.873 54.2734C148.587 55.685 155.984 50.5761 157.396 42.8624Z" fill="white"/>
<path d="M151.338 68.6516L119.408 60.649L117.609 67.8261L149.54 75.8286L151.338 68.6516Z" fill="#407BFF"/>
<path d="M121.875 125.456L104.273 121.045L97.2811 148.944L114.882 153.356L121.875 125.456Z" fill="#407BFF"/>
<path d="M184.15 141.066L166.549 136.655L159.557 164.554L177.158 168.965L184.15 141.066Z" fill="#407BFF"/>
<path d="M153.015 133.261L135.414 128.85L128.422 156.749L146.023 161.16L153.015 133.261Z" fill="#407BFF"/>
<path d="M177.13 75.1134L155.529 69.6998L153.731 76.8768L175.331 82.2904L177.13 75.1134Z" fill="#407BFF"/>
<path d="M194.538 96.047L115.496 76.2371L114.755 79.1938L193.797 99.0037L194.538 96.047Z" fill="white"/>
<path d="M153.227 92.3678L113.924 82.5175L113.183 85.4742L152.486 95.3245L153.227 92.3678Z" fill="white"/>
<path d="M186.238 100.639L159.949 94.0504L159.208 97.0071L185.496 103.596L186.238 100.639Z" fill="white"/>
<path d="M175.53 104.636L112.346 88.8001L111.605 91.7568L174.789 107.592L175.53 104.636Z" fill="white"/>
<path d="M183.407 113.291L110.777 95.0879L110.036 98.0446L182.666 116.247L183.407 113.291Z" fill="white"/>
<path d="M117.587 103.479L109.197 101.376L108.456 104.333L116.846 106.436L117.587 103.479Z" fill="white"/>
<path d="M161.393 114.45L124.32 105.159L123.579 108.116L160.652 117.407L161.393 114.45Z" fill="white"/>
<path d="M186.665 127.462L107.623 107.652L106.882 110.609L185.924 130.419L186.665 127.462Z" fill="white"/>
<path opacity="0.5" d="M118.512 118.931C118.635 116.488 120.772 114.762 123.677 114.762H181.103C184.542 114.762 187.858 117.166 188.509 120.136L205.749 206.996C206.401 209.966 204.134 212.375 200.695 212.375H56.695C53.2495 212.375 49.9343 209.966 49.283 206.996L35.1038 134.054C34.4525 131.084 36.719 128.675 40.1645 128.675H106.456C113.262 128.675 118.238 124.636 118.512 118.931Z" fill="#407BFF"/>
</svg>
