<svg width="256" height="204" viewBox="0 0 256 204" fill="none" xmlns="http://www.w3.org/2000/svg">
<path d="M37.4495 184.264C87.382 210.35 168.344 210.35 218.277 184.264C268.209 158.179 268.209 115.885 218.277 89.7943C168.344 63.7033 87.4049 63.709 37.4495 89.7943C-12.506 115.88 -12.4603 158.179 37.4495 184.264Z" fill="#F5F5F5"/>
<path d="M23.5301 141.485L7.29883 132.117V97.3019L23.5301 106.676V141.485Z" fill="#E0E0E0"/>
<path d="M23.5312 106.676L46.722 93.2882V128.097L23.5312 141.485V106.676Z" fill="#EBEBEB"/>
<path d="M46.7208 93.2882L23.5301 106.676L7.29883 97.3018L30.4896 83.9137L46.7208 93.2882Z" fill="#F5F5F5"/>
<path d="M25.8534 108.012L44.4025 97.3019L44.8307 97.5474V110.444L26.2758 121.155L25.8477 120.909L25.8534 108.012Z" fill="#E0E0E0"/>
<path d="M26.2773 108.264L44.8322 97.5474V110.444L26.2773 121.155V108.264Z" fill="#F5F5F5"/>
<path d="M33.5508 106.248L36.708 104.427C37.1133 104.187 37.4445 104.296 37.4445 104.667C37.415 104.894 37.3332 105.111 37.2054 105.302C37.0776 105.492 36.9073 105.65 36.708 105.763L33.5508 107.584C33.1397 107.824 32.8086 107.715 32.8086 107.344C32.8382 107.116 32.9207 106.898 33.0496 106.708C33.1785 106.518 33.3501 106.36 33.5508 106.248Z" fill="#E0E0E0"/>
<path d="M25.4258 124.329L43.9749 113.619V126.516L44.4031 126.761L25.8483 137.472L25.4258 137.226V124.329Z" fill="#E0E0E0"/>
<path d="M25.8477 124.575L44.4025 113.864V126.761L25.8477 137.472V124.575Z" fill="#F5F5F5"/>
<path d="M33.1219 122.565L36.3076 120.749C36.7186 120.51 37.0498 120.618 37.0498 120.989C37.0202 121.217 36.9376 121.435 36.8088 121.625C36.6799 121.816 36.5082 121.973 36.3076 122.085L33.1504 123.907C32.7393 124.146 32.4082 124.038 32.4082 123.667C32.4339 123.44 32.5117 123.223 32.6355 123.032C32.7593 122.841 32.9258 122.681 33.1219 122.565Z" fill="#E0E0E0"/>
<path d="M23.5301 104.667L7.29883 95.2921V60.4832L23.5301 69.8519V104.667Z" fill="#E0E0E0"/>
<path d="M23.5312 69.8521L46.722 56.464V91.2787L23.5312 104.667V69.8521Z" fill="#EBEBEB"/>
<path d="M46.7208 56.464L23.5301 69.8521L7.29883 60.4833L30.4896 47.0952L46.7208 56.464Z" fill="#F5F5F5"/>
<path d="M25.8477 71.1936L44.4025 60.4832L44.8307 60.7286V73.6257L26.2758 84.3362L25.8477 84.085V71.1936Z" fill="#E0E0E0"/>
<path d="M33.5508 69.4238L36.7023 67.6026C37.1133 67.3685 37.4445 67.477 37.4445 67.8481C37.414 68.0758 37.3311 68.2933 37.2023 68.4835C37.0735 68.6737 36.9024 68.8314 36.7023 68.9443L33.5508 70.7655C33.1397 70.9996 32.8086 70.8968 32.8086 70.5257C32.8386 70.2972 32.9213 70.0787 33.0501 69.8875C33.1789 69.6963 33.3503 69.5376 33.5508 69.4238Z" fill="#E0E0E0"/>
<path d="M25.4258 87.5105L43.9749 76.8V89.6914L44.4031 89.9369L25.8483 100.647L25.4258 100.402V87.5105Z" fill="#E0E0E0"/>
<path d="M25.8477 87.756L44.4025 77.0455V89.9369L25.8477 100.647V87.756Z" fill="#F5F5F5"/>
<path d="M33.1211 85.7407L36.3068 83.9195C36.7122 83.6854 37.049 83.7939 37.049 84.165C37.0169 84.3921 36.9333 84.609 36.8047 84.7989C36.6761 84.9889 36.5058 85.147 36.3068 85.2612L33.1211 87.0653C32.71 87.2993 32.3789 87.1909 32.3789 86.8255C32.4114 86.6 32.4953 86.3849 32.6239 86.1969C32.7526 86.0088 32.9227 85.8528 33.1211 85.7407Z" fill="#E0E0E0"/>
<path d="M25.8477 71.1936L44.4025 60.4832V73.3745L25.8477 84.085V71.1936Z" fill="#E0E0E0"/>
<path d="M53.6801 66.8547L43.5234 60.9913V72.3526L53.6801 78.2103V66.8547Z" fill="#E0E0E0"/>
<path d="M32.8086 85.9234V69.8521L36.7879 67.5455L37.4445 68.5161L49.0398 61.8192V76.5489L32.8086 85.9234Z" fill="#EBEBEB"/>
<path d="M32.8086 85.9233L33.9676 71.8616L50.1988 62.4928L49.0398 76.5488L32.8086 85.9233Z" fill="#F5F5F5"/>
<path d="M35.1266 77.5652L26.2773 72.4554V83.8167L35.1266 88.9208V77.5652Z" fill="#EBEBEB"/>
<path d="M35.125 76.5489L53.6799 65.8385V78.7299L35.125 89.4403V76.5489Z" fill="#F5F5F5"/>
<path d="M42.3984 74.5335L45.5499 72.7122C45.961 72.4782 46.2921 72.5866 46.2921 72.9577C46.2612 73.1853 46.1782 73.4026 46.0494 73.5927C45.9207 73.7829 45.7497 73.9407 45.5499 74.0539L42.3984 75.8751C41.9874 76.1092 41.6562 76.0007 41.6562 75.6353C41.6863 75.4068 41.769 75.1883 41.8978 74.9971C42.0265 74.8059 42.1979 74.6472 42.3984 74.5335Z" fill="#E0E0E0"/>
<path d="M35.1264 76.5489L34.5098 76.1949V89.0863L35.1264 89.4403V76.5489Z" fill="#E0E0E0"/>
<path d="M34.5098 76.1949L53.0589 65.4788L53.6812 65.8384L35.1264 76.5489L34.5098 76.1949Z" fill="#EBEBEB"/>
<path d="M215.292 120.395L199.055 111.021V76.212L215.292 85.5808V120.395Z" fill="#E0E0E0"/>
<path d="M215.289 85.5808L238.48 72.1927V107.007L215.289 120.395V85.5808Z" fill="#EBEBEB"/>
<path d="M238.482 72.1927L215.292 85.5808L199.055 76.212L222.251 62.8182L238.482 72.1927Z" fill="#F5F5F5"/>
<path d="M217.609 86.9225L236.164 76.212L236.592 76.4575L236.587 89.3489L218.038 100.059L217.609 99.8138V86.9225Z" fill="#E0E0E0"/>
<path d="M218.035 87.168L236.59 76.4575L236.584 89.3489L218.035 100.059V87.168Z" fill="#F5F5F5"/>
<path d="M225.309 85.1527L228.46 83.3315C228.871 83.0974 229.202 83.2059 229.202 83.5713C229.172 83.7999 229.09 84.0183 228.961 84.2095C228.832 84.4007 228.661 84.5594 228.46 84.6732L225.309 86.4944C224.898 86.7285 224.566 86.62 224.566 86.2546C224.596 86.026 224.679 85.8076 224.808 85.6164C224.937 85.4252 225.108 85.2665 225.309 85.1527Z" fill="#E0E0E0"/>
<path d="M217.18 103.239L235.735 92.5232V105.42L236.163 105.666L217.608 116.376L217.18 116.131V103.239Z" fill="#E0E0E0"/>
<path d="M217.609 103.485L236.164 92.7744V105.666L217.609 116.376V103.485Z" fill="#F5F5F5"/>
<path d="M224.883 101.47L228.04 99.6483C228.445 99.4142 228.776 99.5227 228.776 99.8881C228.746 100.116 228.664 100.334 228.536 100.525C228.409 100.716 228.239 100.875 228.04 100.99L224.883 102.811C224.472 103.045 224.141 102.937 224.141 102.566C224.172 102.338 224.255 102.121 224.383 101.931C224.512 101.74 224.683 101.583 224.883 101.47Z" fill="#E0E0E0"/>
<path d="M60.8563 156.78C60.8563 156.78 60.9191 147.726 55.2099 140.937C50.1573 134.925 47.4682 131.112 49.0611 129.353C50.654 127.595 54.0795 127.172 58.6982 132.037C63.317 136.901 63.6767 150.375 63.0372 153.423L60.8563 156.78Z" fill="#BA68C8"/>
<path opacity="0.2" d="M60.8563 156.78C60.8563 156.78 60.9191 147.726 55.2099 140.937C50.1573 134.925 47.4682 131.112 49.0611 129.353C50.654 127.595 54.0795 127.172 58.6982 132.037C63.317 136.901 63.6767 150.375 63.0372 153.423L60.8563 156.78Z" fill="black"/>
<path d="M61.8145 147.046C61.7495 147.046 61.6864 147.025 61.6355 146.984C61.5846 146.944 61.5491 146.887 61.5348 146.824C59.5366 137.478 54.4097 132.311 51.5266 130.061C51.4669 130.015 51.428 129.947 51.4183 129.872C51.4087 129.797 51.4292 129.722 51.4752 129.662C51.5225 129.602 51.5915 129.563 51.6674 129.553C51.7432 129.543 51.8198 129.564 51.8806 129.61C54.8208 131.894 60.0561 137.181 62.0943 146.704C62.1027 146.74 62.1037 146.778 62.0972 146.815C62.0908 146.851 62.0771 146.886 62.0569 146.918C62.0366 146.949 62.0103 146.976 61.9795 146.997C61.9487 147.018 61.9139 147.033 61.8773 147.04L61.8145 147.046Z" fill="white"/>
<path d="M60.6397 160.143L58.3161 161.485C58.0682 160.807 57.6502 160.205 57.1023 159.736C56.5543 159.267 55.8949 158.947 55.1875 158.807C52.6469 158.236 50.0092 158.333 48.2279 156.129C46.4467 153.926 48.6162 151.528 48.2279 149.906C47.8397 148.285 47.5885 147.817 44.4028 146.195C41.2171 144.574 39.961 141.885 42.3589 140.064C44.7568 138.243 48.639 139.578 50.9912 141.206C53.0808 142.633 55.0676 143.01 57.4026 143.301C59.7377 143.592 63.54 144.888 62.9577 150.312C62.5763 153.669 61.7983 156.969 60.6397 160.143Z" fill="#BA68C8"/>
<path d="M51.7217 153.018C51.6608 153.017 51.6017 152.998 51.5526 152.962C51.5034 152.926 51.4667 152.876 51.4476 152.818C51.426 152.745 51.4336 152.667 51.4688 152.6C51.504 152.533 51.564 152.482 51.636 152.458C51.8416 152.396 56.7743 150.831 58.8696 152.51C58.9216 152.559 58.9533 152.626 58.9584 152.697C58.9635 152.768 58.9416 152.839 58.8971 152.895C58.8526 152.951 58.7887 152.988 58.7181 152.999C58.6474 153.01 58.5752 152.995 58.5156 152.955C56.6658 151.471 51.8587 152.989 51.8073 153.006L51.7217 153.018Z" fill="white"/>
<path d="M60.8962 159.709C60.8267 159.709 60.7596 159.684 60.7079 159.637C60.6562 159.591 60.6236 159.527 60.6165 159.458C59.3433 147.434 44.8591 141.731 44.7164 141.674C44.681 141.66 44.6486 141.64 44.6211 141.614C44.5935 141.588 44.5714 141.557 44.556 141.523C44.5406 141.488 44.5322 141.451 44.5313 141.413C44.5304 141.375 44.5371 141.338 44.5508 141.303C44.5789 141.233 44.6324 141.178 44.7004 141.147C44.7684 141.116 44.8457 141.112 44.9162 141.137C45.0703 141.2 59.8743 147.023 61.1817 159.406C61.1897 159.481 61.1678 159.556 61.1208 159.615C61.0737 159.674 61.0053 159.712 60.9305 159.72L60.8962 159.709Z" fill="white"/>
<path d="M202.901 152.247C202.964 152.047 205.413 139.441 202.901 130.501C200.618 122.302 197.637 119.277 193.39 118.609C189.142 117.941 187.298 121.001 189.553 125.146C191.808 129.291 197.238 134.788 198.568 144.049C199.139 147.863 199.573 151.174 199.573 151.174L202.901 152.247Z" fill="#BA68C8"/>
<path opacity="0.2" d="M202.901 152.247C202.964 152.047 205.413 139.441 202.901 130.501C200.618 122.302 197.637 119.277 193.39 118.609C189.142 117.941 187.298 121.001 189.553 125.146C191.808 129.291 197.238 134.788 198.568 144.049C199.139 147.863 199.573 151.174 199.573 151.174L202.901 152.247Z" fill="black"/>
<path d="M201.469 145.008C201.431 145.006 201.395 144.996 201.361 144.98C201.327 144.963 201.297 144.941 201.272 144.912C201.247 144.884 201.228 144.852 201.216 144.816C201.203 144.78 201.198 144.743 201.201 144.705C201.772 134.497 198.437 125.385 192.46 120.915C192.399 120.87 192.359 120.802 192.349 120.727C192.338 120.652 192.357 120.576 192.403 120.516C192.449 120.456 192.517 120.417 192.591 120.406C192.666 120.396 192.741 120.414 192.802 120.458C198.928 125.026 202.365 134.343 201.766 144.74C201.761 144.814 201.728 144.884 201.672 144.935C201.617 144.985 201.544 145.011 201.469 145.008Z" fill="white"/>
<path d="M209.471 158.813C209.146 156.466 210.493 152.949 213.696 152.116C216.899 151.282 218.326 149.444 217.173 147.434C216.02 145.425 216.288 143.581 219.194 142.747C222.1 141.914 224.646 140.463 222.973 137.392C221.757 135.171 221.489 133.732 224.469 129.359C226.941 125.728 224.92 123.598 221.826 123.998C218.732 124.398 216.819 128.086 214.884 128.702C212.948 129.319 212.503 126.031 209.951 127.504C207.399 128.976 207.553 132.75 207.473 135.382C207.393 138.014 207.222 138.608 204.915 138.288C202.609 137.968 200.348 138.345 200.399 143.923C200.439 148.707 202.991 154.634 202.991 154.634L209.471 158.813Z" fill="#BA68C8"/>
<path d="M205.424 155.244H205.395C205.319 155.236 205.249 155.197 205.201 155.137C205.153 155.078 205.13 155.001 205.138 154.925C206.748 140.543 219.092 128.411 222.312 125.951C222.372 125.904 222.449 125.884 222.524 125.894C222.6 125.904 222.668 125.944 222.714 126.005C222.76 126.065 222.78 126.142 222.77 126.217C222.76 126.293 222.72 126.361 222.66 126.407C219.48 128.834 207.296 140.806 205.709 154.988C205.701 155.058 205.667 155.122 205.615 155.17C205.562 155.217 205.494 155.244 205.424 155.244Z" fill="white"/>
<path d="M211.054 139.87C210.996 139.869 210.939 139.852 210.892 139.819C210.844 139.787 210.807 139.741 210.785 139.687C210.761 139.615 210.765 139.536 210.797 139.467C210.829 139.398 210.886 139.344 210.957 139.316C215.558 137.603 220.776 138.414 220.999 138.448C221.073 138.461 221.139 138.502 221.183 138.563C221.227 138.624 221.245 138.699 221.233 138.774C221.219 138.847 221.178 138.913 221.117 138.957C221.057 139.002 220.982 139.022 220.908 139.013C220.856 139.013 215.615 138.191 211.156 139.853C211.123 139.864 211.089 139.87 211.054 139.87Z" fill="white"/>
<path d="M206.955 148.513C206.915 148.513 206.876 148.504 206.839 148.487C206.803 148.471 206.771 148.446 206.744 148.416C204.83 146.188 203.533 143.497 202.982 140.612C202.976 140.575 202.978 140.537 202.987 140.5C202.996 140.464 203.012 140.43 203.034 140.399C203.056 140.369 203.084 140.344 203.117 140.324C203.149 140.305 203.184 140.292 203.222 140.286C203.259 140.281 203.297 140.283 203.333 140.291C203.369 140.3 203.404 140.317 203.434 140.339C203.464 140.361 203.49 140.389 203.509 140.421C203.529 140.453 203.541 140.489 203.547 140.526C204.093 143.298 205.341 145.883 207.172 148.034C207.208 148.076 207.231 148.127 207.239 148.182C207.246 148.236 207.238 148.292 207.216 148.342C207.193 148.393 207.156 148.435 207.11 148.466C207.064 148.496 207.011 148.512 206.955 148.513Z" fill="white"/>
<path d="M60.6387 71.7818V160.149L151.084 107.932L151.078 27.5984L83.8294 66.4266L81.5058 59.7297L60.6387 71.7818Z" fill="#BA68C8"/>
<path opacity="0.7" d="M60.6387 71.7818V160.149L151.084 107.932L151.078 27.5984L83.8294 66.4266L81.5058 59.7297L60.6387 71.7818Z" fill="black"/>
<path d="M60.6387 160.149L65.2745 79.8147L155.72 27.5984L151.084 107.932L60.6387 160.149Z" fill="#E0E0E0"/>
<path d="M60.6387 160.149L67.5925 81.1563L158.038 28.9343L151.084 107.932L60.6387 160.149Z" fill="#BA68C8"/>
<path opacity="0.7" d="M60.6387 160.149L67.5925 81.1563L158.038 28.9343L151.084 107.932L60.6387 160.149Z" fill="black"/>
<path d="M74.5547 79.8145V168.187L165 115.965V35.6311L97.7454 74.4593L95.4275 67.7624L74.5547 79.8145Z" fill="#BA68C8"/>
<path opacity="0.5" d="M74.5547 79.8145V168.187L165 115.965V35.6311L97.7454 74.4593L95.4275 67.7624L74.5547 79.8145Z" fill="black"/>
<path d="M74.5547 168.187L79.1905 87.8474L169.636 35.6311L165 115.965L74.5547 168.187Z" fill="#E0E0E0"/>
<path d="M74.5547 168.187L81.5085 89.189L171.954 36.967L165 115.965L74.5547 168.187Z" fill="#BA68C8"/>
<path opacity="0.5" d="M74.5547 168.187L81.5085 89.189L171.954 36.967L165 115.965L74.5547 168.187Z" fill="black"/>
<path d="M151.062 196.305C134.825 186.93 119.764 176.74 112.891 164.784L133.786 152.721L151.062 196.305Z" fill="#E0E0E0"/>
<path d="M90.7852 89.1891V177.556L181.23 125.34V45.0056L113.976 83.8338L111.658 77.137L90.7852 89.1891Z" fill="#BA68C8"/>
<path opacity="0.2" d="M90.7852 89.1891V177.556L181.23 125.34V45.0056L113.976 83.8338L111.658 77.137L90.7852 89.1891Z" fill="black"/>
<path d="M116.841 115.314C116.612 115.314 116.578 115.052 116.578 114.898V39.5363C116.596 39.244 116.682 38.9598 116.829 38.7063C116.976 38.4527 117.179 38.2365 117.423 38.0748L182.702 0.394084C182.791 0.338324 182.894 0.306836 182.999 0.302734C183.227 0.302734 183.261 0.565359 183.261 0.719507V76.0808C183.244 76.3741 183.158 76.6592 183.011 76.9137C182.865 77.1683 182.661 77.3854 182.417 77.5481L117.138 115.229C117.047 115.282 116.945 115.311 116.841 115.314Z" fill="white"/>
<path d="M182.965 0.5653C182.97 0.60704 182.97 0.649163 182.965 0.690903V76.0522C182.946 76.2953 182.873 76.5311 182.752 76.7425C182.631 76.9538 182.463 77.1354 182.263 77.274L116.984 114.955L116.87 115.006C116.862 114.965 116.862 114.922 116.87 114.88V39.5191C116.889 39.2771 116.963 39.0424 117.084 38.8321C117.205 38.6217 117.372 38.441 117.572 38.3031L182.851 0.622391C182.887 0.597206 182.928 0.579717 182.971 0.57101M183.005 9.12069e-05C182.85 0.00471975 182.698 0.0499943 182.565 0.131405L117.287 37.8121C117 38.0006 116.761 38.2537 116.589 38.5511C116.418 38.8486 116.318 39.182 116.299 39.5248V114.886C116.299 115.331 116.521 115.588 116.87 115.588C117.025 115.584 117.177 115.539 117.309 115.457L182.588 77.7764C182.877 77.5893 183.116 77.3365 183.288 77.0387C183.46 76.741 183.558 76.4069 183.576 76.0637V0.702324C183.576 0.257007 183.353 -0.00561799 183.005 9.12069e-05Z" fill="#BA68C8"/>
<path opacity="0.7" d="M182.965 0.5653C182.97 0.60704 182.97 0.649163 182.965 0.690903V76.0522C182.946 76.2953 182.873 76.5311 182.752 76.7425C182.631 76.9538 182.463 77.1354 182.263 77.274L116.984 114.955L116.87 115.006C116.862 114.965 116.862 114.922 116.87 114.88V39.5191C116.889 39.2771 116.963 39.0424 117.084 38.8321C117.205 38.6217 117.372 38.441 117.572 38.3031L182.851 0.622391C182.887 0.597206 182.928 0.579717 182.971 0.57101M183.005 9.12069e-05C182.85 0.00471975 182.698 0.0499943 182.565 0.131405L117.287 37.8121C117 38.0006 116.761 38.2537 116.589 38.5511C116.418 38.8486 116.318 39.182 116.299 39.5248V114.886C116.299 115.331 116.521 115.588 116.87 115.588C117.025 115.584 117.177 115.539 117.309 115.457L182.588 77.7764C182.877 77.5893 183.116 77.3365 183.288 77.0387C183.46 76.741 183.558 76.4069 183.576 76.0637V0.702324C183.576 0.257007 183.353 -0.00561799 183.005 9.12069e-05Z" fill="white"/>
<path d="M123.254 42.3966L146.445 29.0085V55.7847L123.254 69.1727V42.3966Z" fill="#BA68C8"/>
<path opacity="0.8" d="M123.254 42.3966L146.445 29.0085V55.7847L123.254 69.1727V42.3966Z" fill="white"/>
<path d="M142.968 35.6826V43.7326L142.237 44.1379V41.6773C142.237 40.3185 141.135 39.856 139.765 40.6439L129.939 46.3246C128.575 47.1124 127.467 48.8537 127.467 50.2125V52.6732L126.742 53.1071V45.0742L142.968 35.6826Z" fill="white"/>
<path d="M138.501 56.1786C137.314 56.8637 136.349 56.1443 136.349 54.5629V41.6772L133.363 43.2987V56.2871C133.363 57.8628 132.398 59.7126 131.211 60.3806L129.053 61.6252V62.4815L140.648 55.7847V54.934L138.501 56.1786Z" fill="white"/>
<path d="M151.062 27.6897C151.062 28.4319 151.73 28.6431 152.547 28.175L175.11 15.1295C175.51 14.9026 175.852 14.586 176.11 14.2047C176.367 13.8233 176.533 13.3875 176.594 12.9314C176.594 12.1949 175.926 11.978 175.11 12.4519L152.564 25.4688C152.157 25.6953 151.809 26.0143 151.548 26.4001C151.287 26.7859 151.121 27.2277 151.062 27.6897Z" fill="#455A64"/>
<path d="M151.062 35.6825C151.062 36.4247 151.73 36.6417 152.547 36.1678L175.092 23.1508C175.493 22.9239 175.835 22.6074 176.093 22.2261C176.35 21.8447 176.516 21.4089 176.577 20.9528C176.577 20.2163 175.909 19.9994 175.092 20.4732L152.547 33.4902C152.147 33.7165 151.805 34.0322 151.548 34.4125C151.29 34.7928 151.124 35.2274 151.062 35.6825Z" fill="#455A64"/>
<path d="M151.062 43.7324C151.062 44.4746 151.73 44.6916 152.547 44.2177L175.092 31.2007C175.492 30.9744 175.834 30.6588 176.092 30.2785C176.349 29.8982 176.515 29.4635 176.577 29.0084C176.577 28.2662 175.909 28.0493 175.092 28.5231L152.547 41.5401C152.147 41.7664 151.805 42.0821 151.548 42.4624C151.29 42.8427 151.124 43.2773 151.062 43.7324Z" fill="#455A64"/>
<path d="M151.062 51.7654C151.062 52.5076 151.73 52.7245 152.547 52.2507L175.092 39.2337C175.492 39.0074 175.834 38.6917 176.092 38.3114C176.349 37.9311 176.515 37.4965 176.577 37.0414C176.577 36.2992 175.909 36.0822 175.092 36.5561L152.547 49.573C152.147 49.7994 151.805 50.115 151.548 50.4953C151.29 50.8756 151.124 51.3103 151.062 51.7654Z" fill="#455A64"/>
<path d="M123.254 75.8696C123.254 76.6118 123.916 76.8288 124.738 76.3549L175.111 47.238C175.511 47.0124 175.853 46.6969 176.111 46.3165C176.368 45.9361 176.534 45.501 176.595 45.0457C176.595 44.3035 175.927 44.0922 175.111 44.5604L124.738 73.6773C124.338 73.9026 123.995 74.2179 123.738 74.5984C123.48 74.9789 123.314 75.4141 123.254 75.8696Z" fill="#455A64"/>
<path d="M123.254 83.9024C123.254 84.6446 123.916 84.8615 124.738 84.3876L175.111 55.305C175.511 55.0781 175.853 54.7616 176.111 54.3802C176.368 53.9989 176.534 53.5631 176.595 53.107C176.595 52.3705 175.927 52.1535 175.111 52.6274L124.738 81.71C124.338 81.9353 123.995 82.2507 123.738 82.6312C123.48 83.0117 123.314 83.4469 123.254 83.9024Z" fill="#455A64"/>
<path d="M123.254 91.9409C123.254 92.6774 123.916 92.8943 124.738 92.4205L175.111 63.3378C175.511 63.1109 175.853 62.7944 176.111 62.4131C176.368 62.0317 176.534 61.5959 176.595 61.1398C176.595 60.4033 175.927 60.1864 175.111 60.6602L124.738 89.7429C124.337 89.9687 123.994 90.285 123.736 90.6665C123.479 91.0481 123.314 91.4844 123.254 91.9409Z" fill="#455A64"/>
<path d="M90.7852 177.556L107.016 106.596L197.461 54.3744L181.23 125.34L90.7852 177.556Z" fill="#BA68C8"/>
<path d="M112.914 112.152V164.785L133.787 152.732V100.105L112.914 112.152Z" fill="#BA68C8"/>
<path opacity="0.2" d="M112.914 112.152V164.785L133.787 152.732V100.105L112.914 112.152Z" fill="black"/>
<path d="M151.103 195.962C149.328 194.638 132.211 181.558 123.511 162.849C114.25 142.958 114.262 119.756 114.262 111.027V110.753L176.309 74.9332C176.309 83.7425 176.309 106.979 185.61 126.938C194.11 145.208 210.57 158.122 213.179 160.097L151.103 195.962Z" fill="white"/>
<path d="M176.024 75.4471C176.024 84.6275 176.201 107.419 185.352 127.081C193.568 144.722 209.188 157.408 212.665 160.086L151.12 195.62C148.717 193.81 132.246 180.947 123.773 162.752C114.524 142.918 114.524 119.762 114.524 111.044V110.935L176.001 75.4414M176.572 74.4537L113.953 110.61C113.953 118.826 113.782 142.696 123.231 162.992C132.531 182.911 151.063 196.305 151.063 196.305L213.699 160.143C213.699 160.143 195.144 146.749 185.872 126.83C176.418 106.534 176.595 82.6635 176.595 74.448L176.572 74.4537Z" fill="#BA68C8"/>
<path opacity="0.7" d="M176.024 75.4471C176.024 84.6275 176.201 107.419 185.352 127.081C193.568 144.722 209.188 157.408 212.665 160.086L151.12 195.62C148.717 193.81 132.246 180.947 123.773 162.752C114.524 142.918 114.524 119.762 114.524 111.044V110.935L176.001 75.4414M176.572 74.4537L113.953 110.61C113.953 118.826 113.782 142.696 123.231 162.992C132.531 182.911 151.063 196.305 151.063 196.305L213.699 160.143C213.699 160.143 195.144 146.749 185.872 126.83C176.418 106.534 176.595 82.6635 176.595 74.448L176.572 74.4537Z" fill="white"/>
<path d="M169.51 86.58L149.71 97.9984C149.314 98.2166 148.976 98.5272 148.726 98.904C148.475 99.2807 148.319 99.7124 148.271 100.162C148.3 100.887 148.991 101.093 149.807 100.619L169.612 89.2006C170.004 88.9845 170.338 88.678 170.588 88.3066C170.837 87.9352 170.994 87.5096 171.045 87.0653C171.011 86.3117 170.332 86.1062 169.51 86.58Z" fill="#455A64"/>
<path d="M169.931 94.3731L150.132 105.791C149.74 106.002 149.408 106.308 149.166 106.682C148.925 107.055 148.782 107.483 148.75 107.927C148.813 108.629 149.532 108.817 150.349 108.343L170.154 96.9251C170.543 96.7154 170.873 96.4098 171.112 96.0372C171.351 95.6646 171.491 95.2372 171.518 94.7956C171.461 94.0876 170.753 93.9164 169.931 94.3731Z" fill="#455A64"/>
<path d="M170.726 101.949L150.921 113.368C150.105 113.841 149.511 114.783 149.608 115.463C149.705 116.142 150.453 116.319 151.275 115.845L171.08 104.427C171.897 103.953 172.479 103.017 172.376 102.337C172.274 101.658 171.543 101.475 170.726 101.949Z" fill="#455A64"/>
<path d="M171.914 109.297L152.109 120.715C151.292 121.189 150.727 122.114 150.864 122.776C151.001 123.438 151.778 123.587 152.577 123.113L172.376 111.695C173.199 111.221 173.747 110.302 173.61 109.639C173.473 108.977 172.759 108.823 171.914 109.297Z" fill="#455A64"/>
<path d="M173.523 116.399L153.717 127.818C152.901 128.291 152.37 129.193 152.576 129.827C152.781 130.461 153.563 130.604 154.38 130.13L174.185 118.711C175.007 118.238 175.521 117.341 175.327 116.702C175.133 116.062 174.339 115.925 173.523 116.399Z" fill="#455A64"/>
<path d="M175.612 123.244L127.347 151.111C126.53 151.585 126.034 152.464 126.256 153.075C126.479 153.686 127.33 153.8 128.146 153.326L176.412 125.46C177.234 124.986 177.708 124.112 177.485 123.496C177.262 122.879 176.4 122.77 175.612 123.244Z" fill="#455A64"/>
<path d="M178.154 129.781L129.894 157.648C129.072 158.122 128.621 158.978 128.895 159.561C129.169 160.143 130.037 160.234 130.87 159.76L179.136 131.894C179.958 131.42 180.397 130.564 180.123 129.981C179.849 129.399 178.976 129.313 178.154 129.781Z" fill="#455A64"/>
<path d="M181.321 136.01L133.055 163.877C132.233 164.351 131.828 165.184 132.153 165.738C132.479 166.292 133.409 166.349 134.232 165.875L182.463 138.008C183.279 137.54 183.673 136.712 183.348 136.159C183.022 135.605 182.12 135.536 181.321 136.01Z" fill="#455A64"/>
<path d="M185.016 141.902L136.756 169.763C135.934 170.237 135.569 171.053 135.94 171.573C136.311 172.092 137.287 172.144 138.109 171.664L186.369 143.798C187.191 143.324 187.545 142.519 187.174 141.993C186.803 141.468 185.838 141.428 185.016 141.902Z" fill="#455A64"/>
<path d="M189.229 147.503L140.963 175.364C140.147 175.838 139.821 176.631 140.233 177.128C140.644 177.624 141.654 177.647 142.476 177.173L190.742 149.295C191.558 148.822 191.884 148.039 191.461 147.543C191.039 147.046 190.051 147.012 189.229 147.503Z" fill="#455A64"/>
<path d="M193.881 152.835L145.633 180.696C144.811 181.17 144.491 181.946 144.971 182.409C145.45 182.871 146.466 182.883 147.283 182.409L195.548 154.542C196.371 154.068 196.656 153.303 196.199 152.829C195.743 152.356 194.715 152.367 193.881 152.835Z" fill="#455A64"/>
<path d="M199.019 157.934L150.753 185.794C149.937 186.268 149.668 187.028 150.182 187.479C150.696 187.93 151.746 187.912 152.569 187.439L200.794 159.572C201.61 159.098 201.867 158.356 201.365 157.899C200.863 157.443 199.818 157.46 199.019 157.934Z" fill="#455A64"/>
<path d="M142.534 102.16L119.766 115.292C120.017 123.541 120.959 135.439 124.407 147.423L147.181 134.292C143.727 122.308 142.785 110.404 142.534 102.16Z" fill="#BA68C8"/>
<path opacity="0.8" d="M142.534 102.16L119.766 115.292C120.017 123.541 120.959 135.439 124.407 147.423L147.181 134.292C143.727 122.308 142.785 110.404 142.534 102.16Z" fill="white"/>
<path d="M129.049 113.476C129.079 112.943 128.997 112.411 128.806 111.912C128.615 111.414 128.32 110.963 127.941 110.587L119.766 115.303C119.834 117.484 119.948 119.922 120.148 122.548C121.212 122.67 122.287 122.471 123.237 121.977C126.451 120.504 129.049 116.685 129.049 113.476Z" fill="#BA68C8"/>
<path opacity="0.6" d="M129.049 113.476C129.079 112.943 128.997 112.411 128.806 111.912C128.615 111.414 128.32 110.963 127.941 110.587L119.766 115.303C119.834 117.484 119.948 119.922 120.148 122.548C121.212 122.67 122.287 122.471 123.237 121.977C126.451 120.504 129.049 116.685 129.049 113.476Z" fill="white"/>
<path d="M145.245 126.413C143.726 124.5 140.638 118.591 139.319 116.017C139.267 115.915 139.186 115.831 139.086 115.776C138.986 115.721 138.872 115.697 138.758 115.707C138.644 115.718 138.536 115.762 138.448 115.834C138.36 115.907 138.295 116.004 138.263 116.114C136.836 120.991 136.008 126.023 135.796 131.1C133.895 129.591 132.26 127.773 130.961 125.722C130.905 125.643 130.828 125.581 130.739 125.544C130.649 125.506 130.551 125.496 130.456 125.512C130.36 125.529 130.272 125.573 130.2 125.638C130.129 125.704 130.078 125.788 130.053 125.882C127.564 135.468 128.814 144.899 128.814 144.899L147.18 134.292C146.415 131.643 145.782 129.005 145.245 126.413Z" fill="#BA68C8"/>
<path opacity="0.6" d="M145.245 126.413C143.726 124.5 140.638 118.591 139.319 116.017C139.267 115.915 139.186 115.831 139.086 115.776C138.986 115.721 138.872 115.697 138.758 115.707C138.644 115.718 138.536 115.762 138.448 115.834C138.36 115.907 138.295 116.004 138.263 116.114C136.836 120.991 136.008 126.023 135.796 131.1C133.895 129.591 132.26 127.773 130.961 125.722C130.905 125.643 130.828 125.581 130.739 125.544C130.649 125.506 130.551 125.496 130.456 125.512C130.36 125.529 130.272 125.573 130.2 125.638C130.129 125.704 130.078 125.788 130.053 125.882C127.564 135.468 128.814 144.899 128.814 144.899L147.18 134.292C146.415 131.643 145.782 129.005 145.245 126.413Z" fill="white"/>
</svg>
