<svg width="546" height="645" viewBox="0 0 546 645" fill="none" xmlns="http://www.w3.org/2000/svg">
<path d="M517.6 27.0713H292.049V42.1239H502.547V568.172H292.049V583.224H517.6V27.0713Z" fill="#455A64"/>
<path d="M292.049 42.124V57.1766V553.119V568.172H502.547V42.124H292.049Z" fill="white"/>
<path d="M69.9842 568.172V42.1239H292.049V27.0713H54.9316V583.224H292.049V568.172H69.9842Z" fill="#263238"/>
<path d="M69.9844 42.124V568.172H292.05V553.119V57.1766V42.124H69.9844Z" fill="#F5F5F5"/>
<path d="M452.605 58.2699C456.614 59.6009 460.527 61.0744 464.425 62.6114V42.124H337.904H340.091C373.397 43.3124 416.289 46.0852 452.605 58.2699Z" fill="#F5F5F5"/>
<path d="M485.215 42.124V71.7063C490.967 74.4316 496.718 77.2995 502.549 80.215V49.381C497.146 46.8775 491.616 44.4374 485.928 42.124H485.215Z" fill="#F5F5F5"/>
<path d="M134.852 498.692C146.016 494.788 156.734 489.711 166.827 483.545L98.6943 434.426C88.3952 439.29 77.6049 444.345 70.0469 449.716V491.214C86.272 503.176 112.907 506.203 134.852 498.692Z" fill="#F5F5F5"/>
<path d="M252.437 375.071C250.789 365.112 250.683 354.958 252.12 344.966L218.925 337.044C203.08 333.257 185.968 339.706 182.212 350.86C173.007 378.272 148.558 405.113 119.277 423.747C115.057 426.343 110.698 428.708 106.221 430.829L138.623 454.185L254.497 383.802C253.641 380.934 252.953 378.019 252.437 375.071Z" fill="#F5F5F5"/>
<path d="M277.14 421.433C268.346 412.674 261.438 402.208 256.843 390.678L144.963 458.652L173.642 479.329C184.48 472.437 194.747 464.974 205.585 457.876C228.107 443.276 252.088 431.062 277.14 421.433Z" fill="#F5F5F5"/>
<path d="M390.826 378.16L261.057 347.025C259.869 356.1 260.04 365.302 261.564 374.326C264.681 391.132 272.955 406.55 285.236 418.438C318.964 406.157 353.92 397.556 389.495 392.785C400.602 391.201 401.569 380.616 390.826 378.16Z" fill="#F5F5F5"/>
<path d="M127.501 327.774L132.397 298.731L132.888 296.053C132.112 294.468 131.303 292.995 130.59 291.474C123.524 293.359 115.68 293.169 108.218 294.056C100.755 294.944 92.7847 297.463 90.2812 302.343C88.6967 305.338 89.5682 308.681 90.4238 311.755C91.7231 316.572 93.0277 321.383 94.3375 326.19C95.415 330.214 96.5875 334.366 99.9149 337.756C101.924 339.675 104.343 341.111 106.99 341.957C109.636 342.802 112.44 343.035 115.189 342.637C117.099 342.34 118.928 341.656 120.563 340.626C122.198 339.596 123.605 338.242 124.696 336.647C126.234 333.915 127.189 330.894 127.501 327.774Z" fill="#F5F5F5"/>
<path d="M404.438 268.673L485.927 292.884L502.549 281.269V247.599L448.106 231.438L404.438 268.673Z" fill="#E6E6E6"/>
<path d="M457.627 223.325L502.547 236.666V201.982L485.07 199.922L457.627 223.325Z" fill="#E6E6E6"/>
<path d="M485.215 71.7063V42.124H464.426V168.883L198.756 116.959L213.159 42.124H192.751L178.776 114.677L69.9855 110.193V124.026L176.146 128.478L149.653 266.011L77.0523 275.027L69.9855 249.786V295.499C70.6465 307.914 72.5899 320.227 75.7847 332.243C77.1333 338.49 79.7783 344.385 83.5486 349.545C90.8531 358.783 104.733 365.39 119.881 366.975C114.499 374.675 107.907 381.454 100.36 387.05C91.582 393.578 81.1719 398.902 69.9855 403.956V420.356L75.6579 417.916L98.6329 434.473L166.766 483.592L187.364 498.407C167.384 509.499 147.578 518.308 126.71 520.685C121.751 521.24 115.84 521.541 109.518 521.858C96.2391 522.279 83.0042 523.608 69.9062 525.835V540.095C70.952 539.857 71.9819 539.636 73.0752 539.43C85.4345 537.241 97.9382 535.964 110.485 535.611C117.219 535.262 123.589 534.945 129.499 534.28C165.942 530.129 196.506 511.511 228.814 491.8C262.468 471.202 300.623 447.957 350.011 440.954C402.426 433.507 460.846 446.325 502.486 474.418V455.563C477.796 442.157 451.006 433.048 423.262 428.627C438.33 418.233 449.041 404.86 453.113 390.52C453.351 389.68 453.557 388.84 453.763 388.001C454.452 384.996 454.803 381.925 454.809 378.842C454.809 377.254 454.714 375.666 454.523 374.089L502.549 359.813V344.744L450.451 360.288C447.413 354.162 443.296 348.634 438.298 343.968L502.549 313.863V306.257L432.515 339.056C421.377 330.758 408.63 324.876 395.089 321.785L334.594 307.065L478.782 185.694L502.549 188.15V174.191L485.215 172.4V71.7063ZM196.094 130.807L271.088 145.48L267 290.634L169.808 267.01L196.094 130.807ZM91.6612 346.566C87.8743 341.813 86.1472 336.077 84.8321 331.118C81.1526 317.282 79.1785 303.048 78.9537 288.733L146.896 280.303L142.618 302.486C138.467 324.035 133.824 343.889 123.779 360.874C110.469 360.13 97.9991 354.616 91.6612 346.566ZM106.223 430.734L83.4694 414.335C94.6614 409.415 105.318 403.356 115.27 396.256C147.324 372.489 155.706 340.498 162.678 304.356L167.162 281.048L263.704 304.53C258.116 317.442 254.223 331.023 252.122 344.934C250.684 354.926 250.791 365.08 252.439 375.04C252.958 377.955 253.646 380.839 254.498 383.675L138.625 454.089L106.223 430.734ZM215.853 481.438C208.644 485.842 201.593 490.168 194.447 494.288L173.642 479.283L144.963 458.605L256.843 390.631C261.439 402.161 268.346 412.627 277.141 421.386C283.898 428.155 291.535 433.985 299.846 438.72C267.428 450.017 240.507 466.432 215.853 481.485V481.438ZM388.292 334.778C419.728 342.415 438.885 363.901 433.83 385.83C433.672 386.511 433.497 387.193 433.307 387.858C429.013 402.895 415.735 416.759 397.387 425.6C367.578 423.51 337.64 426.953 309.084 435.757C300.334 431.169 292.323 425.293 285.317 418.328C273.046 406.457 264.773 391.063 261.644 374.279C260.12 365.255 259.949 356.053 261.137 346.978C263.086 333.05 266.907 319.448 272.498 306.542L388.292 334.778ZM370.863 254.207L313.996 302.074L276.095 292.852L280.183 147.27L370.847 165.001L370.863 254.207ZM381.257 245.461V167.029L456.853 181.828L381.257 245.461Z" fill="#E0E0E0"/>
<path d="M159.223 139.649L93.7207 137.573V209.287H147.609L159.223 139.649Z" fill="#EBEBEB"/>
<path d="M145.707 222.787H83.3418V252.037H145.707V222.787Z" fill="#EBEBEB"/>
<path d="M308.527 121.095L450.576 146.193V72.0391H360.498V105.789H308.527V121.095Z" fill="#EBEBEB"/>
<path d="M273.892 115.533V54.0391H230.192L222.555 105.757L273.892 115.533Z" fill="#EBEBEB"/>
<path d="M339.711 51.7891H294.664V83.2886H339.711V51.7891Z" fill="#E0E0E0"/>
<path d="M367.709 299.983L442.259 323.354L474.915 300.553L394.915 276.802L367.709 299.983Z" fill="#E6E6E6"/>
<path d="M253.102 155.288H211.525V247.537H253.102V155.288Z" fill="#EBEBEB"/>
<path d="M194.209 243.036H183.814V261.036H194.209V243.036Z" fill="#E0E0E0"/>
<path d="M357.029 176.361L294.664 163.4V210.46V218.287H357.029V176.361Z" fill="#EBEBEB"/>
<path d="M301.604 245.286H287.74V272.286H301.604V245.286Z" fill="#EBEBEB"/>
<path d="M322.392 245.286H308.527V272.286H322.392V245.286Z" fill="#EBEBEB"/>
<path d="M343.181 245.286H329.316V272.286H343.181V245.286Z" fill="#EBEBEB"/>
<path d="M90.2658 42.124H69.9844V97.9453L90.2658 98.6742V42.124Z" fill="#E6E6E6"/>
<path d="M162.692 101.114L172.326 42.124H107.584V99.1495L162.692 101.114Z" fill="#E6E6E6"/>
<path d="M502.547 442.602V414.73L489.697 436.644L502.547 442.602Z" fill="#F0F0F0"/>
<path d="M191.641 494.493C224.472 478.648 245.862 446.8 277.726 429.371C285.865 424.652 294.931 421.754 304.298 420.878C312.617 420.308 320.602 421.005 328.747 418.676C340.139 415.507 347.063 408.107 352.07 397.491C358.234 384.403 362.876 367.212 356.966 353.332C351.326 340.215 341.071 329.622 328.145 323.559C321.078 320.232 313.488 318.251 306.263 315.288C301.509 313.355 295.9 311.248 292.002 307.794C289.055 305.147 290.228 303.452 292.113 299.998C294.648 295.705 297.542 291.634 300.765 287.829C306.611 280.509 313.615 273.394 317.909 264.965C320.919 259.071 321.458 252.416 321.553 245.951C321.87 224.814 322.662 203.725 323.138 182.572C323.138 180.243 319.668 180.274 319.525 182.572C318.368 201.364 317.259 220.314 317.655 239.154C317.798 246.03 318.194 253.588 315.865 260.196C312.791 268.926 305.391 276.215 299.656 283.25C295.042 288.541 290.99 294.297 287.566 300.426C286.124 303.246 285.253 305.179 286.98 308.015C290.83 314.353 301.43 317.522 307.974 320.042C316.229 323.211 324.643 325.429 332.343 330.008C339.584 334.467 345.657 340.589 350.058 347.865C356.681 358.354 357.442 368.273 354.621 380.236C350.977 395.716 344.148 411.213 327.875 416.014C319.953 418.359 312.236 417.741 304.187 418.311C297.33 418.886 290.616 420.594 284.318 423.366C248.192 438.783 224.9 474.338 190.833 493.384C190.041 493.828 190.738 494.968 191.53 494.588L191.641 494.493Z" fill="#263238"/>
<path d="M213.633 398.49C216.12 377.052 188.534 370.286 177.982 386.036C168.332 400.455 194.746 442.839 194.746 442.839M199.499 406.745C197.807 407.918 195.804 408.562 193.745 408.597C191.687 408.631 189.664 408.055 187.933 406.94C186.202 405.825 184.84 404.221 184.021 402.332C183.201 400.443 182.96 398.354 183.328 396.328C183.696 394.302 184.656 392.431 186.088 390.951C187.519 389.471 189.358 388.448 191.37 388.013C193.383 387.578 195.479 387.75 197.394 388.506C199.309 389.262 200.957 390.57 202.129 392.263C203.693 394.537 204.291 397.339 203.792 400.054C203.293 402.769 201.738 405.175 199.467 406.745H199.499Z" fill="#FF725E"/>
<path d="M504.576 218.699C497.177 207.83 492.17 202.426 481.538 198.576C477.464 197.115 473.187 196.297 468.862 196.152C458.689 199.321 451.67 199.321 441.482 196.152C436.269 196.802 431.817 192.983 405.197 209.509C394.217 216.322 386.675 220.822 373.635 227.54C370.069 229.125 367.55 230.155 366.996 229.822C364.587 228.38 338.332 180.339 338.332 180.339C338.332 180.339 332.485 163.733 330.03 163.844C327.574 163.955 310.144 164.478 309.875 167.203C309.606 169.929 310.683 181.923 312.584 183.555C314.486 185.187 321.347 189.56 321.347 189.56C321.347 189.56 350.469 264.855 361.228 263.778C369.15 263.001 399.446 250.389 415.195 243.686L418.681 242.435L420.757 286.087L419.917 341.1L488.573 337.202L487.464 280.589C487.987 266.487 487.622 261.94 489.048 250.246L509.646 258.073L513.307 234.845C510.823 229.243 507.904 223.845 504.576 218.699Z" fill="#E5BAAB"/>
<path d="M318.59 151.802C314.66 142.295 298.879 144.054 297.548 154.068C295.694 168.09 322.773 179.182 322.773 179.182V178.231C322.773 178.231 321.632 159.17 318.59 151.802ZM314.375 159.851C313.926 160.899 313.175 161.791 312.219 162.413C311.262 163.035 310.143 163.359 309.003 163.345C307.862 163.33 306.751 162.978 305.811 162.332C304.87 161.687 304.142 160.777 303.719 159.718C303.296 158.658 303.196 157.497 303.433 156.381C303.669 155.265 304.231 154.245 305.048 153.448C305.865 152.652 306.899 152.116 308.021 151.907C309.142 151.699 310.301 151.827 311.349 152.277C312.754 152.88 313.863 154.017 314.431 155.437C314.998 156.858 314.978 158.445 314.375 159.851Z" fill="#FF725E"/>
<path d="M315.261 175.696C316.204 176.098 317.084 176.631 317.876 177.281L320.585 179.214C321.092 179.594 321.615 179.959 322.17 180.402C322.495 180.649 322.768 180.958 322.972 181.312C323.177 181.666 323.308 182.057 323.358 182.462C323.374 182.845 323.272 183.224 323.065 183.548C322.858 183.871 322.556 184.122 322.201 184.268C321.592 184.522 320.912 184.55 320.284 184.348C319.329 183.991 318.406 183.551 317.527 183.032C315.943 182.208 314.818 181.559 314.358 181.242L314.501 181.099C314.58 181.321 314.596 181.432 314.58 181.448C314.564 181.464 314.469 181.448 314.327 181.194L314.152 180.973L314.453 181.052C314.992 181.226 316.18 181.717 317.812 182.462C318.682 182.895 319.576 183.275 320.49 183.603C321.378 183.904 322.613 183.46 322.534 182.51C322.455 181.559 321.045 180.624 320.126 179.816L317.527 177.756C316.692 177.164 315.931 176.472 315.261 175.696Z" fill="#D78776"/>
<path d="M317.987 171.799C319.035 172.017 320.034 172.425 320.934 173.003C321.971 173.558 322.908 174.281 323.707 175.142C324.195 175.658 324.601 176.246 324.912 176.885C325.123 177.245 325.261 177.643 325.318 178.056C325.375 178.469 325.35 178.89 325.244 179.293C325.158 179.519 325.027 179.724 324.858 179.896C324.689 180.067 324.486 180.202 324.262 180.292C323.869 180.443 323.445 180.498 323.026 180.45C322.317 180.352 321.627 180.143 320.982 179.832C319.908 179.366 318.9 178.759 317.987 178.026C316.403 176.774 315.785 175.713 315.864 175.649C315.943 175.586 316.767 176.473 318.336 177.566C319.263 178.191 320.25 178.722 321.283 179.151C321.858 179.404 322.466 179.575 323.089 179.658C323.723 179.658 324.294 179.531 324.468 179.024C324.602 178.418 324.5 177.783 324.183 177.249C323.916 176.672 323.563 176.138 323.137 175.665C322.413 174.831 321.57 174.11 320.633 173.526C319.701 173.031 318.816 172.453 317.987 171.799Z" fill="#D78776"/>
<path d="M329.983 164.668L316.309 168.693C315.676 168.8 315.109 169.146 314.724 169.659C314.217 170.61 315.12 171.735 316.055 172.273C318.088 173.376 320.412 173.824 322.71 173.557C324.991 173.25 327.236 172.719 329.412 171.972" fill="#E5BAAB"/>
<path d="M329.396 172.036C329.023 172.271 328.617 172.447 328.191 172.559C327.065 172.957 325.917 173.29 324.753 173.557C322.999 173.968 321.186 174.064 319.398 173.842C318.329 173.688 317.292 173.368 316.324 172.891C315.77 172.648 315.274 172.292 314.866 171.846C314.618 171.605 314.428 171.313 314.307 170.989C314.186 170.666 314.139 170.32 314.169 169.976C314.254 169.631 314.428 169.314 314.672 169.056C314.916 168.797 315.223 168.607 315.563 168.502C316.133 168.296 316.656 168.17 317.148 168.011L320.126 167.156L325.213 165.761C326.763 165.261 328.353 164.895 329.966 164.668C328.49 165.317 326.964 165.847 325.403 166.252L320.364 167.837L317.385 168.74C316.387 169.073 315.072 169.263 314.977 170.071C314.973 170.29 315.015 170.507 315.1 170.709C315.184 170.911 315.31 171.093 315.468 171.244C315.807 171.612 316.217 171.908 316.672 172.115C317.558 172.567 318.51 172.877 319.493 173.034C321.197 173.285 322.932 173.253 324.626 172.939C327.558 172.448 329.348 171.893 329.396 172.036Z" fill="#D78776"/>
<path d="M512.848 424.586C518.594 424.972 524.331 423.716 529.39 420.965C534.449 418.214 538.622 414.081 541.422 409.049C544.222 404.017 545.534 398.292 545.205 392.543C544.875 386.793 542.918 381.256 539.562 376.576C535.268 370.571 528.946 366.357 522.782 362.316L500.6 347.691L507.365 405.034L512.784 424.618" fill="#FF725E"/>
<path d="M544.347 386.622C544.073 387.192 543.665 387.686 543.159 388.064C541.823 389.173 540.234 389.935 538.532 390.283C534.254 391.297 527.98 390.409 522.149 387.256C517.249 384.476 512.834 380.918 509.077 376.719C507.603 375.135 506.462 373.852 505.686 372.933C505.252 372.481 504.864 371.988 504.529 371.459C505.038 371.824 505.501 372.25 505.908 372.727L509.489 376.307C513.318 380.328 517.71 383.77 522.529 386.527C527.324 389.284 532.888 390.397 538.374 389.696C540.013 389.42 541.567 388.775 542.921 387.811C543.888 387.114 544.3 386.575 544.347 386.622Z" fill="#263238"/>
<path d="M487.512 282.902L489.096 250.214C489.096 250.214 477.862 240.818 481.538 198.576L476.135 196.991C476.135 196.991 472.808 250.166 445.84 247.837C418.872 245.508 428.411 197.72 428.411 197.72C425.444 197.88 422.621 199.049 420.409 201.032C420.203 201.127 419.221 218.461 418.682 233.212C415.722 238.431 414.243 244.359 414.404 250.357C414.683 254.926 416.44 259.28 419.411 262.763C420.14 272.761 420.868 286.039 420.868 286.039L410.363 313.229L412.883 322.815L489.936 321.959L492.218 311.708L487.512 282.902Z" fill="#455A64"/>
<path d="M475.898 246.221C475.646 247.373 475.142 248.455 474.425 249.39C473.411 250.975 472.428 252.258 472.238 252.147C472.048 252.037 472.698 250.563 473.712 248.978C474.726 247.394 475.708 246.095 475.898 246.221Z" fill="white"/>
<path d="M479.131 273.712C478.956 273.871 477.546 272.635 475.819 270.94C474.714 270.001 473.79 268.868 473.094 267.596C473.268 267.422 474.678 268.674 476.405 270.353C477.513 271.295 478.437 272.434 479.131 273.712Z" fill="white"/>
<path d="M434.606 253.066C432.286 255.219 429.604 256.946 426.684 258.168C429.004 256.015 431.686 254.288 434.606 253.066Z" fill="white"/>
<path d="M422.468 251.118C421.194 250.853 419.993 250.312 418.95 249.533C417.112 248.472 415.781 247.458 415.781 247.268C417.054 247.536 418.254 248.076 419.299 248.852C421.184 249.914 422.579 250.928 422.468 251.118Z" fill="white"/>
<path d="M422.739 218.113C423.073 219.551 423.148 221.038 422.96 222.502C423.024 223.974 422.82 225.445 422.358 226.844C422.003 225.414 421.928 223.929 422.136 222.471C422.057 220.993 422.261 219.514 422.739 218.113Z" fill="white"/>
<path d="M478.687 223.864C478.893 223.975 478.481 225.195 477.784 226.605C477.087 228.016 476.342 229.077 476.199 228.982C476.057 228.887 476.405 227.651 477.103 226.241C477.8 224.831 478.481 223.769 478.687 223.864Z" fill="white"/>
<path d="M450.529 266.899C449.619 264.677 449.234 262.275 449.404 259.88C450.311 262.103 450.696 264.504 450.529 266.899Z" fill="white"/>
<path d="M468.038 245.381C468.133 245.587 467.404 246.142 466.454 246.601C465.503 247.061 464.568 247.299 464.473 247.093C464.378 246.887 465.107 246.332 466.058 245.857C467.008 245.381 467.943 245.175 468.038 245.381Z" fill="white"/>
<path d="M486.973 257.677C487.052 257.883 486.244 258.342 485.182 258.675C484.121 259.008 483.202 259.119 483.122 258.913C483.043 258.707 483.867 258.231 484.929 257.899C485.99 257.566 486.909 257.455 486.973 257.677Z" fill="white"/>
<path d="M429.662 244.985C429.472 245.096 428.584 243.971 427.681 242.45C426.778 240.929 426.208 239.598 426.398 239.487C426.588 239.376 427.491 240.501 428.394 242.022C429.297 243.543 429.836 244.874 429.662 244.985Z" fill="white"/>
<path d="M430.755 268.594C430.549 268.69 430.153 268.198 429.661 267.676C429.17 267.153 428.727 266.677 428.837 266.471C428.948 266.265 429.677 266.471 430.264 267.121C430.85 267.771 430.977 268.531 430.755 268.594Z" fill="white"/>
<path d="M420.9 306.289C420.748 305.148 420.868 303.986 421.248 302.899C421.676 301.077 422.199 299.65 422.421 299.73C422.572 300.873 422.447 302.036 422.056 303.121C421.644 304.911 421.122 306.337 420.9 306.289Z" fill="white"/>
<path d="M437.441 306.876C437.283 307.018 436.063 305.988 434.732 304.546C433.401 303.104 432.466 301.805 432.64 301.663C432.814 301.52 434.019 302.55 435.349 303.992C436.68 305.434 437.584 306.717 437.441 306.876Z" fill="white"/>
<path d="M429.899 315.701C429.899 315.923 428.489 315.701 426.905 315.083C425.32 314.465 424.116 313.894 424.195 313.673C424.274 313.451 425.605 313.673 427.19 314.306C428.774 314.94 429.978 315.447 429.899 315.701Z" fill="white"/>
<path d="M451.511 304.435C451.394 305.613 451.003 306.747 450.37 307.747C449.53 309.474 448.675 310.789 448.469 310.694C448.597 309.516 448.992 308.383 449.625 307.382C450.465 305.655 451.305 304.356 451.511 304.435Z" fill="white"/>
<path d="M470.083 308.634C469.493 310.215 468.373 311.542 466.914 312.389C465.61 313.441 463.978 314.002 462.303 313.974C462.303 313.736 464.315 313.134 466.454 311.644C468.593 310.155 469.877 308.507 470.083 308.634Z" fill="white"/>
<path d="M485.229 313.863C483.505 313 481.906 311.907 480.476 310.615C478.869 309.523 477.423 308.211 476.182 306.717C477.906 307.547 479.505 308.614 480.935 309.886C482.556 310.991 484.003 312.331 485.229 313.863Z" fill="white"/>
<path d="M461.462 287.719C460.416 289.122 459.16 290.357 457.739 291.379C456.497 292.612 455.063 293.634 453.492 294.405C454.538 293.002 455.794 291.767 457.216 290.745C458.457 289.512 459.891 288.49 461.462 287.719Z" fill="white"/>
<path d="M438.473 288.511C437.14 287.664 435.966 286.592 435.003 285.342C433.837 284.308 432.866 283.073 432.135 281.697C433.46 282.514 434.634 283.554 435.605 284.771C436.769 285.843 437.739 287.108 438.473 288.511Z" fill="white"/>
<path d="M460.274 277.42C459.036 278.194 457.666 278.731 456.233 279.005C454.868 279.531 453.418 279.805 451.955 279.813C454.549 278.488 457.373 277.67 460.274 277.404V277.42Z" fill="white"/>
<path d="M480.365 291.68C479.356 290.579 478.561 289.301 478.02 287.909C477.246 286.638 476.709 285.236 476.436 283.773C477.445 284.874 478.24 286.153 478.781 287.545C479.554 288.816 480.091 290.217 480.365 291.68Z" fill="white"/>
<path d="M423.768 283.33C424.029 284.718 424.029 286.141 423.768 287.529C423.763 288.941 423.489 290.339 422.96 291.649C422.68 290.263 422.68 288.835 422.96 287.45C422.957 286.037 423.231 284.637 423.768 283.33Z" fill="white"/>
<path d="M426.239 165.001C422.329 165.599 418.339 165.389 414.514 164.383C412.625 163.856 410.875 162.921 409.386 161.646C407.897 160.37 406.705 158.784 405.894 156.999C405.128 155.18 404.995 153.156 405.515 151.252C406.035 149.347 407.178 147.672 408.762 146.494C410.346 145.48 412.422 144.91 413.151 143.182C413.88 141.455 412.565 139.221 411.646 137.336C410.431 134.821 410.055 131.983 410.57 129.238C411.086 126.493 412.467 123.986 414.512 122.083C416.556 120.181 419.156 118.983 421.931 118.665C424.706 118.347 427.509 118.927 429.931 120.318C430.303 115.969 432.274 111.913 435.464 108.933C438.654 105.954 442.835 104.263 447.199 104.188C451.563 104.113 455.8 105.659 459.091 108.528C462.381 111.396 464.49 115.383 465.011 119.716C465.312 122.236 465.106 124.945 466.39 127.148C467.847 129.651 470.842 130.792 472.87 132.868C476.815 136.908 476.277 143.531 474.455 148.887C472.632 154.242 469.796 159.471 469.971 165.128" fill="#263238"/>
<path d="M441.308 196.453C440.928 190.86 440.5 185.758 440.5 185.758C440.5 185.758 428.87 184.823 427.824 173.32C426.778 161.816 426.905 135.292 426.905 135.292L447.789 124.438L468.878 141.519L469.258 195.392C469.288 198.953 467.959 202.393 465.542 205.009C463.125 207.626 459.803 209.224 456.25 209.478C452.542 209.73 448.885 208.5 446.083 206.058C443.282 203.616 441.564 200.161 441.308 196.453Z" fill="#E5BAAB"/>
<path d="M429.742 154.559C429.764 154.846 429.87 155.121 430.045 155.349C430.221 155.577 430.46 155.748 430.732 155.842C431.005 155.935 431.298 155.947 431.577 155.876C431.856 155.804 432.108 155.653 432.302 155.44C432.495 155.227 432.623 154.962 432.667 154.678C432.712 154.393 432.673 154.102 432.554 153.84C432.435 153.578 432.242 153.356 431.999 153.202C431.755 153.049 431.472 152.969 431.184 152.975C430.984 152.979 430.786 153.023 430.604 153.106C430.421 153.189 430.257 153.308 430.122 153.456C429.987 153.605 429.884 153.779 429.818 153.969C429.753 154.158 429.727 154.359 429.742 154.559Z" fill="#263238"/>
<path d="M428.284 152.99C428.474 153.18 429.536 152.23 431.12 152.103C432.704 151.976 433.925 152.721 434.083 152.499C434.241 152.277 433.956 152.055 433.417 151.707C432.703 151.275 431.871 151.081 431.04 151.152C430.208 151.223 429.421 151.556 428.791 152.103C428.331 152.531 428.189 152.911 428.284 152.99Z" fill="#263238"/>
<path d="M446.823 154.147C446.825 154.341 446.866 154.533 446.943 154.711C447.02 154.889 447.132 155.05 447.272 155.184C447.413 155.319 447.578 155.424 447.76 155.493C447.941 155.562 448.134 155.595 448.328 155.589C448.719 155.589 449.094 155.433 449.37 155.157C449.647 154.881 449.802 154.506 449.802 154.115C449.802 153.724 449.647 153.349 449.37 153.073C449.094 152.797 448.719 152.641 448.328 152.641C448.129 152.635 447.93 152.669 447.745 152.743C447.559 152.816 447.39 152.926 447.249 153.068C447.108 153.209 446.997 153.377 446.924 153.563C446.851 153.749 446.816 153.947 446.823 154.147Z" fill="#263238"/>
<path d="M445.856 152.563C446.062 152.753 447.124 151.803 448.708 151.676C450.293 151.549 451.497 152.294 451.655 152.072C451.814 151.85 451.529 151.628 451.006 151.28C450.312 150.838 449.498 150.622 448.677 150.662C447.842 150.719 447.05 151.054 446.427 151.613C445.92 152.104 445.761 152.484 445.856 152.563Z" fill="#263238"/>
<path d="M440.468 166.094C439.61 166.283 438.73 166.352 437.853 166.3C437.623 166.338 437.387 166.338 437.156 166.3C437.006 166.261 436.866 166.189 436.745 166.091C436.625 165.992 436.527 165.869 436.459 165.729C436.309 165.173 436.348 164.582 436.57 164.05C436.887 163.004 437.204 161.895 437.537 160.722C438.268 157.843 439.221 155.025 440.389 152.293C439.869 155.222 439.133 158.108 438.186 160.928C437.838 162.085 437.505 163.178 437.172 164.24C436.991 164.636 436.925 165.076 436.982 165.508C437.061 165.793 437.457 165.84 437.853 165.856C438.731 165.832 439.609 165.911 440.468 166.094Z" fill="#263238"/>
<path d="M445.95 167.394C446.061 167.267 441.371 170.23 438.139 170.309C438.737 171.101 439.586 171.667 440.547 171.915C441.508 172.162 442.525 172.076 443.431 171.672C444.312 171.406 445.06 170.818 445.527 170.025C445.994 169.232 446.145 168.293 445.95 167.394Z" fill="white"/>
<path d="M440.5 185.758C445.967 185.401 451.217 183.488 455.632 180.244C455.632 180.244 452.384 188.784 440.833 188.579L440.5 185.758Z" fill="#D78776"/>
<path d="M421.74 138.746C425.353 142.105 431.025 142.58 435.652 140.869C440.252 138.924 444.215 135.73 447.092 131.647C449.102 133.611 451.571 135.041 454.275 135.808C456.978 136.574 459.831 136.653 462.572 136.036C463.396 146.51 465.218 152.911 469.148 163.416C469.148 163.416 468.229 167.995 469.623 167.362C470.97 160.105 472.254 152.372 473.6 145.179C474.076 142.549 474.551 139.728 473.505 137.257C472.46 134.785 469.766 132.994 467.453 131.299C464.585 129.191 461.954 126.751 459.039 124.723C456.189 122.55 452.807 121.182 449.247 120.762C445.608 120.744 442.002 121.461 438.647 122.869C434.658 123.981 430.901 125.801 427.555 128.241C424.386 130.871 422.136 135.054 422.96 139.095" fill="#263238"/>
<path d="M468.941 152.452C470.099 151.91 471.344 151.578 472.617 151.47C473.261 151.429 473.905 151.552 474.487 151.83C475.069 152.107 475.571 152.528 475.945 153.054C476.417 153.893 476.537 154.884 476.278 155.811C476.095 156.559 475.749 157.257 475.263 157.854C474.778 158.451 474.165 158.933 473.47 159.263C472.775 159.594 472.015 159.766 471.246 159.766C470.476 159.767 469.716 159.595 469.021 159.265" fill="#E5BAAB"/>
<path d="M452.542 149.647C452.717 149.647 452.843 150.44 452.21 151.105C451.576 151.771 450.752 151.676 450.768 151.485C450.784 151.295 451.291 151.105 451.719 150.63C452.146 150.154 452.336 149.647 452.542 149.647Z" fill="#263238"/>
<path d="M411.471 332.876L391.538 633.421C390.065 633.69 371.368 637.239 371.859 639.965C372.35 642.69 419.758 641.105 419.758 641.105L447.645 379.935L491.044 328.709L411.471 332.876Z" fill="#E5BAAB"/>
<path d="M419.251 638.824C419.251 639.284 408.35 639.569 394.914 639.458C381.477 639.347 370.56 638.887 370.576 638.428C370.592 637.968 381.477 637.699 394.914 637.81C408.35 637.921 419.251 638.365 419.251 638.824Z" fill="#263238"/>
<path d="M386.469 639.331C386.231 639.331 385.851 637.525 384.504 635.734C383.157 633.944 381.541 633.009 381.652 632.787C383.05 633.209 384.272 634.077 385.13 635.259C385.989 636.441 386.436 637.871 386.405 639.331H386.469Z" fill="#263238"/>
<path d="M420.156 630.982C411.8 630.708 403.608 633.34 396.975 638.429C397.738 637.453 398.659 636.612 399.7 635.941C402.113 634.191 404.786 632.833 407.622 631.916C410.472 630.991 413.452 630.531 416.448 630.554C417.699 630.49 418.952 630.635 420.156 630.982Z" fill="#263238"/>
<path d="M420.313 627.701C415.431 627.973 410.538 627.973 405.656 627.701C400.765 627.71 395.877 627.446 391.016 626.909C395.897 626.631 400.791 626.631 405.672 626.909C410.563 626.904 415.451 627.168 420.313 627.701Z" fill="#263238"/>
<path d="M420.614 622.504C415.704 623.04 410.769 623.305 405.831 623.296C400.896 623.584 395.95 623.584 391.016 623.296C395.926 622.769 400.861 622.504 405.799 622.504C410.734 622.236 415.679 622.236 420.614 622.504Z" fill="#263238"/>
<path d="M371.036 638.523C370.849 638.98 370.847 639.492 371.031 639.95C371.214 640.408 371.568 640.778 372.019 640.979C372.962 641.313 373.991 641.313 374.934 640.979C375.872 640.663 376.847 640.472 377.834 640.409C379.878 640.409 381.747 641.993 383.776 641.724C384.996 641.581 386.073 640.789 387.277 640.599C389.416 640.282 391.429 641.867 393.615 641.851C395.802 641.835 397.782 640.266 399.953 640.393C402.124 640.52 403.613 642.152 405.594 642.184C407.178 642.184 408.573 641.249 410.126 641.185C412.249 641.106 414.245 642.675 416.337 642.279C416.756 642.203 417.153 642.034 417.499 641.784C417.844 641.535 418.129 641.211 418.333 640.837C418.528 640.455 418.602 640.024 418.546 639.599C418.489 639.174 418.304 638.777 418.016 638.46" fill="#263238"/>
<path d="M412.993 623.074C412.993 623.154 412.042 622.742 410.933 621.569C410.276 620.867 409.793 620.02 409.523 619.097C409.369 618.535 409.304 617.952 409.333 617.37C409.336 617.022 409.413 616.679 409.558 616.362C409.702 616.046 409.912 615.763 410.172 615.532C410.348 615.408 410.551 615.33 410.764 615.306C410.977 615.281 411.193 615.31 411.392 615.39C411.715 615.529 411.999 615.747 412.216 616.024C412.572 616.505 412.85 617.04 413.04 617.608C413.376 618.508 413.495 619.474 413.389 620.428C413.167 622.013 412.47 622.868 412.407 622.805C412.343 622.742 412.755 621.886 412.803 620.397C412.823 619.534 412.666 618.677 412.343 617.877C412.148 617.423 411.892 616.996 411.583 616.61C411.266 616.229 410.901 616.055 410.648 616.277C410.326 616.608 410.144 617.051 410.141 617.513C410.105 618.002 410.143 618.493 410.252 618.971C410.467 619.805 410.849 620.587 411.377 621.268C412.232 622.377 413.088 622.964 412.993 623.074Z" fill="#263238"/>
<path d="M412.962 622.108C412.866 622.108 412.771 621.284 413.421 620.175C413.815 619.528 414.359 618.985 415.006 618.59C415.4 618.373 415.82 618.207 416.257 618.099C416.567 618.022 416.894 618.061 417.176 618.21C417.339 618.314 417.464 618.466 417.535 618.645C417.606 618.824 417.619 619.021 417.572 619.208C417.467 620.05 417.106 620.839 416.54 621.47C415.974 622.102 415.228 622.545 414.403 622.742C413.136 623.011 412.391 622.631 412.423 622.551C412.455 622.472 413.199 622.551 414.245 622.187C414.907 621.951 415.492 621.538 415.936 620.994C416.38 620.449 416.666 619.793 416.764 619.097C416.764 618.891 416.764 618.907 416.764 618.907C416.65 618.878 416.53 618.878 416.416 618.907C415.416 619.112 414.526 619.676 413.912 620.492C413.215 621.395 413.088 622.124 412.962 622.108Z" fill="#263238"/>
<path d="M513.149 622.695L512.737 622.806L499.713 517.644L487.402 333.844L451.513 367.799C450.626 369.463 462.779 515.996 465.361 526.247C467.801 535.881 482.997 619.241 484.835 629.318C482.696 630.395 466.661 638.524 467.849 640.932C469.037 643.341 514.227 628.89 514.227 628.89L513.149 622.695Z" fill="#E5BAAB"/>
<path d="M514.432 629.175C514.558 629.618 504.148 632.882 491.187 636.463C478.226 640.044 467.626 642.595 467.499 642.152C467.372 641.708 477.798 638.46 490.759 634.863C503.72 631.266 514.321 628.668 514.432 629.175Z" fill="#263238"/>
<path d="M483.059 638.587C482.837 638.682 481.95 637.002 480.175 635.656C478.401 634.309 476.578 633.849 476.626 633.596C478.097 633.609 479.523 634.104 480.685 635.006C481.847 635.907 482.681 637.165 483.059 638.587Z" fill="#263238"/>
<path d="M513.179 621.253C509.203 622.399 505.402 624.083 501.882 626.26C498.517 628.672 495.504 631.541 492.93 634.784C493.392 633.624 494.052 632.552 494.879 631.615C498.601 626.882 503.735 623.457 509.535 621.839C510.711 621.449 511.941 621.251 513.179 621.253Z" fill="#263238"/>
<path d="M512.403 618.083C507.781 619.691 503.073 621.04 498.301 622.123C493.612 623.452 488.851 624.51 484.041 625.292C488.665 623.695 493.372 622.351 498.143 621.268C502.833 619.94 507.594 618.876 512.403 618.083Z" fill="#263238"/>
<path d="M511.263 613.029C506.688 614.899 502.012 616.513 497.256 617.862C492.582 619.47 487.821 620.813 482.996 621.887C487.572 620.04 492.248 618.452 497.003 617.133C501.68 615.513 506.44 614.143 511.263 613.029Z" fill="#263238"/>
<path d="M467.99 642.025C467.927 642.512 468.058 643.004 468.354 643.395C468.65 643.787 469.089 644.046 469.575 644.116C470.581 644.235 471.597 643.994 472.443 643.435C473.258 642.875 474.142 642.422 475.073 642.088C477.054 641.55 479.272 642.532 481.157 641.724C482.298 641.249 483.106 640.139 484.231 639.68C486.196 638.777 488.557 639.68 490.569 639.157C492.581 638.634 494.134 636.448 496.273 635.988C498.412 635.529 500.282 636.685 502.215 636.162C503.704 635.766 504.814 634.451 506.287 633.976C508.299 633.31 510.66 634.261 512.625 633.31C513.021 633.133 513.37 632.865 513.645 632.53C513.92 632.195 514.113 631.8 514.21 631.377C514.29 630.955 514.241 630.519 514.068 630.126C513.896 629.733 513.608 629.401 513.243 629.175" fill="#263238"/>
<path d="M504.133 615.675C503.264 615.606 502.431 615.299 501.724 614.788C500.895 614.298 500.199 613.612 499.696 612.791C499.39 612.304 499.17 611.768 499.047 611.207C498.955 610.871 498.935 610.521 498.987 610.177C499.039 609.833 499.162 609.504 499.348 609.21C499.477 609.039 499.649 608.905 499.846 608.822C500.044 608.738 500.26 608.708 500.473 608.735C500.823 608.783 501.156 608.919 501.439 609.131C501.907 609.472 502.319 609.883 502.659 610.351C503.224 611.132 503.603 612.032 503.768 612.981C503.995 613.839 503.887 614.751 503.467 615.532C503.325 615.532 503.562 614.55 503.198 613.092C502.968 612.266 502.58 611.491 502.057 610.811C501.745 610.426 501.383 610.084 500.98 609.797C500.568 609.511 500.172 609.448 499.997 609.717C499.771 610.123 499.714 610.601 499.839 611.048C499.938 611.531 500.109 611.995 500.346 612.427C500.781 613.17 501.363 613.817 502.057 614.328C503.23 615.2 504.133 615.548 504.133 615.675Z" fill="#263238"/>
<path d="M503.784 614.756C503.784 614.756 503.388 614.012 503.784 612.76C503.983 612.04 504.359 611.381 504.877 610.843C505.196 610.519 505.558 610.242 505.954 610.019C506.228 609.863 506.549 609.813 506.858 609.876C507.038 609.934 507.197 610.045 507.313 610.195C507.429 610.345 507.497 610.527 507.507 610.716C507.639 611.556 507.511 612.416 507.14 613.18C506.769 613.945 506.173 614.578 505.432 614.994C504.291 615.596 503.467 615.438 503.483 615.359C503.498 615.279 504.212 615.153 505.067 614.503C505.643 614.098 506.096 613.542 506.375 612.896C506.655 612.25 506.75 611.54 506.652 610.843C506.652 610.637 506.652 610.653 506.652 610.669C506.53 610.658 506.408 610.686 506.303 610.748C505.41 611.229 504.715 612.008 504.338 612.95C503.847 613.996 503.926 614.741 503.784 614.756Z" fill="#263238"/>
<path d="M489.872 316.208L412.819 317.079L388.386 420.926C388.386 420.926 382.381 446.278 412.438 447.498C442.496 448.718 456.645 435.567 481.728 445.248C498.016 451.586 521.625 439.813 520.468 437.136C506.541 405.082 506.858 359.1 489.872 316.208Z" fill="#263238"/>
<path d="M513.354 444.361C513.354 444.361 513.227 443.918 513.037 443.078C512.847 442.238 512.577 440.971 512.149 439.386C510.851 434.933 509.231 430.58 507.301 426.362C504.27 420.112 501.625 413.683 499.379 407.11C497.052 398.927 495.706 390.497 495.37 381.996C494.847 372.965 494.815 364.361 494.292 356.645C493.938 349.704 492.957 342.81 491.361 336.046C490.273 331.511 488.712 327.104 486.703 322.895C485.99 321.406 485.388 320.281 484.944 319.536C484.701 319.163 484.499 318.764 484.342 318.348C484.612 318.697 484.86 319.062 485.087 319.441C485.781 320.509 486.415 321.615 486.988 322.753C489.14 326.921 490.804 331.323 491.947 335.872C493.633 342.626 494.694 349.522 495.116 356.47C495.687 364.298 495.734 372.901 496.257 381.822C496.582 390.274 497.89 398.66 500.155 406.809C502.355 413.36 504.921 419.782 507.84 426.045C509.761 430.318 511.324 434.744 512.514 439.275C512.894 440.86 513.163 442.143 513.274 443.015C513.345 443.46 513.372 443.911 513.354 444.361Z" fill="#455A64"/>
<path d="M441.465 359.005C441.465 359.005 441.354 359.131 441.053 359.242C440.613 359.402 440.139 359.451 439.675 359.385C438.818 359.229 438.021 358.84 437.37 358.262C436.719 357.684 436.239 356.937 435.983 356.105C435.421 353.681 435.271 351.179 435.539 348.705C435.619 345.917 435.714 342.89 435.809 339.721C436.031 333.384 436.268 327.584 436.474 323.401C436.601 321.452 436.696 319.804 436.775 318.458C436.789 317.85 436.863 317.245 436.997 316.651C437.109 317.252 437.141 317.865 437.092 318.474C437.092 319.82 437.092 321.468 437.092 323.417C437.092 327.6 436.886 333.368 436.664 339.753C436.553 342.922 436.443 345.948 436.332 348.721C436.038 351.117 436.118 353.544 436.569 355.915C436.77 356.676 437.169 357.37 437.726 357.927C438.283 358.484 438.977 358.883 439.738 359.084C440.314 359.163 440.899 359.136 441.465 359.005Z" fill="#455A64"/>
<path d="M441.309 320.676C441.214 320.676 441.942 320.042 443.099 320.549C443.427 320.694 443.718 320.912 443.949 321.187C444.18 321.461 444.344 321.785 444.43 322.134C444.501 322.6 444.413 323.078 444.18 323.488C443.947 323.899 443.583 324.22 443.147 324.399C442.727 324.622 442.243 324.692 441.777 324.597C441.311 324.501 440.894 324.247 440.596 323.877C440.401 323.554 440.299 323.184 440.299 322.807C440.299 322.43 440.401 322.06 440.596 321.738C440.701 321.521 440.852 321.33 441.038 321.177C441.224 321.024 441.44 320.912 441.673 320.85C442.006 320.771 442.18 320.85 442.18 320.85C442.18 320.85 441.451 321.024 441.134 321.943C441.042 322.174 441.005 322.424 441.027 322.672C441.049 322.919 441.13 323.158 441.261 323.37C441.463 323.578 441.728 323.713 442.015 323.753C442.302 323.793 442.595 323.736 442.846 323.591C443.123 323.489 443.36 323.299 443.52 323.05C443.68 322.802 443.755 322.508 443.733 322.213C443.688 321.957 443.589 321.714 443.441 321.501C443.293 321.287 443.101 321.109 442.877 320.977C442.006 320.549 441.34 320.803 441.309 320.676Z" fill="#455A64"/>
<path d="M491.664 336.775C491.222 336.908 490.763 336.977 490.302 336.981C489.04 337.056 487.776 337.056 486.515 336.981C482.297 336.853 478.196 335.565 474.663 333.257C472.919 332.048 471.452 330.481 470.359 328.662C469.267 326.843 468.573 324.812 468.325 322.704C468.189 321.428 468.296 320.138 468.642 318.902C468.732 318.442 468.915 318.005 469.181 317.618C468.827 319.268 468.731 320.962 468.895 322.641C469.219 324.632 469.94 326.538 471.015 328.244C472.09 329.951 473.498 331.424 475.154 332.576C478.577 334.796 482.508 336.11 486.578 336.394C489.7 336.727 491.664 336.632 491.664 336.775Z" fill="#263238"/>
<path d="M419.188 316.366C419.188 316.366 419.362 316.762 419.521 317.507C419.701 318.555 419.807 319.614 419.837 320.676C419.93 324.287 419.3 327.88 417.984 331.244C416.827 334.707 414.665 337.747 411.772 339.975C410.846 340.601 409.79 341.007 408.683 341.163C408.287 341.261 407.874 341.261 407.479 341.163C408.901 340.939 410.255 340.398 411.44 339.579C414.096 337.294 416.093 334.339 417.223 331.023C418.485 327.743 419.171 324.269 419.251 320.755C419.33 318.062 419.045 316.382 419.188 316.366Z" fill="#263238"/>
<path d="M517.712 431.114C516.519 432.413 515.155 433.543 513.656 434.474C509.569 437.037 504.963 438.661 500.172 439.227C493.08 440.014 485.909 439.672 478.924 438.213C471.002 436.882 462.446 434.695 453.256 434.616C444.066 434.537 435.573 437.341 427.904 439.37C424.259 440.378 420.555 441.156 416.813 441.699C413.512 442.114 410.176 442.178 406.862 441.889C402.032 441.558 397.372 439.969 393.346 437.278C392.725 436.853 392.132 436.387 391.572 435.884C391.15 435.526 390.752 435.139 390.383 434.727C390.066 434.403 389.769 434.059 389.496 433.697C390.765 434.893 392.115 436 393.537 437.009C397.562 439.557 402.169 441.04 406.925 441.318C410.196 441.559 413.483 441.458 416.733 441.017C420.475 440.448 424.179 439.654 427.825 438.641C435.525 436.644 444.05 433.761 453.43 433.887C462.81 434.014 471.382 436.201 479.225 437.563C486.136 439.043 493.235 439.439 500.267 438.736C505.002 438.225 509.573 436.707 513.672 434.283C516.35 432.382 517.633 430.972 517.712 431.114Z" fill="#263238"/>
<path d="M487.876 318.775C487.67 318.902 487.226 318.553 486.877 318.014C486.529 317.476 486.402 316.921 486.592 316.794C486.782 316.668 487.226 317 487.575 317.555C487.923 318.11 488.066 318.617 487.876 318.775Z" fill="#455A64"/>
<path d="M492.186 327.616C491.98 327.711 491.378 326.761 490.839 325.525C490.3 324.289 490.031 323.212 490.221 323.101C490.411 322.99 491.045 323.94 491.584 325.208C492.122 326.476 492.408 327.537 492.186 327.616Z" fill="#455A64"/>
<path d="M495.07 337.044C494.848 337.044 494.388 336.078 494.04 334.762C493.691 333.447 493.58 332.354 493.802 332.275C494.024 332.196 494.484 333.225 494.832 334.556C495.181 335.887 495.292 336.981 495.07 337.044Z" fill="#455A64"/>
<path d="M496.843 346.725C496.622 346.725 496.273 345.695 496.051 344.349C495.829 343.002 495.861 341.908 496.051 341.861C496.241 341.813 496.622 342.875 496.843 344.222C497.065 345.569 497.065 346.694 496.843 346.725Z" fill="#455A64"/>
<path d="M497.795 356.517C497.573 356.517 497.288 355.455 497.177 354.109C497.066 352.762 497.177 351.637 497.383 351.605C497.589 351.573 497.874 352.667 498.001 354.029C498.127 355.392 498.08 356.501 497.795 356.517Z" fill="#455A64"/>
<path d="M498.412 366.357C498.174 366.357 497.952 365.279 497.873 363.917C497.794 362.554 497.873 361.445 498.158 361.429C498.443 361.413 498.633 362.522 498.697 363.885C498.76 365.248 498.633 366.357 498.412 366.357Z" fill="#455A64"/>
<path d="M498.903 376.196C498.681 376.196 498.428 375.119 498.364 373.756C498.301 372.393 498.364 371.284 498.634 371.284C498.903 371.284 499.109 372.362 499.188 373.724C499.268 375.087 499.125 376.18 498.903 376.196Z" fill="#455A64"/>
<path d="M499.697 386.02C499.459 386.02 499.174 384.959 499.047 383.612C498.92 382.265 499.047 381.124 499.237 381.109C499.427 381.093 499.744 382.186 499.871 383.533C499.998 384.88 499.919 385.989 499.697 386.02Z" fill="#455A64"/>
<path d="M501.123 395.764C500.901 395.764 500.537 394.75 500.315 393.404C500.093 392.057 500.077 390.932 500.315 390.9C500.553 390.868 500.917 391.93 501.139 393.261C501.361 394.592 501.345 395.717 501.123 395.764Z" fill="#455A64"/>
<path d="M503.562 405.303C503.356 405.383 502.864 404.369 502.484 403.053C502.104 401.738 501.977 400.629 502.199 400.582C502.421 400.534 502.896 401.532 503.276 402.832C503.657 404.131 503.784 405.24 503.562 405.303Z" fill="#455A64"/>
<path d="M507.303 414.399C507.113 414.51 506.431 413.607 505.861 412.355C505.29 411.103 505.021 410.01 505.227 409.931C505.433 409.851 506.051 410.77 506.606 412.006C507.16 413.242 507.556 414.288 507.303 414.399Z" fill="#455A64"/>
<path d="M512.055 423.05C511.849 423.161 511.152 422.289 510.471 421.101C509.789 419.912 509.441 418.851 509.647 418.74C509.853 418.629 510.534 419.516 511.231 420.705C511.928 421.893 512.261 422.955 512.055 423.05Z" fill="#455A64"/>
<path d="M516.08 432.034C515.858 432.113 515.288 431.147 514.796 429.895C514.305 428.643 514.068 427.55 514.274 427.455C514.479 427.36 515.05 428.326 515.557 429.594C516.064 430.861 516.302 431.97 516.08 432.034Z" fill="#455A64"/>
<path d="M517.427 439.211C517.189 439.211 516.967 438.704 516.904 438.07C516.84 437.436 516.983 436.882 517.205 436.85C517.427 436.818 517.664 437.325 517.728 437.991C517.791 438.656 517.649 439.211 517.427 439.211Z" fill="#455A64"/>
<path d="M431.453 196.88C431.453 196.88 475.312 338.152 503.515 359.274L501.297 346.867C484.327 317.206 463.983 259.721 441.293 196.151C439.407 194.678 432.293 195.216 431.453 196.88Z" fill="#FF725E"/>
<path d="M488.161 249.184L503.356 282.997C481.347 282.87 457.263 277.8 447.154 275.075C446.378 274.33 445.57 273.49 444.603 272.524C443.535 271.386 442.662 270.08 442.02 268.657C441.156 266.923 440.533 265.078 440.167 263.175C440.008 261.416 437.822 260.719 436.998 262.082C436.174 263.445 436.522 268.341 439.327 273.332C442.131 278.323 433.876 274.916 430.85 273.807C427.824 272.698 418.269 269.45 417.192 270.099C415.607 271.066 416.368 272.983 419.426 274.076C422.484 275.17 431.436 279.131 430.771 280.715C430.105 282.3 414.767 276.089 414.767 276.089C414.767 276.089 411.598 274.235 410.87 276.089C409.396 279.353 426.176 284.708 427.792 285.168C428.901 285.501 428.251 287.243 427.079 286.831C425.906 286.42 411.884 280.303 410.347 283.663C409.174 286.198 424.116 288.194 426.366 291.078C428.616 293.962 415.148 288.4 414.134 290.872C413.753 291.791 413.595 292.456 421.755 294.611C428.383 295.97 435.079 296.97 441.815 297.606C454.76 301.393 486.608 308.697 509.773 308.016C509.773 308.016 542.619 308.586 536.931 288.717C530.815 267.422 513.322 234.924 513.322 234.924L488.161 249.184Z" fill="#E5BAAB"/>
<path d="M470.859 158.583C470.552 158.543 470.242 158.625 469.995 158.812C469.749 158.999 469.587 159.275 469.543 159.582C469.539 159.733 469.565 159.883 469.62 160.024C469.674 160.165 469.756 160.294 469.861 160.403C469.965 160.512 470.091 160.6 470.229 160.66C470.368 160.72 470.517 160.752 470.668 160.754C470.821 160.739 470.968 160.693 471.101 160.618C471.235 160.543 471.351 160.441 471.444 160.319C471.536 160.197 471.602 160.058 471.638 159.909C471.673 159.76 471.678 159.605 471.651 159.455C471.606 159.311 471.53 159.178 471.43 159.064C471.33 158.951 471.208 158.86 471.07 158.797C470.933 158.735 470.784 158.701 470.632 158.7C470.481 158.699 470.332 158.729 470.193 158.789" fill="#FF725E"/>
<path d="M266.049 0.75293V126.672L233.948 94.5701H0.205078V0.75293H266.049Z" fill="#FF725E"/>
<path d="M201.562 86.3463C221.129 86.3463 236.991 70.4842 236.991 50.9173C236.991 31.3504 221.129 15.4883 201.562 15.4883C181.995 15.4883 166.133 31.3504 166.133 50.9173C166.133 70.4842 181.995 86.3463 201.562 86.3463Z" fill="#FF725E"/>
<path opacity="0.2" d="M201.562 86.3463C221.129 86.3463 236.991 70.4842 236.991 50.9173C236.991 31.3504 221.129 15.4883 201.562 15.4883C181.995 15.4883 166.133 31.3504 166.133 50.9173C166.133 70.4842 181.995 86.3463 201.562 86.3463Z" fill="black"/>
<path d="M24.7793 39.4145C24.7793 39.1293 52.1908 38.8916 86.0037 38.8916C119.817 38.8916 147.228 39.1293 147.228 39.4145C147.228 39.6997 119.832 39.9374 86.0037 39.9374C52.175 39.9374 24.7793 39.7472 24.7793 39.4145Z" fill="white"/>
<path d="M24.7793 52.8979C24.7793 52.6127 52.1908 52.375 86.0037 52.375C119.817 52.375 147.228 52.6127 147.228 52.8979C147.228 53.1831 119.832 53.4049 86.0037 53.4049C52.175 53.4049 24.7793 53.1831 24.7793 52.8979Z" fill="white"/>
<path d="M83.5957 66.1606C83.5957 65.8754 97.856 65.6377 115.412 65.6377C132.968 65.6377 147.229 65.8754 147.229 66.1606C147.229 66.4458 132.968 66.6676 115.412 66.6676C97.856 66.6676 83.5957 66.4458 83.5957 66.1606Z" fill="white"/>
<path d="M81.1562 25.4867C81.1562 25.2015 95.9553 24.9639 114.193 24.9639C132.43 24.9639 147.229 25.2015 147.229 25.4867C147.229 25.772 132.446 26.0096 114.193 26.0096C95.9395 26.0096 81.1562 25.8353 81.1562 25.4867Z" fill="white"/>
<path d="M204.665 50.3149C206.225 49.5928 207.539 48.4285 208.443 46.9667C209.347 45.5048 209.802 43.8096 209.752 42.0915C209.805 40.9666 209.627 39.8428 209.229 38.7892C208.832 37.7356 208.223 36.7744 207.44 35.9649C206.657 35.1554 205.717 34.5146 204.677 34.0819C203.638 33.6492 202.521 33.4338 201.394 33.449C200.268 33.4641 199.157 33.7095 198.13 34.17C197.102 34.6305 196.18 35.2964 195.419 36.1267C194.658 36.9571 194.075 37.9342 193.706 38.9982C193.337 40.0621 193.19 41.1903 193.273 42.3133C193.271 44.0481 193.783 45.7446 194.745 47.1884C195.707 48.6323 197.075 49.7589 198.676 50.4259C186 52.5649 186.856 66.2707 186.856 66.2707L216.85 65.8587C216.85 65.8587 217.23 51.9787 204.665 50.3149Z" fill="white"/>
<path d="M213.761 180.418V232.072L200.594 218.905H104.701V180.418H213.761Z" fill="#FF725E"/>
<path d="M152.236 192.761C152.236 192.523 162.868 192.349 176.004 192.349C189.139 192.349 199.771 192.523 199.771 192.761C199.771 192.998 189.139 193.173 176.004 193.173C162.868 193.173 152.236 192.982 152.236 192.761Z" fill="white"/>
<path d="M184.322 203.487C186.52 203.072 188.761 202.934 190.993 203.075C193.23 202.934 195.476 203.072 197.679 203.487C195.475 203.893 193.23 204.031 190.993 203.899C188.761 204.031 186.521 203.893 184.322 203.487Z" fill="white"/>
<path d="M181.168 206.45C180.947 206.45 180.566 205.769 180.123 204.866C179.679 203.963 179.315 203.281 179.505 203.091C179.695 202.901 180.376 203.535 180.852 204.502C181.327 205.468 181.39 206.403 181.168 206.45Z" fill="white"/>
<path d="M156.498 203.107C159.543 202.7 162.619 202.562 165.688 202.695C168.752 202.561 171.822 202.699 174.862 203.107C171.823 203.523 168.752 203.661 165.688 203.519C162.619 203.661 159.542 203.523 156.498 203.107Z" fill="white"/>
<path d="M154.279 206.261C154.073 206.371 153.503 205.674 152.98 204.676C152.457 203.678 152.219 202.838 152.425 202.727C152.631 202.616 153.202 203.329 153.725 204.312C154.248 205.294 154.485 206.118 154.279 206.261Z" fill="white"/>
<path d="M127.582 202.949C130.775 202.532 133.999 202.394 137.216 202.537C140.438 202.394 143.667 202.532 146.865 202.949C143.666 203.356 140.438 203.494 137.216 203.361C133.999 203.494 130.776 203.356 127.582 202.949Z" fill="white"/>
<path d="M125.189 204.533C124.999 204.66 124.413 204.074 123.874 203.234C123.335 202.394 123.066 201.649 123.256 201.507C123.446 201.364 124.033 201.95 124.571 202.79C125.11 203.63 125.443 204.533 125.189 204.533Z" fill="white"/>
<path d="M114.352 202.188C114.352 201.951 115.635 201.776 117.219 201.776C118.804 201.776 120.103 201.951 120.103 202.188C120.103 202.426 118.804 202.6 117.219 202.6C115.635 202.6 114.352 202.41 114.352 202.188Z" fill="white"/>
</svg>
