<svg width="469" height="412" viewBox="0 0 469 412" fill="none" xmlns="http://www.w3.org/2000/svg">
<path d="M243.592 386.92L99.5342 123.927L0 157.613L32.283 220.389L30.2389 216.881L24.1911 218.889C23.589 219.09 23.0375 219.42 22.5747 219.854C22.1118 220.289 21.7484 220.819 21.5094 221.407C21.2704 221.995 21.1615 222.628 21.1901 223.263C21.2187 223.897 21.3842 224.517 21.6752 225.082L37.5929 256.034C38.6076 258.014 40.2259 259.618 42.2135 260.617C44.2011 261.615 46.4548 261.954 48.6483 261.586L53.0632 260.848L130.596 411.619L243.592 386.92Z" fill="#2E353A"/>
<path d="M336.654 10.374C335.106 11.2201 333.285 11.4176 331.592 10.9233C329.898 10.429 328.469 9.28323 327.619 7.73722L323.93 1L99.5332 123.927L243.591 386.92L468 264.006L389.572 120.831C388.727 119.284 388.53 117.465 389.024 115.773C389.518 114.082 390.664 112.655 392.209 111.807C392.976 111.387 393.652 110.821 394.2 110.139C394.747 109.458 395.155 108.675 395.4 107.836C395.645 106.997 395.722 106.118 395.627 105.249C395.532 104.38 395.266 103.538 394.846 102.772L345.677 13.0109C344.83 11.4657 343.403 10.3202 341.711 9.82577C340.02 9.33139 338.201 9.52858 336.654 10.374Z" fill="#92E3A9" stroke="#2E353A" stroke-linecap="round" stroke-linejoin="round"/>
<path d="M347.817 20.0772L165.57 85.0441L252.587 329.145L434.834 264.178L347.817 20.0772Z" fill="white" stroke="#2E353A" stroke-linecap="round" stroke-linejoin="round"/>
<path d="M347.829 20.0866L165.582 85.0535L197.639 174.981L379.886 110.014L347.829 20.0866Z" fill="white" stroke="#2E353A" stroke-linecap="round" stroke-linejoin="round"/>
<path d="M333.72 112.474C347.328 103.834 351.356 85.7986 342.717 72.1901C334.077 58.5817 316.042 54.5535 302.433 63.1931C288.825 71.8326 284.797 89.8681 293.436 103.477C302.076 117.085 320.111 121.113 333.72 112.474Z" fill="#2E353A" stroke="#2E353A" stroke-linecap="round" stroke-linejoin="round"/>
<path d="M327.875 115.363C331.921 113.925 335.599 111.61 338.646 108.585C341.693 105.559 344.032 101.897 345.498 97.8608C340.43 86.5152 328.044 80.6005 316.892 84.5557C305.74 88.511 299.898 100.957 303.152 112.944C306.84 115.144 310.969 116.502 315.243 116.92C319.517 117.338 323.83 116.807 327.875 115.363Z" fill="white" stroke="#2E353A" stroke-linecap="round" stroke-linejoin="round"/>
<path d="M325.921 93.499C332.043 88.0898 332.622 78.7413 327.212 72.6187C321.803 66.496 312.455 65.9177 306.332 71.3269C300.209 76.7362 299.631 86.0846 305.04 92.2073C310.45 98.3299 319.798 98.9082 325.921 93.499Z" fill="white" stroke="#2E353A" stroke-linecap="round" stroke-linejoin="round"/>
<path d="M256.795 88.6116L193.016 111.348L195.627 118.673L259.407 95.9374L256.795 88.6116Z" fill="white" stroke="#2E353A" stroke-linecap="round" stroke-linejoin="round"/>
<path d="M263.078 106.214L199.299 128.95L201.91 136.276L265.69 113.54L263.078 106.214Z" fill="white" stroke="#2E353A" stroke-linecap="round" stroke-linejoin="round"/>
<path d="M268.293 120.864L204.514 143.6L205.821 147.268L269.601 124.532L268.293 120.864Z" fill="#2E353A"/>
<path d="M271.43 129.666L207.65 152.402L208.958 156.071L272.738 133.335L271.43 129.666Z" fill="#2E353A"/>
<path d="M287.371 174.385L223.592 197.121L224.9 200.79L288.679 178.054L287.371 174.385Z" fill="#2E353A"/>
<path d="M290.241 182.457L226.461 205.193L227.769 208.862L291.548 186.126L290.241 182.457Z" fill="#2E353A"/>
<path d="M293.119 190.517L229.34 213.253L230.648 216.922L294.427 194.186L293.119 190.517Z" fill="#2E353A"/>
<path d="M373.875 143.543L310.096 166.279L311.403 169.948L375.183 147.212L373.875 143.543Z" fill="#2E353A"/>
<path d="M376.756 151.615L312.977 174.351L314.284 178.02L378.064 155.284L376.756 151.615Z" fill="#2E353A"/>
<path d="M379.627 159.679L315.848 182.415L317.155 186.084L380.935 163.348L379.627 159.679Z" fill="#2E353A"/>
<path d="M219.5 190.343L373.464 135.478" stroke="#2E353A" stroke-linecap="round" stroke-linejoin="round"/>
<path d="M302.266 216.172L238.486 238.908L239.794 242.577L303.574 219.841L302.266 216.172Z" fill="#2E353A"/>
<path d="M305.139 224.248L241.359 246.984L242.667 250.653L306.447 227.917L305.139 224.248Z" fill="#2E353A"/>
<path d="M308.02 232.308L244.24 255.044L245.548 258.713L309.328 235.977L308.02 232.308Z" fill="#2E353A"/>
<path d="M388.774 185.334L324.994 208.07L326.302 211.739L390.081 189.003L388.774 185.334Z" fill="#2E353A"/>
<path d="M391.655 193.406L327.875 216.142L329.183 219.811L392.962 197.075L391.655 193.406Z" fill="#2E353A"/>
<path d="M394.524 201.471L330.744 224.207L332.052 227.875L395.831 205.139L394.524 201.471Z" fill="#2E353A"/>
<path d="M234.385 232.133L388.349 177.268" stroke="#2E353A" stroke-linecap="round" stroke-linejoin="round"/>
<path d="M400.27 217.585L249.24 271.424L262.306 308.076L413.335 254.237L400.27 217.585Z" fill="#2E353A" stroke="#2E353A" stroke-linecap="round" stroke-linejoin="round"/>
<path d="M323.964 35.1852L146.143 111.436L248.273 349.61L426.094 273.359L323.964 35.1852Z" fill="white" stroke="#2E353A" stroke-linecap="round" stroke-linejoin="round"/>
<path d="M323.972 35.189L146.15 111.44L183.775 199.183L361.597 122.932L323.972 35.189Z" fill="white" stroke="#2E353A" stroke-linecap="round" stroke-linejoin="round"/>
<path d="M323.193 120.277C331.797 106.646 327.722 88.6211 314.09 80.0172C300.459 71.4134 282.434 75.4887 273.831 89.1197C265.227 102.751 269.302 120.776 282.933 129.38C296.564 137.983 314.589 133.908 323.193 120.277Z" fill="#2E353A" stroke="#2E353A" stroke-linecap="round" stroke-linejoin="round"/>
<path d="M310.021 131.535C313.969 129.845 317.494 127.303 320.344 124.091C323.194 120.879 325.299 117.077 326.508 112.956C320.75 101.961 308.014 96.8207 297.14 101.49C286.266 106.158 281.21 118.919 285.201 130.676C289.02 132.638 293.225 133.732 297.515 133.881C301.806 134.029 306.076 133.228 310.021 131.535Z" fill="white" stroke="#2E353A" stroke-linecap="round" stroke-linejoin="round"/>
<path d="M306.319 110.173C312.293 104.6 312.618 95.239 307.045 89.2649C301.472 83.2908 292.111 82.9656 286.137 88.5384C280.163 94.1113 279.838 103.472 285.411 109.446C290.984 115.42 300.344 115.745 306.319 110.173Z" fill="white" stroke="#2E353A" stroke-linecap="round" stroke-linejoin="round"/>
<path d="M237.405 109.294L175.174 135.979L178.239 143.127L240.47 116.442L237.405 109.294Z" fill="white" stroke="#2E353A" stroke-linecap="round" stroke-linejoin="round"/>
<path d="M244.772 126.46L182.541 153.145L185.606 160.293L247.837 133.607L244.772 126.46Z" fill="white" stroke="#2E353A" stroke-linecap="round" stroke-linejoin="round"/>
<path d="M250.91 140.759L188.68 167.444L190.215 171.023L252.445 144.338L250.91 140.759Z" fill="#2E353A"/>
<path d="M254.586 149.343L192.355 176.028L193.89 179.607L256.121 152.922L254.586 149.343Z" fill="#2E353A"/>
<path d="M273.301 192.977L211.07 219.662L212.605 223.241L274.836 196.556L273.301 192.977Z" fill="#2E353A"/>
<path d="M276.678 200.843L214.447 227.528L215.982 231.107L278.213 204.422L276.678 200.843Z" fill="#2E353A"/>
<path d="M280.041 208.726L217.811 235.411L219.345 238.991L281.576 212.306L280.041 208.726Z" fill="#2E353A"/>
<path d="M357.7 156.799L295.469 183.484L297.004 187.064L359.234 160.379L357.7 156.799Z" fill="#2E353A"/>
<path d="M361.071 164.655L298.84 191.34L300.375 194.919L362.606 168.234L361.071 164.655Z" fill="#2E353A"/>
<path d="M364.455 172.533L302.225 199.218L303.76 202.797L365.99 176.112L364.455 172.533Z" fill="#2E353A"/>
<path d="M206.557 213.156L356.783 148.747" stroke="#2E353A" stroke-linecap="round" stroke-linejoin="round"/>
<path d="M290.784 233.758L228.553 260.443L230.088 264.023L292.318 237.338L290.784 233.758Z" fill="#2E353A"/>
<path d="M294.162 241.613L231.932 268.298L233.467 271.878L295.697 245.193L294.162 241.613Z" fill="#2E353A"/>
<path d="M297.537 249.492L235.307 276.177L236.842 279.757L299.072 253.072L297.537 249.492Z" fill="#2E353A"/>
<path d="M375.198 197.565L312.967 224.25L314.502 227.83L376.733 201.145L375.198 197.565Z" fill="#2E353A"/>
<path d="M378.565 205.42L316.334 232.105L317.869 235.685L380.1 209L378.565 205.42Z" fill="#2E353A"/>
<path d="M381.928 213.303L319.697 239.988L321.232 243.568L383.463 216.883L381.928 213.303Z" fill="#2E353A"/>
<path d="M224.035 253.93L374.262 189.521" stroke="#2E353A" stroke-linecap="round" stroke-linejoin="round"/>
<path d="M388.684 229.028L241.322 292.218L256.657 327.98L404.019 264.79L388.684 229.028Z" fill="#2E353A" stroke="#2E353A" stroke-linecap="round" stroke-linejoin="round"/>
<path d="M283.302 33.6096L121.018 138.958L262.121 356.322L424.406 250.973L283.302 33.6096Z" fill="white" stroke="#2E353A" stroke-linecap="round" stroke-linejoin="round"/>
<path d="M283.308 33.6201L121.023 138.969L173.006 219.046L335.291 113.697L283.308 33.6201Z" fill="white" stroke="#2E353A" stroke-linecap="round" stroke-linejoin="round"/>
<path d="M274.695 135.217C290.606 132.631 301.408 117.637 298.822 101.727C296.237 85.816 281.243 75.0139 265.332 77.5994C249.422 80.1849 238.619 95.179 241.205 111.09C243.79 127 258.784 137.802 274.695 135.217Z" fill="#2E353A" stroke="#2E353A" stroke-linecap="round" stroke-linejoin="round"/>
<path d="M285.926 130.809C289.53 128.474 292.573 125.37 294.838 121.722C297.102 118.073 298.532 113.968 299.025 109.702C291.478 99.8324 278.052 96.9536 268.133 103.388C258.215 109.823 255.385 123.274 261.324 134.184C265.419 135.471 269.749 135.836 274.003 135.252C278.256 134.669 282.328 133.151 285.926 130.809Z" fill="#92E3A9" stroke="#2E353A" stroke-linecap="round" stroke-linejoin="round"/>
<path d="M276.453 112.764C282.672 107.465 283.418 98.1287 278.12 91.9099C272.822 85.691 263.485 84.9447 257.266 90.243C251.047 95.5413 250.301 104.878 255.599 111.097C260.898 117.316 270.234 118.062 276.453 112.764Z" fill="white" stroke="#2E353A" stroke-linecap="round" stroke-linejoin="round"/>
<path d="M210.581 121.342L153.787 158.21L158.022 164.734L214.815 127.866L210.581 121.342Z" fill="white" stroke="#2E353A" stroke-linecap="round" stroke-linejoin="round"/>
<path d="M220.751 137.01L163.957 173.878L168.192 180.401L224.985 143.533L220.751 137.01Z" fill="white" stroke="#2E353A" stroke-linecap="round" stroke-linejoin="round"/>
<path d="M228.205 151.672L171.328 188.236L173.431 191.508L230.308 154.944L228.205 151.672Z" fill="#2E353A"/>
<path d="M234.317 157.89L177.523 194.759L179.644 198.025L236.438 161.157L234.317 157.89Z" fill="#2E353A"/>
<path d="M260.172 197.711L203.379 234.579L205.5 237.845L262.293 200.977L260.172 197.711Z" fill="#2E353A"/>
<path d="M264.835 204.902L208.041 241.771L210.162 245.037L266.955 208.169L264.835 204.902Z" fill="#2E353A"/>
<path d="M269.495 212.094L212.701 248.962L214.822 252.229L271.615 215.361L269.495 212.094Z" fill="#2E353A"/>
<path d="M337.208 147.7L280.414 184.568L282.535 187.835L339.328 150.967L337.208 147.7Z" fill="#2E353A"/>
<path d="M341.878 154.885L285.084 191.753L287.205 195.02L343.998 158.152L341.878 154.885Z" fill="#2E353A"/>
<path d="M346.542 162.077L289.748 198.945L291.869 202.212L348.662 165.344L346.542 162.077Z" fill="#2E353A"/>
<path d="M197.846 228.88L334.937 139.869" stroke="#2E353A" stroke-linecap="round" stroke-linejoin="round"/>
<path d="M284.333 234.935L227.539 271.803L229.66 275.07L286.453 238.201L284.333 234.935Z" fill="#2E353A"/>
<path d="M288.989 242.117L232.195 278.985L234.316 282.252L291.11 245.384L288.989 242.117Z" fill="#2E353A"/>
<path d="M293.657 249.29L236.863 286.158L238.984 289.425L295.777 252.557L293.657 249.29Z" fill="#2E353A"/>
<path d="M361.368 184.924L304.574 221.792L306.695 225.059L363.488 188.191L361.368 184.924Z" fill="#2E353A"/>
<path d="M366.034 192.1L309.24 228.968L311.361 232.235L368.154 195.367L366.034 192.1Z" fill="#2E353A"/>
<path d="M370.682 199.292L313.889 236.16L316.009 239.426L372.803 202.558L370.682 199.292Z" fill="#2E353A"/>
<path d="M222 266.085L359.091 177.086" stroke="#2E353A" stroke-linecap="round" stroke-linejoin="round"/>
<path d="M380.024 213.65L245.537 300.954L266.724 333.591L401.211 246.288L380.024 213.65Z" fill="#2E353A" stroke="#2E353A" stroke-linecap="round" stroke-linejoin="round"/>
<path d="M99.5352 123.926L13.5117 57.3284L64.7001 153.355C65.9096 155.677 62.7043 156.113 59.4385 154.056C56.1364 151.988 52.8827 152.448 54.1769 154.794L80.7267 203.055C81.1485 203.743 81.7037 204.339 82.3596 204.809L95.326 214.583C96.0004 215.058 96.5654 215.673 96.9831 216.385L150.699 318.411L243.605 386.92L99.5352 123.926Z" fill="#92E3A9" stroke="#2E353A" stroke-linecap="round" stroke-linejoin="round"/>
<path opacity="0.25" d="M99.5352 123.926L13.5117 57.3284L64.7001 153.355C65.9096 155.677 62.7043 156.113 59.4385 154.056C56.1364 151.988 52.8827 152.448 54.1769 154.794L80.7267 203.055C81.1485 203.743 81.7037 204.339 82.3596 204.809L95.326 214.583C96.0004 215.058 96.5654 215.673 96.9831 216.385L150.699 318.411L243.605 386.92L99.5352 123.926Z" fill="#2E353A" stroke="#2E353A" stroke-linecap="round" stroke-linejoin="round"/>
</svg>
