<svg width="409" height="463" viewBox="0 0 409 463" fill="none" xmlns="http://www.w3.org/2000/svg">
<path d="M285.09 114.092H218.082V165.921H285.09V114.092Z" fill="#EBEBEB"/>
<path d="M223.279 161.198L241.818 132.799L256.975 150.954L266.193 141.308L279.897 161.198H223.279Z" fill="#F5F5F5"/>
<path d="M259.79 134.523C259.79 135.335 259.55 136.128 259.099 136.802C258.648 137.477 258.007 138.003 257.258 138.313C256.508 138.624 255.683 138.705 254.888 138.547C254.092 138.388 253.361 137.998 252.787 137.424C252.214 136.85 251.823 136.119 251.665 135.324C251.506 134.528 251.588 133.703 251.898 132.954C252.209 132.204 252.734 131.563 253.409 131.113C254.084 130.662 254.877 130.421 255.688 130.421C256.776 130.421 257.819 130.854 258.589 131.623C259.358 132.392 259.79 133.436 259.79 134.523Z" fill="#F5F5F5"/>
<path d="M175.101 186.882L136.593 202.005C133.548 183.301 127.573 165.194 118.889 148.351L154.106 133.205C167.573 149.737 172.531 167.836 175.101 186.882Z" fill="#EBEBEB"/>
<path d="M89.4874 66.3096L0.988281 68.1352L3.36614 183.535L91.9103 183.94L89.4874 66.3096Z" fill="#EBEBEB"/>
<path d="M83.7504 70.5356L6.30664 72.1359L8.47038 176.795L85.9592 177.81L83.7504 70.5356Z" fill="#FAFAFA"/>
<path d="M70.5901 89.8288L19.1562 88.9385L20.6664 162.089L72.0551 161.029L70.5901 89.8288Z" fill="#EBEBEB"/>
<path d="M20.6664 162.089L71.2775 123.446L19.1562 88.9385L20.6664 162.089Z" fill="#F5F5F5"/>
<path d="M326.192 0L262.531 1.31853L264.244 84.3294L327.928 84.6111L326.192 0Z" fill="#EBEBEB"/>
<path d="M322.055 3.04297L266.361 4.19245L267.905 79.4837L323.655 80.2162L322.055 3.04297Z" fill="#FAFAFA"/>
<path d="M312.589 16.9265L275.592 16.2842L276.674 68.9013L313.649 68.1462L312.589 16.9265Z" fill="#EBEBEB"/>
<path d="M276.674 68.9013L313.085 41.1108L275.592 16.2842L276.674 68.9013Z" fill="#F5F5F5"/>
<path d="M127.747 207.482L64.0859 208.789L65.7989 291.8L129.483 292.082L127.747 207.482Z" fill="#EBEBEB"/>
<path d="M123.611 210.514L67.9062 211.663L69.4614 286.954L125.2 287.687L123.611 210.514Z" fill="#FAFAFA"/>
<path d="M114.144 224.397L77.1465 223.755L78.2284 276.372L115.192 275.617L114.144 224.397Z" fill="#EBEBEB"/>
<path d="M78.2284 276.372L114.64 248.582L77.1465 223.755L78.2284 276.372Z" fill="#F5F5F5"/>
<path d="M369.161 176.266L331.059 177.055L332.084 226.742L370.209 226.911L369.161 176.266Z" fill="#EBEBEB"/>
<path d="M366.694 178.091L333.348 178.779L334.283 223.845L367.641 224.274L366.694 178.091Z" fill="#FAFAFA"/>
<path d="M361.025 186.397L338.881 186.014L339.523 217.512L361.656 217.05L361.025 186.397Z" fill="#EBEBEB"/>
<path d="M339.523 217.512L361.318 200.867L338.881 186.014L339.523 217.512Z" fill="#F5F5F5"/>
<path d="M154.581 27.6888C154.178 27.3954 153.801 27.0673 153.454 26.7084C152.632 25.9759 151.595 25.0518 150.366 23.9361C149.138 22.8204 147.493 21.3892 145.712 19.9129C144.822 19.1691 143.875 18.4141 142.872 17.659C142.365 17.2871 141.847 16.9265 141.306 16.5321C140.805 16.1809 140.237 15.9355 139.638 15.8108C139.049 15.9263 138.496 16.1814 138.026 16.5546C137.497 16.904 136.99 17.2871 136.505 17.6816C135.525 18.4704 134.623 19.2706 133.767 20.0482C132.054 21.6033 130.555 23.0571 129.259 24.2742L126.295 27.2155C125.952 27.5947 125.574 27.9418 125.168 28.2523C125.443 27.8174 125.768 27.4165 126.137 27.0578C126.78 26.3252 127.749 25.2885 128.966 24.015C130.183 22.7416 131.659 21.2653 133.35 19.6875C134.206 18.8874 135.108 18.076 136.099 17.2646C136.595 16.8702 137.102 16.4757 137.655 16.1376C138.225 15.6941 138.9 15.4067 139.615 15.3037C140.317 15.4279 140.983 15.7049 141.565 16.1151C142.129 16.4645 142.692 16.8476 143.165 17.2421C144.191 17.9971 145.126 18.7747 146.016 19.496C147.786 21.0061 149.318 22.426 150.592 23.6318C151.865 24.8377 152.846 25.8857 153.567 26.5394C153.941 26.889 154.281 27.2739 154.581 27.6888Z" fill="#E0E0E0"/>
<path d="M109.457 27.8128L110.37 72.7892L169.027 71.5947L169.242 26.5957L109.457 27.8128Z" fill="#EBEBEB"/>
<path d="M111.598 30.7319L112.398 70.0849L165.601 69.003L166.131 29.6162L111.598 30.7319Z" fill="#FAFAFA"/>
<path d="M121.402 37.4259L120.939 63.5598L158.129 62.8047L157.599 36.6934L121.402 37.4259Z" fill="#EBEBEB"/>
<path d="M152.134 44.1197C152.134 44.2887 146.387 44.4127 139.287 44.4127C132.187 44.4127 126.451 44.2887 126.451 44.1197C126.451 43.9506 132.199 43.8267 139.287 43.8267C146.376 43.8267 152.134 43.9957 152.134 44.1197Z" fill="#E0E0E0"/>
<path d="M152.134 48.2222C152.134 48.38 146.387 48.5152 139.287 48.5152C132.187 48.5152 126.451 48.38 126.451 48.2222C126.451 48.0644 132.199 47.9292 139.287 47.9292C146.376 47.9292 152.134 48.0532 152.134 48.2222Z" fill="#E0E0E0"/>
<path d="M152.134 52.2793C152.134 52.4371 146.387 52.5723 139.287 52.5723C132.187 52.5723 126.451 52.4371 126.451 52.2793C126.451 52.1216 132.199 51.9863 139.287 51.9863C146.376 51.9863 152.134 52.1216 152.134 52.2793Z" fill="#E0E0E0"/>
<path d="M135.579 56.336C134.077 56.6316 132.543 56.7301 131.015 56.629C129.488 56.7301 127.953 56.6316 126.451 56.336C129.481 55.9453 132.549 55.9453 135.579 56.336Z" fill="#E0E0E0"/>
<path d="M131.421 42.3054C131.421 42.3054 131.421 41.9335 131.174 41.3025C130.919 40.3997 130.372 39.607 129.618 39.0486C129.074 38.6567 128.443 38.4045 127.778 38.3141C127.114 38.2237 126.438 38.2979 125.809 38.5302C125.049 38.8151 124.393 39.3255 123.93 39.9931C123.467 40.6607 123.219 41.4537 123.219 42.266C123.219 43.0783 123.467 43.8713 123.93 44.5388C124.393 45.2064 125.049 45.7168 125.809 46.0018C126.439 46.2325 127.116 46.3049 127.78 46.2125C128.444 46.1201 129.075 45.8659 129.618 45.4721C130.365 44.9311 130.912 44.1586 131.174 43.2746C131.365 42.6435 131.365 42.2604 131.421 42.2604C131.517 42.6299 131.517 43.0177 131.421 43.3873C131.221 44.3693 130.678 45.2481 129.889 45.8666C129.296 46.3263 128.599 46.631 127.859 46.753C127.119 46.875 126.36 46.8105 125.651 46.5653C124.777 46.2517 124.022 45.6758 123.487 44.9164C122.953 44.1569 122.666 43.2509 122.666 42.3223C122.666 41.3937 122.953 40.4878 123.487 39.7283C124.022 38.9689 124.777 38.393 125.651 38.0794C126.359 37.8269 127.119 37.7586 127.86 37.8808C128.602 38.003 129.3 38.3118 129.889 38.7781C130.68 39.3946 131.224 40.2742 131.421 41.2574C131.506 41.6016 131.506 41.9612 131.421 42.3054Z" fill="#E0E0E0"/>
<path d="M153.926 55.6485C153.926 55.6485 153.836 55.9753 153.52 56.505C153.095 57.2903 152.404 57.8978 151.57 58.2179C151.259 58.3216 150.928 58.3511 150.603 58.3042C150.278 58.2572 149.969 58.1351 149.7 57.9475C149.37 57.7112 149.143 57.3569 149.068 56.9582C148.992 56.5594 149.073 56.1468 149.294 55.8063C149.43 55.6165 149.612 55.4651 149.824 55.3668C149.955 55.3135 150.097 55.2949 150.237 55.3127C150.377 55.3304 150.51 55.384 150.624 55.4682C150.794 55.6281 150.926 55.8251 151.008 56.044C151.09 56.2629 151.12 56.4978 151.097 56.7304C151.073 57.6012 150.741 58.4353 150.162 59.0857C149.854 59.4312 149.467 59.6979 149.035 59.8633C148.819 59.9529 148.587 59.999 148.353 59.999C148.119 59.999 147.887 59.9529 147.671 59.8633C147.285 59.6871 146.956 59.4053 146.723 59.0504C146.489 58.6955 146.361 58.2819 146.353 57.8573C146.315 57.1257 146.487 56.3986 146.849 55.7612C146.905 55.6609 146.984 55.5757 147.08 55.5129C147.176 55.45 147.286 55.4115 147.401 55.4006C147.515 55.4021 147.627 55.433 147.725 55.4902C147.824 55.5475 147.906 55.6291 147.964 55.7274C148.129 55.9979 148.229 56.3024 148.257 56.6177C148.305 57.0655 148.248 57.5182 148.092 57.9405C147.936 58.3628 147.684 58.7432 147.356 59.0519C146.882 59.4801 146.522 59.5365 146.522 59.5026C146.522 59.4688 146.815 59.3336 147.187 58.8941C147.455 58.5899 147.653 58.2301 147.766 57.8404C147.879 57.4507 147.904 57.0408 147.84 56.6402C147.806 56.3965 147.721 56.1624 147.592 55.9528C147.446 55.795 147.401 55.795 147.243 55.9528C146.977 56.5068 146.856 57.1197 146.894 57.7333C146.905 58.0532 147.003 58.3639 147.178 58.632C147.353 58.9001 147.597 59.1154 147.885 59.2547C148.215 59.342 148.563 59.3262 148.884 59.2093C149.204 59.0924 149.481 58.8802 149.677 58.6011C150.169 58.0593 150.453 57.3604 150.477 56.6289C150.496 56.4847 150.484 56.3382 150.443 56.1986C150.403 56.059 150.334 55.9293 150.241 55.8175C150.117 55.7048 149.857 55.8175 149.688 56.0316C149.556 56.2624 149.509 56.5327 149.556 56.7947C149.604 57.0566 149.742 57.2934 149.948 57.4629C150.155 57.6169 150.395 57.7213 150.649 57.7682C150.903 57.8151 151.164 57.8032 151.413 57.7333C152.179 57.4613 152.838 56.952 153.295 56.2796C153.7 55.8964 153.892 55.626 153.926 55.6485Z" fill="#E0E0E0"/>
<path d="M184.589 121.113L143.94 139.178L142.971 108.198L183.575 89.0061L184.589 121.113Z" fill="#EBEBEB"/>
<path d="M386.493 91.8009C385.846 91.3594 385.243 90.8576 384.69 90.3021L379.957 86.0422C377.94 84.2617 375.551 82.1317 372.824 79.8666C371.449 78.7396 370.006 77.6127 368.462 76.4857C367.685 75.9223 366.885 75.3588 366.051 74.8404C365.284 74.3008 364.419 73.9178 363.504 73.7135C362.599 73.8846 361.748 74.2712 361.024 74.8404C360.213 75.3813 359.435 75.9674 358.68 76.5759C357.193 77.7817 355.795 79.0214 354.477 80.2047C351.851 82.5938 349.552 84.8251 347.636 86.6959L343.129 91.2037C342.609 91.787 342.031 92.3157 341.404 92.7814C341.828 92.124 342.323 91.5155 342.881 90.967C343.884 89.8401 345.36 88.2398 347.219 86.3014C349.079 84.3631 351.355 82.0754 353.981 79.6412C355.288 78.4241 356.686 77.1732 358.196 75.9335C358.951 75.325 359.751 74.7164 360.585 74.1417C361.456 73.4514 362.494 73.0042 363.594 72.8457C364.674 73.0323 365.699 73.4599 366.592 74.0966C367.448 74.6375 368.259 75.2236 369.048 75.787C370.615 76.914 372.057 78.1424 373.421 79.3031C376.137 81.557 378.492 83.8109 380.453 85.6478C382.414 87.4847 383.958 89.0287 384.961 90.1556C385.526 90.6506 386.04 91.2019 386.493 91.8009Z" fill="#E0E0E0"/>
<path d="M317.232 91.9925L318.641 161.041L408.673 159.215L409 90.1331L317.232 91.9925Z" fill="#EBEBEB"/>
<path d="M320.533 96.4781L321.75 156.882L403.409 155.226L404.22 94.7764L320.533 96.4781Z" fill="#FAFAFA"/>
<path d="M335.577 106.756L334.867 146.875L391.947 145.714L391.124 105.629L335.577 106.756Z" fill="#EBEBEB"/>
<path d="M382.741 117.09C382.741 117.338 373.917 117.541 363.031 117.541C352.145 117.541 343.377 117.372 343.377 117.09C343.377 116.808 352.201 116.639 363.087 116.639C373.974 116.639 382.741 116.842 382.741 117.09Z" fill="#E0E0E0"/>
<path d="M382.741 123.322C382.741 123.57 373.917 123.773 363.031 123.773C352.144 123.773 343.32 123.57 343.32 123.322C343.32 123.074 352.144 122.871 363.031 122.871C373.917 122.871 382.741 123.074 382.741 123.322Z" fill="#E0E0E0"/>
<path d="M382.741 129.554C382.741 129.802 373.917 130.005 363.031 130.005C352.145 130.005 343.377 129.768 343.377 129.554C343.377 129.34 352.201 129.103 363.087 129.103C373.974 129.103 382.741 129.306 382.741 129.554Z" fill="#E0E0E0"/>
<path d="M357.34 135.786C357.34 136.034 354.207 136.237 350.33 136.237C346.453 136.237 343.32 136.034 343.32 135.786C343.32 135.538 346.453 135.335 350.33 135.335C354.207 135.335 357.34 135.538 357.34 135.786Z" fill="#E0E0E0"/>
<path d="M350.951 114.25C350.861 114.25 350.861 113.675 350.58 112.706C350.168 111.348 349.325 110.162 348.179 109.325C347.266 108.651 346.185 108.243 345.054 108.147C343.923 108.051 342.788 108.271 341.775 108.782C340.761 109.293 339.91 110.075 339.315 111.042C338.72 112.008 338.405 113.121 338.405 114.255C338.405 115.39 338.72 116.503 339.315 117.469C339.91 118.436 340.761 119.218 341.775 119.729C342.788 120.24 343.923 120.46 345.054 120.364C346.185 120.268 347.266 119.86 348.179 119.186C349.323 118.348 350.165 117.161 350.58 115.805C350.861 114.836 350.861 114.25 350.951 114.25C351.085 114.786 351.085 115.347 350.951 115.884C350.643 117.393 349.808 118.743 348.596 119.693C347.694 120.411 346.622 120.887 345.484 121.074C344.346 121.261 343.179 121.155 342.094 120.764C340.746 120.288 339.58 119.406 338.755 118.239C337.929 117.072 337.486 115.679 337.486 114.25C337.486 112.821 337.929 111.427 338.755 110.261C339.58 109.094 340.746 108.212 342.094 107.736C343.183 107.353 344.353 107.255 345.492 107.452C346.63 107.65 347.699 108.135 348.596 108.863C349.805 109.811 350.64 111.156 350.951 112.661C351.078 113.183 351.078 113.728 350.951 114.25Z" fill="#E0E0E0"/>
<path d="M385.502 134.726C385.379 135.197 385.169 135.64 384.882 136.034C384.233 137.245 383.169 138.181 381.885 138.671C381.404 138.827 380.894 138.87 380.394 138.798C379.894 138.726 379.417 138.539 379 138.254C378.497 137.887 378.154 137.342 378.04 136.73C377.927 136.118 378.053 135.485 378.391 134.963C378.594 134.669 378.875 134.439 379.203 134.298C379.401 134.216 379.617 134.186 379.83 134.212C380.044 134.238 380.247 134.318 380.42 134.445C380.684 134.688 380.888 134.991 381.016 135.327C381.143 135.664 381.19 136.025 381.152 136.383C381.12 137.721 380.612 139.003 379.721 140.001C379.267 140.524 378.695 140.933 378.053 141.195C377.723 141.334 377.369 141.406 377.011 141.406C376.653 141.406 376.298 141.334 375.968 141.195C375.379 140.92 374.877 140.487 374.519 139.944C374.161 139.401 373.96 138.769 373.94 138.119C373.889 136.995 374.15 135.879 374.695 134.895C374.786 134.745 374.91 134.617 375.059 134.523C375.208 134.429 375.376 134.372 375.551 134.355C375.726 134.357 375.897 134.404 376.049 134.491C376.201 134.578 376.328 134.701 376.419 134.85C376.665 135.267 376.815 135.733 376.859 136.214C376.932 136.901 376.846 137.596 376.607 138.245C376.369 138.894 375.984 139.479 375.484 139.955C374.763 140.609 374.199 140.688 374.199 140.654C374.199 140.62 374.65 140.384 375.225 139.708C375.623 139.248 375.919 138.709 376.092 138.126C376.265 137.543 376.311 136.929 376.228 136.327C376.172 135.953 376.046 135.594 375.856 135.267C375.63 135.019 375.551 135.031 375.315 135.335C374.909 136.189 374.719 137.129 374.763 138.073C374.783 138.565 374.936 139.041 375.206 139.452C375.476 139.863 375.853 140.192 376.295 140.406C376.8 140.542 377.334 140.519 377.826 140.342C378.317 140.164 378.743 139.841 379.045 139.414C379.798 138.575 380.233 137.499 380.273 136.372C380.302 136.152 380.283 135.929 380.219 135.718C380.155 135.506 380.047 135.31 379.901 135.143C379.721 134.952 379.315 135.143 379.067 135.459C378.827 135.811 378.732 136.243 378.804 136.663C378.875 137.084 379.107 137.46 379.451 137.713C379.772 137.946 380.141 138.103 380.531 138.173C380.921 138.243 381.323 138.225 381.705 138.119C382.883 137.697 383.895 136.906 384.59 135.865C385.142 135.11 385.446 134.693 385.502 134.726Z" fill="#E0E0E0"/>
<path d="M278.195 402.016C259.161 389.563 254.326 365.717 254.529 344.17C254.529 340.575 254.078 336.788 255.724 333.599C257.369 330.41 261.358 328.156 264.672 329.587C267.399 330.781 268.661 333.858 270.239 336.349C272.35 339.747 275.378 342.481 278.973 344.237C281.317 345.364 284.202 346.029 286.467 344.722C289.566 342.941 289.848 338.648 289.712 335.075L289.104 315.094C288.991 311.522 288.89 307.871 289.927 304.456C290.963 301.041 293.386 297.83 296.812 296.793C300.238 295.756 304.532 297.615 305.354 301.098C305.524 302.571 305.592 304.055 305.557 305.538C305.693 307.025 306.436 308.648 307.879 309.031C309.321 309.415 310.752 308.366 311.812 307.296C315.463 303.6 317.886 298.889 320.14 294.212C322.394 289.535 324.58 284.746 327.882 280.689C331.184 276.632 335.771 273.442 340.966 273.025C346.161 272.608 351.751 275.64 353.182 280.632C354.613 285.625 351.762 290.775 348.674 294.978C343.989 301.15 338.44 306.615 332.198 311.206C330.977 311.902 330.013 312.973 329.449 314.26C328.727 316.661 331.071 318.971 333.472 319.704C336.199 320.515 339.106 320.177 341.946 320.436C344.786 320.695 347.874 321.845 349.001 324.459C350.579 328.077 347.57 331.976 344.583 334.602C338.594 339.785 331.76 343.902 324.377 346.773C321.74 347.798 318.957 348.7 316.861 350.604C314.764 352.509 313.48 355.743 314.9 358.234C316.32 360.724 319.61 361.446 322.383 360.871C325.155 360.296 327.623 358.741 330.271 357.682C335.196 355.71 341.631 355.901 344.922 360.06C345.929 361.491 346.586 363.14 346.841 364.872C347.095 366.604 346.94 368.372 346.387 370.033C345.259 373.365 343.464 376.432 341.112 379.049C333.423 388.609 323.342 395.965 311.891 400.37C300.441 404.596 289.78 405.926 278.206 402.061" fill="#FF725E"/>
<path d="M347.885 275.888L347.535 276.238L346.476 277.207C345.552 278.052 344.222 279.303 342.464 280.959C337.583 285.63 333.062 290.663 328.941 296.015C326.326 299.396 323.61 303.205 320.77 307.353C317.931 311.5 314.955 315.974 311.992 320.774C308.856 325.779 305.997 330.952 303.427 336.27C302.097 339.031 300.914 341.905 299.719 344.869L296.045 353.828C291.375 365.158 287.35 376.742 283.987 388.526C281.288 398.163 279.514 408.034 278.69 418.007C278.156 424.735 278.212 431.496 278.859 438.214C279.118 440.58 279.344 442.428 279.547 443.668C279.637 444.276 279.704 444.739 279.761 445.088C279.817 445.437 279.817 445.572 279.817 445.572C279.315 443.148 278.938 440.699 278.69 438.236C277.953 431.499 277.836 424.709 278.341 417.951C279.113 407.945 280.857 398.037 283.547 388.369C286.881 376.552 290.899 364.94 295.583 353.591L299.212 344.632C300.406 341.691 301.59 338.783 302.931 336.011C305.515 330.679 308.393 325.494 311.552 320.481C314.538 315.669 317.547 311.218 320.399 307.071C323.25 302.924 326.033 299.115 328.625 295.745C332.763 290.403 337.319 285.398 342.25 280.779C343.997 279.134 345.383 277.905 346.341 277.083L347.468 276.159L347.885 275.888Z" fill="#263238"/>
<path d="M303.068 335.999C302.909 335.502 302.788 334.993 302.707 334.478C302.493 333.486 302.245 332.055 301.952 330.286C301.355 326.736 300.712 321.811 300.002 316.379C299.292 310.947 298.56 306.045 297.906 302.518C297.579 300.748 297.298 299.328 297.083 298.348C296.944 297.843 296.858 297.326 296.824 296.804C297.018 297.286 297.173 297.784 297.286 298.292C297.557 299.261 297.895 300.681 298.278 302.439C299.033 305.955 299.833 310.868 300.532 316.311C301.231 321.755 301.839 326.567 302.312 330.229C302.549 331.931 302.752 333.34 302.898 334.444C303.006 334.955 303.063 335.476 303.068 335.999Z" fill="#263238"/>
<path d="M349.418 326.285C349.261 326.338 349.098 326.368 348.933 326.375L347.558 326.522C346.364 326.646 344.639 326.826 342.51 327.119C338.261 327.66 332.367 328.629 326 329.97C319.632 331.311 313.851 332.821 309.738 334.016C307.676 334.602 306.019 335.143 304.869 335.481L303.54 335.875C303.387 335.932 303.228 335.97 303.066 335.988C303.202 335.896 303.35 335.824 303.506 335.774L304.802 335.278C305.929 334.861 307.574 334.286 309.625 333.655C313.727 332.359 319.475 330.815 325.887 329.452C332.299 328.088 338.193 327.198 342.464 326.736C344.606 326.499 346.341 326.375 347.547 326.319L348.933 326.263C349.095 326.246 349.258 326.253 349.418 326.285Z" fill="#263238"/>
<path d="M284.043 387.523C283.912 387.353 283.802 387.168 283.716 386.971L282.894 385.315C282.184 383.883 281.203 381.787 280.02 379.184C277.653 373.966 274.611 366.664 271.354 358.561C268.097 350.458 265.11 343.144 262.834 337.904C261.707 335.334 260.783 333.227 260.118 331.694C259.814 331.007 259.577 330.444 259.386 330.004C259.296 329.811 259.221 329.611 259.16 329.407C259.291 329.577 259.401 329.762 259.487 329.959L260.31 331.604C261.02 333.047 262 335.143 263.183 337.746C265.55 342.964 268.593 350.267 271.85 358.369C275.106 366.472 278.093 373.775 280.369 379.026C281.496 381.596 282.409 383.703 283.085 385.236C283.39 385.923 283.626 386.487 283.818 386.926C283.909 387.119 283.984 387.318 284.043 387.523Z" fill="#263238"/>
<path d="M345.43 366.427C345.229 366.525 345.022 366.608 344.81 366.675L343.029 367.306L336.448 369.56C330.892 371.476 323.263 374.214 314.822 377.257C306.381 380.3 298.729 382.982 293.139 384.807C290.345 385.72 288.079 386.442 286.502 386.904L284.687 387.433C284.48 387.507 284.264 387.556 284.045 387.58C284.239 387.478 284.443 387.395 284.653 387.332L286.445 386.701L293.015 384.447C298.571 382.531 306.212 379.793 314.642 376.75C323.071 373.707 330.734 371.025 336.324 369.199C339.119 368.286 341.384 367.576 342.962 367.103L344.776 366.574C344.987 366.498 345.207 366.448 345.43 366.427Z" fill="#263238"/>
<path d="M177.296 191.502L174.885 462.566H282.26V195.198L177.296 191.502Z" fill="#455A64"/>
<path d="M180.666 236.546V274.547H231.525V238.349L180.666 236.546Z" fill="#263238"/>
<path d="M235.145 193.542L234.188 462.566H282.263V195.198L235.145 193.542Z" fill="#263238"/>
<path d="M180.666 194.849V232.85H231.525V196.641L180.666 194.849Z" fill="#263238"/>
<path d="M198.203 205.296V210.908H213.766V204.789L198.203 205.296Z" fill="#263238"/>
<path d="M214.273 215.63H198.203V217.929H214.273V215.63Z" fill="#263238"/>
<g opacity="0.4">
<path d="M198.203 205.296V210.908H213.766V204.789L198.203 205.296Z" fill="black"/>
<path d="M214.273 215.63H198.203V217.929H214.273V215.63Z" fill="black"/>
</g>
<path d="M180.666 327.998V365.987H231.525V329.789L180.666 327.998Z" fill="#263238"/>
<path d="M198.203 338.445V344.057H213.766V337.938L198.203 338.445Z" fill="#263238"/>
<path d="M214.273 348.779H198.203V351.078H214.273V348.779Z" fill="#263238"/>
<g opacity="0.4">
<path d="M198.203 338.445V344.057H213.766V337.938L198.203 338.445Z" fill="black"/>
<path d="M214.273 348.779H198.203V351.078H214.273V348.779Z" fill="black"/>
</g>
<path d="M180.666 370.822V408.811H231.525V372.614L180.666 370.822Z" fill="#263238"/>
<path d="M198.203 381.268V386.881H213.766V380.761L198.203 381.268Z" fill="#263238"/>
<path d="M214.273 391.602H198.203V393.901H214.273V391.602Z" fill="#263238"/>
<g opacity="0.4">
<path d="M198.203 381.268V386.881H213.766V380.761L198.203 381.268Z" fill="black"/>
<path d="M214.273 391.603H198.203V393.902H214.273V391.603Z" fill="black"/>
</g>
<path d="M180.127 413.646V451.635H230.986V415.437L180.127 413.646Z" fill="#263238"/>
<path d="M197.65 424.093V429.705H213.214V423.585L197.65 424.093Z" fill="#263238"/>
<path d="M213.721 434.427H197.65V436.725H213.721V434.427Z" fill="#263238"/>
<g opacity="0.4">
<path d="M197.65 424.093V429.705H213.214V423.585L197.65 424.093Z" fill="black"/>
<path d="M213.721 434.427H197.65V436.726H213.721V434.427Z" fill="black"/>
</g>
<path d="M179.699 281.342H128.84V319.343H179.699V281.342Z" fill="#455A64"/>
<path d="M146.713 298.461V303.735H161.341V297.987L146.713 298.461Z" fill="#263238"/>
<path d="M161.814 308.175H146.713V310.327H161.814V308.175Z" fill="#263238"/>
<g opacity="0.4">
<path d="M146.715 298.461V303.735H161.343V297.987L146.715 298.461Z" fill="black"/>
<path d="M161.816 308.175H146.715V310.328H161.816V308.175Z" fill="black"/>
</g>
<path d="M179.697 281.342L229.835 280.97L228.922 319.331H179.697V281.342Z" fill="#263238"/>
<path opacity="0.4" d="M179.697 281.342L229.835 280.97L228.922 319.331H179.697V281.342Z" fill="black"/>
<path d="M228.056 246.835H177.93V280.959H228.056V246.835Z" fill="#FAFAFA"/>
<path d="M165.772 252.278L168.296 281.275L228.024 280.97L224.486 252.605C224.363 251.722 223.895 250.923 223.186 250.383C222.477 249.843 221.583 249.605 220.699 249.72L196.594 251.816L192.492 248.773C192.117 248.512 191.663 248.388 191.207 248.424L167.406 250.52C166.959 250.544 166.538 250.74 166.233 251.068C165.928 251.396 165.762 251.83 165.772 252.278Z" fill="#263238"/>
<path d="M165.772 252.278L168.296 281.275L228.024 280.97L224.486 252.605C224.363 251.722 223.895 250.923 223.186 250.383C222.477 249.843 221.583 249.605 220.699 249.72L196.594 251.816L192.492 248.773C192.117 248.512 191.663 248.388 191.207 248.424L167.406 250.52C166.959 250.544 166.538 250.74 166.233 251.068C165.928 251.396 165.762 251.83 165.772 252.278Z" fill="#FF725E"/>
<path d="M148.629 273.724L147.367 266.174L202.621 262.522L207.478 281.263L149.723 280.97L148.629 273.724Z" fill="#FAFAFA"/>
<path d="M141.576 270.05L142.556 281.319H201.653L200.256 270.354C200.132 269.473 199.667 268.677 198.96 268.137C198.254 267.597 197.363 267.357 196.48 267.469L172.375 269.565L168.262 266.523C167.892 266.259 167.441 266.135 166.988 266.173L143.187 268.281C142.74 268.304 142.32 268.503 142.018 268.834C141.716 269.165 141.557 269.602 141.576 270.05Z" fill="#FF725E"/>
<path opacity="0.7" d="M141.576 270.05L142.556 281.319H201.653L200.256 270.354C200.132 269.473 199.667 268.677 198.96 268.137C198.254 267.597 197.363 267.357 196.48 267.469L172.375 269.565L168.262 266.523C167.892 266.259 167.441 266.135 166.988 266.173L143.187 268.281C142.74 268.304 142.32 268.503 142.018 268.834C141.716 269.165 141.557 269.602 141.576 270.05Z" fill="#FAFAFA"/>
<path d="M203.938 267.582H211.826C212.125 267.583 212.419 267.651 212.687 267.781C212.956 267.911 213.192 268.1 213.377 268.334C213.562 268.568 213.692 268.841 213.757 269.132C213.822 269.423 213.821 269.726 213.753 270.016L211.206 280.959H207.521L203.938 267.582Z" fill="#263238"/>
<path d="M240.891 104.22L241.241 103.758C241.489 103.465 241.838 103.025 242.289 102.428C243.599 100.69 244.732 98.8248 245.67 96.8608C246.344 95.4448 246.909 93.9792 247.36 92.477C247.845 90.8317 248.228 88.9947 248.712 87.0451C249.659 83.1233 250.741 78.6719 251.924 73.7472C253.108 68.8224 254.437 63.4243 255.835 57.6431C256.157 56.1501 256.571 54.6785 257.074 53.2367C257.628 51.7574 258.322 50.3347 259.148 48.9881C260.012 47.604 261.017 46.3124 262.146 45.134C262.717 44.5326 263.323 43.9644 263.96 43.4323H264.016C264.253 44.3564 264.016 43.6802 264.107 43.8831H263.96L263.656 43.8042L263.047 43.6577L261.83 43.3647L241.41 38.3836L230.602 35.7353L225.08 34.3829L222.286 33.7068H222.117H222.026C221.97 33.7068 222.319 33.7068 222.15 33.7068L221.824 33.8307L221.159 34.0899C220.742 34.304 220.291 34.4731 219.885 34.7097C216.534 36.4745 213.836 39.2669 212.188 42.6772C211.406 44.3558 210.846 46.1286 210.52 47.9514C210.103 49.7545 209.686 51.5463 209.281 53.3269C207.635 60.4266 206.058 67.2785 204.547 73.8148L203.421 78.6494C202.254 83.2417 200.198 87.5606 197.369 91.3613C196.918 91.9586 196.456 92.4883 195.983 93.0968L195.802 93.3109L195.712 93.4236C195.476 92.646 195.712 93.2095 195.622 93.0405H195.723L196.253 93.1757L197.301 93.4349L201.403 94.4492L209.134 96.365L232.417 102.157L238.75 103.769L240.384 104.197L240.948 104.366L240.373 104.254L238.716 103.882L232.372 102.383L209.033 96.7481L201.302 94.8774L197.188 93.8744L196.14 93.6265L195.611 93.4912H195.509C195.442 93.3222 195.599 93.8744 195.352 93.0968L195.442 92.9954L195.611 92.7813C196.084 92.2291 196.535 91.6543 196.974 91.057C198.793 88.5946 200.289 85.9094 201.426 83.067C202.553 80.0165 203.42 76.8762 204.018 73.6795C205.517 67.1432 207.094 60.2914 208.717 53.1804C209.134 51.3998 209.54 49.608 209.957 47.8048C210.288 45.9431 210.86 44.1324 211.658 42.418C213.307 38.826 216.075 35.8646 219.547 33.9772C219.975 33.7293 220.437 33.549 220.877 33.3461L221.564 33.0757L221.902 32.9404H222.105H222.195H222.376L225.159 33.6279L230.681 35.1042L241.489 37.7525L261.898 42.7674L263.115 43.0717L263.723 43.2182L264.028 43.2971H264.174C264.231 43.5112 264.107 42.835 264.309 43.7704H264.253C263.633 44.3 263.036 44.8973 262.472 45.4383C260.291 47.6999 258.595 50.3847 257.491 53.3269C256.995 54.747 256.584 56.1959 256.263 57.6656L252.285 73.7584L248.994 87.0338C248.487 88.9835 248.081 90.8091 247.574 92.4657C247.109 93.9766 246.529 95.4497 245.839 96.8721C244.885 98.8363 243.721 100.692 242.368 102.405C241.912 103.039 241.419 103.644 240.891 104.22Z" fill="#263238"/>
<path d="M248.364 55.8848C247.936 55.8811 247.511 55.8166 247.102 55.6932C246.302 55.5354 245.141 55.2875 243.721 54.972C240.87 54.3296 236.959 53.4055 232.609 52.3011C228.259 51.1967 224.383 50.0472 221.577 49.2584C220.168 48.8414 219.041 48.4808 218.263 48.2216C217.85 48.1212 217.452 47.9658 217.08 47.7595C217.504 47.7988 217.924 47.8819 218.331 48.0074L221.712 48.8639L232.767 51.7264L243.845 54.5663L247.226 55.4791C247.618 55.5756 247.999 55.7115 248.364 55.8848Z" fill="#263238"/>
<path d="M247.587 60.6067C247.161 60.5884 246.737 60.5242 246.325 60.4151C245.513 60.2574 244.364 60.0094 242.944 59.6826C240.093 59.0403 236.182 58.1162 231.821 57.0118C227.46 55.9074 223.606 54.7579 220.8 53.9803C219.391 53.552 218.264 53.2027 217.486 52.9435C217.094 52.8326 216.716 52.6776 216.359 52.4814C216.784 52.5122 217.204 52.5916 217.61 52.7181L220.991 53.5746L232.046 56.4483L243.079 59.2882L246.46 60.1898C246.85 60.287 247.228 60.4268 247.587 60.6067Z" fill="#263238"/>
<path d="M246.46 65.3176C246.033 65.3149 245.608 65.2542 245.198 65.1373C244.386 64.9795 243.237 64.7203 241.817 64.4048C238.966 63.7624 235.055 62.8383 230.694 61.7339C226.333 60.6295 222.478 59.5364 219.672 58.6912C218.264 58.2742 217.137 57.9249 216.359 57.6657C215.95 57.5525 215.553 57.3977 215.176 57.2036C215.601 57.2271 216.022 57.3067 216.427 57.4403L219.808 58.2968L230.863 61.1592L241.952 63.9991L245.333 64.9119C245.721 65.0111 246.098 65.147 246.46 65.3176Z" fill="#263238"/>
<path d="M245.477 70.0396C245.05 70.0284 244.626 69.9641 244.215 69.848C243.415 69.6902 242.254 69.4423 240.834 69.1268C237.983 68.4844 234.073 67.5603 229.723 66.4446C225.373 65.3289 221.496 64.2584 218.69 63.4131C217.292 62.9962 216.166 62.6355 215.388 62.3764C214.972 62.2741 214.57 62.1189 214.193 61.9143C214.618 61.9525 215.037 62.0356 215.444 62.1622L218.825 63.0074L229.892 65.8812L240.958 68.7211L244.339 69.6339C244.732 69.7279 245.114 69.8639 245.477 70.0396Z" fill="#263238"/>
<path d="M243.957 74.7614C243.531 74.7431 243.107 74.6789 242.695 74.5699C241.883 74.4121 240.734 74.1642 239.314 73.8373C236.463 73.195 232.552 72.2709 228.191 71.1665C223.83 70.0621 219.976 68.9126 217.169 68.1237C215.761 67.7068 214.634 67.3574 213.856 67.0982C213.438 67.0003 213.033 66.8527 212.65 66.6587C213.076 66.6822 213.497 66.7618 213.901 66.8953L217.282 67.7518L228.337 70.6255L239.415 73.4542L242.796 74.367C243.198 74.4512 243.587 74.5836 243.957 74.7614Z" fill="#263238"/>
<path d="M242.852 79.472C242.425 79.4683 242 79.4038 241.59 79.2804C240.79 79.1226 239.629 78.8747 238.209 78.5591C235.358 77.9168 231.448 76.9927 227.098 75.8883C222.748 74.7839 218.871 73.6344 216.065 72.8455C214.667 72.4285 213.529 72.0679 212.752 71.8087C212.338 71.7083 211.94 71.5529 211.568 71.3467C211.993 71.3859 212.412 71.469 212.819 71.5946L216.2 72.4511L227.267 75.3135L238.333 78.1534L241.714 79.0663C242.106 79.1627 242.488 79.2987 242.852 79.472Z" fill="#263238"/>
<path d="M241.454 84.3628C241.027 84.36 240.603 84.2994 240.192 84.1825C239.392 84.0247 238.231 83.7768 236.811 83.45C233.96 82.8076 230.05 81.8835 225.688 80.7791C221.327 79.6747 217.473 78.5252 214.667 77.7363C213.269 77.3194 212.131 76.97 211.354 76.7108C210.962 76.5999 210.584 76.4449 210.227 76.2488C210.652 76.2723 211.073 76.3519 211.477 76.4854L214.858 77.3419L225.914 80.2156L236.992 83.0443L240.372 83.9571C240.745 84.0571 241.108 84.193 241.454 84.3628Z" fill="#263238"/>
<path d="M240.418 89.0622C239.504 89.0087 238.597 88.8614 237.713 88.6226C236.057 88.2733 233.78 87.7662 231.278 87.1238C228.777 86.4815 226.545 85.7827 224.923 85.2982C224.03 85.0854 223.164 84.7716 222.342 84.3628C223.255 84.4517 224.157 84.6291 225.035 84.8925C226.681 85.2869 228.934 85.9067 231.425 86.5603C233.916 87.214 236.181 87.7662 237.815 88.2169C238.71 88.4048 239.583 88.6881 240.418 89.0622Z" fill="#263238"/>
<path d="M167.822 200.641L129.314 215.765C126.268 197.066 120.297 178.964 111.621 162.122L135.287 151.98C137.447 151.053 139.773 150.579 142.123 150.587C144.473 150.594 146.797 151.082 148.951 152.022C151.105 152.962 153.044 154.333 154.648 156.051C156.252 157.768 157.487 159.796 158.277 162.009C162.815 174.513 166.014 187.463 167.822 200.641Z" fill="#FAFAFA"/>
<path d="M167.821 200.641C167.821 200.641 167.821 200.472 167.731 200.157C167.64 199.841 167.595 199.357 167.505 198.771C167.302 197.554 167.009 195.739 166.581 193.418C165.364 186.856 163.814 180.36 161.938 173.955C161.33 171.927 160.687 169.797 159.955 167.611C159.222 165.424 158.49 163.103 157.52 160.849C156.49 158.526 154.949 156.465 153.013 154.82C150.93 153.094 148.477 151.872 145.845 151.247C143.075 150.621 140.191 150.702 137.461 151.484C136.751 151.664 136.086 151.969 135.398 152.205L133.347 153.095L129.166 154.887L111.755 162.382L111.902 161.987C112.206 162.596 112.533 163.261 112.871 163.925C117.196 172.646 120.839 181.689 123.768 190.972C126.306 199.084 128.246 207.37 129.572 215.765L129.257 215.585L157.227 204.732L165.048 201.723L167.122 200.946C167.584 200.765 167.843 200.686 167.843 200.686C167.843 200.686 167.629 200.799 167.178 200.979L165.172 201.802L157.43 204.867L129.426 215.99L129.155 216.103V215.799C127.792 207.436 125.834 199.18 123.295 191.096C120.338 181.86 116.68 172.863 112.352 164.185L111.395 162.246L111.248 161.965L111.541 161.852L128.952 154.369L133.133 152.566L135.184 151.687C135.906 151.439 136.593 151.135 137.314 150.943C140.14 150.147 143.119 150.074 145.981 150.729C148.69 151.375 151.212 152.64 153.351 154.425C155.353 156.122 156.941 158.253 157.994 160.657C158.985 162.979 159.673 165.278 160.417 167.475C161.16 169.673 161.769 171.803 162.366 173.831C164.222 180.259 165.727 186.782 166.874 193.373C167.257 195.717 167.528 197.52 167.686 198.771C167.753 199.368 167.809 199.83 167.855 200.179C167.858 200.334 167.847 200.489 167.821 200.641Z" fill="#263238"/>
<path d="M136.57 151.45C136.57 151.45 142.318 163.238 141.811 163.655C141.303 164.072 156.078 158.144 156.258 158.02C156.303 158.054 148.617 147.799 136.57 151.45Z" fill="#263238"/>
<path d="M134.417 167.34C132.769 168.359 131.021 169.205 129.199 169.865C127.458 170.701 125.638 171.365 123.768 171.848C125.409 170.825 127.154 169.979 128.974 169.324C130.718 168.484 132.542 167.82 134.417 167.34Z" fill="#263238"/>
<path d="M153.531 165.65C153.599 165.796 147.356 168.828 139.591 172.411C131.826 175.995 125.471 178.779 125.403 178.632C125.335 178.486 131.579 175.465 139.343 171.87C147.108 168.275 153.464 165.503 153.531 165.65Z" fill="#263238"/>
<path d="M156.125 172.592C156.193 172.738 149.95 175.758 142.185 179.353C134.42 182.948 128.064 185.732 127.997 185.585C127.929 185.439 134.172 182.419 141.937 178.824C149.702 175.229 156.058 172.434 156.125 172.592Z" fill="#263238"/>
<path d="M158.772 179.477C158.839 179.624 152.596 182.644 144.831 186.239C137.067 189.834 130.711 192.606 130.643 192.46C130.576 192.313 136.819 189.293 144.583 185.698C152.348 182.103 158.704 179.353 158.772 179.477Z" fill="#263238"/>
<path d="M151.322 192.268C150.497 192.809 149.621 193.269 148.707 193.643C147.062 194.421 144.774 195.469 142.228 196.584C138.238 198.342 134.812 199.774 133.516 200.213L133.336 200.281V200.112C133.426 199.695 133.494 199.503 133.528 199.503C133.561 199.503 133.528 199.717 133.528 200.145L133.392 200.033C134.587 199.379 137.9 197.779 141.946 196.055C144.493 194.928 146.814 193.947 148.505 193.26C149.406 192.829 150.35 192.497 151.322 192.268Z" fill="#263238"/>
<path d="M329.694 199.638L286.949 181.156C291.446 177.445 294.967 172.69 297.204 167.306L309.68 137.352C310.864 134.62 312.71 132.225 315.051 130.386C317.392 128.546 320.156 127.319 323.09 126.815L362.736 143.99C358.447 146.479 355.07 150.279 353.101 154.831L338.868 187.659C336.83 192.339 333.681 196.451 329.694 199.638Z" fill="#FF725E"/>
<path opacity="0.7" d="M329.694 199.638L286.949 181.156C291.446 177.445 294.967 172.69 297.204 167.306L309.68 137.352C310.864 134.62 312.71 132.225 315.051 130.386C317.392 128.546 320.156 127.319 323.09 126.815L362.736 143.99C358.447 146.479 355.07 150.279 353.101 154.831L338.868 187.659C336.83 192.339 333.681 196.451 329.694 199.638Z" fill="#FAFAFA"/>
<path d="M345.103 156.397C345.035 156.544 338.037 153.625 329.461 149.861C320.884 146.097 313.988 142.941 314.055 142.795C314.123 142.648 321.121 145.567 329.697 149.331C338.273 153.095 345.17 156.251 345.103 156.397Z" fill="#263238"/>
<path d="M343.377 162.291C343.31 162.438 336.075 159.406 327.205 155.53C318.336 151.653 311.214 148.374 311.282 148.227C311.349 148.081 318.584 151.101 327.442 154.989C336.3 158.877 343.377 162.145 343.377 162.291Z" fill="#263238"/>
<path d="M341.123 167.498C341.067 167.644 333.821 164.613 324.963 160.736C316.105 156.859 308.971 153.591 309.028 153.445C309.084 153.298 316.33 156.318 325.199 160.206C334.068 164.094 341.123 167.34 341.123 167.498Z" fill="#263238"/>
<path d="M338.787 172.704C338.72 172.851 331.485 169.819 322.616 165.943C313.747 162.066 306.624 158.798 306.692 158.64C306.76 158.482 313.994 161.525 322.852 165.402C331.71 169.278 338.866 172.592 338.787 172.704Z" fill="#263238"/>
<path d="M336.503 177.9C336.503 178.057 329.2 175.026 320.342 171.138C311.484 167.25 304.351 163.993 304.418 163.835C304.486 163.677 311.71 166.72 320.579 170.597C329.448 174.474 336.615 177.753 336.503 177.9Z" fill="#263238"/>
<path d="M318.796 176.344C317.923 176.153 317.076 175.857 316.272 175.465C314.739 174.857 312.643 173.978 310.344 172.964C308.045 171.949 305.972 171.014 304.484 170.304C303.653 169.975 302.863 169.552 302.129 169.042C302.998 169.247 303.844 169.541 304.653 169.921C306.186 170.541 308.282 171.42 310.581 172.423C312.88 173.426 314.954 174.383 316.441 175.093C317.269 175.425 318.059 175.844 318.796 176.344Z" fill="#263238"/>
<path d="M329.558 188.369C329.502 188.369 329.682 187.963 329.784 187.242C329.908 186.203 329.695 185.152 329.175 184.244C328.755 183.527 328.145 182.94 327.412 182.548C326.679 182.156 325.852 181.974 325.023 182.022C324.193 182.071 323.393 182.348 322.711 182.823C322.029 183.297 321.491 183.951 321.157 184.713C320.823 185.474 320.707 186.312 320.82 187.136C320.933 187.959 321.271 188.735 321.798 189.378C322.324 190.021 323.018 190.506 323.803 190.78C324.588 191.053 325.433 191.104 326.245 190.927C327.267 190.698 328.186 190.14 328.86 189.338C329.333 188.763 329.513 188.369 329.558 188.391C329.486 188.806 329.307 189.194 329.04 189.518C328.392 190.437 327.437 191.092 326.347 191.367C325.532 191.58 324.677 191.583 323.861 191.376C323.046 191.169 322.295 190.759 321.681 190.183C320.922 189.469 320.404 188.537 320.195 187.516C319.987 186.495 320.1 185.435 320.519 184.48C320.937 183.526 321.641 182.724 322.533 182.186C323.425 181.647 324.462 181.398 325.501 181.472C326.341 181.532 327.152 181.805 327.858 182.264C328.563 182.723 329.141 183.354 329.536 184.098C330.066 185.088 330.23 186.233 329.998 187.332C329.932 187.707 329.782 188.061 329.558 188.369Z" fill="#263238"/>
<path d="M329.019 142.365L316.633 136.938L315.85 138.724L328.237 144.151L329.019 142.365Z" fill="#263238"/>
<path d="M304.959 252.661L258.811 251.579L275.985 228.589H321.007L304.959 252.661Z" fill="#FF725E"/>
<path d="M265.664 248.131L302.166 249.246L297.095 241.786L289.916 244.863L284.236 235.047L265.664 248.131Z" fill="#FF725E"/>
<path d="M296.122 234.979C296.122 235.447 295.983 235.905 295.723 236.294C295.463 236.683 295.093 236.987 294.661 237.166C294.228 237.345 293.753 237.392 293.294 237.3C292.834 237.209 292.413 236.984 292.082 236.653C291.751 236.322 291.525 235.9 291.434 235.441C291.343 234.982 291.39 234.506 291.569 234.074C291.748 233.641 292.051 233.272 292.44 233.012C292.83 232.752 293.287 232.613 293.755 232.613C294.383 232.613 294.985 232.862 295.429 233.306C295.873 233.75 296.122 234.352 296.122 234.979Z" fill="#FF725E"/>
<g opacity="0.7">
<path d="M265.66 248.131L302.162 249.247L297.091 241.786L289.912 244.863L284.232 235.047L265.66 248.131Z" fill="#FAFAFA"/>
<path d="M296.122 234.979C296.122 235.447 295.983 235.905 295.723 236.294C295.463 236.683 295.093 236.987 294.661 237.166C294.228 237.345 293.753 237.392 293.294 237.3C292.834 237.209 292.413 236.984 292.082 236.653C291.751 236.322 291.525 235.9 291.434 235.441C291.343 234.982 291.39 234.506 291.569 234.074C291.748 233.641 292.051 233.272 292.44 233.012C292.83 232.752 293.287 232.613 293.755 232.613C294.383 232.613 294.985 232.862 295.429 233.306C295.873 233.75 296.122 234.352 296.122 234.979Z" fill="#FAFAFA"/>
</g>
<path d="M179.8 117.529L139.151 135.583L138.182 104.614L178.786 85.4221L179.8 117.529Z" fill="#FF725E"/>
<path opacity="0.7" d="M179.8 117.529L139.151 135.583L138.182 104.614L178.786 85.4221L179.8 117.529Z" fill="#FAFAFA"/>
<path d="M140.953 130.139L177.838 112.942L165.847 105.978L161.238 114.092L147.704 107.589L140.953 130.139Z" fill="#FF725E"/>
<path d="M161.849 105.978C161.849 106.373 161.731 106.759 161.512 107.087C161.292 107.416 160.98 107.671 160.615 107.822C160.25 107.972 159.848 108.011 159.461 107.933C159.074 107.856 158.718 107.664 158.44 107.384C158.161 107.104 157.972 106.748 157.896 106.36C157.821 105.972 157.862 105.571 158.014 105.207C158.167 104.842 158.425 104.532 158.754 104.314C159.084 104.096 159.47 103.981 159.865 103.983C160.127 103.983 160.386 104.035 160.627 104.135C160.868 104.236 161.088 104.383 161.272 104.568C161.456 104.753 161.602 104.973 161.701 105.215C161.8 105.457 161.85 105.716 161.849 105.978Z" fill="#FF725E"/>
<path d="M153.814 103.927C153.7 102.789 153.516 101.66 153.262 100.546C152.451 97.4993 150.642 94.8128 148.123 92.9164C146.273 91.5268 144.105 90.6215 141.816 90.283C139.527 89.9445 137.19 90.1834 135.017 90.978C133.763 91.4226 132.585 92.0574 131.523 92.86C130.401 93.6801 129.416 94.6728 128.605 95.8014C126.87 98.1659 125.934 101.022 125.934 103.955C125.934 106.888 126.87 109.744 128.605 112.108C129.416 113.237 130.401 114.23 131.523 115.05C132.585 115.852 133.763 116.487 135.017 116.932C137.339 117.777 139.843 117.991 142.275 117.551C144.398 117.164 146.401 116.284 148.123 114.982C150.641 113.09 152.451 110.407 153.262 107.364C153.517 106.249 153.701 105.12 153.814 103.983C153.834 104.283 153.834 104.584 153.814 104.885C153.82 105.262 153.793 105.639 153.736 106.011C153.685 106.51 153.594 107.004 153.465 107.488C152.831 110.138 151.446 112.549 149.474 114.43C147.503 116.311 145.03 117.583 142.353 118.092C139.847 118.522 137.271 118.273 134.893 117.371C132.217 116.406 129.887 114.669 128.199 112.379C126.376 109.921 125.393 106.942 125.393 103.882C125.393 100.822 126.376 97.8425 128.199 95.3844C129.05 94.2155 130.081 93.1885 131.253 92.3416C132.36 91.5132 133.588 90.8595 134.893 90.4033C137.147 89.595 139.57 89.3705 141.935 89.7508C144.299 90.1311 146.529 91.1038 148.416 92.5783C150.977 94.5404 152.78 97.3273 153.521 100.467C153.652 100.951 153.742 101.445 153.792 101.943C153.871 102.601 153.893 103.265 153.86 103.927H153.814Z" fill="#263238"/>
<path d="M130.381 114.339C130.494 114.463 126.324 118.329 121.084 122.972C115.844 127.615 111.494 131.289 111.392 131.176C111.291 131.063 115.449 127.187 120.69 122.532C125.93 117.878 130.291 114.216 130.381 114.339Z" fill="#263238"/>
<path d="M42.4151 168.58C38.5384 166.484 32.7346 167.768 30.368 171.487C28.9206 174.154 28.3938 177.224 28.8692 180.221C29.1735 183.219 29.9285 186.16 29.9961 189.169C30.1238 190.793 29.9049 192.426 29.3538 193.959C29.0763 194.722 28.6479 195.422 28.0941 196.016C27.5404 196.611 26.8727 197.088 26.1307 197.418C23.8205 198.343 20.9355 197.418 18.8732 198.85C18.4221 199.208 18.0469 199.652 17.7693 200.157C17.4918 200.662 17.3175 201.216 17.2567 201.789C17.1959 202.362 17.2497 202.941 17.415 203.493C17.5803 204.045 17.8538 204.558 18.2196 205.003C19.0164 205.861 20.0718 206.436 21.2252 206.639C22.3786 206.842 23.5669 206.664 24.6093 206.13C22.4343 208.147 22.84 212.035 25.0376 214.018C26.1963 214.95 27.5878 215.548 29.0616 215.747C30.5353 215.945 32.0354 215.737 33.3995 215.145C36.1165 213.917 38.4297 211.944 40.071 209.454C44.3025 203.34 46.5097 196.052 46.3819 188.617C46.3872 181.668 44.8717 174.802 41.9418 168.501" fill="#263238"/>
<path d="M168.981 234.348C167.685 232.252 158.692 237.267 157.892 237.628C157.092 237.988 156.551 236.862 157.284 236.569C158.332 236.152 169.297 231.441 168.035 229.379C167.336 228.252 165.386 229.672 165.386 229.672C165.386 229.672 155.458 234.833 154.894 233.83C154.331 232.827 160.056 229.593 162.062 228.646C164.068 227.699 164.406 226.392 163.256 225.851C162.479 225.479 156.258 228.252 154.297 229.232C152.336 230.213 146.995 233.03 148.505 229.503C150.015 225.975 149.846 222.741 149.181 221.851C149.01 221.666 148.785 221.541 148.538 221.492C148.292 221.443 148.036 221.473 147.807 221.578C147.579 221.683 147.389 221.857 147.265 222.076C147.142 222.295 147.09 222.547 147.119 222.797C147.02 224.088 146.743 225.358 146.296 226.572C145.98 227.561 145.496 228.487 144.865 229.311C144.121 230.28 143.456 231.058 142.87 231.711C137.145 233.717 120.793 238.789 105.512 237.346C104.959 237.29 104.159 236.219 103.258 234.517L82.5332 241.189C83.3108 242.789 84.156 244.57 85.0688 246.339C96.6313 269.442 150.229 245.471 150.229 245.471V245.415C154.246 244.647 158.219 243.661 162.129 242.462C167.494 240.535 167.325 240.051 166.998 239.465C166.108 237.887 157.43 242.508 158.715 240.434C160 238.36 169.984 235.96 168.981 234.348Z" fill="#EB996E"/>
<path d="M96.0684 244.412L133.596 229.784L156.754 243.443L115.722 258.093L96.0684 244.412Z" fill="#263238"/>
<path d="M134.654 230.415L138.227 229.458C144.977 233.305 151.203 238.006 156.754 243.443L155.706 242.823L134.654 230.415Z" fill="#FAFAFA"/>
<path d="M156.755 243.443C155.801 242.81 154.897 242.106 154.051 241.335C152.394 239.994 150.084 238.168 147.48 236.23C144.877 234.292 142.466 232.601 140.719 231.418C139.728 230.822 138.779 230.16 137.879 229.435C138.955 229.864 139.979 230.412 140.933 231.069C143.313 232.514 145.619 234.079 147.841 235.757C150.456 237.706 152.732 239.6 154.332 241.02C155.218 241.745 156.03 242.557 156.755 243.443Z" fill="#263238"/>
<path d="M89.4405 276.519L87.8065 242.71L87.6825 241.291L105.59 233.007L99.8873 219.045C93.599 195.48 71.1502 195.131 71.1502 195.131L54.0319 193.452L46.3123 195.131C46.3123 195.131 32.0114 197.599 31.4704 217.985C31.2116 230.407 33.8589 242.718 39.2013 253.935L44.4416 251.196C44.4259 254.515 43.4172 257.753 41.5453 260.494C39.3417 263.691 37.7766 267.284 36.9361 271.076L89.4405 276.519Z" fill="#FF725E"/>
<path d="M50.4387 213.635C50.5288 213.635 50.6641 215.303 51.0585 217.985C52.0886 224.972 54.2147 231.754 57.3581 238.078C58.564 240.501 59.4092 241.955 59.3303 242C59.0552 241.714 58.8201 241.392 58.6316 241.042C58.2033 240.411 57.6399 239.465 56.9862 238.27C53.6039 231.993 51.4541 225.127 50.6528 218.041C50.495 216.689 50.4161 215.585 50.4049 214.818C50.3585 214.424 50.3699 214.026 50.4387 213.635Z" fill="#263238"/>
<path d="M85.4288 234.438C86.6262 233.921 87.6984 233.152 88.5729 232.184C89.4685 231.118 89.9558 229.768 89.9478 228.375C89.957 227.534 89.7556 226.703 89.362 225.959C88.9683 225.215 88.3949 224.581 87.6939 224.115C87.1654 223.76 86.571 223.514 85.9458 223.392C85.3206 223.27 84.6773 223.275 84.0539 223.405L83.7722 223.473L83.7158 223.191C83.1636 220.475 82.7128 218.131 82.4085 216.43C82.2108 215.551 82.0827 214.658 82.0254 213.759C82.3463 214.599 82.5914 215.467 82.7579 216.351C83.1523 217.996 83.6707 220.329 84.268 223.034L83.9187 222.819C84.6161 222.661 85.3385 222.646 86.0418 222.776C86.7452 222.905 87.4147 223.177 88.0095 223.574C88.7822 224.099 89.4103 224.809 89.8357 225.641C90.2612 226.472 90.4703 227.397 90.4437 228.33C90.4317 229.844 89.862 231.301 88.8434 232.421C88.1687 233.157 87.342 233.738 86.4205 234.123C86.1164 234.298 85.7782 234.405 85.4288 234.438Z" fill="#263238"/>
<path d="M88.3022 248.435C87.7709 246.088 87.4653 243.695 87.3894 241.29C87.0851 237.335 86.5893 234.168 86.7471 234.134C87.4753 236.434 87.8885 238.823 87.9754 241.234C88.2406 243.625 88.3498 246.03 88.3022 248.435Z" fill="#263238"/>
<path d="M105.647 233.142C104.872 233.72 104.037 234.211 103.156 234.607C101.578 235.43 99.3694 236.523 96.8789 237.639C94.3883 238.755 92.1232 239.69 90.4553 240.321C89.5794 240.724 88.6607 241.026 87.7168 241.223C88.5315 240.708 89.3961 240.278 90.2975 239.938L96.6422 237.098L102.976 234.235C103.831 233.79 104.725 233.424 105.647 233.142Z" fill="#263238"/>
<path d="M38.9075 217.084C38.7105 216.045 38.7105 214.978 38.9075 213.939C38.8966 212.878 39.0799 211.824 39.4484 210.829C39.6454 211.872 39.6454 212.942 39.4484 213.985C39.4587 215.042 39.2753 216.092 38.9075 217.084Z" fill="#FAFAFA"/>
<path d="M40.5877 224.071C39.7123 224.026 38.8578 223.787 38.0859 223.372C37.2561 223.127 36.4878 222.708 35.832 222.144C36.7109 222.18 37.5701 222.415 38.3451 222.831C39.6298 223.361 40.6554 223.913 40.5877 224.071Z" fill="#FAFAFA"/>
<path d="M46.8533 220.735C46.5193 220.009 46.4361 219.192 46.6167 218.413C46.7519 217.117 47.1914 216.159 47.3379 216.159C47.4153 216.913 47.3697 217.674 47.2027 218.413C47.206 219.2 47.0882 219.983 46.8533 220.735Z" fill="#FAFAFA"/>
<path d="M45.8623 232.376C45.6835 231.472 45.8439 230.533 46.313 229.739C46.9329 228.364 47.9133 227.575 48.0147 227.688C48.1162 227.801 47.4175 228.714 46.8878 229.942C46.3581 231.17 46.0088 232.388 45.8623 232.376Z" fill="#FAFAFA"/>
<path d="M43.6073 238.788C42.7259 238.416 41.8902 237.943 41.1167 237.38C39.7644 236.568 38.6149 236.005 38.6825 235.847C39.6682 235.933 40.6113 236.288 41.4097 236.872C42.8297 237.695 43.7425 238.676 43.6073 238.788Z" fill="#FAFAFA"/>
<path d="M53.1067 237.47C52.9028 238.452 52.589 239.409 52.1714 240.321C51.9312 241.293 51.5795 242.235 51.1233 243.127C51.011 242.101 51.1825 241.064 51.6192 240.129C51.8688 239.126 52.3824 238.208 53.1067 237.47Z" fill="#FAFAFA"/>
<path d="M43.6078 245.945C42.8116 246.013 42.0107 245.885 41.2751 245.573C40.0242 245.212 39.0212 244.795 39.1001 244.637C39.8963 244.569 40.6972 244.697 41.4328 245.009C42.7063 245.37 43.6755 245.843 43.6078 245.945Z" fill="#FAFAFA"/>
<path d="M51.8117 205.476C51.0802 206.13 50.2259 206.632 49.2986 206.952C48.4522 207.444 47.5182 207.765 46.5488 207.899C48.1205 206.743 49.9112 205.918 51.8117 205.476Z" fill="#FAFAFA"/>
<path d="M44.8268 197.61C44.9508 197.734 44.0267 198.737 43.0124 200.089C42.471 200.96 41.8362 201.768 41.1191 202.501C41.338 201.465 41.8325 200.507 42.5504 199.729C43.6097 198.343 44.7366 197.486 44.8268 197.61Z" fill="#FAFAFA"/>
<path d="M62.8684 215.483C61.8273 215.133 60.8899 214.529 60.1412 213.725C59.268 213.058 58.5811 212.177 58.1465 211.167C59.0104 211.793 59.8106 212.503 60.5356 213.286C61.8203 214.469 62.9585 215.337 62.8684 215.483Z" fill="#FAFAFA"/>
<path d="M73.6304 204.721C73.1298 205.727 72.5092 206.67 71.7822 207.527C71.2326 208.481 70.5663 209.363 69.7988 210.153C70.0709 209.063 70.5873 208.05 71.3089 207.189C72.4021 205.622 73.5177 204.608 73.6304 204.721Z" fill="#FAFAFA"/>
<path d="M66.7892 224.95C64.9654 225.34 63.0796 225.34 61.2559 224.95C63.0796 224.559 64.9654 224.559 66.7892 224.95Z" fill="#FAFAFA"/>
<path d="M76.9677 221.05C76.4222 220.139 76.1412 219.093 76.1563 218.03C75.9824 216.984 76.1074 215.91 76.5169 214.931C76.6905 215.939 76.766 216.962 76.7423 217.985C76.9203 218.997 76.9958 220.024 76.9677 221.05Z" fill="#FAFAFA"/>
<path d="M79.6026 234.258C78.5723 234.029 77.5914 233.616 76.7063 233.041C75.7376 232.629 74.8517 232.045 74.0918 231.317C75.1232 231.537 76.1051 231.946 76.988 232.523C77.9613 232.931 78.8484 233.52 79.6026 234.258Z" fill="#FAFAFA"/>
<path d="M86.8613 227.553C86.9402 227.699 86.2865 228.195 85.4075 228.68C84.5285 229.165 83.7396 229.435 83.6607 229.288C83.5819 229.142 84.2355 228.646 85.1258 228.162C86.0161 227.677 86.7937 227.406 86.8613 227.553Z" fill="#FAFAFA"/>
<path d="M64.0068 239.938C63.9732 238.764 64.2368 237.601 64.7731 236.557C65.1356 235.446 65.7848 234.451 66.6551 233.672C66.2901 234.742 65.8417 235.782 65.314 236.782C64.9701 237.87 64.5327 238.926 64.0068 239.938Z" fill="#FAFAFA"/>
<path d="M75.9517 245.618C75.065 244.618 74.4312 243.42 74.1035 242.124C73.5907 240.888 73.3857 239.547 73.5063 238.214C73.9497 239.436 74.326 240.681 74.6332 241.944C75.1383 243.144 75.5785 244.371 75.9517 245.618Z" fill="#FAFAFA"/>
<path d="M84.2692 241.561C84.4045 241.662 83.9762 242.372 83.6381 243.296C83.3001 244.221 83.1536 245.032 82.9845 245.032C82.8155 245.032 82.7028 244.13 83.0859 243.094C83.4691 242.057 84.1791 241.448 84.2692 241.561Z" fill="#FAFAFA"/>
<path d="M96.6442 231.678C95.0453 232.667 93.2559 233.308 91.3926 233.56C92.1424 232.986 93.0014 232.572 93.9169 232.343C94.7723 231.941 95.6997 231.714 96.6442 231.678Z" fill="#FAFAFA"/>
<path d="M96.0677 224.431C95.873 223.442 95.9669 222.417 96.3381 221.479C96.5188 220.47 96.9932 219.537 97.7018 218.797C97.5147 219.749 97.2354 220.682 96.8678 221.58C96.7007 222.556 96.4326 223.511 96.0677 224.431Z" fill="#FAFAFA"/>
<path d="M92.5627 218.256C91.567 218.534 90.5257 218.611 89.5 218.481C88.4742 218.352 87.4848 218.018 86.5898 217.5C87.5945 217.549 88.5934 217.681 89.5762 217.895C90.5804 217.927 91.5797 218.048 92.5627 218.256Z" fill="#FAFAFA"/>
<path d="M88.4844 210.986C88.7269 210.067 89.2415 209.242 89.9607 208.62C91.02 207.493 92.1469 206.873 92.2146 207.008C92.2822 207.144 91.3919 207.932 90.3776 209.026C89.3634 210.119 88.6872 211.077 88.4844 210.986Z" fill="#FAFAFA"/>
<path d="M80.864 205.6C80.0851 203.966 79.6735 202.181 79.6582 200.371C80.4371 202.005 80.8487 203.789 80.864 205.6Z" fill="#FAFAFA"/>
<path d="M43.6087 262.206C43.6988 262.33 43.2931 262.826 42.6958 263.333C42.0986 263.841 41.5689 264.1 41.4224 263.976C41.2759 263.852 41.7267 263.356 42.3239 262.849C42.9212 262.342 43.541 262.082 43.6087 262.206Z" fill="#FAFAFA"/>
<path d="M86.8711 268.945C85.7605 269.185 84.6173 269.235 83.4902 269.092C82.3459 269.133 81.2028 268.981 80.1094 268.641C82.3905 268.358 84.7029 268.461 86.9499 268.945H86.8711Z" fill="#FAFAFA"/>
<path d="M59.6233 241.673C59.7022 241.82 55.1155 244.682 49.3004 248.074C43.4854 251.467 38.7635 254.092 38.6846 253.957C38.6057 253.822 43.1924 250.959 49.0074 247.567C54.8225 244.175 59.5331 241.538 59.6233 241.673Z" fill="#263238"/>
<path d="M37.6018 268.698C37.0609 268.698 31.088 286.323 36.8017 297.998C37.3764 299.125 39.3711 301.807 41.8616 305.628C53.6946 323.783 83.6939 364.443 84.5954 370.697C85.7224 378.271 105.05 457.472 105.05 457.472H120.827L107.563 367.102L87.796 281.376L37.6018 268.698Z" fill="#FFBE9D"/>
<path d="M88.4395 388.3C89.5556 387.276 90.4306 386.017 91.0016 384.614C91.5725 383.211 91.8252 381.699 91.7415 380.186C91.6062 374.755 88.4282 361.795 88.4282 361.795L83.3457 364.905C83.3457 364.905 87.3464 375.543 87.5379 378.879C87.7633 382.609 87.0646 383.826 87.0646 383.826L88.4395 388.3Z" fill="#EB996E"/>
<path d="M47.2721 312.705L63.9622 374.687L11.8184 428.905L22.7835 441.932C22.7835 441.932 86.8392 389.416 87.9999 381.866C89.3297 373.245 73.7103 311.995 73.7103 311.995L47.2721 312.705Z" fill="#FFBE9D"/>
<path d="M25.8593 440.332L14.1503 426.481L11.0625 429.4L15.0181 434.776C17.7453 438.359 27.1328 450.249 29.7811 451.95C32.7337 453.844 25.8593 440.332 25.8593 440.332Z" fill="#FF725E"/>
<path d="M30.6387 451.725C30.7514 451.623 26.5028 446.507 21.1498 440.286C15.7968 434.066 11.3454 429.118 11.2327 429.22C11.12 429.321 15.3686 434.438 20.7216 440.658C26.0745 446.879 30.526 451.826 30.6387 451.725Z" fill="#263238"/>
<path d="M14.1846 432.826C14.2522 432.826 14.3987 432.544 14.5678 432.037C14.7809 431.352 14.8687 430.635 14.827 429.919C14.7818 429.173 14.4837 428.466 13.9818 427.913C13.5761 427.507 13.2154 427.417 13.1929 427.473C13.1704 427.53 13.407 427.755 13.6775 428.161C14.0188 428.705 14.2237 429.323 14.2748 429.964C14.3034 430.63 14.2694 431.298 14.1733 431.958C14.117 432.477 14.1057 432.815 14.1846 432.826Z" fill="#263238"/>
<path d="M26.3688 441.413C26.3688 441.583 25.7715 441.594 25.0953 441.583C24.4192 441.571 23.867 441.526 23.8444 441.368C23.8219 441.211 24.3741 440.974 25.1066 440.985C25.8391 440.997 26.4026 441.256 26.3688 441.413Z" fill="#263238"/>
<path d="M27.0302 442.709C27.0302 442.878 26.4667 442.991 25.8131 442.98C25.1594 442.969 24.6861 442.811 24.6185 442.642C24.5509 442.473 25.1482 442.36 25.8356 442.383C26.5231 442.405 27.0415 442.552 27.0302 442.709Z" fill="#263238"/>
<path d="M27.5521 443.859C27.5521 444.028 27.1352 444.163 26.628 444.242C26.1209 444.321 25.6814 444.31 25.6363 444.152C25.5912 443.994 25.9857 443.746 26.5379 443.667C27.0901 443.589 27.5521 443.701 27.5521 443.859Z" fill="#263238"/>
<path d="M26.2431 441.526C26.3796 440.905 26.6615 440.326 27.0658 439.836C27.4572 439.253 27.9541 438.748 28.5308 438.348C28.8774 438.107 29.257 437.917 29.6578 437.785C29.8877 437.711 30.1265 437.67 30.3677 437.661C30.516 437.66 30.6631 437.688 30.8004 437.744C30.9377 437.8 31.0626 437.883 31.1679 437.987C31.3319 438.23 31.3955 438.526 31.345 438.814C31.2945 439.102 31.134 439.359 30.8974 439.531C30.5702 439.786 30.2192 440.009 29.8493 440.196C29.2438 440.52 28.6101 440.788 27.9561 440.996C27.3765 441.246 26.7502 441.369 26.1191 441.357C26.6548 441.047 27.2213 440.794 27.8096 440.602C28.4169 440.346 29.0078 440.052 29.5789 439.723C29.9035 439.532 30.2159 439.322 30.5142 439.092C30.7847 438.878 30.8636 438.528 30.7283 438.382C30.5931 438.235 30.1987 438.224 29.8268 438.382C29.4739 438.492 29.1368 438.647 28.8238 438.844C28.2879 439.202 27.8092 439.639 27.4039 440.14C26.7052 440.963 26.322 441.571 26.2431 441.526Z" fill="#263238"/>
<path d="M26.3652 441.199C26.9404 440.916 27.5721 440.765 28.2134 440.76C28.912 440.689 29.617 440.712 30.3095 440.827C30.7279 440.894 31.1365 441.012 31.5267 441.177C31.7508 441.254 31.9604 441.368 32.1465 441.515C32.2747 441.602 32.3762 441.723 32.4395 441.864C32.484 441.951 32.5072 442.048 32.5072 442.146C32.5072 442.244 32.484 442.34 32.4395 442.428C32.2926 442.647 32.0974 442.831 31.8689 442.963C31.6404 443.096 31.3846 443.175 31.1209 443.194C30.6926 443.273 30.2533 443.273 29.825 443.194C29.1368 443.052 28.4701 442.821 27.8415 442.507C26.7146 441.988 26.3089 441.323 26.3765 441.278C26.9033 441.593 27.4491 441.875 28.0106 442.123C28.6286 442.358 29.2658 442.539 29.9151 442.664C30.2889 442.717 30.6683 442.717 31.0421 442.664C31.3789 442.63 31.6916 442.474 31.9211 442.225C32.0338 442.225 31.6732 441.864 31.3125 441.74C30.9496 441.586 30.572 441.469 30.1856 441.391C29.5367 441.26 28.8754 441.199 28.2134 441.211C27.5982 441.261 26.9798 441.257 26.3652 441.199Z" fill="#263238"/>
<path d="M25.6342 440.05C25.4764 440.174 22.614 437.345 19.4698 433.581C16.3256 429.817 14.0041 426.594 14.1619 426.481C14.3197 426.369 16.9004 429.4 20.0445 433.153C23.1887 436.906 25.792 439.926 25.6342 440.05Z" fill="#263238"/>
<path d="M121.437 457.484L104.826 457.303L105.018 462.521H106.145C110.968 462.6 130.667 462.589 133.845 461.563C137.35 460.436 121.437 457.484 121.437 457.484Z" fill="#FF725E"/>
<path d="M134.18 460.774C134.18 460.617 127.644 460.774 119.598 461.101C111.551 461.428 105.049 461.845 105.049 461.991C105.049 462.138 111.585 461.991 119.632 461.665C127.678 461.338 134.18 460.921 134.18 460.774Z" fill="#263238"/>
<path d="M110.301 461.721C110.368 461.665 110.21 461.372 109.884 460.921C109.451 460.32 108.908 459.808 108.283 459.411C107.613 458.983 106.823 458.782 106.029 458.836C105.421 458.892 105.105 459.129 105.139 459.185C105.173 459.242 105.511 459.185 106.041 459.185C106.721 459.247 107.377 459.467 107.957 459.828C108.534 460.206 109.071 460.645 109.557 461.135C109.963 461.552 110.233 461.766 110.301 461.721Z" fill="#263238"/>
<path d="M122.676 457.709C122.788 457.844 122.428 458.284 121.977 458.836C121.526 459.388 121.12 459.771 120.963 459.692C120.805 459.613 120.963 459.027 121.492 458.453C122.022 457.878 122.574 457.63 122.676 457.709Z" fill="#263238"/>
<path d="M124.206 458.036C124.33 458.149 124.071 458.645 123.631 459.163C123.192 459.681 122.707 459.986 122.56 459.895C122.414 459.805 122.673 459.309 123.146 458.769C123.62 458.228 124.082 457.923 124.206 458.036Z" fill="#263238"/>
<path d="M125.516 458.34C125.662 458.43 125.516 458.847 125.234 459.298C124.952 459.749 124.659 460.087 124.502 460.019C124.344 459.952 124.389 459.49 124.682 459.005C124.975 458.52 125.381 458.239 125.516 458.34Z" fill="#263238"/>
<path d="M122.686 457.923C122.272 457.433 121.975 456.855 121.818 456.233C121.594 455.565 121.494 454.862 121.525 454.159C121.557 453.734 121.651 453.316 121.807 452.919C121.895 452.692 122.016 452.479 122.167 452.288C122.265 452.164 122.388 452.062 122.527 451.988C122.667 451.914 122.821 451.871 122.979 451.86C123.278 451.86 123.564 451.979 123.776 452.19C123.987 452.402 124.106 452.688 124.106 452.987C124.099 453.404 124.054 453.819 123.97 454.227C123.839 454.904 123.647 455.568 123.396 456.21C123.216 456.826 122.905 457.395 122.483 457.878C122.566 457.259 122.729 456.653 122.967 456.075C123.152 455.443 123.295 454.799 123.396 454.148C123.453 453.775 123.483 453.398 123.486 453.021C123.486 452.683 123.238 452.401 123.024 452.424C122.81 452.446 122.55 452.728 122.404 453.1C122.258 453.441 122.163 453.802 122.122 454.17C122.063 454.813 122.113 455.46 122.269 456.086C122.474 456.681 122.614 457.297 122.686 457.923Z" fill="#263238"/>
<path d="M122.496 457.63C122.642 456.993 122.935 456.398 123.353 455.895C123.75 455.315 124.22 454.789 124.75 454.328C125.1 454.046 125.477 453.801 125.877 453.596C126.1 453.471 126.339 453.377 126.587 453.314C126.746 453.274 126.913 453.274 127.071 453.314C127.172 453.332 127.268 453.371 127.351 453.429C127.435 453.488 127.505 453.564 127.556 453.652C127.642 453.905 127.667 454.176 127.628 454.44C127.589 454.705 127.487 454.956 127.331 455.174C127.089 455.549 126.788 455.884 126.44 456.165C125.854 456.612 125.219 456.99 124.547 457.292C123.946 457.657 123.235 457.797 122.541 457.687C123.16 457.476 123.763 457.22 124.344 456.92C124.947 456.601 125.517 456.224 126.046 455.793C126.334 455.545 126.582 455.252 126.778 454.926C126.876 454.788 126.946 454.633 126.982 454.468C127.019 454.304 127.023 454.134 126.993 453.968C126.993 453.855 126.519 453.968 126.181 454.148C125.822 454.326 125.482 454.541 125.167 454.79C124.63 455.215 124.139 455.695 123.702 456.222C123.34 456.724 122.936 457.195 122.496 457.63Z" fill="#263238"/>
<path d="M121.042 457.484C118.401 457.877 115.73 458.017 113.063 457.901C110.395 457.983 107.725 457.832 105.084 457.45C107.738 457.238 110.403 457.193 113.063 457.315C115.723 457.233 118.387 457.29 121.042 457.484Z" fill="#263238"/>
<path d="M71.7822 194.545C71.7033 190.995 71.6582 187.783 71.6582 187.783C71.6582 187.783 78.6115 187.05 79.0285 180.165C79.4454 173.279 79.0285 157.378 79.0285 157.378L66.3729 151.191L52.4551 161.739L53.2665 194.928C53.331 197.339 54.3339 199.631 56.0618 201.314C57.7896 202.998 60.1062 203.941 62.5187 203.943C63.7467 203.943 64.9624 203.699 66.0952 203.225C67.228 202.751 68.2553 202.057 69.1173 201.182C69.9792 200.308 70.6588 199.271 71.1163 198.131C71.5738 196.992 71.8001 195.772 71.7822 194.545Z" fill="#FFBE9D"/>
<path d="M53.3806 167.092C53.3806 167.092 64.7515 165.965 66.7575 155.71L79.1539 167.092C80.1872 164.613 80.4452 161.878 79.894 159.249C79.3428 156.62 78.0083 154.219 76.0661 152.363C69.2255 145.263 64.5374 146.728 61.8553 146.728C59.3647 146.728 46.7316 149.41 42.9676 163.779C42.6972 164.827 42.4718 167.408 42.3027 168.58L53.3806 167.092Z" fill="#263238"/>
<path d="M77.5178 169.008C77.5178 169.182 77.4662 169.352 77.3697 169.497C77.2731 169.641 77.1358 169.754 76.9752 169.82C76.8146 169.887 76.6378 169.904 76.4673 169.87C76.2968 169.836 76.1402 169.753 76.0172 169.63C75.8943 169.507 75.8106 169.35 75.7767 169.18C75.7427 169.009 75.7601 168.832 75.8267 168.672C75.8932 168.511 76.0059 168.374 76.1504 168.277C76.295 168.181 76.4649 168.129 76.6388 168.129C76.8719 168.129 77.0955 168.222 77.2603 168.387C77.4252 168.551 77.5178 168.775 77.5178 169.008Z" fill="#263238"/>
<path d="M78.3732 168.084C78.2605 168.197 77.6069 167.645 76.6602 167.588C75.7136 167.532 74.9923 167.994 74.9022 167.87C74.812 167.746 74.9698 167.599 75.2741 167.385C75.696 167.114 76.1933 166.984 76.694 167.013C77.1947 167.043 77.6727 167.233 78.0576 167.554C78.3394 167.768 78.4295 167.994 78.3732 168.084Z" fill="#263238"/>
<path d="M67.2756 169.008C67.2756 169.182 67.2241 169.352 67.1275 169.497C67.0309 169.641 66.8936 169.754 66.733 169.82C66.5724 169.887 66.3956 169.904 66.2251 169.87C66.0546 169.836 65.898 169.753 65.775 169.63C65.6521 169.507 65.5684 169.35 65.5345 169.18C65.5006 169.009 65.518 168.832 65.5845 168.672C65.651 168.511 65.7637 168.374 65.9082 168.277C66.0528 168.181 66.2227 168.129 66.3966 168.129C66.6297 168.129 66.8533 168.222 67.0182 168.387C67.183 168.551 67.2756 168.775 67.2756 169.008Z" fill="#263238"/>
<path d="M67.8485 168.084C67.7358 168.197 67.0822 167.645 66.1356 167.588C65.189 167.532 64.4677 167.994 64.3663 167.87C64.2648 167.746 64.4452 167.599 64.7494 167.385C65.1709 167.113 65.6683 166.983 66.1689 167.014C66.6696 167.044 67.1475 167.233 67.533 167.554C67.8147 167.768 67.9049 167.994 67.8485 168.084Z" fill="#263238"/>
<path d="M71.2741 176.063C71.7833 175.939 72.3052 175.874 72.8292 175.871C73.0659 175.871 73.3026 175.871 73.3589 175.646C73.3879 175.383 73.341 175.117 73.2237 174.879L72.57 172.907C72.1193 171.51 71.7361 170.236 71.4431 169.312C71.2693 168.816 71.1521 168.302 71.0938 167.78C71.3835 168.225 71.6146 168.706 71.7812 169.211C72.108 170.124 72.5363 171.386 72.987 172.783C73.2124 173.471 73.4153 174.136 73.6181 174.755C73.7569 175.067 73.7886 175.416 73.7083 175.747C73.6749 175.834 73.6204 175.912 73.5496 175.973C73.4787 176.034 73.3939 176.076 73.3026 176.096C73.1678 176.111 73.0317 176.111 72.8969 176.096C72.3568 176.157 71.8112 176.145 71.2741 176.063Z" fill="#263238"/>
<path d="M68.143 176.964C69.6363 177.588 71.1684 178.115 72.7297 178.542C72.3849 179.026 71.8862 179.378 71.3151 179.542C70.744 179.706 70.1343 179.671 69.5855 179.443C67.557 178.587 68.143 176.964 68.143 176.964Z" fill="#FAFAFA"/>
<path d="M71.6478 187.828C68.3739 187.694 65.2065 186.627 62.5195 184.751C62.5195 184.751 64.7734 189.823 71.6478 189.541V187.828Z" fill="#EB996E"/>
<path d="M66.418 154.887C66.418 154.887 68.9423 159.767 67.8605 163.441L78.9158 166.292C78.9158 166.292 81.4289 152.307 66.418 154.887Z" fill="#263238"/>
<path d="M42.2454 168.58C42.2454 168.58 40.2958 183.377 53.7065 186.239L53.3796 167.081L42.2454 168.58Z" fill="#263238"/>
<path d="M67.4005 150.379C68.5435 150.267 69.6973 150.405 70.7813 150.785C73.4913 151.539 75.9401 153.028 77.8572 155.086C79.7744 157.144 81.0853 159.692 81.6451 162.449C81.9416 163.551 81.9955 164.705 81.8028 165.83C81.6676 165.83 81.6563 164.523 81.1154 162.528C80.445 159.925 79.1352 157.531 77.305 155.563C75.4747 153.595 73.182 152.116 70.6348 151.259C68.6852 150.616 67.3892 150.503 67.4005 150.379Z" fill="#263238"/>
<path d="M70.6555 168.58C70.6555 168.58 70.6555 168.095 70.4075 167.272C70.089 166.118 69.3951 165.103 68.4354 164.387C67.6593 163.81 66.738 163.46 65.7744 163.376C64.8108 163.292 63.8429 163.477 62.9786 163.912C62.1143 164.346 61.3878 165.012 60.8801 165.835C60.3724 166.658 60.1036 167.607 60.1036 168.574C60.1036 169.541 60.3724 170.489 60.8801 171.313C61.3878 172.136 62.1143 172.802 62.9786 173.236C63.8429 173.67 64.8108 173.856 65.7744 173.772C66.738 173.688 67.6593 173.338 68.4354 172.76C69.3951 172.045 70.089 171.03 70.4075 169.875C70.6329 169.053 70.6104 168.568 70.6555 168.58C70.6679 168.692 70.6679 168.805 70.6555 168.918C70.6583 169.252 70.6204 169.585 70.5428 169.909C70.3058 170.938 69.7748 171.876 69.0145 172.608C68.2542 173.34 67.2973 173.836 66.2604 174.034C65.2307 174.23 64.1665 174.132 63.1899 173.752C62.2132 173.371 61.3636 172.723 60.7383 171.881C60.0293 170.924 59.6465 169.765 59.6465 168.574C59.6465 167.383 60.0293 166.223 60.7383 165.266C61.3636 164.425 62.2132 163.777 63.1899 163.396C64.1665 163.015 65.2307 162.918 66.2604 163.114C67.1105 163.278 67.9098 163.641 68.5932 164.173C69.5783 164.938 70.2674 166.022 70.5428 167.238C70.6199 167.563 70.6577 167.896 70.6555 168.23C70.6675 168.346 70.6675 168.463 70.6555 168.58Z" fill="#263238"/>
<path d="M83.1314 168.58C83.1314 168.58 83.1314 168.095 82.8948 167.272C82.5762 166.118 81.8823 165.103 80.9226 164.387C80.3644 163.973 79.7296 163.673 79.0548 163.505C78.38 163.337 77.6786 163.305 76.9912 163.41C76.3038 163.514 75.644 163.754 75.0499 164.116C74.4558 164.477 73.9391 164.952 73.5298 165.514C72.9123 166.36 72.5626 167.371 72.5261 168.417C72.4897 169.463 72.7681 170.496 73.3253 171.383C73.8825 172.269 74.6929 172.967 75.6516 173.388C76.6103 173.808 77.6731 173.931 78.7025 173.741C79.5189 173.604 80.2913 173.276 80.9564 172.783C81.9161 172.067 82.61 171.052 82.9286 169.898C83.1427 169.076 83.1202 168.591 83.1652 168.602C83.1822 168.714 83.1822 168.828 83.1652 168.94C83.1681 169.274 83.1302 169.607 83.0525 169.932C82.8034 170.952 82.269 171.879 81.5118 172.605C80.7546 173.332 79.8061 173.828 78.7772 174.035C77.7484 174.242 76.6819 174.151 75.7027 173.774C74.7234 173.397 73.872 172.748 73.2481 171.904C72.539 170.947 72.1562 169.788 72.1562 168.597C72.1562 167.406 72.539 166.246 73.2481 165.289C73.8971 164.394 74.8061 163.721 75.8513 163.362C76.7854 163.022 77.7949 162.944 78.7701 163.137C79.6162 163.303 80.4113 163.666 81.0916 164.196C82.0796 164.961 82.7725 166.044 83.0525 167.261C83.1297 167.586 83.1675 167.919 83.1652 168.253C83.1686 168.363 83.1573 168.473 83.1314 168.58Z" fill="#263238"/>
<path d="M72.335 168.749C72.335 168.85 71.8842 168.941 71.3433 168.941C70.8023 168.941 70.3516 168.85 70.3516 168.749C70.3516 168.648 70.8023 168.557 71.3433 168.557C71.8842 168.557 72.335 168.636 72.335 168.749Z" fill="#263238"/>
<path d="M60.0736 169.707C58.52 170.205 56.93 170.582 55.3179 170.834C53.7367 171.214 52.1275 171.467 50.5059 171.589C52.0554 171.09 53.6418 170.713 55.2503 170.462C56.8363 170.087 58.4489 169.834 60.0736 169.707Z" fill="#263238"/>
<path d="M52.6254 177.821C52.0618 178.165 51.3966 178.305 50.7418 178.217C50.087 178.129 49.4827 177.818 49.0305 177.336C48.596 176.834 48.286 176.237 48.1254 175.593C47.9649 174.948 47.9584 174.275 48.1064 173.628C48.2118 172.834 48.6145 172.109 49.2333 171.6C49.7238 171.374 50.2625 171.274 50.8013 171.307C51.3402 171.34 51.8623 171.507 52.3211 171.791L52.6254 177.821Z" fill="#FFBE9D"/>
<path d="M51.0807 176.705C51.0807 176.615 50.7314 176.558 50.3257 176.265C50.0693 176.081 49.8651 175.834 49.7327 175.548C49.6004 175.261 49.5445 174.946 49.5706 174.631C49.5981 174.316 49.7099 174.013 49.8942 173.755C50.0786 173.498 50.3288 173.294 50.6187 173.166C51.0694 172.941 51.4301 172.952 51.4301 172.862C51.4301 172.772 51.0807 172.614 50.4722 172.772C50.0727 172.89 49.7178 173.125 49.4532 173.447C49.1886 173.768 49.0264 174.162 48.9876 174.577C48.9488 174.992 49.0351 175.408 49.2354 175.774C49.4358 176.139 49.7409 176.436 50.1115 176.626C50.6863 176.885 51.0807 176.784 51.0807 176.705Z" fill="#EB996E"/>
<path d="M38.8985 265.215C38.8985 265.215 26.8064 277.77 29.2969 304.658C31.7875 331.547 35.0556 367.553 35.0556 367.553C35.0556 367.553 50.6075 353.523 58.5074 359.518C66.4073 365.514 74.2846 370.416 84.5962 363.913C98.6605 355.01 114.077 360.893 114.077 360.893L89.2843 271.988L38.8985 265.215Z" fill="#263238"/>
<path d="M54.6083 268.382C54.6423 269.296 54.469 270.205 54.1012 271.042C53.3374 273.127 51.9775 274.941 50.1907 276.26C48.3945 277.559 46.2531 278.297 44.0376 278.378C43.1294 278.474 42.2115 278.358 41.3555 278.04C41.3555 277.939 42.381 278.13 44.0038 277.973C46.1148 277.787 48.1352 277.029 49.8471 275.78C51.559 274.531 52.8974 272.838 53.7181 270.884C54.3604 269.419 54.5069 268.382 54.6083 268.382Z" fill="#455A64"/>
<path d="M43.8116 268.754C43.6538 268.698 43.7327 268.067 43.9919 267.323C44.2511 266.579 44.5666 266.038 44.7244 266.083C44.8822 266.128 44.792 266.782 44.5441 267.514C44.2962 268.247 43.9581 268.799 43.8116 268.754Z" fill="#455A64"/>
<path d="M41.14 279.358C41.042 278.435 41.1419 277.502 41.433 276.62C41.5368 275.701 41.8324 274.814 42.3007 274.017C42.3924 274.936 42.2926 275.865 42.0077 276.744C41.9062 277.667 41.6104 278.558 41.14 279.358Z" fill="#455A64"/>
<path d="M39.7572 290.211C39.5451 288.379 39.7295 286.522 40.2982 284.768C40.4865 285.675 40.4865 286.611 40.2982 287.518C40.3124 288.444 40.128 289.362 39.7572 290.211Z" fill="#455A64"/>
<path d="M39.4841 301.153C39.1985 300.271 39.1025 299.337 39.2023 298.415C39.1027 297.492 39.2026 296.558 39.4954 295.677C39.7799 296.56 39.8796 297.492 39.7884 298.415C39.8866 299.339 39.7827 300.273 39.4841 301.153Z" fill="#455A64"/>
<path d="M40.1608 312.085C39.8081 311.228 39.6355 310.307 39.6536 309.381C39.4781 308.47 39.5011 307.532 39.7212 306.631C40.0781 307.483 40.2509 308.401 40.2284 309.324C40.396 310.239 40.373 311.179 40.1608 312.085Z" fill="#455A64"/>
<path d="M41.5473 322.949C41.1328 322.114 40.9023 321.199 40.8711 320.267C40.6484 319.367 40.6177 318.43 40.781 317.517C41.1873 318.352 41.4175 319.261 41.4572 320.188C41.6728 321.093 41.7035 322.032 41.5473 322.949Z" fill="#455A64"/>
<path d="M43.5402 333.745C43.0766 332.94 42.7921 332.044 42.7062 331.119C42.4369 330.233 42.3525 329.301 42.4583 328.381C43.2059 330.07 43.5899 331.898 43.5853 333.745H43.5402Z" fill="#455A64"/>
<path d="M46.0185 344.361C45.5328 343.571 45.218 342.688 45.0944 341.769C44.7827 340.896 44.6598 339.966 44.7338 339.042C45.2195 339.832 45.5343 340.715 45.6579 341.634C45.9702 342.507 46.0931 343.437 46.0185 344.361Z" fill="#455A64"/>
<path d="M48.0506 352.396C47.8928 352.396 47.6111 351.855 47.4195 351.1C47.2279 350.345 47.1941 349.702 47.3519 349.669C47.5097 349.635 47.7914 350.21 47.983 350.965C48.1746 351.72 48.2084 352.362 48.0506 352.396Z" fill="#455A64"/>
<path d="M76.0778 293.175C75.8365 292.062 75.6858 290.931 75.627 289.794C75.4129 287.698 75.1311 284.813 74.9057 281.613C74.6804 278.412 74.5677 275.516 74.5677 273.408C74.5166 272.279 74.5694 271.147 74.7254 270.028C74.905 271.145 74.9917 272.276 74.9846 273.408C75.086 275.505 75.2551 278.39 75.4917 281.59C75.7284 284.791 75.9313 287.676 76.0327 289.772C76.1518 290.902 76.1669 292.042 76.0778 293.175Z" fill="#455A64"/>
<path d="M77.9469 270.557C78.1747 271.709 78.3067 272.877 78.3413 274.051C78.5217 276.203 78.7132 279.178 78.8935 282.48C78.9724 284.114 79.0513 285.681 79.1189 287.123C79.2594 288.419 79.1172 289.73 78.702 290.966C78.3886 291.811 77.7857 292.518 77.0003 292.961C76.4368 293.243 76.0762 293.231 76.0762 293.197C76.0762 293.164 76.403 293.085 76.8876 292.769C77.5565 292.285 78.057 291.603 78.3188 290.82C78.6452 289.628 78.7332 288.383 78.578 287.157C78.4991 285.703 78.3977 284.148 78.3075 282.514C78.1272 279.212 77.992 276.226 77.9356 274.073C77.8422 272.903 77.846 271.727 77.9469 270.557Z" fill="#455A64"/>
<path d="M91.9334 281.455C91.2576 281.463 90.5908 281.3 89.995 280.981C88.4995 280.334 87.1842 279.333 86.1634 278.063C85.1416 276.79 84.4419 275.29 84.1236 273.69C83.9666 273.034 83.9666 272.351 84.1236 271.695C84.3157 272.32 84.47 272.956 84.5857 273.6C84.9934 275.092 85.7041 276.485 86.6735 277.691C87.6429 278.897 88.8503 279.89 90.2204 280.609C90.805 280.863 91.3767 281.145 91.9334 281.455Z" fill="#455A64"/>
<path d="M113.67 354.92C113.386 354.909 113.103 354.875 112.824 354.819L110.401 354.447C107.415 354.003 104.404 353.743 101.386 353.669C96.946 353.545 92.5137 354.108 88.2456 355.337C85.8452 356.025 83.4787 357.174 80.9092 358.188C79.5969 358.707 78.2331 359.085 76.8409 359.315C75.3804 359.555 73.8853 359.478 72.4571 359.09C69.5609 358.29 67.2281 356.532 64.8615 355.224C62.5783 353.971 60.109 353.092 57.5476 352.621C55.2219 352.193 52.8501 352.072 50.4929 352.261C48.4426 352.461 46.4184 352.873 44.4525 353.489C41.6062 354.418 38.9386 355.824 36.5639 357.647C35.9107 358.133 35.2896 358.66 34.7044 359.225C34.5013 359.429 34.2827 359.618 34.0508 359.789C34.219 359.555 34.4117 359.339 34.6255 359.146C35.1773 358.54 35.7765 357.978 36.4174 357.467C38.7657 355.552 41.4372 354.071 44.306 353.095C46.2936 352.441 48.3448 351.999 50.4253 351.776C52.8251 351.567 55.2417 351.669 57.6152 352.08C60.244 352.551 62.7789 353.445 65.1207 354.729C67.5324 356.047 69.8426 357.771 72.5924 358.526C75.3421 359.281 78.2271 358.583 80.6838 357.614C83.1406 356.644 85.6199 355.472 88.0766 354.785C92.3987 353.564 96.887 353.035 101.375 353.218C104.399 353.332 107.411 353.656 110.39 354.188C111.438 354.379 112.25 354.537 112.802 354.672C113.1 354.718 113.392 354.801 113.67 354.92Z" fill="#455A64"/>
<path d="M119.868 253.946C122.561 253.36 127.689 251.252 127.756 250.565C127.97 249.28 123.249 250.79 121.93 251.049C120.612 251.309 113.579 250.035 113.579 250.035C111.855 249.077 110.199 248.074 108.824 247.263C108.205 246.658 107.771 245.89 107.572 245.048C107.373 244.206 107.416 243.325 107.697 242.507C108.373 240.512 108.418 238.845 108.069 238.214C107.925 238.011 107.722 237.858 107.489 237.775C107.255 237.692 107.001 237.683 106.762 237.749C106.522 237.816 106.31 237.955 106.152 238.147C105.995 238.339 105.901 238.575 105.882 238.822C105.583 240.084 105.109 241.298 104.474 242.428C103.985 243.374 103.341 244.231 102.569 244.964C101.713 245.764 100.946 246.418 100.315 246.959C94.3424 248.029 77.3931 250.452 62.5174 246.654C60.6582 245.827 59.0463 244.53 57.8406 242.89L41.1055 252.965C48.8701 277.6 105.341 261.688 105.341 261.688L120.814 256.448C120.814 256.448 129.424 254.34 129.424 253.608C129.469 252.447 123.102 253.901 119.868 253.946Z" fill="#FFBE9D"/>
<path d="M71.6704 195.052C71.7334 195.425 71.7334 195.806 71.6704 196.179C71.519 197.255 71.1996 198.301 70.7238 199.278C70.0281 200.744 68.9833 202.017 67.681 202.985C66.057 204.184 64.0601 204.767 62.0463 204.631C60.0405 204.526 58.133 203.73 56.6482 202.377C55.4587 201.269 54.5508 199.894 53.9999 198.365C53.6244 197.349 53.4077 196.281 53.3575 195.198C53.3244 194.821 53.3511 194.44 53.4364 194.071C53.5759 195.504 53.8978 196.913 54.3943 198.264C54.9704 199.7 55.8642 200.986 57.0088 202.028C58.4143 203.289 60.2062 204.036 62.0913 204.146C63.9714 204.269 65.8369 203.744 67.3767 202.659C68.6257 201.746 69.6476 200.559 70.3631 199.188C70.9897 197.877 71.4297 196.485 71.6704 195.052Z" fill="#263238"/>
</svg>
