<svg width="280" height="231" viewBox="0 0 280 231" fill="none" xmlns="http://www.w3.org/2000/svg">
<path d="M139.327 230.285C216.276 230.285 278.655 226.644 278.655 222.151C278.655 217.658 216.276 214.017 139.327 214.017C62.379 214.017 0 217.658 0 222.151C0 226.644 62.379 230.285 139.327 230.285Z" fill="#F5F5F5"/>
<path d="M222.073 39.4568C223.079 42.827 228.267 49.1362 228.677 53.728C229.087 58.3198 220.241 65.6638 220.241 65.6638C220.241 65.6638 213.63 43.5599 217.769 40.9802C221.908 38.4005 222.073 39.4568 222.073 39.4568Z" fill="#263238"/>
<path d="M203.907 63.3353C202.341 64.6431 200.803 65.7425 199.2 66.8707C197.598 67.9989 195.945 69.0265 194.264 69.9894C192.576 70.9879 190.837 71.897 189.054 72.7129C188.148 73.1225 187.25 73.5249 186.316 73.877C185.856 74.0638 185.389 74.2435 184.915 74.4015L183.478 74.9046C182.249 75.2481 180.963 75.341 179.698 75.1776C178.64 75.0539 177.593 74.8521 176.565 74.574C174.649 74.0437 172.773 73.3761 170.953 72.5763C167.419 71.0335 164.01 69.2196 160.756 67.151L162.1 64.6503C163.795 65.3689 165.534 66.0875 167.259 66.7126C168.984 67.3378 170.723 67.9989 172.462 68.5379C174.157 69.0935 175.885 69.5447 177.636 69.8888C178.439 70.046 179.253 70.1444 180.072 70.1834C180.681 70.2307 181.295 70.1674 181.882 69.9966C183.522 69.3693 185.125 68.6496 186.683 67.8408C187.48 67.424 188.271 67.0001 189.047 66.5402C189.823 66.0803 190.613 65.6348 191.382 65.1605C192.927 64.2048 194.436 63.1915 195.931 62.1496C197.425 61.1076 198.913 59.9938 200.242 58.9375L203.907 63.3353Z" fill="#E58A7B"/>
<path d="M207.702 55.6825C205.92 54.2884 198.547 58.8515 196.312 60.7557L197.944 70.6219C197.944 70.6219 208.543 66.1811 209.175 63.1486C209.844 59.9796 209.032 56.746 207.702 55.6825Z" fill="#407BFF"/>
<path opacity="0.2" d="M207.702 55.6825C205.92 54.2884 198.547 58.8515 196.312 60.7557L197.944 70.6219C197.944 70.6219 208.543 66.1811 209.175 63.1486C209.844 59.9796 209.032 56.746 207.702 55.6825Z" fill="black"/>
<path d="M232.499 85.54L210.122 89.9018C198.56 58.5929 201.075 57.5653 201.075 57.5653C202.701 56.6718 204.381 55.8798 206.105 55.194L206.407 55.079C207.844 54.5544 208.131 54.4754 210.043 53.9149C213.334 53.1316 216.402 52.4777 220.204 51.9388L220.922 51.8382C221.641 51.7519 222.295 51.6801 222.956 51.6154C223.401 51.5651 223.847 51.5364 224.271 51.5076L225.708 51.4286C228.166 51.3064 229.926 51.3423 229.926 51.3423C229.244 70.8951 230.35 76.5073 232.499 85.54Z" fill="#407BFF"/>
<path opacity="0.2" d="M232.499 85.54L210.122 89.9018C198.56 58.5929 201.075 57.5653 201.075 57.5653C202.701 56.6718 204.381 55.8798 206.105 55.194L206.407 55.079C207.844 54.5544 208.131 54.4754 210.043 53.9149C213.334 53.1316 216.402 52.4777 220.204 51.9388L220.922 51.8382C221.641 51.7519 222.295 51.6801 222.956 51.6154C223.401 51.5651 223.847 51.5364 224.271 51.5076L225.708 51.4286C228.166 51.3064 229.926 51.3423 229.926 51.3423C229.244 70.8951 230.35 76.5073 232.499 85.54Z" fill="black"/>
<path d="M214.974 41.7062C213.537 44.0847 218.747 45.1842 221.829 42.7481C224.294 40.7936 223.712 36.2808 221.599 35.2317C219.487 34.1826 214.974 41.7062 214.974 41.7062Z" fill="#407BFF"/>
<path opacity="0.4" d="M214.974 41.7062C213.537 44.0847 218.747 45.1842 221.829 42.7481C224.294 40.7936 223.712 36.2808 221.599 35.2317C219.487 34.1826 214.974 41.7062 214.974 41.7062Z" fill="black"/>
<path d="M236.753 215.13L231.155 215.547L229.107 202.663L234.705 202.246L236.753 215.13Z" fill="#E58A7B"/>
<path d="M276.348 197.123L271.598 200.112L263.141 190.08L267.891 187.084L276.348 197.123Z" fill="#E58A7B"/>
<path d="M229.107 202.663L230.243 209.82L235.762 208.893L234.712 202.253L229.107 202.663Z" fill="#CF6F64"/>
<path d="M267.898 187.091L263.141 190.08L266.647 194.234L271.505 191.366L267.898 187.091Z" fill="#CF6F64"/>
<path d="M210.467 89.9015C210.467 89.9015 210.388 134.325 214.017 151.053C217.797 168.458 228.913 208.052 228.913 208.052L236.976 207.01C236.976 207.01 230.674 167.013 227.986 149.717C225.061 130.868 226.858 86.7109 226.858 86.7109L210.467 89.9015Z" fill="#407BFF"/>
<path opacity="0.7" d="M210.467 89.9015C210.467 89.9015 210.388 134.325 214.017 151.053C217.797 168.458 228.913 208.052 228.913 208.052L236.976 207.01C236.976 207.01 230.674 167.013 227.986 149.717C225.061 130.868 226.858 86.7109 226.858 86.7109L210.467 89.9015Z" fill="black"/>
<path opacity="0.5" d="M226.355 106.401L222.402 102.463C222.553 119.529 223.509 127.958 226.793 137.142C226.276 127.434 226.232 115.951 226.355 106.401Z" fill="black"/>
<path d="M216.031 88.7521C216.031 88.7521 228.082 125.465 234.061 146.613C240.37 168.925 264.558 193.602 264.558 193.602L271.499 189.592C271.499 189.592 254.972 166.166 248.892 145.348C236.533 103.088 241.613 94.1344 232.494 85.54L216.031 88.7521Z" fill="#407BFF"/>
<path opacity="0.7" d="M216.031 88.7521C216.031 88.7521 228.082 125.465 234.061 146.613C240.37 168.925 264.558 193.602 264.558 193.602L271.499 189.592C271.499 189.592 254.972 166.166 248.892 145.348C236.533 103.088 241.613 94.1344 232.494 85.54L216.031 88.7521Z" fill="black"/>
<path d="M206.558 28.7427C209.763 29.8134 212.673 37.7682 212.796 40.9012C212.918 44.0343 203.511 48.353 203.511 48.353C203.511 48.353 199.365 38.2927 200.522 31.8254C201.025 29.0157 206.558 28.7427 206.558 28.7427Z" fill="#263238"/>
<path d="M162.574 64.9164L158.772 60.7773L157.529 65.9656C157.529 65.9656 160.231 68.3513 162.416 67.5321L162.574 64.9164Z" fill="#E58A7B"/>
<path d="M154.921 59.5918L152.262 61.7045L157.529 65.9657L158.772 60.7775L154.921 59.5918Z" fill="#E58A7B"/>
<path d="M270.111 199.041L274.551 194.564C274.628 194.488 274.73 194.441 274.838 194.433C274.946 194.425 275.054 194.457 275.141 194.521L279.186 197.525C279.287 197.603 279.369 197.702 279.428 197.815C279.487 197.928 279.521 198.052 279.529 198.179C279.536 198.306 279.517 198.433 279.471 198.552C279.426 198.671 279.356 198.779 279.265 198.869C277.684 200.399 276.851 201.06 274.896 203.029C273.696 204.244 272.065 206.134 270.405 207.808C268.745 209.482 266.999 207.923 267.531 207.089C269.952 203.302 269.521 201.887 269.687 199.961C269.712 199.613 269.862 199.286 270.111 199.041Z" fill="#263238"/>
<path d="M230.781 214.742H237.091C237.202 214.742 237.309 214.781 237.394 214.852C237.48 214.923 237.538 215.021 237.558 215.13L238.549 220.117C238.572 220.24 238.566 220.366 238.534 220.486C238.502 220.607 238.444 220.719 238.364 220.814C238.283 220.91 238.183 220.986 238.07 221.038C237.957 221.09 237.833 221.117 237.709 221.116C235.503 221.08 234.439 220.951 231.665 220.951C229.962 220.951 226.441 221.123 224.084 221.123C221.727 221.123 221.476 218.795 222.446 218.587C226.757 217.638 228.446 216.337 229.862 215.087C230.118 214.868 230.444 214.746 230.781 214.742Z" fill="#263238"/>
<g style="mix-blend-mode:multiply" opacity="0.27">
<path d="M230.654 62.6743L227.205 64.7295L231.186 79.6977C230.317 75.1634 230.705 70.1836 230.654 62.6743Z" fill="#407BFF"/>
</g>
<path d="M211.049 39.3056C213.499 41.3536 217.056 44.3358 221.246 40.8506C224.839 37.8469 227.354 29.964 220.908 29.6765C217.538 29.5256 211.049 39.3056 211.049 39.3056Z" fill="#263238"/>
<path d="M216.97 40.707C216.97 44.0988 217.495 50.214 220.204 51.9529C220.204 51.9529 219.959 55.4453 213.88 56.6238C207.204 57.9244 210.043 53.9291 210.043 53.9291C213.521 52.3482 212.917 49.6606 211.767 47.2462L216.97 40.707Z" fill="#E58A7B"/>
<path d="M214.851 43.373L211.775 47.2462C212.045 47.806 212.266 48.3878 212.436 48.9852C213.787 48.511 215.404 46.6139 215.268 45.1264C215.238 44.5212 215.097 43.9268 214.851 43.373Z" fill="#CF6F64"/>
<path d="M217.293 32.9177C218.012 38.4437 218.45 40.7647 216.237 44.1061C212.91 49.1363 205.968 48.8129 203.604 43.6175C201.448 38.9395 200.644 30.6829 205.559 27.4852C206.64 26.7697 207.885 26.3427 209.178 26.2448C210.47 26.147 211.766 26.3814 212.942 26.9259C214.119 27.4705 215.136 28.3069 215.898 29.3557C216.659 30.4045 217.14 31.6307 217.293 32.9177Z" fill="#E58A7B"/>
<path d="M207.694 23.2383C203.958 25.8899 211.453 26.6731 211.46 30.5176C211.46 32.1057 214.068 37.143 217.776 36.8555L221.369 30.4745C225.149 24.3664 216.217 17.1805 207.694 23.2383Z" fill="#263238"/>
<path d="M207.692 23.2384C201.117 22.8934 198.25 28.1248 199.005 32.8243C203.591 31.6807 208.336 31.3043 213.046 31.7105C222.057 32.6303 207.692 23.2384 207.692 23.2384Z" fill="#263238"/>
<path d="M219.09 37.682C219.181 38.7546 218.843 39.8195 218.149 40.6426C217.222 41.7276 215.993 41.0881 215.562 39.8018C215.195 38.6377 215.238 36.676 216.489 36.058C216.765 35.9302 217.069 35.8733 217.372 35.8922C217.676 35.9112 217.97 36.0055 218.228 36.1667C218.487 36.3279 218.701 36.5508 218.851 36.8153C219.001 37.0799 219.084 37.3777 219.09 37.682Z" fill="#E58A7B"/>
<path d="M209.31 36.0579C209.397 36.5034 209.231 36.9058 208.944 36.9633C208.656 37.0208 208.347 36.7046 208.261 36.2447C208.175 35.7848 208.34 35.3896 208.628 35.3321C208.915 35.2746 209.224 35.6123 209.31 36.0579Z" fill="#263238"/>
<path d="M204.287 37.0351C204.373 37.4807 204.208 37.8902 203.92 37.9477C203.633 38.0052 203.324 37.689 203.238 37.2291C203.151 36.7692 203.317 36.374 203.604 36.3237C203.892 36.2734 204.201 36.5824 204.287 37.0351Z" fill="#263238"/>
<path d="M203.741 36.3307L202.613 36.2373C202.613 36.2373 203.325 36.9631 203.741 36.3307Z" fill="#263238"/>
<path d="M205.767 37.5454C205.565 38.634 205.217 39.6903 204.732 40.6857C204.99 40.8058 205.271 40.868 205.555 40.868C205.84 40.868 206.12 40.8058 206.378 40.6857L205.767 37.5454Z" fill="#DF5753"/>
<path d="M208.254 42.1225C208.224 42.1229 208.194 42.1123 208.17 42.0925C208.146 42.0728 208.13 42.0452 208.125 42.0147C208.122 41.9977 208.122 41.9802 208.126 41.9634C208.13 41.9465 208.137 41.9306 208.147 41.9165C208.157 41.9024 208.17 41.8905 208.185 41.8815C208.199 41.8724 208.216 41.8664 208.233 41.8638C208.788 41.7672 209.313 41.5412 209.765 41.2041C210.217 40.8671 210.583 40.4284 210.834 39.9236C210.841 39.9076 210.85 39.893 210.863 39.8807C210.875 39.8684 210.89 39.8586 210.906 39.852C210.922 39.8453 210.939 39.8418 210.956 39.8418C210.973 39.8418 210.991 39.8451 211.007 39.8518C211.023 39.8584 211.037 39.8681 211.05 39.8803C211.062 39.8925 211.072 39.9071 211.078 39.9231C211.085 39.9391 211.088 39.9563 211.088 39.9736C211.089 39.991 211.085 40.0082 211.079 40.0242C210.815 40.5728 210.424 41.0499 209.937 41.4151C209.451 41.7804 208.883 42.023 208.283 42.1225H208.254Z" fill="#263238"/>
<path d="M210.467 34.1466C210.401 34.1473 210.337 34.1244 210.287 34.0819C210.045 33.8521 209.753 33.6828 209.433 33.5879C209.113 33.493 208.775 33.4751 208.447 33.5358C208.375 33.5539 208.298 33.5425 208.234 33.5041C208.17 33.4656 208.124 33.4034 208.106 33.331C208.088 33.2585 208.099 33.1819 208.138 33.1179C208.176 33.0539 208.238 33.0077 208.311 32.9896C208.725 32.9081 209.153 32.9261 209.559 33.0423C209.965 33.1585 210.338 33.3695 210.646 33.6579C210.695 33.7077 210.723 33.7748 210.723 33.8448C210.723 33.9147 210.695 33.9818 210.646 34.0316C210.626 34.0624 210.6 34.0886 210.569 34.1084C210.538 34.1283 210.503 34.1413 210.467 34.1466Z" fill="#263238"/>
<path d="M201.507 35.1451C201.473 35.1525 201.439 35.1525 201.406 35.1451C201.373 35.1318 201.343 35.112 201.318 35.087C201.293 35.0619 201.273 35.0321 201.26 34.9993C201.247 34.9665 201.24 34.9314 201.24 34.8959C201.241 34.8605 201.248 34.8255 201.262 34.793C201.415 34.4 201.66 34.0494 201.976 33.7706C202.293 33.4918 202.671 33.2929 203.08 33.1906C203.115 33.1833 203.15 33.1832 203.185 33.1903C203.22 33.1973 203.252 33.2114 203.281 33.2316C203.31 33.2518 203.335 33.2777 203.353 33.3077C203.372 33.3377 203.384 33.3712 203.389 33.4061C203.397 33.4402 203.397 33.4753 203.39 33.5095C203.384 33.5436 203.37 33.5761 203.351 33.6049C203.331 33.6338 203.306 33.6584 203.277 33.6774C203.248 33.6963 203.215 33.7091 203.181 33.7151C202.858 33.8032 202.56 33.9653 202.31 34.1886C202.061 34.4118 201.867 34.6901 201.744 35.0014C201.721 35.0444 201.686 35.0803 201.645 35.1056C201.603 35.1309 201.555 35.1445 201.507 35.1451Z" fill="#263238"/>
<path d="M268.443 201.65C268.32 201.646 268.199 201.613 268.091 201.553C267.984 201.493 267.892 201.408 267.825 201.305C267.774 201.244 267.74 201.171 267.726 201.093C267.712 201.014 267.719 200.934 267.746 200.859C267.997 200.184 269.981 199.753 270.203 199.702C270.229 199.698 270.256 199.701 270.28 199.711C270.304 199.721 270.325 199.738 270.34 199.76C270.355 199.781 270.363 199.806 270.363 199.832C270.363 199.857 270.355 199.883 270.34 199.903C269.952 200.543 269.19 201.614 268.479 201.65H268.443ZM269.945 200.033C269.161 200.234 268.127 200.593 267.997 200.953C267.985 200.986 267.982 201.022 267.99 201.056C267.997 201.091 268.015 201.122 268.04 201.147C268.085 201.221 268.148 201.282 268.224 201.323C268.3 201.365 268.385 201.386 268.472 201.384C268.852 201.362 269.391 200.866 269.945 200.033Z" fill="#407BFF"/>
<path d="M269.622 200.033C268.903 200.033 268.005 199.853 267.739 199.465C267.68 199.377 267.653 199.271 267.662 199.165C267.671 199.059 267.716 198.96 267.789 198.883C267.852 198.803 267.932 198.737 268.022 198.69C268.113 198.643 268.212 198.616 268.314 198.61H268.371C269.176 198.61 270.283 199.695 270.326 199.738C270.343 199.754 270.356 199.775 270.362 199.798C270.368 199.82 270.368 199.845 270.362 199.867C270.355 199.89 270.343 199.91 270.327 199.926C270.311 199.942 270.291 199.954 270.268 199.961C270.057 200.012 269.839 200.036 269.622 200.033ZM268.371 198.876H268.328C268.264 198.878 268.201 198.895 268.143 198.924C268.086 198.954 268.036 198.997 267.998 199.048C267.897 199.185 267.926 199.264 267.962 199.314C268.177 199.645 269.277 199.831 269.952 199.752C269.521 199.313 268.972 199.009 268.371 198.876Z" fill="#407BFF"/>
<path d="M228.72 215.727C228.236 215.77 227.753 215.648 227.347 215.382C227.251 215.307 227.176 215.209 227.128 215.098C227.08 214.986 227.062 214.864 227.074 214.743C227.074 214.67 227.092 214.599 227.127 214.536C227.162 214.473 227.213 214.421 227.275 214.383C227.936 213.995 230.25 215.145 230.509 215.274C230.533 215.287 230.553 215.307 230.566 215.332C230.579 215.356 230.584 215.384 230.581 215.411C230.577 215.438 230.566 215.463 230.548 215.484C230.53 215.504 230.506 215.519 230.48 215.526C229.901 215.647 229.311 215.715 228.72 215.727ZM227.656 214.563C227.572 214.558 227.487 214.575 227.412 214.613C227.387 214.626 227.368 214.646 227.355 214.67C227.342 214.695 227.337 214.722 227.34 214.75C227.333 214.831 227.345 214.912 227.377 214.988C227.408 215.063 227.457 215.129 227.52 215.181C227.879 215.49 228.806 215.54 230.027 215.339C229.286 214.95 228.484 214.688 227.656 214.563Z" fill="#407BFF"/>
<path d="M230.451 215.512H230.401C229.682 215.203 228.295 213.981 228.396 213.356C228.396 213.212 228.525 213.025 228.884 212.989H228.992C230.243 212.989 230.566 215.274 230.58 215.375C230.584 215.399 230.581 215.424 230.572 215.446C230.563 215.469 230.549 215.489 230.53 215.504C230.505 215.514 230.477 215.517 230.451 215.512ZM229.014 213.241H228.935C228.705 213.241 228.69 213.349 228.69 213.377C228.633 213.758 229.581 214.714 230.3 215.138C230.156 214.577 229.79 213.255 228.985 213.255L229.014 213.241Z" fill="#407BFF"/>
<path d="M208.765 35.3535L207.637 35.2529C207.637 35.2529 208.348 35.9859 208.765 35.3535Z" fill="#263238"/>
<path d="M213.7 61.4024C201.678 64.0827 205.393 56.8106 206.112 55.2081L206.414 55.0932C207.851 54.5686 208.138 54.4896 210.05 53.9291C213.385 53.0287 216.781 52.3683 220.211 51.9529L220.929 51.8523C221.648 51.7589 222.302 51.6871 222.963 51.6296C223.408 51.5793 223.854 51.5505 224.278 51.5218L225.715 51.4355C225.959 52.5565 226.556 58.5496 213.7 61.4024Z" fill="#E58A7B"/>
<path d="M232.572 84.1604L233.973 85.9713C234.081 86.1078 233.93 86.3018 233.671 86.3521L210.202 90.9223C210.001 90.9655 209.814 90.9223 209.778 90.7714L209.182 88.8097C209.182 88.6732 209.297 88.5223 209.512 88.4791L232.176 84.067C232.245 84.0469 232.317 84.0449 232.387 84.0613C232.456 84.0777 232.52 84.1118 232.572 84.1604Z" fill="#26395A"/>
<path d="M230.019 87.2862L230.63 87.1712C230.752 87.1712 230.831 87.0706 230.81 86.9915L230.019 84.4477C230.019 84.3687 229.876 84.3327 229.754 84.3543L229.15 84.4693C229.028 84.4693 228.949 84.5771 228.97 84.6489L229.761 87.1999C229.782 87.2718 229.904 87.3149 230.019 87.2862Z" fill="#407BFF"/>
<path d="M216.274 95.7654L211.596 94.0264L212.314 98.4744C212.314 98.4744 215.706 99.696 217.438 98.1295L216.274 95.7654Z" fill="#E58A7B"/>
<path d="M207.141 95.2049L206.027 98.1223L212.315 98.4744L211.596 94.0264L207.141 95.2049Z" fill="#E58A7B"/>
<path d="M211.948 90.8071L212.558 90.6922C212.673 90.6922 212.76 90.5916 212.731 90.5125L211.94 87.9687C211.94 87.8897 211.804 87.8537 211.682 87.8753L211.071 87.9903C210.949 87.9903 210.87 88.0981 210.898 88.1699L211.689 90.7209C211.711 90.7928 211.825 90.8359 211.948 90.8071Z" fill="#407BFF"/>
<path d="M220.988 89.0396L221.591 88.9246C221.713 88.9246 221.792 88.824 221.771 88.7449L220.98 86.2011C220.98 86.1221 220.837 86.0862 220.715 86.1077L220.111 86.2227C219.989 86.2227 219.91 86.3305 219.931 86.4023L220.722 88.9533C220.75 88.9949 220.792 89.0259 220.84 89.0415C220.888 89.0571 220.94 89.0564 220.988 89.0396Z" fill="#407BFF"/>
<path d="M218.43 49.1001C218.94 48.9061 219.58 50.7025 219.421 50.9325C219.055 51.457 212.343 53.2895 212.042 52.2619C212.023 51.7049 212.108 51.1492 212.293 50.6235C212.487 50.2786 213.975 50.9109 218.43 49.1001Z" fill="#407BFF"/>
<path d="M217.293 49.1432C217.551 48.5468 218.291 47.5911 218.938 48.1372C219.585 48.6833 219.858 49.8618 219.434 50.0558C219.01 50.2499 216.847 50.1421 217.293 49.1432Z" fill="#407BFF"/>
<path d="M218.666 49.4522C219.111 48.9779 220.103 48.324 220.555 49.057C221.008 49.7899 220.843 50.99 220.383 51.0259C219.923 51.0618 217.911 50.2355 218.666 49.4522Z" fill="#407BFF"/>
<path d="M218.911 49.3446C218.875 48.9625 218.95 48.5782 219.127 48.2377C219.304 47.8973 219.576 47.6154 219.91 47.4259C220.729 46.8942 221.527 46.5493 221.843 45.9888C221.979 46.5143 222.006 47.0621 221.922 47.5984C221.757 48.3673 219.206 48.9565 219.378 49.6248L218.911 49.3446Z" fill="#407BFF"/>
<path d="M218.803 49.3089C218.565 49.0073 218.419 48.6433 218.384 48.2608C218.348 47.8782 218.424 47.4936 218.602 47.1531C218.99 46.2621 219.478 45.5435 219.45 44.9111C219.849 45.2788 220.169 45.7237 220.391 46.219C220.664 46.9376 218.846 48.8274 219.356 49.3017L218.803 49.3089Z" fill="#407BFF"/>
<path d="M268.782 189.685C268.767 189.685 268.753 189.68 268.74 189.673C268.728 189.665 268.717 189.655 268.71 189.642C268.545 189.412 252.118 165.972 246.096 145.377C242.166 132.166 239.146 118.702 237.056 105.078C235.813 97.4038 235.059 92.7688 232.587 88.9675C232.57 88.9501 232.561 88.9269 232.561 88.9028C232.561 88.8787 232.57 88.8556 232.587 88.8382C232.604 88.8235 232.625 88.8154 232.648 88.8154C232.67 88.8154 232.692 88.8235 232.709 88.8382C235.209 92.6754 235.964 97.3247 237.207 105.021C239.306 118.625 242.332 132.07 246.261 145.262C252.276 165.828 268.688 189.239 268.854 189.477C268.867 189.494 268.874 189.516 268.874 189.538C268.874 189.56 268.867 189.581 268.854 189.599C268.853 189.619 268.845 189.638 268.832 189.654C268.819 189.669 268.802 189.68 268.782 189.685Z" fill="#407BFF"/>
<path opacity="0.4" d="M268.782 189.685C268.767 189.685 268.753 189.68 268.74 189.673C268.728 189.665 268.717 189.655 268.71 189.642C268.545 189.412 252.118 165.972 246.096 145.377C242.166 132.166 239.146 118.702 237.056 105.078C235.813 97.4038 235.059 92.7688 232.587 88.9675C232.57 88.9501 232.561 88.9269 232.561 88.9028C232.561 88.8787 232.57 88.8556 232.587 88.8382C232.604 88.8235 232.625 88.8154 232.648 88.8154C232.67 88.8154 232.692 88.8235 232.709 88.8382C235.209 92.6754 235.964 97.3247 237.207 105.021C239.306 118.625 242.332 132.07 246.261 145.262C252.276 165.828 268.688 189.239 268.854 189.477C268.867 189.494 268.874 189.516 268.874 189.538C268.874 189.56 268.867 189.581 268.854 189.599C268.853 189.619 268.845 189.638 268.832 189.654C268.819 189.669 268.802 189.68 268.782 189.685Z" fill="black"/>
<path d="M238.419 206.981L227.439 208.404L226.721 205.343L238.153 202.921L238.419 206.981Z" fill="#407BFF"/>
<path d="M272.079 189.347L263.981 194.025L261.25 191.69L270.11 185.697L272.079 189.347Z" fill="#407BFF"/>
<path d="M234.073 58.9521C234.461 60.9498 234.684 62.8325 234.9 64.7799C235.115 66.7273 235.194 68.6531 235.252 70.6005C235.309 72.5631 235.266 74.5275 235.122 76.4857C235.043 77.4702 234.957 78.4547 234.821 79.4463C234.763 79.9349 234.698 80.4308 234.605 80.9266L234.339 82.45C234.044 83.6918 233.505 84.8621 232.751 85.8921C232.133 86.7587 231.451 87.5777 230.71 88.3424C229.324 89.7669 227.834 91.0878 226.255 92.2947C223.199 94.6474 219.965 96.7592 216.583 98.6111L215.045 96.2254C216.482 95.0828 217.919 93.9043 219.356 92.7043C220.794 91.5042 222.159 90.2898 223.474 89.0251C224.774 87.8078 226 86.5145 227.146 85.1519C227.672 84.5215 228.153 83.8538 228.583 83.1542C228.923 82.6445 229.166 82.0771 229.302 81.4799C229.535 79.7355 229.672 77.9794 229.711 76.2198C229.711 75.3216 229.711 74.4234 229.711 73.5251C229.711 72.6269 229.675 71.7143 229.632 70.8089C229.546 68.998 229.381 67.2159 229.187 65.3763C228.993 63.5367 228.741 61.7187 228.468 60.0157L234.073 58.9521Z" fill="#E58A7B"/>
<path d="M233.204 52.844C236.272 55.3304 235.539 62.7175 235.539 62.7175L225.191 66.1236C225.191 66.1236 225.666 57.6083 226.183 54.5471C226.787 50.9038 230.178 50.3937 233.204 52.844Z" fill="#407BFF"/>
<path opacity="0.2" d="M233.204 52.844C236.272 55.3304 235.539 62.7175 235.539 62.7175L225.191 66.1236C225.191 66.1236 225.666 57.6083 226.183 54.5471C226.787 50.9038 230.178 50.3937 233.204 52.844Z" fill="black"/>
<path d="M96.5051 83.6716C96.1036 81.9292 95.1232 80.3745 93.7241 79.2612C92.325 78.1479 90.5898 77.5418 88.8018 77.542H31.3146C29.2182 77.542 27.2077 78.3748 25.7253 79.8572C24.2429 81.3395 23.4102 83.3501 23.4102 85.4465V213.226C23.4102 215.322 24.2429 217.333 25.7253 218.815C27.2077 220.298 29.2182 221.131 31.3146 221.131H213.836C215.933 221.131 217.943 220.298 219.426 218.815C220.908 217.333 221.741 215.322 221.741 213.226V105.89C221.741 103.794 220.908 101.783 219.426 100.301C217.943 98.8187 215.933 97.9859 213.836 97.9859H114.491C110.316 97.9866 106.264 96.5713 102.997 93.9714C99.7302 91.3714 97.4416 87.7404 96.5051 83.6716Z" fill="#407BFF"/>
<path opacity="0.6" d="M96.5051 83.6716C96.1036 81.9292 95.1232 80.3745 93.7241 79.2612C92.325 78.1479 90.5898 77.5418 88.8018 77.542H31.3146C29.2182 77.542 27.2077 78.3748 25.7253 79.8572C24.2429 81.3395 23.4102 83.3501 23.4102 85.4465V213.226C23.4102 215.322 24.2429 217.333 25.7253 218.815C27.2077 220.298 29.2182 221.131 31.3146 221.131H213.836C215.933 221.131 217.943 220.298 219.426 218.815C220.908 217.333 221.741 215.322 221.741 213.226V105.89C221.741 103.794 220.908 101.783 219.426 100.301C217.943 98.8187 215.933 97.9859 213.836 97.9859H114.491C110.316 97.9866 106.264 96.5713 102.997 93.9714C99.7302 91.3714 97.4416 87.7404 96.5051 83.6716Z" fill="black"/>
<path opacity="0.22" d="M76.2129 43.876L81.3364 60.4682C81.9905 62.5799 83.4559 64.3457 85.4109 65.3778C87.3659 66.4098 89.6506 66.6238 91.7632 65.9726L108.348 60.8491L76.2129 43.876Z" fill="#407BFF"/>
<path d="M76.2132 43.876L16.9295 62.1928C15.883 62.5143 14.9101 63.039 14.0666 63.7369C13.223 64.4347 12.5253 65.2921 12.0134 66.2598C11.5015 67.2276 11.1854 68.2868 11.0832 69.3768C10.9811 70.4669 11.0948 71.5663 11.418 72.6124L45.2635 182.183C45.5865 183.229 46.1125 184.201 46.8114 185.044C47.5103 185.887 48.3683 186.584 49.3366 187.095C50.3049 187.606 51.3643 187.922 52.4545 188.023C53.5447 188.125 54.6442 188.011 55.6902 187.687L131.566 164.247C132.612 163.925 133.584 163.399 134.427 162.701C135.27 162.003 135.967 161.146 136.478 160.178C136.989 159.21 137.304 158.151 137.406 157.062C137.508 155.972 137.394 154.873 137.07 153.827L108.327 60.8491L76.2132 43.876Z" fill="#407BFF"/>
<path opacity="0.8" d="M76.2132 43.876L16.9295 62.1928C15.883 62.5143 14.9101 63.039 14.0666 63.7369C13.223 64.4347 12.5253 65.2921 12.0134 66.2598C11.5015 67.2276 11.1854 68.2868 11.0832 69.3768C10.9811 70.4669 11.0948 71.5663 11.418 72.6124L45.2635 182.183C45.5865 183.229 46.1125 184.201 46.8114 185.044C47.5103 185.887 48.3683 186.584 49.3366 187.095C50.3049 187.606 51.3643 187.922 52.4545 188.023C53.5447 188.125 54.6442 188.011 55.6902 187.687L131.566 164.247C132.612 163.925 133.584 163.399 134.427 162.701C135.27 162.003 135.967 161.146 136.478 160.178C136.989 159.21 137.304 158.151 137.406 157.062C137.508 155.972 137.394 154.873 137.07 153.827L108.327 60.8491L76.2132 43.876Z" fill="white"/>
<g opacity="0.28">
<path d="M108.112 159.461L58.7883 174.695C57.8659 174.978 56.8688 174.885 56.0151 174.435C55.1614 173.985 54.5205 173.216 54.2325 172.295C53.9517 171.373 54.0472 170.376 54.4982 169.524C54.9492 168.672 55.7191 168.033 56.6397 167.746L105.964 152.505C106.887 152.222 107.885 152.316 108.739 152.768C109.593 153.219 110.233 153.99 110.52 154.912C110.8 155.835 110.705 156.831 110.254 157.683C109.803 158.535 109.033 159.174 108.112 159.461Z" fill="#407BFF"/>
</g>
<g opacity="0.28">
<path d="M55.0296 70.0542L28.9448 78.1096C28.0224 78.3909 27.0262 78.2966 26.173 77.8471C25.3197 77.3976 24.6786 76.6293 24.389 75.7095C24.1079 74.7861 24.2032 73.7891 24.6542 72.9357C25.1051 72.0823 25.875 71.4417 26.7962 71.1536L52.881 63.0982C53.8034 62.8129 54.8014 62.9055 55.6556 63.3555C56.5099 63.8055 57.1505 64.5762 57.4369 65.4983C57.7179 66.4217 57.6226 67.4187 57.1717 68.2721C56.7208 69.1255 55.9508 69.7661 55.0296 70.0542Z" fill="#407BFF"/>
</g>
<g opacity="0.28">
<path d="M76.3142 78.5983L33.1989 91.9137C32.2784 92.1902 31.286 92.0925 30.4371 91.6418C29.5882 91.1911 28.9513 90.4238 28.6646 89.5065C28.3815 88.585 28.4751 87.5889 28.9249 86.7363C29.3748 85.8838 30.1442 85.2442 31.0647 84.9578L74.18 71.6423C75.1024 71.359 76.0995 71.4525 76.9532 71.9022C77.807 72.352 78.4479 73.1215 78.7359 74.0424C79.0143 74.9677 78.9161 75.9655 78.4626 76.8187C78.0091 77.6719 77.237 78.3115 76.3142 78.5983Z" fill="#407BFF"/>
</g>
<g opacity="0.28">
<path d="M100.385 86.2804L37.4656 105.682C36.5441 105.965 35.548 105.872 34.6955 105.422C33.8429 104.972 33.2034 104.203 32.9169 103.282C32.6356 102.36 32.7299 101.364 33.1794 100.51C33.6289 99.6571 34.3972 99.0159 35.317 98.7263L98.2367 79.3244C99.1582 79.0433 100.153 79.1378 101.005 79.5874C101.858 80.037 102.497 80.8052 102.785 81.7245C103.069 82.6469 102.975 83.644 102.526 84.4977C102.076 85.3515 101.306 85.9924 100.385 86.2804Z" fill="#407BFF"/>
</g>
<g opacity="0.28">
<path d="M104.649 100.077L68.0728 111.38C67.1504 111.661 66.1543 111.566 65.3021 111.115C64.4499 110.664 63.8107 109.894 63.5241 108.973C63.243 108.052 63.3375 107.056 63.7871 106.204C64.2367 105.352 65.0049 104.713 65.9242 104.425L102.5 93.1211C103.424 92.842 104.42 92.9382 105.273 93.3889C106.126 93.8395 106.767 94.6083 107.056 95.5284C107.337 96.4508 107.242 97.4468 106.791 98.2991C106.34 99.1513 105.57 99.7905 104.649 100.077Z" fill="#407BFF"/>
</g>
<g opacity="0.28">
<path d="M51.3001 116.561L41.7357 119.515C40.8132 119.798 39.8162 119.705 38.9624 119.255C38.1087 118.805 37.4678 118.036 37.1798 117.115C36.8968 116.191 36.9912 115.193 37.4424 114.34C37.8936 113.486 38.6648 112.845 39.5871 112.559L49.1515 109.605C50.0739 109.324 51.0701 109.418 51.9234 109.868C52.7766 110.317 53.4177 111.086 53.7074 112.005C53.9864 112.929 53.8902 113.925 53.4396 114.778C52.9889 115.631 52.2202 116.272 51.3001 116.561Z" fill="#407BFF"/>
</g>
<g opacity="0.28">
<path d="M108.916 113.881L45.9964 133.319C45.074 133.6 44.078 133.505 43.2257 133.054C42.3735 132.603 41.7343 131.833 41.4478 130.912C41.1647 129.991 41.2583 128.994 41.7082 128.142C42.158 127.289 42.9274 126.65 43.8479 126.363L106.768 106.925C107.689 106.644 108.684 106.739 109.536 107.188C110.388 107.638 111.028 108.406 111.316 109.326C111.6 110.248 111.506 111.245 111.056 112.099C110.607 112.953 109.837 113.593 108.916 113.881Z" fill="#407BFF"/>
</g>
<g opacity="0.28">
<path d="M88.8971 135.18L50.2586 147.116C49.3371 147.397 48.3419 147.303 47.4898 146.853C46.6377 146.404 45.998 145.635 45.7099 144.716C45.4286 143.794 45.5229 142.797 45.9724 141.944C46.4219 141.091 47.1901 140.45 48.11 140.16L86.7485 128.224C87.6719 127.943 88.6689 128.039 89.5223 128.49C90.3757 128.941 91.0163 129.711 91.3044 130.632C91.5872 131.554 91.4926 132.551 91.0413 133.404C90.59 134.257 89.8189 134.895 88.8971 135.18Z" fill="#407BFF"/>
</g>
<g opacity="0.28">
<path d="M113.176 127.685L102.865 130.869C101.941 131.15 100.944 131.055 100.091 130.604C99.2373 130.153 98.5968 129.383 98.3087 128.462C98.0278 127.539 98.1234 126.543 98.5744 125.691C99.0254 124.839 99.7953 124.199 100.716 123.913L111.028 120.73C111.949 120.446 112.945 120.54 113.798 120.99C114.65 121.44 115.29 122.209 115.576 123.13C115.86 124.052 115.766 125.049 115.316 125.903C114.867 126.757 114.097 127.397 113.176 127.685Z" fill="#407BFF"/>
</g>
<g opacity="0.28">
<path d="M117.438 141.496L54.5323 160.898C53.6089 161.181 52.611 161.087 51.7571 160.636C50.9032 160.184 50.2629 159.413 49.9764 158.491C49.6936 157.568 49.7883 156.572 50.2396 155.719C50.6908 154.866 51.4619 154.227 52.3837 153.942L115.296 134.504C116.22 134.225 117.216 134.322 118.069 134.772C118.922 135.223 119.562 135.992 119.852 136.912C119.996 137.371 120.048 137.855 120.005 138.334C119.962 138.814 119.824 139.28 119.599 139.707C119.375 140.133 119.068 140.51 118.697 140.817C118.326 141.125 117.898 141.355 117.438 141.496Z" fill="#407BFF"/>
</g>
<path d="M118.79 2.67268L137.603 44.5952C138.091 45.6895 138.126 46.9327 137.701 48.053C137.275 49.1733 136.424 50.0796 135.332 50.5739L55.5253 86.3955C54.4311 86.8859 53.1872 86.9222 52.0664 86.4965C50.9455 86.0708 50.0393 85.2178 49.5466 84.1248L30.7267 42.2023C30.2341 41.1074 30.1966 39.8617 30.6225 38.7391C31.0483 37.6166 31.9026 36.7091 32.9975 36.2164L112.804 0.394755C113.9 -0.0934596 115.145 -0.127917 116.267 0.298912C117.388 0.725741 118.296 1.57915 118.79 2.67268Z" fill="#407BFF"/>
<path opacity="0.3" d="M118.79 2.67268L137.603 44.5952C138.091 45.6895 138.126 46.9327 137.701 48.053C137.275 49.1733 136.424 50.0796 135.332 50.5739L55.5253 86.3955C54.4311 86.8859 53.1872 86.9222 52.0664 86.4965C50.9455 86.0708 50.0393 85.2178 49.5466 84.1248L30.7267 42.2023C30.2341 41.1074 30.1966 39.8617 30.6225 38.7391C31.0483 37.6166 31.9026 36.7091 32.9975 36.2164L112.804 0.394755C113.9 -0.0934596 115.145 -0.127917 116.267 0.298912C117.388 0.725741 118.296 1.57915 118.79 2.67268Z" fill="black"/>
<path d="M106.211 0.601035L103.66 1.74512L103.954 2.40076L106.505 1.25668L106.211 0.601035Z" fill="#407BFF"/>
<path d="M100.09 3.34359L92.1367 6.91113L92.4308 7.56678L100.384 3.99924L100.09 3.34359Z" fill="#407BFF"/>
<path d="M30.6555 46.4273L30 46.7217L32.1781 51.5727L32.8336 51.2784L30.6555 46.4273Z" fill="#407BFF"/>
<path opacity="0.6" d="M116.117 0.243478L95.5363 40.5563C93.6266 44.2928 90.4992 47.2658 86.6709 48.984C82.8425 50.7022 78.5425 51.0626 74.4816 50.0058L30.6836 38.5874C31.1329 37.5365 31.9579 36.691 32.9975 36.2161L112.804 0.394381C113.849 -0.0730941 115.033 -0.127016 116.117 0.243478Z" fill="#407BFF"/>
<path d="M144.408 51.8379L82.4798 55.6608C81.3857 55.7258 80.3152 56.006 79.3295 56.4852C78.3438 56.9644 77.4624 57.6333 76.7355 58.4536C76.0086 59.2739 75.4507 60.2295 75.0936 61.2657C74.7365 62.3019 74.5872 63.3983 74.6543 64.4922L81.7181 178.949C81.7839 180.044 82.0652 181.115 82.5458 182.101C83.0263 183.087 83.6966 183.968 84.5184 184.694C85.3401 185.42 86.2971 185.977 87.3345 186.333C88.3719 186.689 89.4694 186.837 90.5639 186.767L169.824 181.874C170.917 181.808 171.986 181.527 172.97 181.047C173.954 180.567 174.834 179.898 175.559 179.078C176.284 178.257 176.84 177.302 177.195 176.266C177.55 175.231 177.697 174.135 177.628 173.042L171.664 75.9106L144.408 51.8379Z" fill="#407BFF"/>
<path opacity="0.8" d="M144.408 51.8379L82.4798 55.6608C81.3857 55.7258 80.3152 56.006 79.3295 56.4852C78.3438 56.9644 77.4624 57.6333 76.7355 58.4536C76.0086 59.2739 75.4507 60.2295 75.0936 61.2657C74.7365 62.3019 74.5872 63.3983 74.6543 64.4922L81.7181 178.949C81.7839 180.044 82.0652 181.115 82.5458 182.101C83.0263 183.087 83.6966 183.968 84.5184 184.694C85.3401 185.42 86.2971 185.977 87.3345 186.333C88.3719 186.689 89.4694 186.837 90.5639 186.767L169.824 181.874C170.917 181.808 171.986 181.527 172.97 181.047C173.954 180.567 174.834 179.898 175.559 179.078C176.284 178.257 176.84 177.302 177.195 176.266C177.55 175.231 177.697 174.135 177.628 173.042L171.664 75.9106L144.408 51.8379Z" fill="white"/>
<g opacity="0.22">
<path d="M148.151 171.678L96.6213 174.861C95.6587 174.916 94.7133 174.588 93.9917 173.948C93.27 173.309 92.8307 172.41 92.7697 171.448C92.7145 170.485 93.0413 169.54 93.6791 168.818C94.3169 168.095 95.2142 167.654 96.1758 167.589L147.706 164.413C148.669 164.356 149.615 164.682 150.338 165.32C151.061 165.958 151.502 166.856 151.565 167.819C151.622 168.783 151.295 169.73 150.655 170.453C150.015 171.176 149.115 171.617 148.151 171.678Z" fill="#407BFF"/>
</g>
<g opacity="0.22">
<path d="M117.654 72.2823L90.398 73.9494C89.4358 74.0046 88.4907 73.6778 87.7681 73.04C87.0455 72.4022 86.6039 71.5049 86.5392 70.5433C86.484 69.5799 86.8119 68.6338 87.4512 67.911C88.0905 67.1882 88.9896 66.7474 89.9525 66.6845L117.209 65.003C118.171 64.9459 119.116 65.2723 119.838 65.9107C120.56 66.549 120.999 67.4474 121.06 68.4091C121.121 69.3742 120.797 70.3241 120.158 71.0502C119.52 71.7764 118.619 72.2195 117.654 72.2823Z" fill="#407BFF"/>
</g>
<g opacity="0.22">
<path d="M136.321 85.6048L91.2871 88.3785C90.3239 88.4376 89.3767 88.1121 88.6533 87.4735C87.9298 86.8349 87.4893 85.9354 87.4283 84.9724C87.3712 84.0086 87.6983 83.0614 88.3381 82.3382C88.9778 81.6149 89.8779 81.1746 90.8416 81.1136L135.868 78.3398C136.832 78.2808 137.779 78.6063 138.502 79.2449C139.226 79.8834 139.666 80.7829 139.727 81.746C139.784 82.7086 139.458 83.6548 138.82 84.3778C138.182 85.1008 137.283 85.5419 136.321 85.6048Z" fill="#407BFF"/>
</g>
<g opacity="0.22">
<path d="M157.903 98.7478L92.1804 102.801C91.2146 102.86 90.2647 102.534 89.5388 101.894C88.8129 101.254 88.37 100.353 88.3072 99.3874C88.2501 98.4254 88.5765 97.48 89.2149 96.7582C89.8532 96.0363 90.7516 95.5967 91.7133 95.5357L157.443 91.4757C158.405 91.4206 159.351 91.7486 160.072 92.3881C160.794 93.0276 161.233 93.9267 161.294 94.889C161.352 95.8493 161.027 96.7935 160.392 97.5161C159.757 98.2387 158.862 98.6813 157.903 98.7478Z" fill="#407BFF"/>
</g>
<g opacity="0.22">
<path d="M158.794 113.162L120.586 115.519C119.624 115.576 118.678 115.25 117.954 114.612C117.231 113.974 116.79 113.076 116.728 112.113C116.669 111.15 116.994 110.203 117.633 109.479C118.271 108.756 119.171 108.315 120.134 108.254L158.341 105.897C159.304 105.838 160.251 106.164 160.975 106.802C161.698 107.441 162.139 108.341 162.2 109.304C162.257 110.266 161.931 111.212 161.293 111.935C160.654 112.658 159.756 113.1 158.794 113.162Z" fill="#407BFF"/>
</g>
<g opacity="0.22">
<path d="M103.059 116.597L93.0631 117.215C92.1012 117.272 91.1558 116.946 90.4339 116.307C89.7121 115.669 89.2725 114.771 89.2115 113.809C89.1544 112.846 89.4806 111.9 90.1187 111.177C90.7569 110.454 91.6553 110.013 92.6176 109.95L102.613 109.332C103.577 109.277 104.523 109.605 105.245 110.244C105.968 110.883 106.409 111.783 106.472 112.745C106.527 113.708 106.199 114.653 105.56 115.375C104.92 116.097 104.021 116.536 103.059 116.597Z" fill="#407BFF"/>
</g>
<g opacity="0.22">
<path d="M159.682 127.577L93.9527 131.63C92.99 131.687 92.0438 131.361 91.3208 130.723C90.5978 130.085 90.1567 129.187 90.0939 128.224C90.0387 127.261 90.3665 126.315 91.0059 125.592C91.6452 124.869 92.5443 124.428 93.5072 124.365L159.229 120.313C160.193 120.255 161.14 120.583 161.864 121.222C162.587 121.862 163.027 122.762 163.088 123.726C163.145 124.688 162.819 125.633 162.18 126.355C161.542 127.077 160.644 127.516 159.682 127.577Z" fill="#407BFF"/>
</g>
<g opacity="0.22">
<path d="M135.21 143.559L94.8472 146.052C93.8838 146.108 92.9377 145.78 92.2149 145.14C91.4921 144.501 91.0513 143.602 90.9884 142.639C90.9333 141.677 91.2613 140.731 91.9008 140.01C92.5404 139.288 93.4394 138.849 94.4017 138.788L134.765 136.294C135.728 136.239 136.673 136.567 137.394 137.206C138.116 137.846 138.555 138.745 138.616 139.707C138.675 140.67 138.35 141.616 137.711 142.338C137.072 143.061 136.173 143.5 135.21 143.559Z" fill="#407BFF"/>
</g>
<g opacity="0.22">
<path d="M160.569 141.999L149.79 142.66C148.828 142.717 147.883 142.391 147.161 141.753C146.439 141.114 146 140.216 145.938 139.254C145.879 138.291 146.205 137.344 146.843 136.62C147.482 135.897 148.382 135.456 149.345 135.395L160.123 134.734C161.087 134.675 162.034 135.001 162.757 135.639C163.481 136.278 163.921 137.177 163.982 138.14C164.037 139.104 163.71 140.05 163.07 140.773C162.431 141.496 161.532 141.936 160.569 141.999Z" fill="#407BFF"/>
</g>
<g opacity="0.22">
<path d="M161.459 156.415L95.7363 160.468C94.7736 160.525 93.8275 160.199 93.1045 159.561C92.3815 158.922 91.9404 158.024 91.8775 157.062C91.8204 156.099 92.1466 155.153 92.7847 154.43C93.4229 153.707 94.3213 153.266 95.2836 153.203L161.013 149.15C161.975 149.093 162.92 149.419 163.642 150.058C164.364 150.696 164.804 151.594 164.865 152.556C164.924 153.519 164.598 154.466 163.96 155.19C163.321 155.913 162.422 156.354 161.459 156.415Z" fill="#407BFF"/>
</g>
<path opacity="0.22" d="M144.406 51.8379L145.477 69.1703C145.544 70.2631 145.825 71.332 146.305 72.3161C146.785 73.3001 147.454 74.1799 148.275 74.9052C149.095 75.6306 150.05 76.1873 151.085 76.5435C152.12 76.8997 153.216 77.0485 154.308 76.9813L171.662 75.9106L144.406 51.8379Z" fill="#407BFF"/>
<path opacity="0.5" d="M124.13 95.0761C124.119 94.2455 123.941 93.4255 123.608 92.6646C123.275 91.9036 122.793 91.2172 122.19 90.6458C121.587 90.0743 120.876 89.6296 120.098 89.3377C119.321 89.0459 118.492 88.9128 117.662 88.9465H60.1032C55.7414 88.9465 51.4801 92.4892 50.661 96.851L27.9463 213.227C27.0984 217.588 29.944 221.131 34.3059 221.131H216.828C221.189 221.131 225.415 217.596 226.27 213.227L245.003 117.295C245.851 112.926 243.006 109.39 238.644 109.39H139.328C130.705 109.39 124.424 103.455 124.13 95.0761Z" fill="#407BFF"/>
</svg>
