<svg width="289" height="253" viewBox="0 0 289 253" fill="none" xmlns="http://www.w3.org/2000/svg">
<path d="M144.733 252.907C224.4 252.907 288.984 250.507 288.984 247.546C288.984 244.585 224.4 242.184 144.733 242.184C65.0656 242.184 0.482422 244.585 0.482422 247.546C0.482422 250.507 65.0656 252.907 144.733 252.907Z" fill="#92E3A9"/>
<path opacity="0.8" d="M144.733 252.907C224.4 252.907 288.984 250.507 288.984 247.546C288.984 244.585 224.4 242.184 144.733 242.184C65.0656 242.184 0.482422 244.585 0.482422 247.546C0.482422 250.507 65.0656 252.907 144.733 252.907Z" fill="white"/>
<path d="M214.066 46.0068C213.782 46.0068 213.51 46.1195 213.309 46.3201C213.109 46.5206 212.996 46.7927 212.996 47.0763V52.5591H193.453V47.0763C193.453 46.7927 193.341 46.5206 193.14 46.3201C192.94 46.1195 192.668 46.0068 192.384 46.0068C192.1 46.0068 191.828 46.1195 191.628 46.3201C191.427 46.5206 191.314 46.7927 191.314 47.0763V185.181C191.314 185.465 191.427 185.737 191.628 185.937C191.828 186.138 192.1 186.25 192.384 186.25C192.668 186.25 192.94 186.138 193.14 185.937C193.341 185.737 193.453 185.465 193.453 185.181V154.287H212.996V185.181C212.996 185.465 213.109 185.737 213.309 185.937C213.51 186.138 213.782 186.25 214.066 186.25C214.349 186.25 214.621 186.138 214.822 185.937C215.023 185.737 215.135 185.465 215.135 185.181V47.0549C215.13 46.775 215.014 46.5084 214.814 46.3125C214.615 46.1165 214.346 46.0068 214.066 46.0068ZM212.996 152.17H193.453V145.24H212.996V152.17ZM212.996 143.094H193.453V136.171H212.996V143.094ZM212.996 134.025H193.453V127.123H212.996V134.025ZM212.996 124.962H193.453V118.089H212.996V124.962ZM212.996 115.908H193.453V109.113H212.996V115.908ZM212.996 106.881H193.453V100.044H212.996V106.881ZM212.996 97.8977H193.453V90.996H212.996V97.8977ZM212.996 88.8286H193.453V81.9269H212.996V88.8286ZM212.996 79.7808H193.453V72.8578H212.996V79.7808ZM212.996 70.7117H193.453V63.7744H212.996V70.7117ZM212.996 61.6354H193.453V54.6981H212.996V61.6354Z" fill="white"/>
<path d="M48.3178 4.739C47.4426 3.95706 46.3741 3.42367 45.2231 3.19423C44.0722 2.96479 42.8808 3.04766 41.7726 3.43424C37.8512 4.739 34.0938 10.4072 35.0421 15.2056C35.7052 18.5281 38.7852 23.4263 39.7193 25.2943C40.6533 27.1623 39.3414 30.3208 36.3754 36.8802C33.4094 43.4397 32.2615 49.5927 40.86 55.0114C49.4586 60.43 59.1908 51.8315 64.1817 45.6642C69.1726 39.4969 60.4385 25.2943 59.6899 19.2838C58.9413 13.2734 57.6579 1.75161 48.3178 4.739Z" fill="#263238"/>
<path d="M68.5304 46.0776C66.3909 48.2183 63.8057 49.861 60.959 50.8887C58.1123 51.9165 55.0741 52.3041 52.0605 52.0239L50 60.6153L53.9214 80.2295L79.5246 66.9609L73.7281 51.9883L68.5304 46.0776Z" fill="#92E3A9" stroke="#263238" stroke-linecap="round" stroke-linejoin="round"/>
<path opacity="0.3" d="M68.5304 46.0776C66.3909 48.2183 63.8057 49.861 60.959 50.8887C58.1123 51.9165 55.0741 52.3041 52.0605 52.0239L50 60.6153L53.9214 80.2295L79.5246 66.9609L73.7281 51.9883L68.5304 46.0776Z" fill="#263238"/>
<path d="M68.5309 46.0773L64.6095 20.0962L52.9879 22.4775L47.1913 26.2136C47.1913 26.2136 40.2754 31.6394 40.2754 32.1955C40.2754 32.7516 51.9754 52.3301 51.9754 52.3301C55.0195 52.5102 58.0672 52.0465 60.9199 50.969C63.7726 49.8916 66.366 48.2248 68.5309 46.0773Z" fill="white"/>
<path d="M68.5309 46.0773L64.6095 20.0962L52.9879 22.4775L47.1913 26.2136C47.1913 26.2136 40.2754 31.6394 40.2754 32.1955C40.2754 32.7516 51.9754 52.3301 51.9754 52.3301C55.0195 52.5102 58.0672 52.0465 60.9199 50.969C63.7726 49.8916 66.366 48.2248 68.5309 46.0773Z" stroke="#263238" stroke-linecap="round" stroke-linejoin="round"/>
<path opacity="0.5" d="M52.9363 44.9652C52.9363 44.9652 61.1284 38.8906 60.3727 40.6873C59.6169 42.484 53.9558 46.9687 52.4372 47.1041C50.9185 47.2396 52.9363 44.9652 52.9363 44.9652Z" fill="#92E3A9"/>
<path d="M53.1855 33.4297L53.5064 33.7648L55.5027 35.8752L56.0161 43.9819L58.4616 43.5968L56.5294 36.0036L59.6238 42.4347L62.1976 39.8608L56.6649 34.8414L56.5294 30.8558L53.6989 29.437" fill="#263238"/>
<path d="M48.6891 23.8044C48.6891 23.8044 46.2578 24.9238 46.2578 27.1626C46.2578 29.4013 48.8887 34.7273 50.5357 35.8467C52.1827 36.9661 55.0061 31.8397 55.0061 31.8397C55.0061 31.8397 59.284 33.8931 60.4248 32.0251C61.5655 30.1571 57.8081 23.9898 55.384 22.3072C52.9598 20.6245 48.6891 23.8044 48.6891 23.8044Z" fill="white" stroke="#263238" stroke-linecap="round" stroke-linejoin="round"/>
<path d="M46.6348 21.5584C47.3033 23.2663 47.8652 25.0141 48.3174 26.7917C48.6882 28.6597 53.7361 31.8396 54.2922 32.0249C54.8483 32.2103 55.2262 26.043 55.2262 26.043L53.7361 18.7563L46.6348 21.5584Z" fill="white"/>
<mask id="mask0_284_2919" style="mask-type:luminance" maskUnits="userSpaceOnUse" x="46" y="18" width="10" height="15">
<path d="M46.6328 21.5589C47.3013 23.2668 47.8633 25.0146 48.3155 26.7921C48.6862 28.6602 53.7341 31.8401 54.2902 32.0254C54.8464 32.2108 55.2243 26.0435 55.2243 26.0435L53.7341 18.7568L46.6328 21.5589Z" fill="white"/>
</mask>
<g mask="url(#mask0_284_2919)">
<g style="mix-blend-mode:multiply" opacity="0.5">
<path d="M53.8911 19.5341C53.5775 19.4462 53.2583 19.3795 52.9357 19.3345L47.7808 21.1526L47.1035 22.9208C47.4457 23.8762 47.8807 25.1595 48.1445 26.2005C48.9896 26.8819 50.0106 27.3096 51.0891 27.434C52.6363 27.5409 53.9981 26.3431 54.9606 24.8743L53.8911 19.5341Z" fill="#92E3A9"/>
</g>
</g>
<path d="M46.6348 21.5584C47.3033 23.2663 47.8652 25.0141 48.3174 26.7917C48.6882 28.6597 53.7361 31.8396 54.2922 32.0249C54.8483 32.2103 55.2262 26.043 55.2262 26.043L53.7361 18.7563L46.6348 21.5584Z" stroke="#263238" stroke-linecap="round" stroke-linejoin="round"/>
<path d="M43.2675 18.378C43.2675 18.378 41.207 16.7025 41.207 18.378C41.207 20.0535 43.0822 20.9946 44.5723 20.9946" fill="white"/>
<path d="M43.2675 18.378C43.2675 18.378 41.207 16.7025 41.207 18.378C41.207 20.0535 43.0822 20.9946 44.5723 20.9946" stroke="#263238" stroke-linecap="round" stroke-linejoin="round"/>
<path d="M54.291 12.9597C54.291 12.9597 55.6029 10.9063 55.9737 13.1522C56.1444 14.6143 55.7433 16.0858 54.8543 17.259L54.291 12.9597Z" fill="white" stroke="#263238" stroke-linecap="round" stroke-linejoin="round"/>
<g opacity="0.5">
<path d="M43.2675 18.378C43.2675 18.378 41.207 16.7025 41.207 18.378C41.207 20.0535 43.0822 20.9946 44.5723 20.9946" fill="#92E3A9"/>
<path d="M43.2675 18.378C43.2675 18.378 41.207 16.7025 41.207 18.378C41.207 20.0535 43.0822 20.9946 44.5723 20.9946" stroke="#263238" stroke-linecap="round" stroke-linejoin="round"/>
</g>
<path opacity="0.5" d="M54.291 12.9597C54.291 12.9597 55.6029 10.9063 55.9737 13.1522C56.1444 14.6143 55.7433 16.0858 54.8543 17.259L54.291 12.9597Z" fill="#92E3A9" stroke="#263238" stroke-linecap="round" stroke-linejoin="round"/>
<path d="M40.9512 12.974C40.9512 12.974 42.5554 19.6546 45.9991 22.9557C49.4428 26.2568 53.1289 26.2854 54.4051 20.4033C55.4532 15.555 52.8508 9.08822 52.8508 9.08822C52.8508 9.08822 44.4519 2.17229 40.9512 12.974Z" fill="white"/>
<mask id="mask1_284_2919" style="mask-type:luminance" maskUnits="userSpaceOnUse" x="40" y="6" width="15" height="20">
<path d="M40.9531 12.9735C40.9531 12.9735 42.5573 19.6541 46.001 22.9552C49.4447 26.2563 53.1309 26.2849 54.4071 20.4028C55.4552 15.5545 52.8528 9.08774 52.8528 9.08774C52.8528 9.08774 44.4539 2.17181 40.9531 12.9735Z" fill="white"/>
</mask>
<g mask="url(#mask1_284_2919)">
<g style="mix-blend-mode:multiply" opacity="0.5">
<path d="M46.9336 6.91425L48.2384 10.194C48.2384 10.194 50.2917 9.73766 51.4468 12.2188C52.6018 14.7 53.764 18.3362 53.1009 21.1525C52.4663 23.8333 50.962 24.7174 48.6448 24.7816C51.1687 25.8582 53.4574 24.7816 54.4056 20.3896C55.4537 15.5413 52.8513 9.07459 52.8513 9.07459C52.8513 9.07459 50.0065 6.74314 46.9336 6.91425Z" fill="#92E3A9"/>
</g>
</g>
<path d="M40.9512 12.974C40.9512 12.974 42.5554 19.6546 45.9991 22.9557C49.4428 26.2568 53.1289 26.2854 54.4051 20.4033C55.4532 15.555 52.8508 9.08822 52.8508 9.08822C52.8508 9.08822 44.4519 2.17229 40.9512 12.974Z" stroke="#263238" stroke-linecap="round" stroke-linejoin="round"/>
<path d="M47.3263 16.503C47.5259 16.8808 47.4902 17.2872 47.2478 17.4156C47.0054 17.5439 46.6489 17.3372 46.4564 16.9593C46.2639 16.5814 46.2924 16.1821 46.5349 16.0538C46.7773 15.9254 47.1338 16.1322 47.3263 16.503Z" fill="#263238"/>
<path d="M51.0487 15.348C51.1913 15.7473 51.0986 16.1465 50.842 16.2321C50.5853 16.3177 50.2573 16.0752 50.129 15.676C50.0006 15.2767 50.0791 14.8774 50.3358 14.7919C50.5924 14.7063 50.9061 14.963 51.0487 15.348Z" fill="#263238"/>
<path d="M51.3048 13.2092C51.0136 13.0135 50.6662 12.9187 50.3159 12.9393C49.9657 12.9599 49.6318 13.0948 49.3655 13.3233C48.3388 14.1218 50.2781 18.1216 50.2781 18.1216C50.2781 18.1216 50.3138 19.3836 48.6953 18.799" stroke="#263238" stroke-width="0.5" stroke-linecap="round" stroke-linejoin="round"/>
<path d="M51.3051 20.0962C51.194 20.3588 51.0235 20.5919 50.8069 20.7773C50.5903 20.9626 50.3336 21.0951 50.057 21.1643C49.7804 21.2334 49.4916 21.2373 49.2132 21.1757C48.9349 21.1141 48.6747 20.9886 48.4531 20.8092" stroke="#263238" stroke-width="0.5" stroke-linecap="round" stroke-linejoin="round"/>
<path d="M46.9617 14.2713C46.9617 14.2713 45.1364 12.553 44.3379 15.8684" stroke="#263238" stroke-width="0.5" stroke-linecap="round" stroke-linejoin="round"/>
<path d="M52.9591 6.97054C50.9556 5.23087 49.3372 5.25226 48.6313 5.48041C47.9706 5.06814 47.2192 4.82339 46.4425 4.76743C40.8384 4.0188 40.0898 8.33234 40.0898 12.432C40.0898 16.5316 36.5249 21.4013 38.9704 21.9646C39.6397 22.1251 40.3441 22.0444 40.9597 21.7366C41.5753 21.4288 42.0626 20.9137 42.3357 20.2819C42.3357 20.2819 44.9523 16.004 44.9523 12.9881C44.9523 9.9722 48.2107 10.2574 48.2107 10.2574C48.3513 10.0497 48.5352 9.87492 48.7498 9.74499C48.9644 9.61505 49.2045 9.53305 49.4537 9.5046C49.7029 9.47616 49.9553 9.50195 50.1937 9.5802C50.432 9.65845 50.6506 9.7873 50.8344 9.95794C52.3174 11.227 52.4885 12.7172 53.6864 13.1022C54.8842 13.4872 56.8876 11.5622 56.8876 11.5622C55.7463 9.89535 54.4293 8.35598 52.9591 6.97054Z" fill="#263238"/>
<path d="M48.3665 8.09035C48.3665 8.09035 46.1135 6.27937 44.0886 8.31137C42.0638 10.3434 42.2848 14.1863 41.6074 16.6747C40.9301 19.163 39.1191 19.6121 39.1191 19.6121" stroke="white" stroke-width="0.5" stroke-linecap="round" stroke-linejoin="round"/>
<path d="M46.7915 7.41283C46.7915 7.41283 44.3602 5.00294 41.3015 8.05451C38.97 10.3931 40.011 11.926 39.5547 15.769" stroke="white" stroke-width="0.5" stroke-linecap="round" stroke-linejoin="round"/>
<path d="M49.502 6.95668C49.502 6.95668 53.7798 4.92468 55.6051 10.1223" stroke="white" stroke-width="0.5" stroke-linecap="round" stroke-linejoin="round"/>
<path d="M40.2753 32.2104L33.8086 58.2343L52.7739 63.6102L53.7079 60.2449L41.2521 54.4983L45.4801 39.5256C45.4801 39.5256 44.924 36.7236 41.9152 33.5509" fill="white"/>
<mask id="mask2_284_2919" style="mask-type:luminance" maskUnits="userSpaceOnUse" x="33" y="32" width="21" height="32">
<path d="M40.2734 32.2109L33.8066 58.2348L52.772 63.6107L53.706 60.2454L41.2502 54.4988L45.4782 39.5261C45.4782 39.5261 44.922 36.7241 41.9132 33.5513" fill="white"/>
</mask>
<g mask="url(#mask2_284_2919)">
<g style="mix-blend-mode:multiply" opacity="0.5">
<path d="M53.7361 60.2662L41.2803 54.5196L45.5082 39.547C45.1771 38.304 44.6396 37.1255 43.9183 36.0605L43.5119 35.7539V39.8892C43.5119 42.5344 40.2037 50.969 39.0415 52.951C37.8793 54.9331 36.0684 57.4143 36.0684 57.4143L39.7046 55.7602L53.4865 61.2787L53.7361 60.2662Z" fill="#92E3A9"/>
</g>
</g>
<path d="M40.2753 32.2104L33.8086 58.2343L52.7739 63.6102L53.7079 60.2449L41.2521 54.4983L45.4801 39.5256C45.4801 39.5256 44.924 36.7236 41.9152 33.5509" stroke="#263238" stroke-linecap="round" stroke-linejoin="round"/>
<path d="M93.5997 40.0245L79.2403 37.0086L64.5742 20.061L66.7417 33.6933L75.7395 42.2633L93.8208 43.0904L93.5997 40.0245Z" fill="white"/>
<mask id="mask3_284_2919" style="mask-type:luminance" maskUnits="userSpaceOnUse" x="64" y="20" width="30" height="24">
<path d="M93.5978 40.0241L79.2383 37.0081L64.5723 20.0605L66.7397 33.6928L75.7376 42.2628L93.8188 43.0899L93.5978 40.0241Z" fill="white"/>
</mask>
<g mask="url(#mask3_284_2919)">
<g style="mix-blend-mode:multiply" opacity="0.5">
<path d="M64.5723 20.0605L66.3191 30.9407L67.4313 34.3416L67.5739 34.4699C67.9946 34.035 70.3688 31.5681 70.9748 31.5681C71.5809 31.5681 78.4184 37.5215 77.4273 37.9849L76.4292 38.4769L93.4623 41.286L93.5835 39.9813L79.2526 36.9725L64.5723 20.0605Z" fill="#92E3A9"/>
</g>
</g>
<path d="M93.5997 40.0245L79.2403 37.0086L64.5742 20.061L66.7417 33.6933L75.7395 42.2633L93.8208 43.0904L93.5997 40.0245Z" stroke="#263238" stroke-linecap="round" stroke-linejoin="round"/>
<path d="M227.647 184.325L44.7882 157.531C44.2069 157.445 43.6836 157.132 43.3333 156.66C42.9831 156.188 42.8345 155.596 42.9202 155.015L58.1495 51.1259C58.1914 50.8384 58.2896 50.5619 58.4384 50.3123C58.5873 50.0628 58.7839 49.845 59.017 49.6715C59.2501 49.498 59.5151 49.3721 59.7969 49.3012C60.0787 49.2302 60.3717 49.2155 60.6592 49.2579L64.1243 49.7641C64.5632 49.83 65.0118 49.7618 65.4113 49.5684C65.8107 49.375 66.1425 49.0655 66.3631 48.6804L70.9618 40.7306C71.1015 40.4811 71.2907 40.2627 71.5179 40.089C72.5945 39.3105 73.9324 38.983 75.2468 39.1763L121.341 45.9354C122.375 46.0839 123.338 46.5469 124.1 47.2616C124.304 47.4652 124.464 47.7077 124.571 47.9745L128.671 58.1274C128.814 58.4865 129.05 58.8014 129.354 59.0405C129.659 59.2796 130.02 59.4343 130.403 59.4892L243.518 76.0732C244.099 76.1579 244.623 76.4697 244.974 76.9402C245.326 77.4107 245.477 78.0015 245.393 78.5829L230.164 182.464C230.076 183.044 229.761 183.566 229.29 183.915C228.818 184.264 228.227 184.411 227.647 184.325Z" fill="#263238" stroke="#263238" stroke-miterlimit="10"/>
<path d="M229.592 183.819H48.3448C47.8186 183.819 47.2976 183.715 46.8115 183.514C46.3253 183.312 45.8836 183.017 45.5115 182.645C45.1394 182.273 44.8443 181.831 44.6429 181.345C44.4415 180.859 44.3379 180.338 44.3379 179.812V78.3973C44.3379 77.3346 44.7601 76.3154 45.5115 75.5639C46.263 74.8125 47.2821 74.3903 48.3448 74.3903H48.8368C49.639 74.3887 50.4225 74.1477 51.0868 73.698C51.7512 73.2483 52.2661 72.6106 52.5657 71.8664L55.325 64.9291C55.6334 64.1284 56.1972 63.4517 56.9292 63.004C57.7154 62.5398 58.6113 62.2936 59.5244 62.291H106.111C106.737 62.2904 107.358 62.4039 107.943 62.6261C108.756 62.9538 109.435 63.5468 109.868 64.3088L114.609 72.3869C114.963 72.9902 115.468 73.4906 116.074 73.8383C116.681 74.1861 117.368 74.369 118.067 74.3689H229.592C230.655 74.3689 231.674 74.7911 232.425 75.5425C233.177 76.294 233.599 77.3132 233.599 78.3759V179.812C233.599 180.338 233.495 180.859 233.294 181.345C233.093 181.831 232.798 182.273 232.425 182.645C232.053 183.017 231.612 183.312 231.126 183.514C230.639 183.715 230.118 183.819 229.592 183.819Z" fill="#92E3A9"/>
<mask id="mask4_284_2919" style="mask-type:luminance" maskUnits="userSpaceOnUse" x="44" y="62" width="190" height="122">
<path d="M229.594 183.818H48.3468C47.8206 183.818 47.2996 183.715 46.8134 183.513C46.3273 183.312 45.8855 183.017 45.5135 182.645C45.1414 182.273 44.8462 181.831 44.6449 181.345C44.4435 180.859 44.3398 180.338 44.3398 179.811V78.3968C44.3398 77.3341 44.762 76.3149 45.5135 75.5635C46.2649 74.812 47.2841 74.3898 48.3468 74.3898H48.8388C49.641 74.3882 50.4244 74.1472 51.0888 73.6975C51.7531 73.2478 52.2681 72.6101 52.5677 71.8659L55.3269 64.9286C55.6353 64.1279 56.1992 63.4513 56.9311 63.0035C57.7174 62.5393 58.6133 62.2931 59.5264 62.2905H106.113C106.739 62.2899 107.36 62.4034 107.945 62.6256C108.758 62.9533 109.437 63.5463 109.87 64.3083L114.611 72.3864C114.965 72.9897 115.47 73.4901 116.076 73.8379C116.683 74.1856 117.37 74.3685 118.069 74.3685H229.594C230.657 74.3685 231.676 74.7906 232.427 75.5421C233.179 76.2935 233.601 77.3127 233.601 78.3754V179.811C233.601 180.338 233.497 180.859 233.296 181.345C233.095 181.831 232.799 182.273 232.427 182.645C232.055 183.017 231.614 183.312 231.127 183.513C230.641 183.715 230.12 183.818 229.594 183.818Z" fill="white"/>
</mask>
<g mask="url(#mask4_284_2919)">
<path opacity="0.1" d="M229.594 183.818H48.3468C47.8206 183.818 47.2996 183.715 46.8134 183.513C46.3273 183.312 45.8855 183.017 45.5135 182.645C45.1414 182.273 44.8462 181.831 44.6449 181.345C44.4435 180.859 44.3398 180.338 44.3398 179.811V78.3968C44.3398 77.3341 44.762 76.3149 45.5135 75.5635C46.2649 74.812 47.2841 74.3898 48.3468 74.3898H48.8388C49.641 74.3882 50.4244 74.1472 51.0888 73.6975C51.7531 73.2478 52.2681 72.6101 52.5677 71.8659L55.3269 64.9286C55.6353 64.1279 56.1992 63.4513 56.9311 63.0035C57.7174 62.5393 58.6133 62.2931 59.5264 62.2905H106.113C106.739 62.2899 107.36 62.4034 107.945 62.6256C108.758 62.9533 109.437 63.5463 109.87 64.3083L114.611 72.3864C114.965 72.9897 115.47 73.4901 116.076 73.8379C116.683 74.1856 117.37 74.3685 118.069 74.3685H229.594C230.657 74.3685 231.676 74.7906 232.427 75.5421C233.179 76.2935 233.601 77.3127 233.601 78.3754V179.811C233.601 180.338 233.497 180.859 233.296 181.345C233.095 181.831 232.799 182.273 232.427 182.645C232.055 183.017 231.614 183.312 231.127 183.513C230.641 183.715 230.12 183.818 229.594 183.818Z" fill="#263238"/>
</g>
<path d="M229.592 183.819H48.3448C47.8186 183.819 47.2976 183.715 46.8115 183.514C46.3253 183.312 45.8836 183.017 45.5115 182.645C45.1394 182.273 44.8443 181.831 44.6429 181.345C44.4415 180.859 44.3379 180.338 44.3379 179.812V78.3973C44.3379 77.3346 44.7601 76.3154 45.5115 75.5639C46.263 74.8125 47.2821 74.3903 48.3448 74.3903H48.8368C49.639 74.3887 50.4225 74.1477 51.0868 73.698C51.7512 73.2483 52.2661 72.6106 52.5657 71.8664L55.325 64.9291C55.6334 64.1284 56.1972 63.4517 56.9292 63.004C57.7154 62.5398 58.6113 62.2936 59.5244 62.291H106.111C106.737 62.2904 107.358 62.4039 107.943 62.6261C108.756 62.9538 109.435 63.5468 109.868 64.3088L114.609 72.3869C114.963 72.9902 115.468 73.4906 116.074 73.8383C116.681 74.1861 117.368 74.369 118.067 74.3689H229.592C230.655 74.3689 231.674 74.7911 232.425 75.5425C233.177 76.294 233.599 77.3132 233.599 78.3759V179.812C233.599 180.338 233.495 180.859 233.294 181.345C233.093 181.831 232.798 182.273 232.425 182.645C232.053 183.017 231.612 183.312 231.126 183.514C230.639 183.715 230.118 183.819 229.592 183.819Z" stroke="#263238" stroke-miterlimit="10"/>
<path d="M95.5531 74.0479H66.549C65.8569 74.0479 65.1932 73.773 64.7038 73.2836C64.2144 72.7942 63.9395 72.1305 63.9395 71.4384C63.9385 71.0951 64.0053 70.755 64.1361 70.4376C64.2668 70.1202 64.4588 69.8317 64.7012 69.5886C64.9437 69.3455 65.2316 69.1527 65.5487 69.0211C65.8658 68.8895 66.2057 68.8218 66.549 68.8218H95.5531C96.2471 68.8218 96.9126 69.0975 97.4033 69.5882C97.8941 70.0789 98.1697 70.7444 98.1697 71.4384C98.1697 71.7817 98.102 72.1216 97.9704 72.4387C97.8388 72.7558 97.646 73.0437 97.4029 73.2862C97.1598 73.5286 96.8713 73.7206 96.5539 73.8514C96.2365 73.9821 95.8964 74.0489 95.5531 74.0479Z" fill="white"/>
<path d="M229.592 201.515H48.3448C47.2821 201.515 46.263 201.093 45.5115 200.342C44.7601 199.59 44.3379 198.571 44.3379 197.508V96.0938C44.3379 95.0311 44.7601 94.0119 45.5115 93.2604C46.263 92.509 47.2821 92.0868 48.3448 92.0868H48.8368C49.6392 92.0862 50.4231 91.8455 51.0877 91.3957C51.7522 90.9459 52.2669 90.3076 52.5657 89.5629L55.325 82.6327C55.6315 81.8309 56.1958 81.1537 56.9292 80.7076C57.7142 80.2405 58.6109 79.9941 59.5244 79.9946H106.111C106.737 79.994 107.358 80.1075 107.943 80.3297C108.758 80.6578 109.437 81.2538 109.868 82.0195L114.609 90.1047C114.963 90.7081 115.468 91.2085 116.074 91.5562C116.681 91.9039 117.368 92.0869 118.067 92.0868H229.592C230.655 92.0868 231.674 92.509 232.425 93.2604C233.177 94.0119 233.599 95.0311 233.599 96.0938V197.508C233.599 198.571 233.177 199.59 232.425 200.342C231.674 201.093 230.655 201.515 229.592 201.515Z" fill="#263238" stroke="#263238" stroke-miterlimit="10"/>
<path d="M109.448 53.1365L80.6721 49.5716C79.9848 49.4843 79.3599 49.1287 78.9338 48.5824C78.5077 48.0361 78.315 47.3434 78.3977 46.6555C78.4849 45.9673 78.8417 45.3419 79.3899 44.9167C79.9381 44.4915 80.6326 44.3015 81.3209 44.3882L110.09 47.9532C110.778 48.0387 111.404 48.3938 111.83 48.9406C112.257 49.4873 112.449 50.181 112.364 50.8693C112.322 51.2097 112.213 51.5385 112.043 51.8368C111.874 52.1351 111.647 52.397 111.376 52.6076C111.105 52.8182 110.796 52.9733 110.465 53.0641C110.134 53.1548 109.788 53.1795 109.448 53.1365Z" fill="#92E3A9"/>
<path opacity="0.5" d="M109.448 53.1365L80.6721 49.5716C79.9848 49.4843 79.3599 49.1287 78.9338 48.5824C78.5077 48.0361 78.315 47.3434 78.3977 46.6555C78.4849 45.9673 78.8417 45.3419 79.3899 44.9167C79.9381 44.4915 80.6326 44.3015 81.3209 44.3882L110.09 47.9532C110.778 48.0387 111.404 48.3938 111.83 48.9406C112.257 49.4873 112.449 50.181 112.364 50.8693C112.322 51.2097 112.213 51.5385 112.043 51.8368C111.874 52.1351 111.647 52.397 111.376 52.6076C111.105 52.8182 110.796 52.9733 110.465 53.0641C110.134 53.1548 109.788 53.1795 109.448 53.1365Z" fill="white"/>
<path d="M95.5531 91.7509H66.549C66.2057 91.7509 65.8658 91.6831 65.5487 91.5515C65.2316 91.42 64.9437 91.2271 64.7012 90.984C64.4588 90.741 64.2668 90.4525 64.1361 90.135C64.0053 89.8176 63.9385 89.4775 63.9395 89.1342C63.9395 88.4415 64.2142 87.777 64.7033 87.2865C65.1925 86.796 65.8562 86.5195 66.549 86.5176H95.5531C96.2471 86.5176 96.9126 86.7933 97.4033 87.284C97.8941 87.7747 98.1697 88.4402 98.1697 89.1342C98.1697 89.8282 97.8941 90.4938 97.4033 90.9845C96.9126 91.4752 96.2471 91.7509 95.5531 91.7509Z" fill="#92E3A9"/>
<path opacity="0.5" d="M95.5531 91.7509H66.549C66.2057 91.7509 65.8658 91.6831 65.5487 91.5515C65.2316 91.42 64.9437 91.2271 64.7012 90.984C64.4588 90.741 64.2668 90.4525 64.1361 90.135C64.0053 89.8176 63.9385 89.4775 63.9395 89.1342C63.9395 88.4415 64.2142 87.777 64.7033 87.2865C65.1925 86.796 65.8562 86.5195 66.549 86.5176H95.5531C96.2471 86.5176 96.9126 86.7933 97.4033 87.284C97.8941 87.7747 98.1697 88.4402 98.1697 89.1342C98.1697 89.8282 97.8941 90.4938 97.4033 90.9845C96.9126 91.4752 96.2471 91.7509 95.5531 91.7509Z" fill="white"/>
<path d="M235.518 122.588H42.4137C40.3385 122.588 38.6562 124.27 38.6562 126.345V243.196C38.6562 245.271 40.3385 246.953 42.4137 246.953H235.518C237.593 246.953 239.275 245.271 239.275 243.196V126.345C239.275 124.27 237.593 122.588 235.518 122.588Z" fill="white"/>
<mask id="mask5_284_2919" style="mask-type:luminance" maskUnits="userSpaceOnUse" x="38" y="122" width="202" height="125">
<path d="M235.518 122.587H42.4137C40.3385 122.587 38.6562 124.269 38.6562 126.344V243.195C38.6562 245.27 40.3385 246.952 42.4137 246.952H235.518C237.593 246.952 239.275 245.27 239.275 243.195V126.344C239.275 124.269 237.593 122.587 235.518 122.587Z" fill="white"/>
</mask>
<g mask="url(#mask5_284_2919)">
<g style="mix-blend-mode:multiply">
<path d="M239.275 156.062C217.037 176.846 191.771 194.131 164.341 207.325C123.807 226.711 77.4779 240.073 50.4844 246.953H235.51C236.004 246.954 236.494 246.857 236.951 246.669C237.407 246.481 237.822 246.204 238.172 245.855C238.522 245.506 238.799 245.091 238.988 244.635C239.178 244.179 239.275 243.69 239.275 243.196V156.062Z" fill="#92E3A9"/>
</g>
<path opacity="0.2" d="M239.275 156.062C217.037 176.846 191.771 194.131 164.341 207.325C123.807 226.711 77.4779 240.073 50.4844 246.953H235.51C236.004 246.954 236.494 246.857 236.951 246.669C237.407 246.481 237.822 246.204 238.172 245.855C238.522 245.506 238.799 245.091 238.988 244.635C239.178 244.179 239.275 243.69 239.275 243.196V156.062Z" fill="white"/>
</g>
<path d="M235.518 122.588H42.4137C40.3385 122.588 38.6562 124.27 38.6562 126.345V243.196C38.6562 245.271 40.3385 246.953 42.4137 246.953H235.518C237.593 246.953 239.275 245.271 239.275 243.196V126.345C239.275 124.27 237.593 122.588 235.518 122.588Z" stroke="#263238" stroke-miterlimit="10"/>
<path d="M41.5586 133.511V128.52C41.5605 127.522 41.9579 126.567 42.6637 125.862C43.3695 125.158 44.326 124.762 45.3231 124.762H53.4868" stroke="#263238" stroke-miterlimit="10"/>
<path d="M41.5586 209.308V139.593" stroke="#263238" stroke-miterlimit="10"/>
<path d="M236.368 233.093V240.985C236.368 241.48 236.272 241.969 236.084 242.426C235.895 242.882 235.619 243.297 235.27 243.647C234.921 243.997 234.506 244.274 234.05 244.463C233.593 244.653 233.104 244.75 232.61 244.75H226.029" stroke="#263238" stroke-miterlimit="10"/>
<path d="M236.365 131.757V227.225" stroke="#263238" stroke-miterlimit="10"/>
<path d="M168.789 168.062H109.134C108.059 168.062 107.188 168.933 107.188 170.008V200.446C107.188 201.521 108.059 202.392 109.134 202.392H168.789C169.864 202.392 170.736 201.521 170.736 200.446V170.008C170.736 168.933 169.864 168.062 168.789 168.062Z" fill="#263238" stroke="#263238" stroke-miterlimit="10"/>
<path d="M168.789 168.062H109.134C108.059 168.062 107.188 168.933 107.188 170.008V176.554C107.188 177.629 108.059 178.5 109.134 178.5H168.789C169.864 178.5 170.736 177.629 170.736 176.554V170.008C170.736 168.933 169.864 168.062 168.789 168.062Z" fill="white" stroke="#263238" stroke-miterlimit="10"/>
<path d="M52.7734 63.6101L54.0782 66.0413L56.8517 68.0377C57.026 68.1658 57.2349 68.2384 57.4511 68.246C57.6673 68.2536 57.8808 68.1959 58.0638 68.0805L58.3062 67.9236C58.4825 67.8165 58.6138 67.6489 58.6755 67.4521C58.7371 67.2552 58.725 67.0427 58.6413 66.8541L57.0656 63.2322L58.1279 64.0592C58.2966 64.1892 58.5092 64.2485 58.7207 64.2246C58.9323 64.2006 59.1263 64.0953 59.2616 63.9309C59.379 63.7842 59.443 63.6019 59.443 63.414C59.443 63.2261 59.379 63.0438 59.2616 62.8971L56.7875 59.7671L53.6932 60.2448L52.7734 63.6101Z" fill="white" stroke="#263238" stroke-miterlimit="10"/>
<path d="M58.3347 67.9234L55.8535 64.665" stroke="#263238" stroke-width="0.5" stroke-linecap="round" stroke-linejoin="round"/>
<path d="M56.88 68.038L54.9336 65.457" stroke="#263238" stroke-width="0.5" stroke-linecap="round" stroke-linejoin="round"/>
<path d="M93.5977 40.0244L97.4763 40.2526L102.196 43.2685C102.196 43.2685 102.46 44.1882 101.804 44.3166C101.148 44.4449 97.6046 43.1401 97.6046 43.1401L93.8187 43.0902L93.5977 40.0244Z" fill="white" stroke="#263238" stroke-miterlimit="10"/>
<path d="M93.7969 42.6128L97.868 44.4523C97.868 44.4523 98.524 43.5326 97.6042 43.1404L96.2638 42.2207" fill="white"/>
<path d="M93.7969 42.6128L97.868 44.4523C97.868 44.4523 98.524 43.5326 97.6042 43.1404L96.2638 42.2207" stroke="#263238" stroke-linejoin="round"/>
<path d="M237.629 112.143L235.946 107.109L234.057 104.521C234.026 104.474 233.98 104.438 233.927 104.42C233.873 104.401 233.815 104.401 233.761 104.419C233.708 104.437 233.662 104.472 233.63 104.519C233.598 104.566 233.583 104.622 233.586 104.678V112.136L235.012 114.011L237.629 112.143Z" fill="white"/>
<path d="M265.052 134.153L250.934 134.652C250.414 134.671 249.898 134.54 249.449 134.276C248.999 134.012 248.634 133.626 248.396 133.162L237.63 112.144C237.63 112.144 235.206 113.455 235.021 114.012C234.835 114.568 242.992 135.023 245.494 141.305C245.705 141.832 246.074 142.281 246.55 142.59C247.026 142.899 247.587 143.053 248.154 143.03L263.932 142.36" fill="white"/>
<path d="M265.052 134.153L250.934 134.652C250.414 134.671 249.898 134.54 249.449 134.276C248.999 134.012 248.634 133.626 248.396 133.162L237.63 112.144C237.63 112.144 235.206 113.455 235.021 114.012C234.835 114.568 242.992 135.023 245.494 141.305C245.705 141.832 246.074 142.281 246.55 142.59C247.026 142.899 247.587 143.053 248.154 143.03L263.932 142.36" stroke="#263238" stroke-miterlimit="10"/>
<path d="M238.663 114.76L236.453 115.672" stroke="#263238" stroke-width="0.75" stroke-miterlimit="10"/>
<g opacity="0.5">
<path d="M265.052 134.153L250.934 134.652C250.414 134.671 249.898 134.54 249.449 134.276C248.999 134.012 248.634 133.626 248.396 133.162L237.63 112.144C237.63 112.144 235.206 113.455 235.021 114.012C234.835 114.568 242.992 135.023 245.494 141.305C245.705 141.832 246.074 142.281 246.55 142.59C247.026 142.899 247.587 143.053 248.154 143.03L263.932 142.36" fill="#92E3A9"/>
<path d="M265.052 134.153L250.934 134.652C250.414 134.671 249.898 134.54 249.449 134.276C248.999 134.012 248.634 133.626 248.396 133.162L237.63 112.144C237.63 112.144 235.206 113.455 235.021 114.012C234.835 114.568 242.992 135.023 245.494 141.305C245.705 141.832 246.074 142.281 246.55 142.59C247.026 142.899 247.587 143.053 248.154 143.03L263.932 142.36" stroke="#263238" stroke-miterlimit="10"/>
<path d="M238.665 114.76L236.455 115.673" stroke="#263238" stroke-width="0.75" stroke-miterlimit="10"/>
</g>
<path d="M237.629 112.143L235.946 107.109L234.057 104.521C234.026 104.474 233.98 104.438 233.927 104.42C233.873 104.401 233.815 104.401 233.761 104.419C233.708 104.437 233.662 104.472 233.63 104.519C233.598 104.566 233.583 104.622 233.586 104.678V112.136L235.012 114.011L237.629 112.143Z" fill="#92E3A9"/>
<mask id="mask6_284_2919" style="mask-type:luminance" maskUnits="userSpaceOnUse" x="233" y="104" width="5" height="11">
<path d="M237.627 112.145L235.944 107.111L234.055 104.523C234.024 104.476 233.978 104.44 233.925 104.421C233.871 104.403 233.813 104.403 233.759 104.42C233.706 104.438 233.66 104.473 233.628 104.52C233.596 104.567 233.581 104.623 233.584 104.68V112.137L235.01 114.013L237.627 112.145Z" fill="white"/>
</mask>
<g mask="url(#mask6_284_2919)">
<path opacity="0.5" d="M237.627 112.145L235.944 107.111L234.055 104.523C234.024 104.476 233.978 104.44 233.925 104.421C233.871 104.403 233.813 104.403 233.759 104.42C233.706 104.438 233.66 104.473 233.628 104.52C233.596 104.567 233.581 104.623 233.584 104.68V112.137L235.01 114.013L237.627 112.145Z" fill="white"/>
</g>
<path d="M237.629 112.143L235.946 107.109L234.057 104.521C234.026 104.474 233.98 104.438 233.927 104.42C233.873 104.401 233.815 104.401 233.761 104.419C233.708 104.437 233.662 104.472 233.63 104.519C233.598 104.566 233.583 104.622 233.586 104.678V112.136L235.012 114.011L237.629 112.143Z" stroke="#263238" stroke-miterlimit="10"/>
<path d="M269.422 120.87C268.744 121.729 268.258 122.723 267.996 123.786C267.789 125.155 268.117 130.424 268.117 130.424L260.773 131.251C260.773 131.251 261.33 125.896 261.358 125.005C261.593 123.9 262.061 122.858 262.732 121.948C263.402 121.038 264.258 120.282 265.244 119.729C267.768 118.489 269.914 119.095 269.422 120.87Z" fill="white"/>
<mask id="mask7_284_2919" style="mask-type:luminance" maskUnits="userSpaceOnUse" x="260" y="119" width="10" height="13">
<path d="M269.422 120.87C268.744 121.729 268.258 122.723 267.996 123.786C267.789 125.155 268.117 130.424 268.117 130.424L260.773 131.251C260.773 131.251 261.33 125.896 261.358 125.005C261.593 123.9 262.061 122.858 262.732 121.948C263.402 121.038 264.258 120.282 265.244 119.729C267.768 118.489 269.914 119.095 269.422 120.87Z" fill="white"/>
</mask>
<g mask="url(#mask7_284_2919)">
<g style="mix-blend-mode:multiply" opacity="0.5">
<path d="M269.372 120.928C268.038 120.564 266.42 120.158 265.051 119.83C264.11 120.39 263.294 121.138 262.655 122.027C262.016 122.917 261.567 123.928 261.336 124.999C261.336 125.341 261.237 126.339 261.137 127.437C261.85 127.273 262.983 127.024 263.825 126.874C264.491 126.766 265.147 126.602 265.785 126.382L265.536 130.66H265.7L268.095 130.389C268.095 130.389 267.767 125.12 267.974 123.751C268.235 122.721 268.711 121.759 269.372 120.928Z" fill="#92E3A9"/>
</g>
</g>
<path d="M269.422 120.87C268.744 121.729 268.258 122.723 267.996 123.786C267.789 125.155 268.117 130.424 268.117 130.424L260.773 131.251C260.773 131.251 261.33 125.896 261.358 125.005C261.593 123.9 262.061 122.858 262.732 121.948C263.402 121.038 264.258 120.282 265.244 119.729C267.768 118.489 269.914 119.095 269.422 120.87Z" stroke="#263238" stroke-width="1.00396" stroke-miterlimit="10"/>
<path d="M270.948 121.775C277.037 113.733 262.357 105.377 258.499 113.369C257.962 114.355 257.536 115.398 257.23 116.478C256.646 116.834 255.091 117.79 254.806 118.054C254.521 118.318 255.519 118.995 256.068 119.33C255.02 121.904 255.177 124.613 255.476 125.226C255.997 126.282 258.564 126.296 260.253 125.982C261.943 125.668 262.613 124.05 263.105 123.608C263.597 123.166 266.05 123.729 266.913 123.986C267.775 124.242 269.764 123.365 270.948 121.775Z" fill="white"/>
<mask id="mask8_284_2919" style="mask-type:luminance" maskUnits="userSpaceOnUse" x="254" y="110" width="19" height="17">
<path d="M270.948 121.776C277.037 113.734 262.357 105.377 258.499 113.37C257.962 114.356 257.536 115.398 257.23 116.478C256.646 116.835 255.091 117.79 254.806 118.054C254.521 118.318 255.519 118.995 256.068 119.33C255.02 121.904 255.177 124.614 255.476 125.227C255.997 126.282 258.564 126.296 260.253 125.983C261.943 125.669 262.613 124.05 263.105 123.608C263.597 123.166 266.05 123.73 266.913 123.986C267.775 124.243 269.764 123.366 270.948 121.776Z" fill="white"/>
</mask>
<g mask="url(#mask8_284_2919)">
<g style="mix-blend-mode:multiply" opacity="0.5">
<path d="M264.922 121.005C264.922 121.005 265.05 121.611 263.824 122.103C262.598 122.595 262.355 122.224 261.992 123.08C261.837 123.642 261.525 124.149 261.092 124.539C260.658 124.93 260.122 125.188 259.546 125.283C258.385 125.503 257.211 125.653 256.031 125.732C257.001 126.274 258.926 126.231 260.309 125.981C261.992 125.675 262.669 124.049 263.161 123.607C263.653 123.165 266.106 123.728 266.968 123.985C267.171 124.025 267.379 124.025 267.582 123.985C267.903 123.269 268.096 122.501 268.152 121.718L264.922 121.005Z" fill="#92E3A9"/>
</g>
</g>
<path d="M270.948 121.775C277.037 113.733 262.357 105.377 258.499 113.369C257.962 114.355 257.536 115.398 257.23 116.478C256.646 116.834 255.091 117.79 254.806 118.054C254.521 118.318 255.519 118.995 256.068 119.33C255.02 121.904 255.177 124.613 255.476 125.226C255.997 126.282 258.564 126.296 260.253 125.982C261.943 125.668 262.613 124.05 263.105 123.608C263.597 123.166 266.05 123.729 266.913 123.986C267.775 124.242 269.764 123.365 270.948 121.775Z" stroke="#263238" stroke-miterlimit="10"/>
<path d="M259.054 117.184C258.897 117.526 258.633 117.74 258.462 117.662C258.291 117.583 258.276 117.241 258.462 116.899C258.647 116.556 258.883 116.343 259.054 116.421C259.225 116.499 259.211 116.842 259.054 117.184Z" fill="#263238"/>
<path d="M258.912 114.987C258.912 114.987 259.625 114.396 259.768 115.757" stroke="#263238" stroke-width="0.5" stroke-linecap="round" stroke-linejoin="round"/>
<path d="M255.924 120.713C255.924 120.713 255.924 121.426 257.207 121.426" stroke="#263238" stroke-width="0.5" stroke-linecap="round" stroke-linejoin="round"/>
<path d="M254.185 167.371L253.621 174.344C253.621 174.344 249.721 202.107 249.907 205.294C250.092 208.481 250.513 241.407 250.513 241.407L255.211 242.155L260.487 205.636L267.895 168.526L254.185 167.371Z" fill="#92E3A9" stroke="#263238" stroke-miterlimit="10"/>
<path opacity="0.2" d="M254.185 167.371L253.621 174.344C253.621 174.344 249.721 202.107 249.907 205.294C250.092 208.481 250.513 241.407 250.513 241.407L255.211 242.155L260.487 205.636L267.895 168.526L254.185 167.371Z" fill="#263238"/>
<path d="M260.13 192.731C260.13 192.731 258.327 203.348 256.965 208.553C255.603 213.757 255.61 218.948 255.61 224.595C255.61 230.241 253.578 240.651 253.578 240.651" stroke="#263238" stroke-width="0.75" stroke-miterlimit="10"/>
<path d="M263.717 165.66C266.811 164.034 270.134 162.958 271.082 165.118C272.964 169.439 270.711 176.005 270.711 176.005L272.429 206.293L275.574 242.833L270.875 242.077C270.875 242.077 263.66 211.241 262.533 209.358C261.407 207.476 259.631 181.074 259.631 181.074L256.066 177.83" fill="#92E3A9"/>
<path d="M263.717 165.66C266.811 164.034 270.134 162.958 271.082 165.118C272.964 169.439 270.711 176.005 270.711 176.005L272.429 206.293L275.574 242.833L270.875 242.077C270.875 242.077 263.66 211.241 262.533 209.358C261.407 207.476 259.631 181.074 259.631 181.074L256.066 177.83" stroke="#263238" stroke-miterlimit="10"/>
<g opacity="0.2">
<path d="M263.717 165.66C266.811 164.034 270.134 162.958 271.082 165.118C272.964 169.439 270.711 176.005 270.711 176.005L272.429 206.293L275.574 242.833L270.875 242.077C270.875 242.077 263.66 211.241 262.533 209.358C261.407 207.476 259.631 181.074 259.631 181.074L256.066 177.83" fill="#263238"/>
</g>
<path d="M267.381 188.604C267.488 195.626 268.201 199.006 268.757 200.86C269.434 203.12 269.206 207.412 269.206 209.415C269.206 211.419 268.301 208.966 270.34 218.235C272.379 227.504 273.726 240.38 273.726 240.38" stroke="#263238" stroke-width="0.75" stroke-miterlimit="10"/>
<path d="M267.381 173.295C267.381 173.295 267.602 172.839 267.381 183.462C267.381 184.033 267.381 184.582 267.381 185.117" stroke="#263238" stroke-width="0.75" stroke-miterlimit="10"/>
<path d="M256.95 171.278L256.801 174.458L256.066 176.668L257.164 177.951" stroke="#263238" stroke-width="0.75" stroke-linecap="round" stroke-linejoin="round"/>
<path d="M255.51 173.174C255.51 173.174 257.349 175.014 262.126 174.458" stroke="#263238" stroke-width="0.75" stroke-linecap="round" stroke-linejoin="round"/>
<path d="M266.798 171.585C270.363 170.872 270.591 169.888 271.824 169.061C271.847 167.712 271.605 166.373 271.111 165.118C270.177 162.979 266.833 164.034 263.746 165.66L262.249 168.027L254.214 167.371L253.957 170.522C258.083 171.938 262.496 172.303 266.798 171.585Z" fill="#263238"/>
<path d="M254.991 169.553L254.912 170.808L256.951 171.278L257.108 169.631L254.991 169.553Z" fill="white" stroke="#263238" stroke-width="0.75" stroke-miterlimit="10"/>
<path d="M269.223 171.413L268.881 168.29L269.915 167.948L270.435 170.722" fill="#92E3A9"/>
<path d="M269.223 171.413L268.881 168.29L269.915 167.948L270.435 170.722" stroke="#263238" stroke-miterlimit="10"/>
<path d="M261.25 172.454L260.559 168.811H262.291L262.983 171.934" fill="#92E3A9"/>
<path d="M261.25 172.454L260.559 168.811H262.291L262.983 171.934" stroke="#263238" stroke-miterlimit="10"/>
<g opacity="0.2">
<path d="M269.221 171.413L268.879 168.29L269.913 167.948L270.433 170.721" fill="#263238"/>
<path d="M261.25 172.453L260.559 168.81H262.291L262.983 171.933" fill="#263238"/>
</g>
<path d="M253.264 139.735C253.264 139.735 252.672 143.692 250.897 150.43C249.122 157.168 247.332 165.246 247.332 165.246L248.323 169.395L251.282 165.046L253.264 139.735Z" fill="#263238" stroke="#263238" stroke-miterlimit="10"/>
<path d="M258.207 134.01C258.207 134.01 254.057 134.994 253.665 136.969C253.453 137.878 253.32 138.803 253.266 139.735L259.59 134.602L267.497 131.436L258.207 134.01Z" fill="#263238" stroke="#263238" stroke-miterlimit="10"/>
<path d="M259.339 132.485C259.339 132.485 255.967 136.299 254.626 137.868C253.286 139.436 253.279 156.27 253.279 158.744C253.279 161.218 251.938 167.934 254.177 169.282C256.416 170.629 270.112 170.18 271.46 167.934C272.807 165.688 273.699 138.766 273.478 136.299C273.31 135.192 272.874 134.143 272.208 133.244C271.542 132.344 270.666 131.621 269.656 131.137C268.095 130.417 259.339 132.485 259.339 132.485Z" fill="white"/>
<mask id="mask9_284_2919" style="mask-type:luminance" maskUnits="userSpaceOnUse" x="252" y="130" width="22" height="41">
<path d="M259.341 132.484C259.341 132.484 255.969 136.298 254.628 137.867C253.288 139.435 253.281 156.269 253.281 158.743C253.281 161.217 251.94 167.933 254.179 169.281C256.418 170.628 270.114 170.179 271.462 167.933C272.809 165.687 273.701 138.765 273.48 136.298C273.312 135.191 272.876 134.142 272.21 133.243C271.544 132.343 270.668 131.62 269.658 131.136C268.097 130.416 259.341 132.484 259.341 132.484Z" fill="white"/>
</mask>
<g mask="url(#mask9_284_2919)">
<g style="mix-blend-mode:multiply" opacity="0.5">
<path d="M269.656 131.137C269.47 131.061 269.272 131.018 269.071 131.008L268.102 131.515C269.734 132.852 270.857 134.71 271.282 136.776C271.733 139.779 271.692 142.835 271.16 145.824C270.676 149.125 262.847 145.824 264.316 147.05C265.785 148.277 271.282 150.352 271.531 151.45C271.781 152.548 268.808 154.38 267.738 154.508C266.669 154.637 268.451 157.075 269.571 159.15C270.69 161.224 270.283 164.141 267.738 166.123C265.193 168.105 259.282 169.082 256.73 169.181C255.903 169.181 255.389 169.395 255.232 169.638C259.154 170.515 270.255 169.944 271.46 167.934C272.807 165.688 273.699 138.766 273.478 136.299C273.31 135.192 272.874 134.143 272.208 133.243C271.542 132.344 270.666 131.62 269.656 131.137Z" fill="#92E3A9"/>
</g>
</g>
<path d="M259.339 132.485C259.339 132.485 255.967 136.299 254.626 137.868C253.286 139.436 253.279 156.27 253.279 158.744C253.279 161.218 251.938 167.934 254.177 169.282C256.416 170.629 270.112 170.18 271.46 167.934C272.807 165.688 273.699 138.766 273.478 136.299C273.31 135.192 272.874 134.143 272.208 133.244C271.542 132.344 270.666 131.621 269.656 131.137C268.095 130.417 259.339 132.485 259.339 132.485Z" stroke="#263238" stroke-miterlimit="10"/>
<path d="M266.236 149.561C262.621 148.434 259.455 145.283 259.455 145.283C260.257 149.027 262.435 152.335 265.558 154.551" fill="white"/>
<path d="M266.236 149.561C262.621 148.434 259.455 145.283 259.455 145.283C260.257 149.027 262.435 152.335 265.558 154.551" stroke="#263238" stroke-width="0.75" stroke-linecap="round" stroke-linejoin="round"/>
<path d="M268.986 128.67L258.213 131.137L257.543 134.282L269.657 131.137L268.986 128.67Z" fill="white" stroke="#263238" stroke-miterlimit="10"/>
<path d="M255.838 246.861L255.211 242.127L250.512 241.378L246.598 244.166L243.09 246.091V246.861H255.838Z" fill="#263238" stroke="#263238" stroke-miterlimit="10"/>
<path d="M276.158 247.232L275.574 242.832L270.875 242.077L266.961 244.864L263.453 246.797V247.232H276.158Z" fill="#263238" stroke="#263238" stroke-miterlimit="10"/>
<path d="M235.576 108.037L232.681 106.361C232.681 106.361 231.554 106.226 232.039 107.481L234.934 109.712" fill="white"/>
<path d="M235.576 108.037L232.681 106.361C232.681 106.361 231.554 106.226 232.039 107.481L234.934 109.712" stroke="#263238" stroke-linecap="round" stroke-linejoin="round"/>
<path d="M235.148 112.393C235.012 112.049 234.811 111.734 234.556 111.466L234.014 110.881L231.07 107.231C231.07 107.231 230.157 106.618 230.357 107.944L232.182 111.509L228.938 108.464C228.938 108.464 228.325 107.958 228.325 108.671C228.325 109.384 231.269 112.528 231.269 112.528L228.018 111.003C228.018 111.003 227.305 111.509 227.819 112.015C228.332 112.521 231.063 113.541 231.063 113.541L228.631 113.441C228.631 113.441 227.918 114.047 228.425 114.254C228.931 114.461 231.776 115.059 231.776 115.059C232.137 115.367 232.55 115.608 232.995 115.772L233.708 117.091L236.439 115.715L235.148 112.393Z" fill="white" stroke="#263238" stroke-linecap="round" stroke-linejoin="round"/>
<path d="M264.302 144.042L248.032 147.856C247.199 148.003 246.341 147.857 245.604 147.442C244.867 147.027 244.297 146.37 243.99 145.582L233.723 117.063L236.453 115.687L247.797 136.698C248.054 137.179 248.459 137.564 248.952 137.796C249.446 138.029 250 138.096 250.535 137.989L262.976 134.474" fill="white"/>
<path d="M264.302 144.042L248.032 147.856C247.199 148.003 246.341 147.857 245.604 147.442C244.867 147.027 244.297 146.37 243.99 145.582L233.723 117.063L236.453 115.687L247.797 136.698C248.054 137.179 248.459 137.564 248.952 137.796C249.446 138.029 250 138.096 250.535 137.989L262.976 134.474" stroke="#263238" stroke-miterlimit="10"/>
<path d="M237.986 118.375L234.82 119.957" stroke="#263238" stroke-width="0.75" stroke-miterlimit="10"/>
<path d="M262.278 113.455C262.278 113.455 260.545 115.187 261.408 116.485C261.919 117.234 262.309 118.06 262.563 118.93C262.563 118.93 261.85 120.663 262.42 120.663C262.99 120.663 262.705 119.365 263.718 119.658C264.73 119.95 265.735 121.675 264.873 122.253C264.227 122.614 263.543 122.901 262.834 123.109C262.743 123.136 262.663 123.19 262.602 123.262C262.542 123.335 262.504 123.424 262.493 123.518C262.483 123.612 262.5 123.707 262.543 123.791C262.585 123.876 262.652 123.946 262.734 123.993C263.672 124.626 264.752 125.018 265.878 125.133C266.799 125.153 267.719 125.057 268.616 124.848C268.616 124.848 271.468 120.955 273.521 119.943C275.575 118.93 274.676 114.317 274.676 113.74C274.676 113.162 272.659 111.865 272.659 111.865C272.659 111.865 273.236 110.567 270.641 107.687C268.046 104.806 263.14 104.222 262.998 105.234C262.947 105.502 262.975 105.779 263.078 106.032C263.18 106.284 263.353 106.502 263.575 106.66C263.575 106.66 259.247 104.785 257.23 106.803C255.212 108.82 262.278 113.455 262.278 113.455Z" fill="#263238" stroke="#263238" stroke-miterlimit="10"/>
<path d="M262.277 113.455C262.277 113.455 265.785 117.733 270.983 118.146" stroke="white" stroke-width="0.5" stroke-linecap="round" stroke-linejoin="round"/>
<path d="M261.037 114.76C261.037 114.76 262.67 119.508 269.422 120.863" stroke="white" stroke-width="0.5" stroke-linecap="round" stroke-linejoin="round"/>
</svg>
