<?xml version="1.0" encoding="UTF-8"?><svg xmlns="http://www.w3.org/2000/svg" width="365" height="72" viewBox="0 0 365 72"><title>logo_smartschool_black_font_365x72</title><defs><linearGradient id="a" x1="50%" x2="50%" y1="0%" y2="100%"><stop stop-color="#FF840E" offset="0%"/><stop stop-color="#FF710E" offset="8.431%"/><stop stop-color="#F00" offset="73.477%"/><stop stop-color="#F10A00" offset="100%"/></linearGradient></defs><g fill="none" fill-rule="evenodd"><rect width="72" height="72" fill="url(#a)" rx="6.857"/><path fill="#FFF" d="M18.108 59c2.868 1.783 8.604 3.333 14.185 3.333 13.41 0 19.766-7.286 19.766-15.735 0-7.52-4.343-12.092-13.41-15.502-6.978-2.713-10-4.574-10-8.604 0-3.1 2.557-6.28 8.603-6.28 4.883 0 8.527 1.474 10.464 2.48l2.248-7.672c-2.713-1.396-6.82-2.636-12.48-2.636-11.394 0-18.525 6.434-18.525 15.038 0 7.518 5.504 12.092 14.186 15.192 6.59 2.403 9.224 4.73 9.224 8.682 0 4.263-3.41 7.13-9.457 7.13-4.883 0-9.61-1.55-12.634-3.332L18.106 59z"/><path fill="#262626" d="M95.873 49.016c5.29 0 9-2.808 9-7.524v-.072c0-4.176-2.773-6.084-8.1-7.38-4.825-1.152-5.977-2.016-5.977-3.96v-.072c0-1.656 1.512-2.988 4.104-2.988 2.304 0 4.572.9 6.84 2.592l2.377-3.348c-2.556-2.052-5.473-3.168-9.145-3.168-5.003 0-8.603 2.988-8.603 7.308l-.003.072c0 4.644 3.025 6.228 8.39 7.524 4.678 1.08 5.687 2.052 5.687 3.852v.072c0 1.908-1.728 3.168-4.464 3.168-3.132 0-5.544-1.188-7.956-3.276l-2.663 3.168c3.026 2.7 6.66 4.032 10.514 4.032zm12.84-.36h4.357v-18l7.884 11.808h.144l7.956-11.88v18.072h4.428v-25.2h-4.716l-7.668 11.916-7.668-11.916h-4.716v25.2zm27.71 0l11.09-25.38h4.103l11.088 25.38h-4.68l-2.556-6.084h-11.916l-2.592 6.084h-4.536zm8.75-10.008h8.675l-4.356-10.08-4.32 10.08zm20.473 10.008v-25.2h11.232c3.168 0 5.652.936 7.272 2.52 1.332 1.368 2.088 3.24 2.088 5.436v.072c0 4.14-2.484 6.624-6.012 7.632l6.804 9.54h-5.22l-6.192-8.784h-5.544v8.784h-4.428zm4.428-12.708h6.48c3.168 0 5.184-1.656 5.184-4.212v-.072c0-2.7-1.944-4.176-5.22-4.176h-6.444v8.46zm26.306 12.708h4.464V27.56h7.992v-4.104h-20.448v4.104h7.992v21.096zm24.038.36c5.292 0 9-2.808 9-7.524v-.072c0-4.176-2.772-6.084-8.1-7.38-4.824-1.152-5.976-2.016-5.976-3.96v-.072c0-1.656 1.512-2.988 4.104-2.988 2.304 0 4.572.9 6.84 2.592l2.376-3.348c-2.556-2.052-5.472-3.168-9.144-3.168-5.004 0-8.604 2.988-8.604 7.308v.072c0 4.644 3.024 6.228 8.388 7.524 4.68 1.08 5.688 2.052 5.688 3.852v.072c0 1.908-1.728 3.168-4.464 3.168-3.132 0-5.544-1.188-7.956-3.276l-2.664 3.168c3.024 2.7 6.66 4.032 10.512 4.032zm24.542.072c4.716 0 7.596-1.728 10.224-4.464l-2.844-2.88c-2.16 2.016-4.14 3.276-7.236 3.276-4.824 0-8.316-4.032-8.316-8.964v-.072c0-4.932 3.492-8.892 8.316-8.892 2.88 0 5.04 1.26 7.056 3.132l2.844-3.276c-2.412-2.304-5.22-3.924-9.864-3.924-7.632 0-12.996 5.868-12.996 13.032v.072c0 7.236 5.472 12.96 12.816 12.96zm13.49-.432h4.428v-10.62h12.024v10.62h4.428v-25.2h-4.428v10.476h-12.024V23.456h-4.428v25.2zm38.005.432c-7.74 0-13.14-5.868-13.14-12.96v-.072c0-7.092 5.473-13.032 13.212-13.032 7.74 0 13.14 5.868 13.14 12.96v.072c0 7.092-5.47 13.032-13.212 13.032zm.072-4.068c5.005 0 8.497-3.996 8.497-8.892v-.072c0-4.896-3.565-8.964-8.57-8.964-5.002 0-8.495 3.996-8.495 8.892v.072c0 4.896 3.563 8.964 8.566 8.964zm29.15 4.068c-7.74 0-13.14-5.868-13.14-12.96v-.072c0-7.092 5.472-13.032 13.212-13.032 7.74 0 13.14 5.868 13.14 12.96v.072c0 7.092-5.474 13.032-13.214 13.032zm.072-4.068c5.002 0 8.494-3.996 8.494-8.892v-.072c0-4.896-3.564-8.964-8.568-8.964s-8.496 3.996-8.496 8.892v.072c0 4.896 3.565 8.964 8.57 8.964zm17.124 3.636h17.676v-4.032h-13.247V23.456h-4.428v25.2z"/></g></svg>