<svg width="153" height="39" viewBox="0 0 153 39" fill="none" xmlns="http://www.w3.org/2000/svg">
<path d="M36.098 38.2214V24.8822C36.098 22.0742 34.928 20.6702 32.6465 20.6702C30.365 20.6702 29.195 22.0742 29.195 24.8822V38.2214H22.3492V24.8822C22.3492 22.0742 21.2377 20.6702 18.9562 20.6702C16.6747 20.6702 15.5035 22.0742 15.5035 24.8822V38.2214H8.71875V24.1217C8.71875 21.1967 9.71325 19.031 11.7608 17.51C13.5157 16.1645 15.974 15.521 18.9575 15.521C22.058 15.521 24.281 16.2815 25.7435 17.861C26.972 16.2815 29.2535 15.521 32.588 15.521C35.63 15.521 38.0297 16.1645 39.7847 17.51C41.8322 19.031 42.8267 21.1955 42.8267 24.1217V38.2787H36.098V38.2214Z" fill="url(#paint0_radial_195_734)"/>
<path d="M55.7553 38.8063C52.3038 38.8063 49.4958 37.6935 47.2143 35.529C44.9913 33.3645 43.8213 30.5565 43.8213 27.105C43.8213 23.6523 44.9328 20.8455 47.2143 18.6798C49.4373 16.5153 52.3038 15.4038 55.7553 15.4038C59.208 15.4038 62.0745 16.5153 64.2975 18.6798C66.579 20.8443 67.6905 23.6523 67.6905 27.105C67.6905 30.5565 66.579 33.3645 64.2975 35.529C62.016 37.6947 59.1483 38.8063 55.7553 38.8063ZM55.7553 20.8455C54.1173 20.8455 52.8303 21.489 51.9528 22.7175C51.0753 23.946 50.6073 25.4085 50.6073 27.1635C50.6073 28.8612 51.0168 30.3225 51.8358 31.4925C52.7718 32.838 54.06 33.4815 55.6968 33.4815C57.3336 33.4815 58.6218 32.838 59.5578 31.4925C60.4353 30.3225 60.8448 28.86 60.8448 27.1635C60.8448 25.467 60.4353 24.0045 59.6163 22.8345C58.7388 21.489 57.3933 20.8455 55.7553 20.8455Z" fill="url(#paint1_radial_195_734)"/>
<path d="M80.3266 38.8063C76.8751 38.8063 74.0671 37.6935 71.7856 35.529C69.5626 33.3645 68.3926 30.5565 68.3926 27.105C68.3926 23.6523 69.5041 20.8455 71.7856 18.6798C74.0086 16.5153 76.8751 15.4038 80.3266 15.4038C83.7793 15.4038 86.6458 16.5153 88.8688 18.6798C91.1503 20.8443 92.2618 23.6523 92.2618 27.105C92.2618 30.5565 91.1503 33.3645 88.8688 35.529C86.5873 37.6947 83.7196 38.8063 80.3266 38.8063ZM80.3266 20.8455C78.6886 20.8455 77.4016 21.489 76.5241 22.7175C75.6466 23.946 75.1786 25.4085 75.1786 27.1635C75.1786 28.8612 75.5881 30.3225 76.4071 31.4925C77.3443 32.838 78.6313 33.4815 80.2681 33.4815C81.9049 33.4815 83.1931 32.838 84.1291 31.4925C85.0066 30.3225 85.4161 28.86 85.4161 27.1635C85.4161 25.467 85.0066 24.0045 84.1876 22.8345C83.3113 21.489 81.9658 20.8455 80.3266 20.8455Z" fill="url(#paint2_radial_195_734)"/>
<path d="M110.632 38.1626V35.9396C110.047 36.7586 108.994 37.4021 107.532 37.8701C106.351 38.3013 105.103 38.5192 103.846 38.5136C100.629 38.5136 97.9964 37.4021 96.0646 35.1791C94.0756 32.9561 93.1396 30.2066 93.1396 26.9294C93.1396 23.7119 94.0756 20.9624 96.0074 18.7979C97.9379 16.6334 100.512 15.5219 103.671 15.5219C107.298 15.5219 109.579 16.5164 110.632 18.4469V0.0766602H117.243V38.1626H110.632ZM110.632 25.5254C110.632 24.2969 110.047 23.1269 108.877 22.0154C107.707 20.9039 106.537 20.3189 105.309 20.3189C103.554 20.3189 102.208 21.0209 101.155 22.4249C100.278 23.6522 99.8099 25.2329 99.8099 27.0464C99.8099 28.8014 100.278 30.3224 101.155 31.6106C102.15 33.0731 103.554 33.7751 105.309 33.7751C106.362 33.7751 107.473 33.3071 108.76 32.3126C109.989 31.3181 110.632 30.3236 110.632 29.2706V25.5254Z" fill="url(#paint3_radial_195_734)"/>
<path d="M119.643 38.1626V0.0766602H126.427V38.1626H119.643Z" fill="url(#paint4_radial_195_734)"/>
<path d="M134.56 29.1524C134.852 30.5564 135.554 31.7264 136.607 32.7209C137.72 33.7154 138.89 34.2419 140.236 34.2419C141.172 34.2419 142.166 34.0079 143.278 33.5399C144.623 32.9549 145.267 32.3114 145.267 31.5509L152.404 31.4924C151.41 33.8909 149.655 35.7629 147.257 37.0511C144.974 38.2796 142.516 38.9231 139.768 38.9231C136.315 38.9231 133.39 37.8116 131.11 35.7056C128.828 33.5411 127.658 30.7319 127.658 27.2219C127.658 23.5949 128.827 20.7869 131.11 18.6224C133.391 16.5164 136.373 15.4634 140.002 15.4634C143.98 15.4634 147.081 16.7504 149.304 19.3841C151.352 21.7826 152.404 25.0586 152.404 29.1536L134.56 29.1524ZM145.675 24.9404C145.382 23.4779 144.797 22.3079 143.861 21.3719C142.807 20.3774 141.58 19.8509 140.234 19.8509C138.83 19.8509 137.66 20.3201 136.665 21.3134C135.729 22.3079 135.085 23.4779 134.735 24.9404H145.675Z" fill="url(#paint5_radial_195_734)"/>
<path d="M9.36216 18.9152L8.66016 22.4252C15.0952 24.5885 21.1792 22.4825 24.3979 16.8665C19.6582 13.5917 15.2707 16.9262 9.36216 18.9152Z" fill="#58595B"/>
<path d="M9.36225 18.0373L8.71875 22.0153C14.8612 24.1225 20.888 22.3078 24.1055 16.8088C20.0092 12.0691 15.4462 15.9898 9.36225 18.0373Z" fill="url(#paint6_linear_195_734)"/>
<path d="M16.6765 19.6171C13.8685 19.0321 10.8253 20.4946 8.7193 22.0156C7.3738 12.1876 13.459 12.4203 21.4138 14.8786C20.8873 17.2771 20.0098 20.4946 18.4888 22.4263C18.4315 21.1381 17.8465 20.2606 16.6765 19.6171Z" fill="url(#paint7_linear_195_734)"/>
<path d="M0.294922 18.0377C10.5909 11.8355 16.3836 10.6655 28.3761 9.43701C14.4519 20.4362 14.1009 18.0377 0.294922 18.0377Z" fill="url(#paint8_linear_195_734)"/>
<path d="M28.3761 9.49658L17.3184 17.5111" stroke="#4A4A4C" stroke-width="0.046875"/>
<path opacity="0.23" d="M15.2119 13.7659C15.3289 15.0541 15.0364 12.5386 15.2119 13.7659Z" fill="#231F20"/>
<path d="M0.294922 18.0377L17.3184 17.5112" stroke="#A8ABAD" stroke-width="0.046875"/>
<path d="M14.1589 13.8838C11.2339 14.7028 1.63993 16.8088 1.52171 18.0385C1.22921 20.32 1.46443 23.947 1.46443 23.947" stroke="#F16922" stroke-width="0.046875"/>
<path d="M2.3423 32.6638C1.2893 30.0312 0.00229961 27.105 1.52208 23.478C2.5178 26.871 2.3423 29.4462 2.3423 32.6638Z" fill="#F16922"/>
<path d="M14.1868 13.5203C14.1434 13.3986 13.9108 13.3703 13.6674 13.4572C13.4239 13.544 13.2618 13.7131 13.3052 13.8348C13.3486 13.9565 13.5811 13.9848 13.8246 13.898C14.068 13.8111 14.2302 13.6421 14.1868 13.5203Z" fill="#6D6E70"/>
<defs>
<radialGradient id="paint0_radial_195_734" cx="0" cy="0" r="1" gradientUnits="userSpaceOnUse" gradientTransform="translate(80.4714 28.2131) scale(72.1573 72.1573)">
<stop stop-color="#FAAF40"/>
<stop offset="0.043" stop-color="#F9A538"/>
<stop offset="0.112" stop-color="#F89D31"/>
<stop offset="0.227" stop-color="#F89A2F"/>
<stop offset="0.528" stop-color="#F7922D"/>
<stop offset="1" stop-color="#F37B28"/>
</radialGradient>
<radialGradient id="paint1_radial_195_734" cx="0" cy="0" r="1" gradientUnits="userSpaceOnUse" gradientTransform="translate(80.4679 28.2129) scale(72.1512 72.1512)">
<stop stop-color="#FAAF40"/>
<stop offset="0.043" stop-color="#F9A538"/>
<stop offset="0.112" stop-color="#F89D31"/>
<stop offset="0.227" stop-color="#F89A2F"/>
<stop offset="0.528" stop-color="#F7922D"/>
<stop offset="1" stop-color="#F37B28"/>
</radialGradient>
<radialGradient id="paint2_radial_195_734" cx="0" cy="0" r="1" gradientUnits="userSpaceOnUse" gradientTransform="translate(80.4704 28.2129) scale(72.1549 72.1549)">
<stop stop-color="#FAAF40"/>
<stop offset="0.043" stop-color="#F9A538"/>
<stop offset="0.112" stop-color="#F89D31"/>
<stop offset="0.227" stop-color="#F89A2F"/>
<stop offset="0.528" stop-color="#F7922D"/>
<stop offset="1" stop-color="#F37B28"/>
</radialGradient>
<radialGradient id="paint3_radial_195_734" cx="0" cy="0" r="1" gradientUnits="userSpaceOnUse" gradientTransform="translate(80.4695 28.2127) scale(72.1561 72.1561)">
<stop stop-color="#FAAF40"/>
<stop offset="0.043" stop-color="#F9A538"/>
<stop offset="0.112" stop-color="#F89D31"/>
<stop offset="0.227" stop-color="#F89A2F"/>
<stop offset="0.528" stop-color="#F7922D"/>
<stop offset="1" stop-color="#F37B28"/>
</radialGradient>
<radialGradient id="paint4_radial_195_734" cx="0" cy="0" r="1" gradientUnits="userSpaceOnUse" gradientTransform="translate(80.4683 28.2115) scale(72.1561 72.1561)">
<stop stop-color="#FAAF40"/>
<stop offset="0.043" stop-color="#F9A538"/>
<stop offset="0.112" stop-color="#F89D31"/>
<stop offset="0.227" stop-color="#F89A2F"/>
<stop offset="0.528" stop-color="#F7922D"/>
<stop offset="1" stop-color="#F37B28"/>
</radialGradient>
<radialGradient id="paint5_radial_195_734" cx="0" cy="0" r="1" gradientUnits="userSpaceOnUse" gradientTransform="translate(80.4719 28.2127) scale(72.1512 72.1512)">
<stop stop-color="#FAAF40"/>
<stop offset="0.043" stop-color="#F9A538"/>
<stop offset="0.112" stop-color="#F89D31"/>
<stop offset="0.227" stop-color="#F89A2F"/>
<stop offset="0.528" stop-color="#F7922D"/>
<stop offset="1" stop-color="#F37B28"/>
</radialGradient>
<linearGradient id="paint6_linear_195_734" x1="8.71753" y1="18.7161" x2="24.0823" y2="18.7161" gradientUnits="userSpaceOnUse">
<stop stop-color="#929497"/>
<stop offset="0.124" stop-color="#757578"/>
<stop offset="0.279" stop-color="#575658"/>
<stop offset="0.44" stop-color="#403E3F"/>
<stop offset="0.609" stop-color="#302D2E"/>
<stop offset="0.788" stop-color="#262223"/>
<stop offset="1" stop-color="#231F20"/>
</linearGradient>
<linearGradient id="paint7_linear_195_734" x1="11.6662" y1="13.5903" x2="18.0464" y2="22.7005" gradientUnits="userSpaceOnUse">
<stop stop-color="#231F20"/>
<stop offset="1" stop-color="#231F20" stop-opacity="0"/>
</linearGradient>
<linearGradient id="paint8_linear_195_734" x1="0.293703" y1="13.8489" x2="28.3749" y2="13.8489" gradientUnits="userSpaceOnUse">
<stop stop-color="#929497"/>
<stop offset="0.124" stop-color="#757578"/>
<stop offset="0.279" stop-color="#575658"/>
<stop offset="0.44" stop-color="#403E3F"/>
<stop offset="0.609" stop-color="#302D2E"/>
<stop offset="0.788" stop-color="#262223"/>
<stop offset="1" stop-color="#231F20"/>
</linearGradient>
</defs>
</svg>
