<svg width="189" height="37" viewBox="0 0 189 37" fill="none" xmlns="http://www.w3.org/2000/svg">
<path d="M33.7316 0H3.55061C1.58966 0 0 1.57763 0 3.52374V33.4763C0 35.4224 1.58966 37 3.55061 37H33.7316C35.6925 37 37.2822 35.4224 37.2822 33.4763V3.52374C37.2822 1.57763 35.6925 0 33.7316 0Z" fill="url(#paint0_linear_140_1021)"/>
<path fill-rule="evenodd" clip-rule="evenodd" d="M9.37604 30.3196C10.8611 31.2359 13.8313 32.0324 16.7211 32.0324C23.665 32.0324 26.9561 28.2882 26.9561 23.9463C26.9561 20.0819 24.7073 17.7324 20.0123 15.98C16.3991 14.5859 14.8343 13.6295 14.8343 11.5585C14.8343 9.96548 16.1583 8.33132 19.289 8.33132C21.8174 8.33132 23.7043 9.08879 24.7073 9.60576L25.8713 5.66321C24.4665 4.94582 22.3399 4.30859 19.4091 4.30859C13.5092 4.30859 9.81669 7.61496 9.81669 12.0365C9.81669 15.8999 12.6667 18.2504 17.1623 19.8435C20.5747 21.0783 21.9386 22.2742 21.9386 24.305C21.9386 26.4957 20.1729 27.9691 17.0417 27.9691C14.5132 27.9691 12.0655 27.1725 10.4997 26.2568L9.375 30.3196H9.37604Z" fill="white"/>
<path fill-rule="evenodd" clip-rule="evenodd" d="M49.6439 25.1885C52.3831 25.1885 54.3042 23.7455 54.3042 21.322V21.285C54.3042 19.139 52.8683 18.1585 50.1099 17.4925C47.6115 16.9005 47.015 16.4565 47.015 15.4575V15.4205C47.015 14.5695 47.7979 13.885 49.1401 13.885C50.3331 13.885 51.5075 14.3475 52.6819 15.217L53.9127 13.4965C52.5892 12.442 51.0788 11.8685 49.1774 11.8685C46.5868 11.8685 44.7227 13.404 44.7227 15.624L44.7211 15.661C44.7211 18.0475 46.2875 18.8615 49.0655 19.5275C51.4878 20.0825 52.0103 20.582 52.0103 21.507V21.544C52.0103 22.5245 51.1155 23.172 49.6988 23.172C48.077 23.172 46.8281 22.5615 45.5791 21.4885L44.2002 23.1165C45.7671 24.504 47.6483 25.1885 49.6439 25.1885ZM56.2926 25.0035H58.5487V15.7535L62.6311 21.8215H62.7056L66.8253 15.7165V25.0035H69.1182V12.0535H66.6762L62.7056 18.177L58.7351 12.0535H56.2931L56.2926 25.0035ZM70.641 25.0035L76.3835 11.961H78.5081L84.2495 25.0035H81.8262L80.5027 21.877H74.3325L72.9903 25.0035H70.641ZM75.1719 19.8605H79.6638L77.4083 14.6805L75.1713 19.8605H75.1719ZM85.7729 25.0035V12.0535H91.589C93.2294 12.0535 94.5156 12.5345 95.3545 13.3485C96.0442 14.0515 96.4357 15.0135 96.4357 16.142V16.179C96.4357 18.3065 95.1494 19.583 93.3226 20.101L96.8458 25.0035H94.1428L90.9365 20.4895H88.0658V25.0035H85.7729ZM88.0658 18.473H91.4212C93.0616 18.473 94.1055 17.622 94.1055 16.3085V16.2715C94.1055 14.884 93.0989 14.1255 91.4026 14.1255H88.0658V18.473ZM101.687 25.0035H103.999V14.1625H108.137V12.0535H97.5489V14.1625H101.687V25.0035ZM114.134 25.1885C116.875 25.1885 118.795 23.7455 118.795 21.322V21.285C118.795 19.139 117.359 18.1585 114.6 17.4925C112.102 16.9005 111.506 16.4565 111.506 15.4575V15.4205C111.506 14.5695 112.289 13.885 113.631 13.885C114.824 13.885 115.998 14.3475 117.173 15.217L118.403 13.4965C117.08 12.442 115.57 11.8685 113.668 11.8685C111.077 11.8685 109.213 13.404 109.213 15.624V15.661C109.213 18.0475 110.779 18.8615 113.556 19.5275C115.98 20.0825 116.502 20.582 116.502 21.507V21.544C116.502 22.5245 115.607 23.172 114.19 23.172C112.568 23.172 111.32 22.5615 110.071 21.4885L108.691 23.1165C110.257 24.504 112.14 25.1885 114.134 25.1885ZM126.842 25.2255C129.284 25.2255 130.776 24.3375 132.136 22.9315L130.664 21.4515C129.545 22.4875 128.52 23.135 126.917 23.135C124.419 23.135 122.611 21.063 122.611 18.5285V18.4915C122.611 15.957 124.419 13.922 126.917 13.922C128.408 13.922 129.527 14.5695 130.571 15.5315L132.043 13.848C130.794 12.664 129.34 11.8315 126.936 11.8315C122.984 11.8315 120.206 14.847 120.206 18.5285V18.5655C120.206 22.284 123.04 25.2255 126.842 25.2255ZM133.828 25.0035H136.12V19.546H142.347V25.0035H144.639V12.0535H142.347V17.437H136.12V12.0535H133.828V25.0035ZM153.507 25.2255C149.499 25.2255 146.703 22.21 146.703 18.5655V18.5285C146.703 14.884 149.537 11.8315 153.544 11.8315C157.552 11.8315 160.348 14.847 160.348 18.4915V18.5285C160.348 22.173 157.516 25.2255 153.507 25.2255ZM153.544 23.135C156.136 23.135 157.944 21.0815 157.944 18.5655V18.5285C157.944 16.0125 156.098 13.922 153.506 13.922C150.916 13.922 149.108 15.9755 149.108 18.4915V18.5285C149.108 21.0445 150.953 23.135 153.543 23.135H153.544ZM168.638 25.2255C164.63 25.2255 161.834 22.21 161.834 18.5655V18.5285C161.834 14.884 164.668 11.8315 168.676 11.8315C172.683 11.8315 175.48 14.847 175.48 18.4915V18.5285C175.48 22.173 172.645 25.2255 168.637 25.2255H168.638ZM168.676 23.135C171.266 23.135 173.074 21.0815 173.074 18.5655V18.5285C173.074 16.0125 171.228 13.922 168.637 13.922C166.046 13.922 164.238 15.9755 164.238 18.4915V18.5285C164.238 21.0445 166.084 23.135 168.676 23.135ZM177.543 25.0035H186.695V22.9315H179.836V12.0535H177.543L177.543 25.0035Z" fill="#262626"/>
<defs>
<linearGradient id="paint0_linear_140_1021" x1="1864.11" y1="0" x2="1864.11" y2="3700" gradientUnits="userSpaceOnUse">
<stop stop-color="#FF840E"/>
<stop offset="0.08431" stop-color="#FF710E"/>
<stop offset="0.73477" stop-color="#FF0000"/>
<stop offset="1" stop-color="#F10A00"/>
</linearGradient>
</defs>
</svg>
